G04 #@! TF.FileFunction,Legend,Top*
%FSLAX46Y46*%
G04 Gerber Fmt 4.6, Leading zero omitted, Abs format (unit mm)*
G04 Created by KiCad (PCBNEW 4.0.4-stable) date 11/17/16 16:54:24*
%MOMM*%
%LPD*%
G01*
G04 APERTURE LIST*
%ADD10C,0.100000*%
%ADD11C,0.254000*%
%ADD12C,0.203200*%
%ADD13C,0.127000*%
%ADD14C,0.150000*%
%ADD15C,0.152400*%
%ADD16C,0.101600*%
%ADD17C,0.032512*%
G04 APERTURE END LIST*
D10*
D11*
X160000000Y-101500000D02*
X110000000Y-101500000D01*
X110000000Y-101500000D02*
X110000000Y-51500000D01*
X110000000Y-51500000D02*
X160000000Y-51500000D01*
X160000000Y-51500000D02*
X160000000Y-101500000D01*
D12*
X123750002Y-86250001D02*
G75*
G02X124500000Y-92000000I-1062501J-3062499D01*
G01*
X121250000Y-86250000D02*
G75*
G03X120500000Y-92000000I1062500J-3062500D01*
G01*
X120500000Y-92000000D02*
X121250000Y-92000000D01*
X124500000Y-92000000D02*
X123750000Y-92000000D01*
X123750002Y-61250001D02*
G75*
G02X124500000Y-67000000I-1062501J-3062499D01*
G01*
X121250000Y-61250000D02*
G75*
G03X120500000Y-67000000I1062500J-3062500D01*
G01*
X120500000Y-67000000D02*
X121250000Y-67000000D01*
X124500000Y-67000000D02*
X123750000Y-67000000D01*
X148750002Y-86250001D02*
G75*
G02X149500000Y-92000000I-1062501J-3062499D01*
G01*
X146250000Y-86250000D02*
G75*
G03X145500000Y-92000000I1062500J-3062500D01*
G01*
X145500000Y-92000000D02*
X146250000Y-92000000D01*
X149500000Y-92000000D02*
X148750000Y-92000000D01*
X148750002Y-61250001D02*
G75*
G02X149500000Y-67000000I-1062501J-3062499D01*
G01*
X146250000Y-61250000D02*
G75*
G03X145500000Y-67000000I1062500J-3062500D01*
G01*
X145500000Y-67000000D02*
X146250000Y-67000000D01*
X149500000Y-67000000D02*
X148750000Y-67000000D01*
D13*
X120535000Y-92354000D02*
X124535000Y-92354000D01*
X120535000Y-92354000D02*
G75*
G02X124535000Y-92354000I2000000J3000000D01*
G01*
X120535000Y-67335000D02*
X124535000Y-67335000D01*
X120535000Y-67335000D02*
G75*
G02X124535000Y-67335000I2000000J3000000D01*
G01*
X145554000Y-92354000D02*
X149554000Y-92354000D01*
X145554000Y-92354000D02*
G75*
G02X149554000Y-92354000I2000000J3000000D01*
G01*
X145554000Y-67335000D02*
X149554000Y-67335000D01*
X145554000Y-67335000D02*
G75*
G02X149554000Y-67335000I2000000J3000000D01*
G01*
D14*
X83044000Y-132079540D02*
X82028000Y-132079540D01*
X87870000Y-132079540D02*
X89140000Y-132079540D01*
X87616000Y-133349540D02*
X87616000Y-130809540D01*
X87362000Y-133349540D02*
X87362000Y-130809540D01*
X87108000Y-133349540D02*
X87108000Y-130809540D01*
X87870000Y-133349540D02*
X87870000Y-130809540D01*
X86854000Y-133349540D02*
X88124000Y-130809540D01*
X88124000Y-133349540D02*
X86854000Y-130809540D01*
X86854000Y-133349540D02*
X86854000Y-130809540D01*
X87489000Y-133349540D02*
X87489000Y-130809540D01*
X88124000Y-130809540D02*
X88124000Y-133349540D01*
X88124000Y-133349540D02*
X83044000Y-133349540D01*
X83044000Y-133349540D02*
X83044000Y-130809540D01*
X83044000Y-130809540D02*
X88124000Y-130809540D01*
X83044000Y-128325540D02*
X82028000Y-128325540D01*
X87870000Y-128325540D02*
X89140000Y-128325540D01*
X87616000Y-129595540D02*
X87616000Y-127055540D01*
X87362000Y-129595540D02*
X87362000Y-127055540D01*
X87108000Y-129595540D02*
X87108000Y-127055540D01*
X87870000Y-129595540D02*
X87870000Y-127055540D01*
X86854000Y-129595540D02*
X88124000Y-127055540D01*
X88124000Y-129595540D02*
X86854000Y-127055540D01*
X86854000Y-129595540D02*
X86854000Y-127055540D01*
X87489000Y-129595540D02*
X87489000Y-127055540D01*
X88124000Y-127055540D02*
X88124000Y-129595540D01*
X88124000Y-129595540D02*
X83044000Y-129595540D01*
X83044000Y-129595540D02*
X83044000Y-127055540D01*
X83044000Y-127055540D02*
X88124000Y-127055540D01*
X83044000Y-81280040D02*
X82028000Y-81280040D01*
X87870000Y-81280040D02*
X89140000Y-81280040D01*
X87616000Y-82550040D02*
X87616000Y-80010040D01*
X87362000Y-82550040D02*
X87362000Y-80010040D01*
X87108000Y-82550040D02*
X87108000Y-80010040D01*
X87870000Y-82550040D02*
X87870000Y-80010040D01*
X86854000Y-82550040D02*
X88124000Y-80010040D01*
X88124000Y-82550040D02*
X86854000Y-80010040D01*
X86854000Y-82550040D02*
X86854000Y-80010040D01*
X87489000Y-82550040D02*
X87489000Y-80010040D01*
X88124000Y-80010040D02*
X88124000Y-82550040D01*
X88124000Y-82550040D02*
X83044000Y-82550040D01*
X83044000Y-82550040D02*
X83044000Y-80010040D01*
X83044000Y-80010040D02*
X88124000Y-80010040D01*
X83044000Y-74985140D02*
X82028000Y-74985140D01*
X87870000Y-74985140D02*
X89140000Y-74985140D01*
X87616000Y-76255140D02*
X87616000Y-73715140D01*
X87362000Y-76255140D02*
X87362000Y-73715140D01*
X87108000Y-76255140D02*
X87108000Y-73715140D01*
X87870000Y-76255140D02*
X87870000Y-73715140D01*
X86854000Y-76255140D02*
X88124000Y-73715140D01*
X88124000Y-76255140D02*
X86854000Y-73715140D01*
X86854000Y-76255140D02*
X86854000Y-73715140D01*
X87489000Y-76255140D02*
X87489000Y-73715140D01*
X88124000Y-73715140D02*
X88124000Y-76255140D01*
X88124000Y-76255140D02*
X83044000Y-76255140D01*
X83044000Y-76255140D02*
X83044000Y-73715140D01*
X83044000Y-73715140D02*
X88124000Y-73715140D01*
X107174000Y-130809540D02*
X106158000Y-130809540D01*
X112000000Y-130809540D02*
X113270000Y-130809540D01*
X111746000Y-132079540D02*
X111746000Y-129539540D01*
X111492000Y-132079540D02*
X111492000Y-129539540D01*
X111238000Y-132079540D02*
X111238000Y-129539540D01*
X112000000Y-132079540D02*
X112000000Y-129539540D01*
X110984000Y-132079540D02*
X112254000Y-129539540D01*
X112254000Y-132079540D02*
X110984000Y-129539540D01*
X110984000Y-132079540D02*
X110984000Y-129539540D01*
X111619000Y-132079540D02*
X111619000Y-129539540D01*
X112254000Y-129539540D02*
X112254000Y-132079540D01*
X112254000Y-132079540D02*
X107174000Y-132079540D01*
X107174000Y-132079540D02*
X107174000Y-129539540D01*
X107174000Y-129539540D02*
X112254000Y-129539540D01*
X107174000Y-125785540D02*
X106158000Y-125785540D01*
X112000000Y-125785540D02*
X113270000Y-125785540D01*
X111746000Y-127055540D02*
X111746000Y-124515540D01*
X111492000Y-127055540D02*
X111492000Y-124515540D01*
X111238000Y-127055540D02*
X111238000Y-124515540D01*
X112000000Y-127055540D02*
X112000000Y-124515540D01*
X110984000Y-127055540D02*
X112254000Y-124515540D01*
X112254000Y-127055540D02*
X110984000Y-124515540D01*
X110984000Y-127055540D02*
X110984000Y-124515540D01*
X111619000Y-127055540D02*
X111619000Y-124515540D01*
X112254000Y-124515540D02*
X112254000Y-127055540D01*
X112254000Y-127055540D02*
X107174000Y-127055540D01*
X107174000Y-127055540D02*
X107174000Y-124515540D01*
X107174000Y-124515540D02*
X112254000Y-124515540D01*
X106680000Y-81280040D02*
X105664000Y-81280040D01*
X111506000Y-81280040D02*
X112776000Y-81280040D01*
X111252000Y-82550040D02*
X111252000Y-80010040D01*
X110998000Y-82550040D02*
X110998000Y-80010040D01*
X110744000Y-82550040D02*
X110744000Y-80010040D01*
X111506000Y-82550040D02*
X111506000Y-80010040D01*
X110490000Y-82550040D02*
X111760000Y-80010040D01*
X111760000Y-82550040D02*
X110490000Y-80010040D01*
X110490000Y-82550040D02*
X110490000Y-80010040D01*
X111125000Y-82550040D02*
X111125000Y-80010040D01*
X111760000Y-80010040D02*
X111760000Y-82550040D01*
X111760000Y-82550040D02*
X106680000Y-82550040D01*
X106680000Y-82550040D02*
X106680000Y-80010040D01*
X106680000Y-80010040D02*
X111760000Y-80010040D01*
X106765000Y-74985140D02*
X105749000Y-74985140D01*
X111591000Y-74985140D02*
X112861000Y-74985140D01*
X111337000Y-76255140D02*
X111337000Y-73715140D01*
X111083000Y-76255140D02*
X111083000Y-73715140D01*
X110829000Y-76255140D02*
X110829000Y-73715140D01*
X111591000Y-76255140D02*
X111591000Y-73715140D01*
X110575000Y-76255140D02*
X111845000Y-73715140D01*
X111845000Y-76255140D02*
X110575000Y-73715140D01*
X110575000Y-76255140D02*
X110575000Y-73715140D01*
X111210000Y-76255140D02*
X111210000Y-73715140D01*
X111845000Y-73715140D02*
X111845000Y-76255140D01*
X111845000Y-76255140D02*
X106765000Y-76255140D01*
X106765000Y-76255140D02*
X106765000Y-73715140D01*
X106765000Y-73715140D02*
X111845000Y-73715140D01*
X135114000Y-130809540D02*
X134098000Y-130809540D01*
X139940000Y-130809540D02*
X141210000Y-130809540D01*
X139686000Y-132079540D02*
X139686000Y-129539540D01*
X139432000Y-132079540D02*
X139432000Y-129539540D01*
X139178000Y-132079540D02*
X139178000Y-129539540D01*
X139940000Y-132079540D02*
X139940000Y-129539540D01*
X138924000Y-132079540D02*
X140194000Y-129539540D01*
X140194000Y-132079540D02*
X138924000Y-129539540D01*
X138924000Y-132079540D02*
X138924000Y-129539540D01*
X139559000Y-132079540D02*
X139559000Y-129539540D01*
X140194000Y-129539540D02*
X140194000Y-132079540D01*
X140194000Y-132079540D02*
X135114000Y-132079540D01*
X135114000Y-132079540D02*
X135114000Y-129539540D01*
X135114000Y-129539540D02*
X140194000Y-129539540D01*
X135114000Y-125729540D02*
X134098000Y-125729540D01*
X139940000Y-125729540D02*
X141210000Y-125729540D01*
X139686000Y-126999540D02*
X139686000Y-124459540D01*
X139432000Y-126999540D02*
X139432000Y-124459540D01*
X139178000Y-126999540D02*
X139178000Y-124459540D01*
X139940000Y-126999540D02*
X139940000Y-124459540D01*
X138924000Y-126999540D02*
X140194000Y-124459540D01*
X140194000Y-126999540D02*
X138924000Y-124459540D01*
X138924000Y-126999540D02*
X138924000Y-124459540D01*
X139559000Y-126999540D02*
X139559000Y-124459540D01*
X140194000Y-124459540D02*
X140194000Y-126999540D01*
X140194000Y-126999540D02*
X135114000Y-126999540D01*
X135114000Y-126999540D02*
X135114000Y-124459540D01*
X135114000Y-124459540D02*
X140194000Y-124459540D01*
X135114000Y-81280040D02*
X134098000Y-81280040D01*
X139940000Y-81280040D02*
X141210000Y-81280040D01*
X139686000Y-82550040D02*
X139686000Y-80010040D01*
X139432000Y-82550040D02*
X139432000Y-80010040D01*
X139178000Y-82550040D02*
X139178000Y-80010040D01*
X139940000Y-82550040D02*
X139940000Y-80010040D01*
X138924000Y-82550040D02*
X140194000Y-80010040D01*
X140194000Y-82550040D02*
X138924000Y-80010040D01*
X138924000Y-82550040D02*
X138924000Y-80010040D01*
X139559000Y-82550040D02*
X139559000Y-80010040D01*
X140194000Y-80010040D02*
X140194000Y-82550040D01*
X140194000Y-82550040D02*
X135114000Y-82550040D01*
X135114000Y-82550040D02*
X135114000Y-80010040D01*
X135114000Y-80010040D02*
X140194000Y-80010040D01*
X135114000Y-74930040D02*
X134098000Y-74930040D01*
X139940000Y-74930040D02*
X141210000Y-74930040D01*
X139686000Y-76200040D02*
X139686000Y-73660040D01*
X139432000Y-76200040D02*
X139432000Y-73660040D01*
X139178000Y-76200040D02*
X139178000Y-73660040D01*
X139940000Y-76200040D02*
X139940000Y-73660040D01*
X138924000Y-76200040D02*
X140194000Y-73660040D01*
X140194000Y-76200040D02*
X138924000Y-73660040D01*
X138924000Y-76200040D02*
X138924000Y-73660040D01*
X139559000Y-76200040D02*
X139559000Y-73660040D01*
X140194000Y-73660040D02*
X140194000Y-76200040D01*
X140194000Y-76200040D02*
X135114000Y-76200040D01*
X135114000Y-76200040D02*
X135114000Y-73660040D01*
X135114000Y-73660040D02*
X140194000Y-73660040D01*
X157974000Y-130809540D02*
X156958000Y-130809540D01*
X162800000Y-130809540D02*
X164070000Y-130809540D01*
X162546000Y-132079540D02*
X162546000Y-129539540D01*
X162292000Y-132079540D02*
X162292000Y-129539540D01*
X162038000Y-132079540D02*
X162038000Y-129539540D01*
X162800000Y-132079540D02*
X162800000Y-129539540D01*
X161784000Y-132079540D02*
X163054000Y-129539540D01*
X163054000Y-132079540D02*
X161784000Y-129539540D01*
X161784000Y-132079540D02*
X161784000Y-129539540D01*
X162419000Y-132079540D02*
X162419000Y-129539540D01*
X163054000Y-129539540D02*
X163054000Y-132079540D01*
X163054000Y-132079540D02*
X157974000Y-132079540D01*
X157974000Y-132079540D02*
X157974000Y-129539540D01*
X157974000Y-129539540D02*
X163054000Y-129539540D01*
X157974000Y-125729540D02*
X156958000Y-125729540D01*
X162800000Y-125729540D02*
X164070000Y-125729540D01*
X162546000Y-126999540D02*
X162546000Y-124459540D01*
X162292000Y-126999540D02*
X162292000Y-124459540D01*
X162038000Y-126999540D02*
X162038000Y-124459540D01*
X162800000Y-126999540D02*
X162800000Y-124459540D01*
X161784000Y-126999540D02*
X163054000Y-124459540D01*
X163054000Y-126999540D02*
X161784000Y-124459540D01*
X161784000Y-126999540D02*
X161784000Y-124459540D01*
X162419000Y-126999540D02*
X162419000Y-124459540D01*
X163054000Y-124459540D02*
X163054000Y-126999540D01*
X163054000Y-126999540D02*
X157974000Y-126999540D01*
X157974000Y-126999540D02*
X157974000Y-124459540D01*
X157974000Y-124459540D02*
X163054000Y-124459540D01*
X157974000Y-99115140D02*
X156958000Y-99115140D01*
X162800000Y-99115140D02*
X164070000Y-99115140D01*
X162546000Y-100385140D02*
X162546000Y-97845140D01*
X162292000Y-100385140D02*
X162292000Y-97845140D01*
X162038000Y-100385140D02*
X162038000Y-97845140D01*
X162800000Y-100385140D02*
X162800000Y-97845140D01*
X161784000Y-100385140D02*
X163054000Y-97845140D01*
X163054000Y-100385140D02*
X161784000Y-97845140D01*
X161784000Y-100385140D02*
X161784000Y-97845140D01*
X162419000Y-100385140D02*
X162419000Y-97845140D01*
X163054000Y-97845140D02*
X163054000Y-100385140D01*
X163054000Y-100385140D02*
X157974000Y-100385140D01*
X157974000Y-100385140D02*
X157974000Y-97845140D01*
X157974000Y-97845140D02*
X163054000Y-97845140D01*
X157974000Y-73715140D02*
X156958000Y-73715140D01*
X162800000Y-73715140D02*
X164070000Y-73715140D01*
X162546000Y-74985140D02*
X162546000Y-72445140D01*
X162292000Y-74985140D02*
X162292000Y-72445140D01*
X162038000Y-74985140D02*
X162038000Y-72445140D01*
X162800000Y-74985140D02*
X162800000Y-72445140D01*
X161784000Y-74985140D02*
X163054000Y-72445140D01*
X163054000Y-74985140D02*
X161784000Y-72445140D01*
X161784000Y-74985140D02*
X161784000Y-72445140D01*
X162419000Y-74985140D02*
X162419000Y-72445140D01*
X163054000Y-72445140D02*
X163054000Y-74985140D01*
X163054000Y-74985140D02*
X157974000Y-74985140D01*
X157974000Y-74985140D02*
X157974000Y-72445140D01*
X157974000Y-72445140D02*
X163054000Y-72445140D01*
D12*
X202565000Y-72390000D02*
X201295000Y-72390000D01*
X201295000Y-72390000D02*
X200660000Y-71755000D01*
X200660000Y-70485000D02*
X201295000Y-69850000D01*
X205740000Y-71755000D02*
X205105000Y-72390000D01*
X205105000Y-72390000D02*
X203835000Y-72390000D01*
X203835000Y-72390000D02*
X203200000Y-71755000D01*
X203200000Y-70485000D02*
X203835000Y-69850000D01*
X203835000Y-69850000D02*
X205105000Y-69850000D01*
X205105000Y-69850000D02*
X205740000Y-70485000D01*
X202565000Y-72390000D02*
X203200000Y-71755000D01*
X203200000Y-70485000D02*
X202565000Y-69850000D01*
X201295000Y-69850000D02*
X202565000Y-69850000D01*
X210185000Y-72390000D02*
X208915000Y-72390000D01*
X208915000Y-72390000D02*
X208280000Y-71755000D01*
X208280000Y-70485000D02*
X208915000Y-69850000D01*
X208280000Y-71755000D02*
X207645000Y-72390000D01*
X207645000Y-72390000D02*
X206375000Y-72390000D01*
X206375000Y-72390000D02*
X205740000Y-71755000D01*
X205740000Y-70485000D02*
X206375000Y-69850000D01*
X206375000Y-69850000D02*
X207645000Y-69850000D01*
X207645000Y-69850000D02*
X208280000Y-70485000D01*
X213360000Y-71755000D02*
X212725000Y-72390000D01*
X212725000Y-72390000D02*
X211455000Y-72390000D01*
X211455000Y-72390000D02*
X210820000Y-71755000D01*
X210820000Y-70485000D02*
X211455000Y-69850000D01*
X211455000Y-69850000D02*
X212725000Y-69850000D01*
X212725000Y-69850000D02*
X213360000Y-70485000D01*
X210185000Y-72390000D02*
X210820000Y-71755000D01*
X210820000Y-70485000D02*
X210185000Y-69850000D01*
X208915000Y-69850000D02*
X210185000Y-69850000D01*
X217805000Y-72390000D02*
X216535000Y-72390000D01*
X216535000Y-72390000D02*
X215900000Y-71755000D01*
X215900000Y-70485000D02*
X216535000Y-69850000D01*
X215900000Y-71755000D02*
X215265000Y-72390000D01*
X215265000Y-72390000D02*
X213995000Y-72390000D01*
X213995000Y-72390000D02*
X213360000Y-71755000D01*
X213360000Y-70485000D02*
X213995000Y-69850000D01*
X213995000Y-69850000D02*
X215265000Y-69850000D01*
X215265000Y-69850000D02*
X215900000Y-70485000D01*
X218440000Y-71755000D02*
X218440000Y-70485000D01*
X217805000Y-72390000D02*
X218440000Y-71755000D01*
X218440000Y-70485000D02*
X217805000Y-69850000D01*
X216535000Y-69850000D02*
X217805000Y-69850000D01*
X200025000Y-72390000D02*
X198755000Y-72390000D01*
X198755000Y-72390000D02*
X198120000Y-71755000D01*
X198120000Y-71755000D02*
X198120000Y-70485000D01*
X198120000Y-70485000D02*
X198755000Y-69850000D01*
X200025000Y-72390000D02*
X200660000Y-71755000D01*
X200660000Y-70485000D02*
X200025000Y-69850000D01*
X198755000Y-69850000D02*
X200025000Y-69850000D01*
X202565000Y-91440000D02*
X201295000Y-91440000D01*
X201295000Y-91440000D02*
X200660000Y-90805000D01*
X200660000Y-89535000D02*
X201295000Y-88900000D01*
X205740000Y-90805000D02*
X205105000Y-91440000D01*
X205105000Y-91440000D02*
X203835000Y-91440000D01*
X203835000Y-91440000D02*
X203200000Y-90805000D01*
X203200000Y-89535000D02*
X203835000Y-88900000D01*
X203835000Y-88900000D02*
X205105000Y-88900000D01*
X205105000Y-88900000D02*
X205740000Y-89535000D01*
X202565000Y-91440000D02*
X203200000Y-90805000D01*
X203200000Y-89535000D02*
X202565000Y-88900000D01*
X201295000Y-88900000D02*
X202565000Y-88900000D01*
X210185000Y-91440000D02*
X208915000Y-91440000D01*
X208915000Y-91440000D02*
X208280000Y-90805000D01*
X208280000Y-89535000D02*
X208915000Y-88900000D01*
X208280000Y-90805000D02*
X207645000Y-91440000D01*
X207645000Y-91440000D02*
X206375000Y-91440000D01*
X206375000Y-91440000D02*
X205740000Y-90805000D01*
X205740000Y-89535000D02*
X206375000Y-88900000D01*
X206375000Y-88900000D02*
X207645000Y-88900000D01*
X207645000Y-88900000D02*
X208280000Y-89535000D01*
X213360000Y-90805000D02*
X212725000Y-91440000D01*
X212725000Y-91440000D02*
X211455000Y-91440000D01*
X211455000Y-91440000D02*
X210820000Y-90805000D01*
X210820000Y-89535000D02*
X211455000Y-88900000D01*
X211455000Y-88900000D02*
X212725000Y-88900000D01*
X212725000Y-88900000D02*
X213360000Y-89535000D01*
X210185000Y-91440000D02*
X210820000Y-90805000D01*
X210820000Y-89535000D02*
X210185000Y-88900000D01*
X208915000Y-88900000D02*
X210185000Y-88900000D01*
X217805000Y-91440000D02*
X216535000Y-91440000D01*
X216535000Y-91440000D02*
X215900000Y-90805000D01*
X215900000Y-89535000D02*
X216535000Y-88900000D01*
X215900000Y-90805000D02*
X215265000Y-91440000D01*
X215265000Y-91440000D02*
X213995000Y-91440000D01*
X213995000Y-91440000D02*
X213360000Y-90805000D01*
X213360000Y-89535000D02*
X213995000Y-88900000D01*
X213995000Y-88900000D02*
X215265000Y-88900000D01*
X215265000Y-88900000D02*
X215900000Y-89535000D01*
X218440000Y-90805000D02*
X218440000Y-89535000D01*
X217805000Y-91440000D02*
X218440000Y-90805000D01*
X218440000Y-89535000D02*
X217805000Y-88900000D01*
X216535000Y-88900000D02*
X217805000Y-88900000D01*
X200025000Y-91440000D02*
X198755000Y-91440000D01*
X198755000Y-91440000D02*
X198120000Y-90805000D01*
X198120000Y-90805000D02*
X198120000Y-89535000D01*
X198120000Y-89535000D02*
X198755000Y-88900000D01*
X200025000Y-91440000D02*
X200660000Y-90805000D01*
X200660000Y-89535000D02*
X200025000Y-88900000D01*
X198755000Y-88900000D02*
X200025000Y-88900000D01*
X202565000Y-111760000D02*
X201295000Y-111760000D01*
X201295000Y-111760000D02*
X200660000Y-111125000D01*
X200660000Y-109855000D02*
X201295000Y-109220000D01*
X205740000Y-111125000D02*
X205105000Y-111760000D01*
X205105000Y-111760000D02*
X203835000Y-111760000D01*
X203835000Y-111760000D02*
X203200000Y-111125000D01*
X203200000Y-109855000D02*
X203835000Y-109220000D01*
X203835000Y-109220000D02*
X205105000Y-109220000D01*
X205105000Y-109220000D02*
X205740000Y-109855000D01*
X202565000Y-111760000D02*
X203200000Y-111125000D01*
X203200000Y-109855000D02*
X202565000Y-109220000D01*
X201295000Y-109220000D02*
X202565000Y-109220000D01*
X210185000Y-111760000D02*
X208915000Y-111760000D01*
X208915000Y-111760000D02*
X208280000Y-111125000D01*
X208280000Y-109855000D02*
X208915000Y-109220000D01*
X208280000Y-111125000D02*
X207645000Y-111760000D01*
X207645000Y-111760000D02*
X206375000Y-111760000D01*
X206375000Y-111760000D02*
X205740000Y-111125000D01*
X205740000Y-109855000D02*
X206375000Y-109220000D01*
X206375000Y-109220000D02*
X207645000Y-109220000D01*
X207645000Y-109220000D02*
X208280000Y-109855000D01*
X213360000Y-111125000D02*
X212725000Y-111760000D01*
X212725000Y-111760000D02*
X211455000Y-111760000D01*
X211455000Y-111760000D02*
X210820000Y-111125000D01*
X210820000Y-109855000D02*
X211455000Y-109220000D01*
X211455000Y-109220000D02*
X212725000Y-109220000D01*
X212725000Y-109220000D02*
X213360000Y-109855000D01*
X210185000Y-111760000D02*
X210820000Y-111125000D01*
X210820000Y-109855000D02*
X210185000Y-109220000D01*
X208915000Y-109220000D02*
X210185000Y-109220000D01*
X217805000Y-111760000D02*
X216535000Y-111760000D01*
X216535000Y-111760000D02*
X215900000Y-111125000D01*
X215900000Y-109855000D02*
X216535000Y-109220000D01*
X215900000Y-111125000D02*
X215265000Y-111760000D01*
X215265000Y-111760000D02*
X213995000Y-111760000D01*
X213995000Y-111760000D02*
X213360000Y-111125000D01*
X213360000Y-109855000D02*
X213995000Y-109220000D01*
X213995000Y-109220000D02*
X215265000Y-109220000D01*
X215265000Y-109220000D02*
X215900000Y-109855000D01*
X218440000Y-111125000D02*
X218440000Y-109855000D01*
X217805000Y-111760000D02*
X218440000Y-111125000D01*
X218440000Y-109855000D02*
X217805000Y-109220000D01*
X216535000Y-109220000D02*
X217805000Y-109220000D01*
X200025000Y-111760000D02*
X198755000Y-111760000D01*
X198755000Y-111760000D02*
X198120000Y-111125000D01*
X198120000Y-111125000D02*
X198120000Y-109855000D01*
X198120000Y-109855000D02*
X198755000Y-109220000D01*
X200025000Y-111760000D02*
X200660000Y-111125000D01*
X200660000Y-109855000D02*
X200025000Y-109220000D01*
X198755000Y-109220000D02*
X200025000Y-109220000D01*
X213995000Y-94035200D02*
X215265000Y-94035200D01*
X215265000Y-94035200D02*
X215900000Y-94670200D01*
X215900000Y-95940200D02*
X215265000Y-96575200D01*
X210820000Y-94670200D02*
X211455000Y-94035200D01*
X211455000Y-94035200D02*
X212725000Y-94035200D01*
X212725000Y-94035200D02*
X213360000Y-94670200D01*
X213360000Y-95940200D02*
X212725000Y-96575200D01*
X212725000Y-96575200D02*
X211455000Y-96575200D01*
X211455000Y-96575200D02*
X210820000Y-95940200D01*
X213995000Y-94035200D02*
X213360000Y-94670200D01*
X213360000Y-95940200D02*
X213995000Y-96575200D01*
X215265000Y-96575200D02*
X213995000Y-96575200D01*
X206375000Y-94035200D02*
X207645000Y-94035200D01*
X207645000Y-94035200D02*
X208280000Y-94670200D01*
X208280000Y-95940200D02*
X207645000Y-96575200D01*
X208280000Y-94670200D02*
X208915000Y-94035200D01*
X208915000Y-94035200D02*
X210185000Y-94035200D01*
X210185000Y-94035200D02*
X210820000Y-94670200D01*
X210820000Y-95940200D02*
X210185000Y-96575200D01*
X210185000Y-96575200D02*
X208915000Y-96575200D01*
X208915000Y-96575200D02*
X208280000Y-95940200D01*
X203200000Y-94670200D02*
X203835000Y-94035200D01*
X203835000Y-94035200D02*
X205105000Y-94035200D01*
X205105000Y-94035200D02*
X205740000Y-94670200D01*
X205740000Y-95940200D02*
X205105000Y-96575200D01*
X205105000Y-96575200D02*
X203835000Y-96575200D01*
X203835000Y-96575200D02*
X203200000Y-95940200D01*
X206375000Y-94035200D02*
X205740000Y-94670200D01*
X205740000Y-95940200D02*
X206375000Y-96575200D01*
X207645000Y-96575200D02*
X206375000Y-96575200D01*
X198755000Y-94035200D02*
X200025000Y-94035200D01*
X200025000Y-94035200D02*
X200660000Y-94670200D01*
X200660000Y-95940200D02*
X200025000Y-96575200D01*
X200660000Y-94670200D02*
X201295000Y-94035200D01*
X201295000Y-94035200D02*
X202565000Y-94035200D01*
X202565000Y-94035200D02*
X203200000Y-94670200D01*
X203200000Y-95940200D02*
X202565000Y-96575200D01*
X202565000Y-96575200D02*
X201295000Y-96575200D01*
X201295000Y-96575200D02*
X200660000Y-95940200D01*
X198120000Y-94670200D02*
X198120000Y-95940200D01*
X198755000Y-94035200D02*
X198120000Y-94670200D01*
X198120000Y-95940200D02*
X198755000Y-96575200D01*
X200025000Y-96575200D02*
X198755000Y-96575200D01*
X216535000Y-94035200D02*
X217805000Y-94035200D01*
X217805000Y-94035200D02*
X218440000Y-94670200D01*
X218440000Y-94670200D02*
X218440000Y-95940200D01*
X218440000Y-95940200D02*
X217805000Y-96575200D01*
X216535000Y-94035200D02*
X215900000Y-94670200D01*
X215900000Y-95940200D02*
X216535000Y-96575200D01*
X217805000Y-96575200D02*
X216535000Y-96575200D01*
X202555000Y-85090000D02*
X201285000Y-85090000D01*
X201285000Y-85090000D02*
X200650000Y-84455000D01*
X200650000Y-83185000D02*
X201285000Y-82550000D01*
X205730000Y-84455000D02*
X205095000Y-85090000D01*
X205095000Y-85090000D02*
X203825000Y-85090000D01*
X203825000Y-85090000D02*
X203190000Y-84455000D01*
X203190000Y-83185000D02*
X203825000Y-82550000D01*
X203825000Y-82550000D02*
X205095000Y-82550000D01*
X205095000Y-82550000D02*
X205730000Y-83185000D01*
X202555000Y-85090000D02*
X203190000Y-84455000D01*
X203190000Y-83185000D02*
X202555000Y-82550000D01*
X201285000Y-82550000D02*
X202555000Y-82550000D01*
X210175000Y-85090000D02*
X208905000Y-85090000D01*
X208905000Y-85090000D02*
X208270000Y-84455000D01*
X208270000Y-83185000D02*
X208905000Y-82550000D01*
X208270000Y-84455000D02*
X207635000Y-85090000D01*
X207635000Y-85090000D02*
X206365000Y-85090000D01*
X206365000Y-85090000D02*
X205730000Y-84455000D01*
X205730000Y-83185000D02*
X206365000Y-82550000D01*
X206365000Y-82550000D02*
X207635000Y-82550000D01*
X207635000Y-82550000D02*
X208270000Y-83185000D01*
X213350000Y-84455000D02*
X212715000Y-85090000D01*
X212715000Y-85090000D02*
X211445000Y-85090000D01*
X211445000Y-85090000D02*
X210810000Y-84455000D01*
X210810000Y-83185000D02*
X211445000Y-82550000D01*
X211445000Y-82550000D02*
X212715000Y-82550000D01*
X212715000Y-82550000D02*
X213350000Y-83185000D01*
X210175000Y-85090000D02*
X210810000Y-84455000D01*
X210810000Y-83185000D02*
X210175000Y-82550000D01*
X208905000Y-82550000D02*
X210175000Y-82550000D01*
X217795000Y-85090000D02*
X216525000Y-85090000D01*
X216525000Y-85090000D02*
X215890000Y-84455000D01*
X215890000Y-83185000D02*
X216525000Y-82550000D01*
X215890000Y-84455000D02*
X215255000Y-85090000D01*
X215255000Y-85090000D02*
X213985000Y-85090000D01*
X213985000Y-85090000D02*
X213350000Y-84455000D01*
X213350000Y-83185000D02*
X213985000Y-82550000D01*
X213985000Y-82550000D02*
X215255000Y-82550000D01*
X215255000Y-82550000D02*
X215890000Y-83185000D01*
X218430000Y-84455000D02*
X218430000Y-83185000D01*
X217795000Y-85090000D02*
X218430000Y-84455000D01*
X218430000Y-83185000D02*
X217795000Y-82550000D01*
X216525000Y-82550000D02*
X217795000Y-82550000D01*
X200015000Y-85090000D02*
X198745000Y-85090000D01*
X198745000Y-85090000D02*
X198110000Y-84455000D01*
X198110000Y-84455000D02*
X198110000Y-83185000D01*
X198110000Y-83185000D02*
X198745000Y-82550000D01*
X200015000Y-85090000D02*
X200650000Y-84455000D01*
X200650000Y-83185000D02*
X200015000Y-82550000D01*
X198745000Y-82550000D02*
X200015000Y-82550000D01*
X213985000Y-74603800D02*
X215255000Y-74603800D01*
X215255000Y-74603800D02*
X215890000Y-75238800D01*
X215890000Y-76508800D02*
X215255000Y-77143800D01*
X210810000Y-75238800D02*
X211445000Y-74603800D01*
X211445000Y-74603800D02*
X212715000Y-74603800D01*
X212715000Y-74603800D02*
X213350000Y-75238800D01*
X213350000Y-76508800D02*
X212715000Y-77143800D01*
X212715000Y-77143800D02*
X211445000Y-77143800D01*
X211445000Y-77143800D02*
X210810000Y-76508800D01*
X213985000Y-74603800D02*
X213350000Y-75238800D01*
X213350000Y-76508800D02*
X213985000Y-77143800D01*
X215255000Y-77143800D02*
X213985000Y-77143800D01*
X206365000Y-74603800D02*
X207635000Y-74603800D01*
X207635000Y-74603800D02*
X208270000Y-75238800D01*
X208270000Y-76508800D02*
X207635000Y-77143800D01*
X208270000Y-75238800D02*
X208905000Y-74603800D01*
X208905000Y-74603800D02*
X210175000Y-74603800D01*
X210175000Y-74603800D02*
X210810000Y-75238800D01*
X210810000Y-76508800D02*
X210175000Y-77143800D01*
X210175000Y-77143800D02*
X208905000Y-77143800D01*
X208905000Y-77143800D02*
X208270000Y-76508800D01*
X203190000Y-75238800D02*
X203825000Y-74603800D01*
X203825000Y-74603800D02*
X205095000Y-74603800D01*
X205095000Y-74603800D02*
X205730000Y-75238800D01*
X205730000Y-76508800D02*
X205095000Y-77143800D01*
X205095000Y-77143800D02*
X203825000Y-77143800D01*
X203825000Y-77143800D02*
X203190000Y-76508800D01*
X206365000Y-74603800D02*
X205730000Y-75238800D01*
X205730000Y-76508800D02*
X206365000Y-77143800D01*
X207635000Y-77143800D02*
X206365000Y-77143800D01*
X198745000Y-74603800D02*
X200015000Y-74603800D01*
X200015000Y-74603800D02*
X200650000Y-75238800D01*
X200650000Y-76508800D02*
X200015000Y-77143800D01*
X200650000Y-75238800D02*
X201285000Y-74603800D01*
X201285000Y-74603800D02*
X202555000Y-74603800D01*
X202555000Y-74603800D02*
X203190000Y-75238800D01*
X203190000Y-76508800D02*
X202555000Y-77143800D01*
X202555000Y-77143800D02*
X201285000Y-77143800D01*
X201285000Y-77143800D02*
X200650000Y-76508800D01*
X198110000Y-75238800D02*
X198110000Y-76508800D01*
X198745000Y-74603800D02*
X198110000Y-75238800D01*
X198110000Y-76508800D02*
X198745000Y-77143800D01*
X200015000Y-77143800D02*
X198745000Y-77143800D01*
X216525000Y-74603800D02*
X217795000Y-74603800D01*
X217795000Y-74603800D02*
X218430000Y-75238800D01*
X218430000Y-75238800D02*
X218430000Y-76508800D01*
X218430000Y-76508800D02*
X217795000Y-77143800D01*
X216525000Y-74603800D02*
X215890000Y-75238800D01*
X215890000Y-76508800D02*
X216525000Y-77143800D01*
X217795000Y-77143800D02*
X216525000Y-77143800D01*
D11*
X110000000Y-151500000D02*
X60000000Y-151500000D01*
X60000000Y-151500000D02*
X60000000Y-101500000D01*
X60000000Y-101500000D02*
X110000000Y-101500000D01*
X110000000Y-101500000D02*
X110000000Y-151500000D01*
D12*
X73750002Y-136250001D02*
G75*
G02X74500000Y-142000000I-1062501J-3062499D01*
G01*
X71250000Y-136250000D02*
G75*
G03X70500000Y-142000000I1062500J-3062500D01*
G01*
X70500000Y-142000000D02*
X71250000Y-142000000D01*
X74500000Y-142000000D02*
X73750000Y-142000000D01*
X73750002Y-111250001D02*
G75*
G02X74500000Y-117000000I-1062501J-3062499D01*
G01*
X71250000Y-111250000D02*
G75*
G03X70500000Y-117000000I1062500J-3062500D01*
G01*
X70500000Y-117000000D02*
X71250000Y-117000000D01*
X74500000Y-117000000D02*
X73750000Y-117000000D01*
X98750002Y-136250001D02*
G75*
G02X99500000Y-142000000I-1062501J-3062499D01*
G01*
X96250000Y-136250000D02*
G75*
G03X95500000Y-142000000I1062500J-3062500D01*
G01*
X95500000Y-142000000D02*
X96250000Y-142000000D01*
X99500000Y-142000000D02*
X98750000Y-142000000D01*
X98750002Y-111250001D02*
G75*
G02X99500000Y-117000000I-1062501J-3062499D01*
G01*
X96250000Y-111250000D02*
G75*
G03X95500000Y-117000000I1062500J-3062500D01*
G01*
X95500000Y-117000000D02*
X96250000Y-117000000D01*
X99500000Y-117000000D02*
X98750000Y-117000000D01*
D13*
X70535000Y-142354000D02*
X74535000Y-142354000D01*
X70535000Y-142354000D02*
G75*
G02X74535000Y-142354000I2000000J3000000D01*
G01*
X70535000Y-117335000D02*
X74535000Y-117335000D01*
X70535000Y-117335000D02*
G75*
G02X74535000Y-117335000I2000000J3000000D01*
G01*
X95554000Y-142354000D02*
X99554000Y-142354000D01*
X95554000Y-142354000D02*
G75*
G02X99554000Y-142354000I2000000J3000000D01*
G01*
X95554000Y-117335000D02*
X99554000Y-117335000D01*
X95554000Y-117335000D02*
G75*
G02X99554000Y-117335000I2000000J3000000D01*
G01*
D11*
X110000000Y-101500000D02*
X60000000Y-101500000D01*
X60000000Y-101500000D02*
X60000000Y-51500000D01*
X60000000Y-51500000D02*
X110000000Y-51500000D01*
X110000000Y-51500000D02*
X110000000Y-101500000D01*
D12*
X73750002Y-86250001D02*
G75*
G02X74500000Y-92000000I-1062501J-3062499D01*
G01*
X71250000Y-86250000D02*
G75*
G03X70500000Y-92000000I1062500J-3062500D01*
G01*
X70500000Y-92000000D02*
X71250000Y-92000000D01*
X74500000Y-92000000D02*
X73750000Y-92000000D01*
X73750002Y-61250001D02*
G75*
G02X74500000Y-67000000I-1062501J-3062499D01*
G01*
X71250000Y-61250000D02*
G75*
G03X70500000Y-67000000I1062500J-3062500D01*
G01*
X70500000Y-67000000D02*
X71250000Y-67000000D01*
X74500000Y-67000000D02*
X73750000Y-67000000D01*
X98750002Y-86250001D02*
G75*
G02X99500000Y-92000000I-1062501J-3062499D01*
G01*
X96250000Y-86250000D02*
G75*
G03X95500000Y-92000000I1062500J-3062500D01*
G01*
X95500000Y-92000000D02*
X96250000Y-92000000D01*
X99500000Y-92000000D02*
X98750000Y-92000000D01*
X98750002Y-61250001D02*
G75*
G02X99500000Y-67000000I-1062501J-3062499D01*
G01*
X96250000Y-61250000D02*
G75*
G03X95500000Y-67000000I1062500J-3062500D01*
G01*
X95500000Y-67000000D02*
X96250000Y-67000000D01*
X99500000Y-67000000D02*
X98750000Y-67000000D01*
D13*
X70535000Y-92354000D02*
X74535000Y-92354000D01*
X70535000Y-92354000D02*
G75*
G02X74535000Y-92354000I2000000J3000000D01*
G01*
X70535000Y-67335000D02*
X74535000Y-67335000D01*
X70535000Y-67335000D02*
G75*
G02X74535000Y-67335000I2000000J3000000D01*
G01*
X95554000Y-92354000D02*
X99554000Y-92354000D01*
X95554000Y-92354000D02*
G75*
G02X99554000Y-92354000I2000000J3000000D01*
G01*
X95554000Y-67335000D02*
X99554000Y-67335000D01*
X95554000Y-67335000D02*
G75*
G02X99554000Y-67335000I2000000J3000000D01*
G01*
D11*
X160000000Y-151500000D02*
X110000000Y-151500000D01*
X110000000Y-151500000D02*
X110000000Y-101500000D01*
X110000000Y-101500000D02*
X160000000Y-101500000D01*
X160000000Y-101500000D02*
X160000000Y-151500000D01*
D12*
X123750002Y-136250001D02*
G75*
G02X124500000Y-142000000I-1062501J-3062499D01*
G01*
X121250000Y-136250000D02*
G75*
G03X120500000Y-142000000I1062500J-3062500D01*
G01*
X120500000Y-142000000D02*
X121250000Y-142000000D01*
X124500000Y-142000000D02*
X123750000Y-142000000D01*
X123750002Y-111250001D02*
G75*
G02X124500000Y-117000000I-1062501J-3062499D01*
G01*
X121250000Y-111250000D02*
G75*
G03X120500000Y-117000000I1062500J-3062500D01*
G01*
X120500000Y-117000000D02*
X121250000Y-117000000D01*
X124500000Y-117000000D02*
X123750000Y-117000000D01*
X148750002Y-136250001D02*
G75*
G02X149500000Y-142000000I-1062501J-3062499D01*
G01*
X146250000Y-136250000D02*
G75*
G03X145500000Y-142000000I1062500J-3062500D01*
G01*
X145500000Y-142000000D02*
X146250000Y-142000000D01*
X149500000Y-142000000D02*
X148750000Y-142000000D01*
X148750002Y-111250001D02*
G75*
G02X149500000Y-117000000I-1062501J-3062499D01*
G01*
X146250000Y-111250000D02*
G75*
G03X145500000Y-117000000I1062500J-3062500D01*
G01*
X145500000Y-117000000D02*
X146250000Y-117000000D01*
X149500000Y-117000000D02*
X148750000Y-117000000D01*
D13*
X120535000Y-142354000D02*
X124535000Y-142354000D01*
X120535000Y-142354000D02*
G75*
G02X124535000Y-142354000I2000000J3000000D01*
G01*
X120535000Y-117335000D02*
X124535000Y-117335000D01*
X120535000Y-117335000D02*
G75*
G02X124535000Y-117335000I2000000J3000000D01*
G01*
X145554000Y-142354000D02*
X149554000Y-142354000D01*
X145554000Y-142354000D02*
G75*
G02X149554000Y-142354000I2000000J3000000D01*
G01*
X145554000Y-117335000D02*
X149554000Y-117335000D01*
X145554000Y-117335000D02*
G75*
G02X149554000Y-117335000I2000000J3000000D01*
G01*
D14*
X216394000Y-124515000D02*
X216394000Y-119435000D01*
X216394000Y-119435000D02*
X218934000Y-119435000D01*
X218934000Y-119435000D02*
X218934000Y-124515000D01*
X218934000Y-124515000D02*
X216394000Y-124515000D01*
X217664000Y-124515000D02*
X217664000Y-125785000D01*
X217664000Y-119435000D02*
X217664000Y-118165000D01*
X221474000Y-119435000D02*
X221474000Y-124515000D01*
X221474000Y-124515000D02*
X218934000Y-124515000D01*
X218934000Y-124515000D02*
X218934000Y-119435000D01*
X218934000Y-119435000D02*
X221474000Y-119435000D01*
X220204000Y-119435000D02*
X220204000Y-118165000D01*
X220204000Y-124515000D02*
X220204000Y-125785000D01*
X175519564Y-141585000D02*
G75*
G03X175519564Y-141585000I-2015564J0D01*
G01*
X176754000Y-143835000D02*
X176754000Y-139335000D01*
X172754000Y-145085000D02*
X174254000Y-145085000D01*
X170254000Y-139335000D02*
X170254000Y-143835000D01*
X174254000Y-138085000D02*
X172754000Y-138085000D01*
X175519564Y-116185000D02*
G75*
G03X175519564Y-116185000I-2015564J0D01*
G01*
X176754000Y-118435000D02*
X176754000Y-113935000D01*
X172754000Y-119685000D02*
X174254000Y-119685000D01*
X170254000Y-113935000D02*
X170254000Y-118435000D01*
X174254000Y-112685000D02*
X172754000Y-112685000D01*
X175519564Y-89515200D02*
G75*
G03X175519564Y-89515200I-2015564J0D01*
G01*
X176754000Y-91765200D02*
X176754000Y-87265200D01*
X172754000Y-93015200D02*
X174254000Y-93015200D01*
X170254000Y-87265200D02*
X170254000Y-91765200D01*
X174254000Y-86015200D02*
X172754000Y-86015200D01*
X175519564Y-65385200D02*
G75*
G03X175519564Y-65385200I-2015564J0D01*
G01*
X176754000Y-67635200D02*
X176754000Y-63135200D01*
X172754000Y-68885200D02*
X174254000Y-68885200D01*
X170254000Y-63135200D02*
X170254000Y-67635200D01*
X174254000Y-61885200D02*
X172754000Y-61885200D01*
D12*
X27850000Y-116300000D02*
X27850000Y-112300000D01*
X35650000Y-112300000D02*
X35650000Y-116300000D01*
X28817100Y-115678000D02*
G75*
G03X28817100Y-115678000I-223100J0D01*
G01*
X27850000Y-73120000D02*
X27850000Y-69120000D01*
X35650000Y-69120000D02*
X35650000Y-73120000D01*
X28817100Y-72498000D02*
G75*
G03X28817100Y-72498000I-223100J0D01*
G01*
D14*
X160689429Y-109519143D02*
X159165429Y-109519143D01*
X159165429Y-108938571D01*
X159238000Y-108793429D01*
X159310571Y-108720857D01*
X159455714Y-108648286D01*
X159673429Y-108648286D01*
X159818571Y-108720857D01*
X159891143Y-108793429D01*
X159963714Y-108938571D01*
X159963714Y-109519143D01*
X160254000Y-108067714D02*
X160254000Y-107342000D01*
X160689429Y-108212857D02*
X159165429Y-107704857D01*
X160689429Y-107196857D01*
X160689429Y-106688857D02*
X159165429Y-106688857D01*
X159165429Y-106326000D01*
X159238000Y-106108285D01*
X159383143Y-105963143D01*
X159528286Y-105890571D01*
X159818571Y-105818000D01*
X160036286Y-105818000D01*
X160326571Y-105890571D01*
X160471714Y-105963143D01*
X160616857Y-106108285D01*
X160689429Y-106326000D01*
X160689429Y-106688857D01*
X160108857Y-105164857D02*
X160108857Y-104003714D01*
X160689429Y-103278000D02*
X159673429Y-103278000D01*
X159818571Y-103278000D02*
X159746000Y-103205428D01*
X159673429Y-103060286D01*
X159673429Y-102842571D01*
X159746000Y-102697428D01*
X159891143Y-102624857D01*
X160689429Y-102624857D01*
X159891143Y-102624857D02*
X159746000Y-102552286D01*
X159673429Y-102407143D01*
X159673429Y-102189428D01*
X159746000Y-102044286D01*
X159891143Y-101971714D01*
X160689429Y-101971714D01*
X160689429Y-100592857D02*
X159891143Y-100592857D01*
X159746000Y-100665428D01*
X159673429Y-100810571D01*
X159673429Y-101100857D01*
X159746000Y-101246000D01*
X160616857Y-100592857D02*
X160689429Y-100738000D01*
X160689429Y-101100857D01*
X160616857Y-101246000D01*
X160471714Y-101318571D01*
X160326571Y-101318571D01*
X160181429Y-101246000D01*
X160108857Y-101100857D01*
X160108857Y-100738000D01*
X160036286Y-100592857D01*
X159673429Y-100084857D02*
X159673429Y-99504286D01*
X159165429Y-99867143D02*
X160471714Y-99867143D01*
X160616857Y-99794571D01*
X160689429Y-99649429D01*
X160689429Y-99504286D01*
X160689429Y-98996286D02*
X159673429Y-98996286D01*
X159963714Y-98996286D02*
X159818571Y-98923714D01*
X159746000Y-98851143D01*
X159673429Y-98706000D01*
X159673429Y-98560857D01*
X160689429Y-98052857D02*
X159673429Y-98052857D01*
X159165429Y-98052857D02*
X159238000Y-98125428D01*
X159310571Y-98052857D01*
X159238000Y-97980285D01*
X159165429Y-98052857D01*
X159310571Y-98052857D01*
X160689429Y-97472286D02*
X159673429Y-96674000D01*
X159673429Y-97472286D02*
X160689429Y-96674000D01*
X160108857Y-96093429D02*
X160108857Y-94932286D01*
X159673429Y-93553429D02*
X160689429Y-93553429D01*
X159092857Y-93916286D02*
X160181429Y-94279143D01*
X160181429Y-93335715D01*
X159891143Y-102878857D02*
X159963714Y-102661143D01*
X160036286Y-102588571D01*
X160181429Y-102516000D01*
X160399143Y-102516000D01*
X160544286Y-102588571D01*
X160616857Y-102661143D01*
X160689429Y-102806285D01*
X160689429Y-103386857D01*
X159165429Y-103386857D01*
X159165429Y-102878857D01*
X159238000Y-102733714D01*
X159310571Y-102661143D01*
X159455714Y-102588571D01*
X159600857Y-102588571D01*
X159746000Y-102661143D01*
X159818571Y-102733714D01*
X159891143Y-102878857D01*
X159891143Y-103386857D01*
X160689429Y-101862857D02*
X159165429Y-101862857D01*
X159165429Y-101282285D01*
X159238000Y-101137143D01*
X159310571Y-101064571D01*
X159455714Y-100992000D01*
X159673429Y-100992000D01*
X159818571Y-101064571D01*
X159891143Y-101137143D01*
X159963714Y-101282285D01*
X159963714Y-101862857D01*
X159165429Y-100484000D02*
X159165429Y-99468000D01*
X160689429Y-100121143D01*
D15*
X120844714Y-89910867D02*
X120890676Y-89956829D01*
X120936638Y-90094714D01*
X120936638Y-90186638D01*
X120890676Y-90324524D01*
X120798752Y-90416448D01*
X120706829Y-90462409D01*
X120522981Y-90508371D01*
X120385095Y-90508371D01*
X120201248Y-90462409D01*
X120109324Y-90416448D01*
X120017400Y-90324524D01*
X119971438Y-90186638D01*
X119971438Y-90094714D01*
X120017400Y-89956829D01*
X120063362Y-89910867D01*
X119971438Y-89589133D02*
X119971438Y-88991629D01*
X120339133Y-89313362D01*
X120339133Y-89175476D01*
X120385095Y-89083552D01*
X120431057Y-89037590D01*
X120522981Y-88991629D01*
X120752790Y-88991629D01*
X120844714Y-89037590D01*
X120890676Y-89083552D01*
X120936638Y-89175476D01*
X120936638Y-89451248D01*
X120890676Y-89543171D01*
X120844714Y-89589133D01*
X120844714Y-64910867D02*
X120890676Y-64956829D01*
X120936638Y-65094714D01*
X120936638Y-65186638D01*
X120890676Y-65324524D01*
X120798752Y-65416448D01*
X120706829Y-65462409D01*
X120522981Y-65508371D01*
X120385095Y-65508371D01*
X120201248Y-65462409D01*
X120109324Y-65416448D01*
X120017400Y-65324524D01*
X119971438Y-65186638D01*
X119971438Y-65094714D01*
X120017400Y-64956829D01*
X120063362Y-64910867D01*
X120293171Y-64083552D02*
X120936638Y-64083552D01*
X119925476Y-64313362D02*
X120614905Y-64543171D01*
X120614905Y-63945667D01*
X145844714Y-89910867D02*
X145890676Y-89956829D01*
X145936638Y-90094714D01*
X145936638Y-90186638D01*
X145890676Y-90324524D01*
X145798752Y-90416448D01*
X145706829Y-90462409D01*
X145522981Y-90508371D01*
X145385095Y-90508371D01*
X145201248Y-90462409D01*
X145109324Y-90416448D01*
X145017400Y-90324524D01*
X144971438Y-90186638D01*
X144971438Y-90094714D01*
X145017400Y-89956829D01*
X145063362Y-89910867D01*
X145936638Y-88991629D02*
X145936638Y-89543171D01*
X145936638Y-89267400D02*
X144971438Y-89267400D01*
X145109324Y-89359324D01*
X145201248Y-89451248D01*
X145247210Y-89543171D01*
X146094714Y-64910867D02*
X146140676Y-64956829D01*
X146186638Y-65094714D01*
X146186638Y-65186638D01*
X146140676Y-65324524D01*
X146048752Y-65416448D01*
X145956829Y-65462409D01*
X145772981Y-65508371D01*
X145635095Y-65508371D01*
X145451248Y-65462409D01*
X145359324Y-65416448D01*
X145267400Y-65324524D01*
X145221438Y-65186638D01*
X145221438Y-65094714D01*
X145267400Y-64956829D01*
X145313362Y-64910867D01*
X145313362Y-64543171D02*
X145267400Y-64497209D01*
X145221438Y-64405286D01*
X145221438Y-64175476D01*
X145267400Y-64083552D01*
X145313362Y-64037590D01*
X145405286Y-63991629D01*
X145497210Y-63991629D01*
X145635095Y-64037590D01*
X146186638Y-64589133D01*
X146186638Y-63991629D01*
D14*
X84538565Y-129991921D02*
X84538565Y-128991921D01*
X84776660Y-128991921D01*
X84919518Y-129039540D01*
X85014756Y-129134778D01*
X85062375Y-129230016D01*
X85109994Y-129420492D01*
X85109994Y-129563350D01*
X85062375Y-129753826D01*
X85014756Y-129849064D01*
X84919518Y-129944302D01*
X84776660Y-129991921D01*
X84538565Y-129991921D01*
X86062375Y-129991921D02*
X85490946Y-129991921D01*
X85776660Y-129991921D02*
X85776660Y-128991921D01*
X85681422Y-129134778D01*
X85586184Y-129230016D01*
X85490946Y-129277635D01*
X84538565Y-126237921D02*
X84538565Y-125237921D01*
X84776660Y-125237921D01*
X84919518Y-125285540D01*
X85014756Y-125380778D01*
X85062375Y-125476016D01*
X85109994Y-125666492D01*
X85109994Y-125809350D01*
X85062375Y-125999826D01*
X85014756Y-126095064D01*
X84919518Y-126190302D01*
X84776660Y-126237921D01*
X84538565Y-126237921D01*
X85490946Y-125333159D02*
X85538565Y-125285540D01*
X85633803Y-125237921D01*
X85871899Y-125237921D01*
X85967137Y-125285540D01*
X86014756Y-125333159D01*
X86062375Y-125428397D01*
X86062375Y-125523635D01*
X86014756Y-125666492D01*
X85443327Y-126237921D01*
X86062375Y-126237921D01*
X84538565Y-79192421D02*
X84538565Y-78192421D01*
X84776660Y-78192421D01*
X84919518Y-78240040D01*
X85014756Y-78335278D01*
X85062375Y-78430516D01*
X85109994Y-78620992D01*
X85109994Y-78763850D01*
X85062375Y-78954326D01*
X85014756Y-79049564D01*
X84919518Y-79144802D01*
X84776660Y-79192421D01*
X84538565Y-79192421D01*
X85443327Y-78192421D02*
X86062375Y-78192421D01*
X85729041Y-78573373D01*
X85871899Y-78573373D01*
X85967137Y-78620992D01*
X86014756Y-78668611D01*
X86062375Y-78763850D01*
X86062375Y-79001945D01*
X86014756Y-79097183D01*
X85967137Y-79144802D01*
X85871899Y-79192421D01*
X85586184Y-79192421D01*
X85490946Y-79144802D01*
X85443327Y-79097183D01*
X84538565Y-72897521D02*
X84538565Y-71897521D01*
X84776660Y-71897521D01*
X84919518Y-71945140D01*
X85014756Y-72040378D01*
X85062375Y-72135616D01*
X85109994Y-72326092D01*
X85109994Y-72468950D01*
X85062375Y-72659426D01*
X85014756Y-72754664D01*
X84919518Y-72849902D01*
X84776660Y-72897521D01*
X84538565Y-72897521D01*
X85967137Y-72230854D02*
X85967137Y-72897521D01*
X85729041Y-71849902D02*
X85490946Y-72564188D01*
X86109994Y-72564188D01*
X108668565Y-128721921D02*
X108668565Y-127721921D01*
X108906660Y-127721921D01*
X109049518Y-127769540D01*
X109144756Y-127864778D01*
X109192375Y-127960016D01*
X109239994Y-128150492D01*
X109239994Y-128293350D01*
X109192375Y-128483826D01*
X109144756Y-128579064D01*
X109049518Y-128674302D01*
X108906660Y-128721921D01*
X108668565Y-128721921D01*
X110144756Y-127721921D02*
X109668565Y-127721921D01*
X109620946Y-128198111D01*
X109668565Y-128150492D01*
X109763803Y-128102873D01*
X110001899Y-128102873D01*
X110097137Y-128150492D01*
X110144756Y-128198111D01*
X110192375Y-128293350D01*
X110192375Y-128531445D01*
X110144756Y-128626683D01*
X110097137Y-128674302D01*
X110001899Y-128721921D01*
X109763803Y-128721921D01*
X109668565Y-128674302D01*
X109620946Y-128626683D01*
X108668565Y-123697921D02*
X108668565Y-122697921D01*
X108906660Y-122697921D01*
X109049518Y-122745540D01*
X109144756Y-122840778D01*
X109192375Y-122936016D01*
X109239994Y-123126492D01*
X109239994Y-123269350D01*
X109192375Y-123459826D01*
X109144756Y-123555064D01*
X109049518Y-123650302D01*
X108906660Y-123697921D01*
X108668565Y-123697921D01*
X110097137Y-122697921D02*
X109906660Y-122697921D01*
X109811422Y-122745540D01*
X109763803Y-122793159D01*
X109668565Y-122936016D01*
X109620946Y-123126492D01*
X109620946Y-123507445D01*
X109668565Y-123602683D01*
X109716184Y-123650302D01*
X109811422Y-123697921D01*
X110001899Y-123697921D01*
X110097137Y-123650302D01*
X110144756Y-123602683D01*
X110192375Y-123507445D01*
X110192375Y-123269350D01*
X110144756Y-123174111D01*
X110097137Y-123126492D01*
X110001899Y-123078873D01*
X109811422Y-123078873D01*
X109716184Y-123126492D01*
X109668565Y-123174111D01*
X109620946Y-123269350D01*
X108174565Y-79192421D02*
X108174565Y-78192421D01*
X108412660Y-78192421D01*
X108555518Y-78240040D01*
X108650756Y-78335278D01*
X108698375Y-78430516D01*
X108745994Y-78620992D01*
X108745994Y-78763850D01*
X108698375Y-78954326D01*
X108650756Y-79049564D01*
X108555518Y-79144802D01*
X108412660Y-79192421D01*
X108174565Y-79192421D01*
X109079327Y-78192421D02*
X109745994Y-78192421D01*
X109317422Y-79192421D01*
X108259565Y-72897521D02*
X108259565Y-71897521D01*
X108497660Y-71897521D01*
X108640518Y-71945140D01*
X108735756Y-72040378D01*
X108783375Y-72135616D01*
X108830994Y-72326092D01*
X108830994Y-72468950D01*
X108783375Y-72659426D01*
X108735756Y-72754664D01*
X108640518Y-72849902D01*
X108497660Y-72897521D01*
X108259565Y-72897521D01*
X109402422Y-72326092D02*
X109307184Y-72278473D01*
X109259565Y-72230854D01*
X109211946Y-72135616D01*
X109211946Y-72087997D01*
X109259565Y-71992759D01*
X109307184Y-71945140D01*
X109402422Y-71897521D01*
X109592899Y-71897521D01*
X109688137Y-71945140D01*
X109735756Y-71992759D01*
X109783375Y-72087997D01*
X109783375Y-72135616D01*
X109735756Y-72230854D01*
X109688137Y-72278473D01*
X109592899Y-72326092D01*
X109402422Y-72326092D01*
X109307184Y-72373711D01*
X109259565Y-72421330D01*
X109211946Y-72516569D01*
X109211946Y-72707045D01*
X109259565Y-72802283D01*
X109307184Y-72849902D01*
X109402422Y-72897521D01*
X109592899Y-72897521D01*
X109688137Y-72849902D01*
X109735756Y-72802283D01*
X109783375Y-72707045D01*
X109783375Y-72516569D01*
X109735756Y-72421330D01*
X109688137Y-72373711D01*
X109592899Y-72326092D01*
X136608565Y-128721921D02*
X136608565Y-127721921D01*
X136846660Y-127721921D01*
X136989518Y-127769540D01*
X137084756Y-127864778D01*
X137132375Y-127960016D01*
X137179994Y-128150492D01*
X137179994Y-128293350D01*
X137132375Y-128483826D01*
X137084756Y-128579064D01*
X136989518Y-128674302D01*
X136846660Y-128721921D01*
X136608565Y-128721921D01*
X137656184Y-128721921D02*
X137846660Y-128721921D01*
X137941899Y-128674302D01*
X137989518Y-128626683D01*
X138084756Y-128483826D01*
X138132375Y-128293350D01*
X138132375Y-127912397D01*
X138084756Y-127817159D01*
X138037137Y-127769540D01*
X137941899Y-127721921D01*
X137751422Y-127721921D01*
X137656184Y-127769540D01*
X137608565Y-127817159D01*
X137560946Y-127912397D01*
X137560946Y-128150492D01*
X137608565Y-128245730D01*
X137656184Y-128293350D01*
X137751422Y-128340969D01*
X137941899Y-128340969D01*
X138037137Y-128293350D01*
X138084756Y-128245730D01*
X138132375Y-128150492D01*
X136132374Y-123641921D02*
X136132374Y-122641921D01*
X136370469Y-122641921D01*
X136513327Y-122689540D01*
X136608565Y-122784778D01*
X136656184Y-122880016D01*
X136703803Y-123070492D01*
X136703803Y-123213350D01*
X136656184Y-123403826D01*
X136608565Y-123499064D01*
X136513327Y-123594302D01*
X136370469Y-123641921D01*
X136132374Y-123641921D01*
X137656184Y-123641921D02*
X137084755Y-123641921D01*
X137370469Y-123641921D02*
X137370469Y-122641921D01*
X137275231Y-122784778D01*
X137179993Y-122880016D01*
X137084755Y-122927635D01*
X138275231Y-122641921D02*
X138370470Y-122641921D01*
X138465708Y-122689540D01*
X138513327Y-122737159D01*
X138560946Y-122832397D01*
X138608565Y-123022873D01*
X138608565Y-123260969D01*
X138560946Y-123451445D01*
X138513327Y-123546683D01*
X138465708Y-123594302D01*
X138370470Y-123641921D01*
X138275231Y-123641921D01*
X138179993Y-123594302D01*
X138132374Y-123546683D01*
X138084755Y-123451445D01*
X138037136Y-123260969D01*
X138037136Y-123022873D01*
X138084755Y-122832397D01*
X138132374Y-122737159D01*
X138179993Y-122689540D01*
X138275231Y-122641921D01*
X136132374Y-79192421D02*
X136132374Y-78192421D01*
X136370469Y-78192421D01*
X136513327Y-78240040D01*
X136608565Y-78335278D01*
X136656184Y-78430516D01*
X136703803Y-78620992D01*
X136703803Y-78763850D01*
X136656184Y-78954326D01*
X136608565Y-79049564D01*
X136513327Y-79144802D01*
X136370469Y-79192421D01*
X136132374Y-79192421D01*
X137656184Y-79192421D02*
X137084755Y-79192421D01*
X137370469Y-79192421D02*
X137370469Y-78192421D01*
X137275231Y-78335278D01*
X137179993Y-78430516D01*
X137084755Y-78478135D01*
X138608565Y-79192421D02*
X138037136Y-79192421D01*
X138322850Y-79192421D02*
X138322850Y-78192421D01*
X138227612Y-78335278D01*
X138132374Y-78430516D01*
X138037136Y-78478135D01*
X136132374Y-72842421D02*
X136132374Y-71842421D01*
X136370469Y-71842421D01*
X136513327Y-71890040D01*
X136608565Y-71985278D01*
X136656184Y-72080516D01*
X136703803Y-72270992D01*
X136703803Y-72413850D01*
X136656184Y-72604326D01*
X136608565Y-72699564D01*
X136513327Y-72794802D01*
X136370469Y-72842421D01*
X136132374Y-72842421D01*
X137656184Y-72842421D02*
X137084755Y-72842421D01*
X137370469Y-72842421D02*
X137370469Y-71842421D01*
X137275231Y-71985278D01*
X137179993Y-72080516D01*
X137084755Y-72128135D01*
X138037136Y-71937659D02*
X138084755Y-71890040D01*
X138179993Y-71842421D01*
X138418089Y-71842421D01*
X138513327Y-71890040D01*
X138560946Y-71937659D01*
X138608565Y-72032897D01*
X138608565Y-72128135D01*
X138560946Y-72270992D01*
X137989517Y-72842421D01*
X138608565Y-72842421D01*
X158992374Y-128721921D02*
X158992374Y-127721921D01*
X159230469Y-127721921D01*
X159373327Y-127769540D01*
X159468565Y-127864778D01*
X159516184Y-127960016D01*
X159563803Y-128150492D01*
X159563803Y-128293350D01*
X159516184Y-128483826D01*
X159468565Y-128579064D01*
X159373327Y-128674302D01*
X159230469Y-128721921D01*
X158992374Y-128721921D01*
X160516184Y-128721921D02*
X159944755Y-128721921D01*
X160230469Y-128721921D02*
X160230469Y-127721921D01*
X160135231Y-127864778D01*
X160039993Y-127960016D01*
X159944755Y-128007635D01*
X160849517Y-127721921D02*
X161468565Y-127721921D01*
X161135231Y-128102873D01*
X161278089Y-128102873D01*
X161373327Y-128150492D01*
X161420946Y-128198111D01*
X161468565Y-128293350D01*
X161468565Y-128531445D01*
X161420946Y-128626683D01*
X161373327Y-128674302D01*
X161278089Y-128721921D01*
X160992374Y-128721921D01*
X160897136Y-128674302D01*
X160849517Y-128626683D01*
X158992374Y-123641921D02*
X158992374Y-122641921D01*
X159230469Y-122641921D01*
X159373327Y-122689540D01*
X159468565Y-122784778D01*
X159516184Y-122880016D01*
X159563803Y-123070492D01*
X159563803Y-123213350D01*
X159516184Y-123403826D01*
X159468565Y-123499064D01*
X159373327Y-123594302D01*
X159230469Y-123641921D01*
X158992374Y-123641921D01*
X160516184Y-123641921D02*
X159944755Y-123641921D01*
X160230469Y-123641921D02*
X160230469Y-122641921D01*
X160135231Y-122784778D01*
X160039993Y-122880016D01*
X159944755Y-122927635D01*
X161373327Y-122975254D02*
X161373327Y-123641921D01*
X161135231Y-122594302D02*
X160897136Y-123308588D01*
X161516184Y-123308588D01*
X158992374Y-97027521D02*
X158992374Y-96027521D01*
X159230469Y-96027521D01*
X159373327Y-96075140D01*
X159468565Y-96170378D01*
X159516184Y-96265616D01*
X159563803Y-96456092D01*
X159563803Y-96598950D01*
X159516184Y-96789426D01*
X159468565Y-96884664D01*
X159373327Y-96979902D01*
X159230469Y-97027521D01*
X158992374Y-97027521D01*
X160516184Y-97027521D02*
X159944755Y-97027521D01*
X160230469Y-97027521D02*
X160230469Y-96027521D01*
X160135231Y-96170378D01*
X160039993Y-96265616D01*
X159944755Y-96313235D01*
X161420946Y-96027521D02*
X160944755Y-96027521D01*
X160897136Y-96503711D01*
X160944755Y-96456092D01*
X161039993Y-96408473D01*
X161278089Y-96408473D01*
X161373327Y-96456092D01*
X161420946Y-96503711D01*
X161468565Y-96598950D01*
X161468565Y-96837045D01*
X161420946Y-96932283D01*
X161373327Y-96979902D01*
X161278089Y-97027521D01*
X161039993Y-97027521D01*
X160944755Y-96979902D01*
X160897136Y-96932283D01*
X158992374Y-71627521D02*
X158992374Y-70627521D01*
X159230469Y-70627521D01*
X159373327Y-70675140D01*
X159468565Y-70770378D01*
X159516184Y-70865616D01*
X159563803Y-71056092D01*
X159563803Y-71198950D01*
X159516184Y-71389426D01*
X159468565Y-71484664D01*
X159373327Y-71579902D01*
X159230469Y-71627521D01*
X158992374Y-71627521D01*
X160516184Y-71627521D02*
X159944755Y-71627521D01*
X160230469Y-71627521D02*
X160230469Y-70627521D01*
X160135231Y-70770378D01*
X160039993Y-70865616D01*
X159944755Y-70913235D01*
X161373327Y-70627521D02*
X161182850Y-70627521D01*
X161087612Y-70675140D01*
X161039993Y-70722759D01*
X160944755Y-70865616D01*
X160897136Y-71056092D01*
X160897136Y-71437045D01*
X160944755Y-71532283D01*
X160992374Y-71579902D01*
X161087612Y-71627521D01*
X161278089Y-71627521D01*
X161373327Y-71579902D01*
X161420946Y-71532283D01*
X161468565Y-71437045D01*
X161468565Y-71198950D01*
X161420946Y-71103711D01*
X161373327Y-71056092D01*
X161278089Y-71008473D01*
X161087612Y-71008473D01*
X160992374Y-71056092D01*
X160944755Y-71103711D01*
X160897136Y-71198950D01*
D13*
X218631105Y-71684848D02*
X219033271Y-72891348D01*
X219435438Y-71684848D01*
X220527033Y-72776443D02*
X220469581Y-72833895D01*
X220297224Y-72891348D01*
X220182319Y-72891348D01*
X220009962Y-72833895D01*
X219895057Y-72718990D01*
X219837605Y-72604086D01*
X219780153Y-72374276D01*
X219780153Y-72201919D01*
X219837605Y-71972110D01*
X219895057Y-71857205D01*
X220009962Y-71742300D01*
X220182319Y-71684848D01*
X220297224Y-71684848D01*
X220469581Y-71742300D01*
X220527033Y-71799752D01*
X221733533Y-72776443D02*
X221676081Y-72833895D01*
X221503724Y-72891348D01*
X221388819Y-72891348D01*
X221216462Y-72833895D01*
X221101557Y-72718990D01*
X221044105Y-72604086D01*
X220986653Y-72374276D01*
X220986653Y-72201919D01*
X221044105Y-71972110D01*
X221101557Y-71857205D01*
X221216462Y-71742300D01*
X221388819Y-71684848D01*
X221503724Y-71684848D01*
X221676081Y-71742300D01*
X221733533Y-71799752D01*
D16*
X219416690Y-67772643D02*
X219359238Y-67830095D01*
X219186881Y-67887548D01*
X219071976Y-67887548D01*
X218899619Y-67830095D01*
X218784714Y-67715190D01*
X218727262Y-67600286D01*
X218669810Y-67370476D01*
X218669810Y-67198119D01*
X218727262Y-66968310D01*
X218784714Y-66853405D01*
X218899619Y-66738500D01*
X219071976Y-66681048D01*
X219186881Y-66681048D01*
X219359238Y-66738500D01*
X219416690Y-66795952D01*
X220163571Y-66681048D02*
X220393381Y-66681048D01*
X220508286Y-66738500D01*
X220623190Y-66853405D01*
X220680643Y-67083214D01*
X220680643Y-67485381D01*
X220623190Y-67715190D01*
X220508286Y-67830095D01*
X220393381Y-67887548D01*
X220163571Y-67887548D01*
X220048667Y-67830095D01*
X219933762Y-67715190D01*
X219876310Y-67485381D01*
X219876310Y-67083214D01*
X219933762Y-66853405D01*
X220048667Y-66738500D01*
X220163571Y-66681048D01*
X221197714Y-67887548D02*
X221197714Y-66681048D01*
X221887142Y-67887548D01*
X221887142Y-66681048D01*
X222461666Y-67887548D02*
X222461666Y-66681048D01*
X223151094Y-67887548D01*
X223151094Y-66681048D01*
X223438356Y-68002452D02*
X224357594Y-68002452D01*
X224874665Y-66681048D02*
X224989570Y-66681048D01*
X225104475Y-66738500D01*
X225161927Y-66795952D01*
X225219380Y-66910857D01*
X225276832Y-67140667D01*
X225276832Y-67427929D01*
X225219380Y-67657738D01*
X225161927Y-67772643D01*
X225104475Y-67830095D01*
X224989570Y-67887548D01*
X224874665Y-67887548D01*
X224759761Y-67830095D01*
X224702308Y-67772643D01*
X224644856Y-67657738D01*
X224587404Y-67427929D01*
X224587404Y-67140667D01*
X224644856Y-66910857D01*
X224702308Y-66795952D01*
X224759761Y-66738500D01*
X224874665Y-66681048D01*
X226425880Y-67887548D02*
X225736452Y-67887548D01*
X226081166Y-67887548D02*
X226081166Y-66681048D01*
X225966261Y-66853405D01*
X225851356Y-66968310D01*
X225736452Y-67025762D01*
X226828047Y-66681048D02*
X227632380Y-67887548D01*
X227632380Y-66681048D02*
X226828047Y-67887548D01*
X228321809Y-66681048D02*
X228436714Y-66681048D01*
X228551619Y-66738500D01*
X228609071Y-66795952D01*
X228666524Y-66910857D01*
X228723976Y-67140667D01*
X228723976Y-67427929D01*
X228666524Y-67657738D01*
X228609071Y-67772643D01*
X228551619Y-67830095D01*
X228436714Y-67887548D01*
X228321809Y-67887548D01*
X228206905Y-67830095D01*
X228149452Y-67772643D01*
X228092000Y-67657738D01*
X228034548Y-67427929D01*
X228034548Y-67140667D01*
X228092000Y-66910857D01*
X228149452Y-66795952D01*
X228206905Y-66738500D01*
X228321809Y-66681048D01*
X229413405Y-67198119D02*
X229298500Y-67140667D01*
X229241048Y-67083214D01*
X229183596Y-66968310D01*
X229183596Y-66910857D01*
X229241048Y-66795952D01*
X229298500Y-66738500D01*
X229413405Y-66681048D01*
X229643215Y-66681048D01*
X229758119Y-66738500D01*
X229815572Y-66795952D01*
X229873024Y-66910857D01*
X229873024Y-66968310D01*
X229815572Y-67083214D01*
X229758119Y-67140667D01*
X229643215Y-67198119D01*
X229413405Y-67198119D01*
X229298500Y-67255571D01*
X229241048Y-67313024D01*
X229183596Y-67427929D01*
X229183596Y-67657738D01*
X229241048Y-67772643D01*
X229298500Y-67830095D01*
X229413405Y-67887548D01*
X229643215Y-67887548D01*
X229758119Y-67830095D01*
X229815572Y-67772643D01*
X229873024Y-67657738D01*
X229873024Y-67427929D01*
X229815572Y-67313024D01*
X229758119Y-67255571D01*
X229643215Y-67198119D01*
D13*
X219997262Y-92652548D02*
X219997262Y-91446048D01*
X220456881Y-91446048D01*
X220571786Y-91503500D01*
X220629238Y-91560952D01*
X220686690Y-91675857D01*
X220686690Y-91848214D01*
X220629238Y-91963119D01*
X220571786Y-92020571D01*
X220456881Y-92078024D01*
X219997262Y-92078024D01*
X221146310Y-91560952D02*
X221203762Y-91503500D01*
X221318667Y-91446048D01*
X221605929Y-91446048D01*
X221720833Y-91503500D01*
X221778286Y-91560952D01*
X221835738Y-91675857D01*
X221835738Y-91790762D01*
X221778286Y-91963119D01*
X221088857Y-92652548D01*
X221835738Y-92652548D01*
D16*
X220629238Y-88963500D02*
X220514333Y-88906048D01*
X220341976Y-88906048D01*
X220169619Y-88963500D01*
X220054714Y-89078405D01*
X219997262Y-89193310D01*
X219939810Y-89423119D01*
X219939810Y-89595476D01*
X219997262Y-89825286D01*
X220054714Y-89940190D01*
X220169619Y-90055095D01*
X220341976Y-90112548D01*
X220456881Y-90112548D01*
X220629238Y-90055095D01*
X220686690Y-89997643D01*
X220686690Y-89595476D01*
X220456881Y-89595476D01*
X221203762Y-90112548D02*
X221203762Y-88906048D01*
X221893190Y-90112548D01*
X221893190Y-88906048D01*
X222467714Y-90112548D02*
X222467714Y-88906048D01*
X222754976Y-88906048D01*
X222927333Y-88963500D01*
X223042238Y-89078405D01*
X223099690Y-89193310D01*
X223157142Y-89423119D01*
X223157142Y-89595476D01*
X223099690Y-89825286D01*
X223042238Y-89940190D01*
X222927333Y-90055095D01*
X222754976Y-90112548D01*
X222467714Y-90112548D01*
D13*
X218803462Y-112261348D02*
X218803462Y-111054848D01*
X219263081Y-111054848D01*
X219377986Y-111112300D01*
X219435438Y-111169752D01*
X219492890Y-111284657D01*
X219492890Y-111457014D01*
X219435438Y-111571919D01*
X219377986Y-111629371D01*
X219263081Y-111686824D01*
X218803462Y-111686824D01*
X219895057Y-111054848D02*
X220641938Y-111054848D01*
X220239771Y-111514467D01*
X220412129Y-111514467D01*
X220527033Y-111571919D01*
X220584486Y-111629371D01*
X220641938Y-111744276D01*
X220641938Y-112031538D01*
X220584486Y-112146443D01*
X220527033Y-112203895D01*
X220412129Y-112261348D01*
X220067414Y-112261348D01*
X219952510Y-112203895D01*
X219895057Y-112146443D01*
D16*
X219416690Y-107142643D02*
X219359238Y-107200095D01*
X219186881Y-107257548D01*
X219071976Y-107257548D01*
X218899619Y-107200095D01*
X218784714Y-107085190D01*
X218727262Y-106970286D01*
X218669810Y-106740476D01*
X218669810Y-106568119D01*
X218727262Y-106338310D01*
X218784714Y-106223405D01*
X218899619Y-106108500D01*
X219071976Y-106051048D01*
X219186881Y-106051048D01*
X219359238Y-106108500D01*
X219416690Y-106165952D01*
X220163571Y-106051048D02*
X220393381Y-106051048D01*
X220508286Y-106108500D01*
X220623190Y-106223405D01*
X220680643Y-106453214D01*
X220680643Y-106855381D01*
X220623190Y-107085190D01*
X220508286Y-107200095D01*
X220393381Y-107257548D01*
X220163571Y-107257548D01*
X220048667Y-107200095D01*
X219933762Y-107085190D01*
X219876310Y-106855381D01*
X219876310Y-106453214D01*
X219933762Y-106223405D01*
X220048667Y-106108500D01*
X220163571Y-106051048D01*
X221197714Y-107257548D02*
X221197714Y-106051048D01*
X221887142Y-107257548D01*
X221887142Y-106051048D01*
X222461666Y-107257548D02*
X222461666Y-106051048D01*
X223151094Y-107257548D01*
X223151094Y-106051048D01*
X223438356Y-107372452D02*
X224357594Y-107372452D01*
X224874665Y-106051048D02*
X224989570Y-106051048D01*
X225104475Y-106108500D01*
X225161927Y-106165952D01*
X225219380Y-106280857D01*
X225276832Y-106510667D01*
X225276832Y-106797929D01*
X225219380Y-107027738D01*
X225161927Y-107142643D01*
X225104475Y-107200095D01*
X224989570Y-107257548D01*
X224874665Y-107257548D01*
X224759761Y-107200095D01*
X224702308Y-107142643D01*
X224644856Y-107027738D01*
X224587404Y-106797929D01*
X224587404Y-106510667D01*
X224644856Y-106280857D01*
X224702308Y-106165952D01*
X224759761Y-106108500D01*
X224874665Y-106051048D01*
X226425880Y-107257548D02*
X225736452Y-107257548D01*
X226081166Y-107257548D02*
X226081166Y-106051048D01*
X225966261Y-106223405D01*
X225851356Y-106338310D01*
X225736452Y-106395762D01*
X226828047Y-106051048D02*
X227632380Y-107257548D01*
X227632380Y-106051048D02*
X226828047Y-107257548D01*
X228321809Y-106051048D02*
X228436714Y-106051048D01*
X228551619Y-106108500D01*
X228609071Y-106165952D01*
X228666524Y-106280857D01*
X228723976Y-106510667D01*
X228723976Y-106797929D01*
X228666524Y-107027738D01*
X228609071Y-107142643D01*
X228551619Y-107200095D01*
X228436714Y-107257548D01*
X228321809Y-107257548D01*
X228206905Y-107200095D01*
X228149452Y-107142643D01*
X228092000Y-107027738D01*
X228034548Y-106797929D01*
X228034548Y-106510667D01*
X228092000Y-106280857D01*
X228149452Y-106165952D01*
X228206905Y-106108500D01*
X228321809Y-106051048D01*
X229413405Y-106568119D02*
X229298500Y-106510667D01*
X229241048Y-106453214D01*
X229183596Y-106338310D01*
X229183596Y-106280857D01*
X229241048Y-106165952D01*
X229298500Y-106108500D01*
X229413405Y-106051048D01*
X229643215Y-106051048D01*
X229758119Y-106108500D01*
X229815572Y-106165952D01*
X229873024Y-106280857D01*
X229873024Y-106338310D01*
X229815572Y-106453214D01*
X229758119Y-106510667D01*
X229643215Y-106568119D01*
X229413405Y-106568119D01*
X229298500Y-106625571D01*
X229241048Y-106683024D01*
X229183596Y-106797929D01*
X229183596Y-107027738D01*
X229241048Y-107142643D01*
X229298500Y-107200095D01*
X229413405Y-107257548D01*
X229643215Y-107257548D01*
X229758119Y-107200095D01*
X229815572Y-107142643D01*
X229873024Y-107027738D01*
X229873024Y-106797929D01*
X229815572Y-106683024D01*
X229758119Y-106625571D01*
X229643215Y-106568119D01*
D13*
X198331062Y-93418948D02*
X198331062Y-92212448D01*
X198790681Y-92212448D01*
X198905586Y-92269900D01*
X198963038Y-92327352D01*
X199020490Y-92442257D01*
X199020490Y-92614614D01*
X198963038Y-92729519D01*
X198905586Y-92786971D01*
X198790681Y-92844424D01*
X198331062Y-92844424D01*
X200054633Y-92614614D02*
X200054633Y-93418948D01*
X199767371Y-92154995D02*
X199480110Y-93016781D01*
X200226990Y-93016781D01*
D16*
X199619810Y-98078033D02*
X200194333Y-98078033D01*
X199504905Y-98422748D02*
X199907071Y-97216248D01*
X200309238Y-98422748D01*
X200653953Y-97331152D02*
X200711405Y-97273700D01*
X200826310Y-97216248D01*
X201113572Y-97216248D01*
X201228476Y-97273700D01*
X201285929Y-97331152D01*
X201343381Y-97446057D01*
X201343381Y-97560962D01*
X201285929Y-97733319D01*
X200596500Y-98422748D01*
X201343381Y-98422748D01*
X202722239Y-98078033D02*
X203296762Y-98078033D01*
X202607334Y-98422748D02*
X203009500Y-97216248D01*
X203411667Y-98422748D01*
X203698929Y-97216248D02*
X204445810Y-97216248D01*
X204043643Y-97675867D01*
X204216001Y-97675867D01*
X204330905Y-97733319D01*
X204388358Y-97790771D01*
X204445810Y-97905676D01*
X204445810Y-98192938D01*
X204388358Y-98307843D01*
X204330905Y-98365295D01*
X204216001Y-98422748D01*
X203871286Y-98422748D01*
X203756382Y-98365295D01*
X203698929Y-98307843D01*
X205824668Y-98078033D02*
X206399191Y-98078033D01*
X205709763Y-98422748D02*
X206111929Y-97216248D01*
X206514096Y-98422748D01*
X207433334Y-97618414D02*
X207433334Y-98422748D01*
X207146072Y-97158795D02*
X206858811Y-98020581D01*
X207605691Y-98020581D01*
X208927097Y-98078033D02*
X209501620Y-98078033D01*
X208812192Y-98422748D02*
X209214358Y-97216248D01*
X209616525Y-98422748D01*
X210593216Y-97216248D02*
X210018692Y-97216248D01*
X209961240Y-97790771D01*
X210018692Y-97733319D01*
X210133597Y-97675867D01*
X210420859Y-97675867D01*
X210535763Y-97733319D01*
X210593216Y-97790771D01*
X210650668Y-97905676D01*
X210650668Y-98192938D01*
X210593216Y-98307843D01*
X210535763Y-98365295D01*
X210420859Y-98422748D01*
X210133597Y-98422748D01*
X210018692Y-98365295D01*
X209961240Y-98307843D01*
X212029526Y-98078033D02*
X212604049Y-98078033D01*
X211914621Y-98422748D02*
X212316787Y-97216248D01*
X212718954Y-98422748D01*
X213638192Y-97216248D02*
X213408383Y-97216248D01*
X213293478Y-97273700D01*
X213236026Y-97331152D01*
X213121121Y-97503510D01*
X213063669Y-97733319D01*
X213063669Y-98192938D01*
X213121121Y-98307843D01*
X213178573Y-98365295D01*
X213293478Y-98422748D01*
X213523288Y-98422748D01*
X213638192Y-98365295D01*
X213695645Y-98307843D01*
X213753097Y-98192938D01*
X213753097Y-97905676D01*
X213695645Y-97790771D01*
X213638192Y-97733319D01*
X213523288Y-97675867D01*
X213293478Y-97675867D01*
X213178573Y-97733319D01*
X213121121Y-97790771D01*
X213063669Y-97905676D01*
D13*
X219997730Y-83762548D02*
X219997730Y-82556048D01*
X220457349Y-82556048D01*
X220572254Y-82613500D01*
X220629706Y-82670952D01*
X220687158Y-82785857D01*
X220687158Y-82958214D01*
X220629706Y-83073119D01*
X220572254Y-83130571D01*
X220457349Y-83188024D01*
X219997730Y-83188024D01*
X221778754Y-82556048D02*
X221204230Y-82556048D01*
X221146778Y-83130571D01*
X221204230Y-83073119D01*
X221319135Y-83015667D01*
X221606397Y-83015667D01*
X221721301Y-83073119D01*
X221778754Y-83130571D01*
X221836206Y-83245476D01*
X221836206Y-83532738D01*
X221778754Y-83647643D01*
X221721301Y-83705095D01*
X221606397Y-83762548D01*
X221319135Y-83762548D01*
X221204230Y-83705095D01*
X221146778Y-83647643D01*
D16*
X218727730Y-80587548D02*
X218727730Y-79381048D01*
X219129897Y-80242833D01*
X219532063Y-79381048D01*
X219532063Y-80587548D01*
X220623658Y-79783214D02*
X220623658Y-80587548D01*
X220106587Y-79783214D02*
X220106587Y-80415190D01*
X220164039Y-80530095D01*
X220278944Y-80587548D01*
X220451301Y-80587548D01*
X220566206Y-80530095D01*
X220623658Y-80472643D01*
X221025825Y-79783214D02*
X221485444Y-79783214D01*
X221198182Y-79381048D02*
X221198182Y-80415190D01*
X221255634Y-80530095D01*
X221370539Y-80587548D01*
X221485444Y-80587548D01*
X222404682Y-79783214D02*
X222404682Y-80587548D01*
X221887611Y-79783214D02*
X221887611Y-80415190D01*
X221945063Y-80530095D01*
X222059968Y-80587548D01*
X222232325Y-80587548D01*
X222347230Y-80530095D01*
X222404682Y-80472643D01*
X223496277Y-80587548D02*
X223496277Y-79955571D01*
X223438825Y-79840667D01*
X223323920Y-79783214D01*
X223094111Y-79783214D01*
X222979206Y-79840667D01*
X223496277Y-80530095D02*
X223381373Y-80587548D01*
X223094111Y-80587548D01*
X222979206Y-80530095D01*
X222921754Y-80415190D01*
X222921754Y-80300286D01*
X222979206Y-80185381D01*
X223094111Y-80127929D01*
X223381373Y-80127929D01*
X223496277Y-80070476D01*
X224243158Y-80587548D02*
X224128253Y-80530095D01*
X224070801Y-80415190D01*
X224070801Y-79381048D01*
D13*
X198321062Y-73987548D02*
X198321062Y-72781048D01*
X198780681Y-72781048D01*
X198895586Y-72838500D01*
X198953038Y-72895952D01*
X199010490Y-73010857D01*
X199010490Y-73183214D01*
X198953038Y-73298119D01*
X198895586Y-73355571D01*
X198780681Y-73413024D01*
X198321062Y-73413024D01*
X200044633Y-72781048D02*
X199814824Y-72781048D01*
X199699919Y-72838500D01*
X199642467Y-72895952D01*
X199527562Y-73068310D01*
X199470110Y-73298119D01*
X199470110Y-73757738D01*
X199527562Y-73872643D01*
X199585014Y-73930095D01*
X199699919Y-73987548D01*
X199929729Y-73987548D01*
X200044633Y-73930095D01*
X200102086Y-73872643D01*
X200159538Y-73757738D01*
X200159538Y-73470476D01*
X200102086Y-73355571D01*
X200044633Y-73298119D01*
X199929729Y-73240667D01*
X199699919Y-73240667D01*
X199585014Y-73298119D01*
X199527562Y-73355571D01*
X199470110Y-73470476D01*
D16*
X199086690Y-78876443D02*
X199029238Y-78933895D01*
X198856881Y-78991348D01*
X198741976Y-78991348D01*
X198569619Y-78933895D01*
X198454714Y-78818990D01*
X198397262Y-78704086D01*
X198339810Y-78474276D01*
X198339810Y-78301919D01*
X198397262Y-78072110D01*
X198454714Y-77957205D01*
X198569619Y-77842300D01*
X198741976Y-77784848D01*
X198856881Y-77784848D01*
X199029238Y-77842300D01*
X199086690Y-77899752D01*
X199833571Y-77784848D02*
X200063381Y-77784848D01*
X200178286Y-77842300D01*
X200293190Y-77957205D01*
X200350643Y-78187014D01*
X200350643Y-78589181D01*
X200293190Y-78818990D01*
X200178286Y-78933895D01*
X200063381Y-78991348D01*
X199833571Y-78991348D01*
X199718667Y-78933895D01*
X199603762Y-78818990D01*
X199546310Y-78589181D01*
X199546310Y-78187014D01*
X199603762Y-77957205D01*
X199718667Y-77842300D01*
X199833571Y-77784848D01*
X200867714Y-78991348D02*
X200867714Y-77784848D01*
X201557142Y-78991348D01*
X201557142Y-77784848D01*
X202131666Y-78991348D02*
X202131666Y-77784848D01*
X202821094Y-78991348D01*
X202821094Y-77784848D01*
X203108356Y-79106252D02*
X204027594Y-79106252D01*
X204544665Y-77784848D02*
X204659570Y-77784848D01*
X204774475Y-77842300D01*
X204831927Y-77899752D01*
X204889380Y-78014657D01*
X204946832Y-78244467D01*
X204946832Y-78531729D01*
X204889380Y-78761538D01*
X204831927Y-78876443D01*
X204774475Y-78933895D01*
X204659570Y-78991348D01*
X204544665Y-78991348D01*
X204429761Y-78933895D01*
X204372308Y-78876443D01*
X204314856Y-78761538D01*
X204257404Y-78531729D01*
X204257404Y-78244467D01*
X204314856Y-78014657D01*
X204372308Y-77899752D01*
X204429761Y-77842300D01*
X204544665Y-77784848D01*
X206095880Y-78991348D02*
X205406452Y-78991348D01*
X205751166Y-78991348D02*
X205751166Y-77784848D01*
X205636261Y-77957205D01*
X205521356Y-78072110D01*
X205406452Y-78129562D01*
X206498047Y-77784848D02*
X207302380Y-78991348D01*
X207302380Y-77784848D02*
X206498047Y-78991348D01*
X207991809Y-77784848D02*
X208106714Y-77784848D01*
X208221619Y-77842300D01*
X208279071Y-77899752D01*
X208336524Y-78014657D01*
X208393976Y-78244467D01*
X208393976Y-78531729D01*
X208336524Y-78761538D01*
X208279071Y-78876443D01*
X208221619Y-78933895D01*
X208106714Y-78991348D01*
X207991809Y-78991348D01*
X207876905Y-78933895D01*
X207819452Y-78876443D01*
X207762000Y-78761538D01*
X207704548Y-78531729D01*
X207704548Y-78244467D01*
X207762000Y-78014657D01*
X207819452Y-77899752D01*
X207876905Y-77842300D01*
X207991809Y-77784848D01*
X209083405Y-78301919D02*
X208968500Y-78244467D01*
X208911048Y-78187014D01*
X208853596Y-78072110D01*
X208853596Y-78014657D01*
X208911048Y-77899752D01*
X208968500Y-77842300D01*
X209083405Y-77784848D01*
X209313215Y-77784848D01*
X209428119Y-77842300D01*
X209485572Y-77899752D01*
X209543024Y-78014657D01*
X209543024Y-78072110D01*
X209485572Y-78187014D01*
X209428119Y-78244467D01*
X209313215Y-78301919D01*
X209083405Y-78301919D01*
X208968500Y-78359371D01*
X208911048Y-78416824D01*
X208853596Y-78531729D01*
X208853596Y-78761538D01*
X208911048Y-78876443D01*
X208968500Y-78933895D01*
X209083405Y-78991348D01*
X209313215Y-78991348D01*
X209428119Y-78933895D01*
X209485572Y-78876443D01*
X209543024Y-78761538D01*
X209543024Y-78531729D01*
X209485572Y-78416824D01*
X209428119Y-78359371D01*
X209313215Y-78301919D01*
D14*
X110689429Y-159519143D02*
X109165429Y-159519143D01*
X109165429Y-158938571D01*
X109238000Y-158793429D01*
X109310571Y-158720857D01*
X109455714Y-158648286D01*
X109673429Y-158648286D01*
X109818571Y-158720857D01*
X109891143Y-158793429D01*
X109963714Y-158938571D01*
X109963714Y-159519143D01*
X110254000Y-158067714D02*
X110254000Y-157342000D01*
X110689429Y-158212857D02*
X109165429Y-157704857D01*
X110689429Y-157196857D01*
X110689429Y-156688857D02*
X109165429Y-156688857D01*
X109165429Y-156326000D01*
X109238000Y-156108285D01*
X109383143Y-155963143D01*
X109528286Y-155890571D01*
X109818571Y-155818000D01*
X110036286Y-155818000D01*
X110326571Y-155890571D01*
X110471714Y-155963143D01*
X110616857Y-156108285D01*
X110689429Y-156326000D01*
X110689429Y-156688857D01*
X110108857Y-155164857D02*
X110108857Y-154003714D01*
X110689429Y-153278000D02*
X109673429Y-153278000D01*
X109818571Y-153278000D02*
X109746000Y-153205428D01*
X109673429Y-153060286D01*
X109673429Y-152842571D01*
X109746000Y-152697428D01*
X109891143Y-152624857D01*
X110689429Y-152624857D01*
X109891143Y-152624857D02*
X109746000Y-152552286D01*
X109673429Y-152407143D01*
X109673429Y-152189428D01*
X109746000Y-152044286D01*
X109891143Y-151971714D01*
X110689429Y-151971714D01*
X110689429Y-150592857D02*
X109891143Y-150592857D01*
X109746000Y-150665428D01*
X109673429Y-150810571D01*
X109673429Y-151100857D01*
X109746000Y-151246000D01*
X110616857Y-150592857D02*
X110689429Y-150738000D01*
X110689429Y-151100857D01*
X110616857Y-151246000D01*
X110471714Y-151318571D01*
X110326571Y-151318571D01*
X110181429Y-151246000D01*
X110108857Y-151100857D01*
X110108857Y-150738000D01*
X110036286Y-150592857D01*
X109673429Y-150084857D02*
X109673429Y-149504286D01*
X109165429Y-149867143D02*
X110471714Y-149867143D01*
X110616857Y-149794571D01*
X110689429Y-149649429D01*
X110689429Y-149504286D01*
X110689429Y-148996286D02*
X109673429Y-148996286D01*
X109963714Y-148996286D02*
X109818571Y-148923714D01*
X109746000Y-148851143D01*
X109673429Y-148706000D01*
X109673429Y-148560857D01*
X110689429Y-148052857D02*
X109673429Y-148052857D01*
X109165429Y-148052857D02*
X109238000Y-148125428D01*
X109310571Y-148052857D01*
X109238000Y-147980285D01*
X109165429Y-148052857D01*
X109310571Y-148052857D01*
X110689429Y-147472286D02*
X109673429Y-146674000D01*
X109673429Y-147472286D02*
X110689429Y-146674000D01*
X110108857Y-146093429D02*
X110108857Y-144932286D01*
X110689429Y-143408286D02*
X110689429Y-144279143D01*
X110689429Y-143843715D02*
X109165429Y-143843715D01*
X109383143Y-143988858D01*
X109528286Y-144134000D01*
X109600857Y-144279143D01*
X109891143Y-152878857D02*
X109963714Y-152661143D01*
X110036286Y-152588571D01*
X110181429Y-152516000D01*
X110399143Y-152516000D01*
X110544286Y-152588571D01*
X110616857Y-152661143D01*
X110689429Y-152806285D01*
X110689429Y-153386857D01*
X109165429Y-153386857D01*
X109165429Y-152878857D01*
X109238000Y-152733714D01*
X109310571Y-152661143D01*
X109455714Y-152588571D01*
X109600857Y-152588571D01*
X109746000Y-152661143D01*
X109818571Y-152733714D01*
X109891143Y-152878857D01*
X109891143Y-153386857D01*
X110689429Y-151862857D02*
X109165429Y-151862857D01*
X109165429Y-151282285D01*
X109238000Y-151137143D01*
X109310571Y-151064571D01*
X109455714Y-150992000D01*
X109673429Y-150992000D01*
X109818571Y-151064571D01*
X109891143Y-151137143D01*
X109963714Y-151282285D01*
X109963714Y-151862857D01*
X109165429Y-150484000D02*
X109165429Y-149540571D01*
X109746000Y-150048571D01*
X109746000Y-149830857D01*
X109818571Y-149685714D01*
X109891143Y-149613143D01*
X110036286Y-149540571D01*
X110399143Y-149540571D01*
X110544286Y-149613143D01*
X110616857Y-149685714D01*
X110689429Y-149830857D01*
X110689429Y-150266285D01*
X110616857Y-150411428D01*
X110544286Y-150484000D01*
D15*
X70362114Y-138968648D02*
X70408076Y-139014610D01*
X70454038Y-139152495D01*
X70454038Y-139244419D01*
X70408076Y-139382305D01*
X70316152Y-139474229D01*
X70224229Y-139520190D01*
X70040381Y-139566152D01*
X69902495Y-139566152D01*
X69718648Y-139520190D01*
X69626724Y-139474229D01*
X69534800Y-139382305D01*
X69488838Y-139244419D01*
X69488838Y-139152495D01*
X69534800Y-139014610D01*
X69580762Y-138968648D01*
X69488838Y-138646914D02*
X69488838Y-138049410D01*
X69856533Y-138371143D01*
X69856533Y-138233257D01*
X69902495Y-138141333D01*
X69948457Y-138095371D01*
X70040381Y-138049410D01*
X70270190Y-138049410D01*
X70362114Y-138095371D01*
X70408076Y-138141333D01*
X70454038Y-138233257D01*
X70454038Y-138509029D01*
X70408076Y-138600952D01*
X70362114Y-138646914D01*
X70362114Y-113968648D02*
X70408076Y-114014610D01*
X70454038Y-114152495D01*
X70454038Y-114244419D01*
X70408076Y-114382305D01*
X70316152Y-114474229D01*
X70224229Y-114520190D01*
X70040381Y-114566152D01*
X69902495Y-114566152D01*
X69718648Y-114520190D01*
X69626724Y-114474229D01*
X69534800Y-114382305D01*
X69488838Y-114244419D01*
X69488838Y-114152495D01*
X69534800Y-114014610D01*
X69580762Y-113968648D01*
X69810571Y-113141333D02*
X70454038Y-113141333D01*
X69442876Y-113371143D02*
X70132305Y-113600952D01*
X70132305Y-113003448D01*
X95362114Y-138968648D02*
X95408076Y-139014610D01*
X95454038Y-139152495D01*
X95454038Y-139244419D01*
X95408076Y-139382305D01*
X95316152Y-139474229D01*
X95224229Y-139520190D01*
X95040381Y-139566152D01*
X94902495Y-139566152D01*
X94718648Y-139520190D01*
X94626724Y-139474229D01*
X94534800Y-139382305D01*
X94488838Y-139244419D01*
X94488838Y-139152495D01*
X94534800Y-139014610D01*
X94580762Y-138968648D01*
X95454038Y-138049410D02*
X95454038Y-138600952D01*
X95454038Y-138325181D02*
X94488838Y-138325181D01*
X94626724Y-138417105D01*
X94718648Y-138509029D01*
X94764610Y-138600952D01*
X95612114Y-113968648D02*
X95658076Y-114014610D01*
X95704038Y-114152495D01*
X95704038Y-114244419D01*
X95658076Y-114382305D01*
X95566152Y-114474229D01*
X95474229Y-114520190D01*
X95290381Y-114566152D01*
X95152495Y-114566152D01*
X94968648Y-114520190D01*
X94876724Y-114474229D01*
X94784800Y-114382305D01*
X94738838Y-114244419D01*
X94738838Y-114152495D01*
X94784800Y-114014610D01*
X94830762Y-113968648D01*
X94830762Y-113600952D02*
X94784800Y-113554990D01*
X94738838Y-113463067D01*
X94738838Y-113233257D01*
X94784800Y-113141333D01*
X94830762Y-113095371D01*
X94922686Y-113049410D01*
X95014610Y-113049410D01*
X95152495Y-113095371D01*
X95704038Y-113646914D01*
X95704038Y-113049410D01*
D14*
X110689429Y-109519143D02*
X109165429Y-109519143D01*
X109165429Y-108938571D01*
X109238000Y-108793429D01*
X109310571Y-108720857D01*
X109455714Y-108648286D01*
X109673429Y-108648286D01*
X109818571Y-108720857D01*
X109891143Y-108793429D01*
X109963714Y-108938571D01*
X109963714Y-109519143D01*
X110254000Y-108067714D02*
X110254000Y-107342000D01*
X110689429Y-108212857D02*
X109165429Y-107704857D01*
X110689429Y-107196857D01*
X110689429Y-106688857D02*
X109165429Y-106688857D01*
X109165429Y-106326000D01*
X109238000Y-106108285D01*
X109383143Y-105963143D01*
X109528286Y-105890571D01*
X109818571Y-105818000D01*
X110036286Y-105818000D01*
X110326571Y-105890571D01*
X110471714Y-105963143D01*
X110616857Y-106108285D01*
X110689429Y-106326000D01*
X110689429Y-106688857D01*
X110108857Y-105164857D02*
X110108857Y-104003714D01*
X110689429Y-103278000D02*
X109673429Y-103278000D01*
X109818571Y-103278000D02*
X109746000Y-103205428D01*
X109673429Y-103060286D01*
X109673429Y-102842571D01*
X109746000Y-102697428D01*
X109891143Y-102624857D01*
X110689429Y-102624857D01*
X109891143Y-102624857D02*
X109746000Y-102552286D01*
X109673429Y-102407143D01*
X109673429Y-102189428D01*
X109746000Y-102044286D01*
X109891143Y-101971714D01*
X110689429Y-101971714D01*
X110689429Y-100592857D02*
X109891143Y-100592857D01*
X109746000Y-100665428D01*
X109673429Y-100810571D01*
X109673429Y-101100857D01*
X109746000Y-101246000D01*
X110616857Y-100592857D02*
X110689429Y-100738000D01*
X110689429Y-101100857D01*
X110616857Y-101246000D01*
X110471714Y-101318571D01*
X110326571Y-101318571D01*
X110181429Y-101246000D01*
X110108857Y-101100857D01*
X110108857Y-100738000D01*
X110036286Y-100592857D01*
X109673429Y-100084857D02*
X109673429Y-99504286D01*
X109165429Y-99867143D02*
X110471714Y-99867143D01*
X110616857Y-99794571D01*
X110689429Y-99649429D01*
X110689429Y-99504286D01*
X110689429Y-98996286D02*
X109673429Y-98996286D01*
X109963714Y-98996286D02*
X109818571Y-98923714D01*
X109746000Y-98851143D01*
X109673429Y-98706000D01*
X109673429Y-98560857D01*
X110689429Y-98052857D02*
X109673429Y-98052857D01*
X109165429Y-98052857D02*
X109238000Y-98125428D01*
X109310571Y-98052857D01*
X109238000Y-97980285D01*
X109165429Y-98052857D01*
X109310571Y-98052857D01*
X110689429Y-97472286D02*
X109673429Y-96674000D01*
X109673429Y-97472286D02*
X110689429Y-96674000D01*
X110108857Y-96093429D02*
X110108857Y-94932286D01*
X109310571Y-94279143D02*
X109238000Y-94206572D01*
X109165429Y-94061429D01*
X109165429Y-93698572D01*
X109238000Y-93553429D01*
X109310571Y-93480858D01*
X109455714Y-93408286D01*
X109600857Y-93408286D01*
X109818571Y-93480858D01*
X110689429Y-94351715D01*
X110689429Y-93408286D01*
X109891143Y-103604572D02*
X109963714Y-103386858D01*
X110036286Y-103314286D01*
X110181429Y-103241715D01*
X110399143Y-103241715D01*
X110544286Y-103314286D01*
X110616857Y-103386858D01*
X110689429Y-103532000D01*
X110689429Y-104112572D01*
X109165429Y-104112572D01*
X109165429Y-103604572D01*
X109238000Y-103459429D01*
X109310571Y-103386858D01*
X109455714Y-103314286D01*
X109600857Y-103314286D01*
X109746000Y-103386858D01*
X109818571Y-103459429D01*
X109891143Y-103604572D01*
X109891143Y-104112572D01*
X110689429Y-102588572D02*
X109165429Y-102588572D01*
X109165429Y-102008000D01*
X109238000Y-101862858D01*
X109310571Y-101790286D01*
X109455714Y-101717715D01*
X109673429Y-101717715D01*
X109818571Y-101790286D01*
X109891143Y-101862858D01*
X109963714Y-102008000D01*
X109963714Y-102588572D01*
X110689429Y-100266286D02*
X110689429Y-101137143D01*
X110689429Y-100701715D02*
X109165429Y-100701715D01*
X109383143Y-100846858D01*
X109528286Y-100992000D01*
X109600857Y-101137143D01*
X109165429Y-98887429D02*
X109165429Y-99613143D01*
X109891143Y-99685714D01*
X109818571Y-99613143D01*
X109746000Y-99468000D01*
X109746000Y-99105143D01*
X109818571Y-98960000D01*
X109891143Y-98887429D01*
X110036286Y-98814857D01*
X110399143Y-98814857D01*
X110544286Y-98887429D01*
X110616857Y-98960000D01*
X110689429Y-99105143D01*
X110689429Y-99468000D01*
X110616857Y-99613143D01*
X110544286Y-99685714D01*
D15*
X70362114Y-88968648D02*
X70408076Y-89014610D01*
X70454038Y-89152495D01*
X70454038Y-89244419D01*
X70408076Y-89382305D01*
X70316152Y-89474229D01*
X70224229Y-89520190D01*
X70040381Y-89566152D01*
X69902495Y-89566152D01*
X69718648Y-89520190D01*
X69626724Y-89474229D01*
X69534800Y-89382305D01*
X69488838Y-89244419D01*
X69488838Y-89152495D01*
X69534800Y-89014610D01*
X69580762Y-88968648D01*
X69488838Y-88646914D02*
X69488838Y-88049410D01*
X69856533Y-88371143D01*
X69856533Y-88233257D01*
X69902495Y-88141333D01*
X69948457Y-88095371D01*
X70040381Y-88049410D01*
X70270190Y-88049410D01*
X70362114Y-88095371D01*
X70408076Y-88141333D01*
X70454038Y-88233257D01*
X70454038Y-88509029D01*
X70408076Y-88600952D01*
X70362114Y-88646914D01*
X70362114Y-63968648D02*
X70408076Y-64014610D01*
X70454038Y-64152495D01*
X70454038Y-64244419D01*
X70408076Y-64382305D01*
X70316152Y-64474229D01*
X70224229Y-64520190D01*
X70040381Y-64566152D01*
X69902495Y-64566152D01*
X69718648Y-64520190D01*
X69626724Y-64474229D01*
X69534800Y-64382305D01*
X69488838Y-64244419D01*
X69488838Y-64152495D01*
X69534800Y-64014610D01*
X69580762Y-63968648D01*
X69810571Y-63141333D02*
X70454038Y-63141333D01*
X69442876Y-63371143D02*
X70132305Y-63600952D01*
X70132305Y-63003448D01*
X95362114Y-88968648D02*
X95408076Y-89014610D01*
X95454038Y-89152495D01*
X95454038Y-89244419D01*
X95408076Y-89382305D01*
X95316152Y-89474229D01*
X95224229Y-89520190D01*
X95040381Y-89566152D01*
X94902495Y-89566152D01*
X94718648Y-89520190D01*
X94626724Y-89474229D01*
X94534800Y-89382305D01*
X94488838Y-89244419D01*
X94488838Y-89152495D01*
X94534800Y-89014610D01*
X94580762Y-88968648D01*
X95454038Y-88049410D02*
X95454038Y-88600952D01*
X95454038Y-88325181D02*
X94488838Y-88325181D01*
X94626724Y-88417105D01*
X94718648Y-88509029D01*
X94764610Y-88600952D01*
X95612114Y-63968648D02*
X95658076Y-64014610D01*
X95704038Y-64152495D01*
X95704038Y-64244419D01*
X95658076Y-64382305D01*
X95566152Y-64474229D01*
X95474229Y-64520190D01*
X95290381Y-64566152D01*
X95152495Y-64566152D01*
X94968648Y-64520190D01*
X94876724Y-64474229D01*
X94784800Y-64382305D01*
X94738838Y-64244419D01*
X94738838Y-64152495D01*
X94784800Y-64014610D01*
X94830762Y-63968648D01*
X94830762Y-63600952D02*
X94784800Y-63554990D01*
X94738838Y-63463067D01*
X94738838Y-63233257D01*
X94784800Y-63141333D01*
X94830762Y-63095371D01*
X94922686Y-63049410D01*
X95014610Y-63049410D01*
X95152495Y-63095371D01*
X95704038Y-63646914D01*
X95704038Y-63049410D01*
D14*
X160689429Y-159519143D02*
X159165429Y-159519143D01*
X159165429Y-158938571D01*
X159238000Y-158793429D01*
X159310571Y-158720857D01*
X159455714Y-158648286D01*
X159673429Y-158648286D01*
X159818571Y-158720857D01*
X159891143Y-158793429D01*
X159963714Y-158938571D01*
X159963714Y-159519143D01*
X160254000Y-158067714D02*
X160254000Y-157342000D01*
X160689429Y-158212857D02*
X159165429Y-157704857D01*
X160689429Y-157196857D01*
X160689429Y-156688857D02*
X159165429Y-156688857D01*
X159165429Y-156326000D01*
X159238000Y-156108285D01*
X159383143Y-155963143D01*
X159528286Y-155890571D01*
X159818571Y-155818000D01*
X160036286Y-155818000D01*
X160326571Y-155890571D01*
X160471714Y-155963143D01*
X160616857Y-156108285D01*
X160689429Y-156326000D01*
X160689429Y-156688857D01*
X160108857Y-155164857D02*
X160108857Y-154003714D01*
X160689429Y-153278000D02*
X159673429Y-153278000D01*
X159818571Y-153278000D02*
X159746000Y-153205428D01*
X159673429Y-153060286D01*
X159673429Y-152842571D01*
X159746000Y-152697428D01*
X159891143Y-152624857D01*
X160689429Y-152624857D01*
X159891143Y-152624857D02*
X159746000Y-152552286D01*
X159673429Y-152407143D01*
X159673429Y-152189428D01*
X159746000Y-152044286D01*
X159891143Y-151971714D01*
X160689429Y-151971714D01*
X160689429Y-150592857D02*
X159891143Y-150592857D01*
X159746000Y-150665428D01*
X159673429Y-150810571D01*
X159673429Y-151100857D01*
X159746000Y-151246000D01*
X160616857Y-150592857D02*
X160689429Y-150738000D01*
X160689429Y-151100857D01*
X160616857Y-151246000D01*
X160471714Y-151318571D01*
X160326571Y-151318571D01*
X160181429Y-151246000D01*
X160108857Y-151100857D01*
X160108857Y-150738000D01*
X160036286Y-150592857D01*
X159673429Y-150084857D02*
X159673429Y-149504286D01*
X159165429Y-149867143D02*
X160471714Y-149867143D01*
X160616857Y-149794571D01*
X160689429Y-149649429D01*
X160689429Y-149504286D01*
X160689429Y-148996286D02*
X159673429Y-148996286D01*
X159963714Y-148996286D02*
X159818571Y-148923714D01*
X159746000Y-148851143D01*
X159673429Y-148706000D01*
X159673429Y-148560857D01*
X160689429Y-148052857D02*
X159673429Y-148052857D01*
X159165429Y-148052857D02*
X159238000Y-148125428D01*
X159310571Y-148052857D01*
X159238000Y-147980285D01*
X159165429Y-148052857D01*
X159310571Y-148052857D01*
X160689429Y-147472286D02*
X159673429Y-146674000D01*
X159673429Y-147472286D02*
X160689429Y-146674000D01*
X160108857Y-146093429D02*
X160108857Y-144932286D01*
X159165429Y-144351715D02*
X159165429Y-143408286D01*
X159746000Y-143916286D01*
X159746000Y-143698572D01*
X159818571Y-143553429D01*
X159891143Y-143480858D01*
X160036286Y-143408286D01*
X160399143Y-143408286D01*
X160544286Y-143480858D01*
X160616857Y-143553429D01*
X160689429Y-143698572D01*
X160689429Y-144134000D01*
X160616857Y-144279143D01*
X160544286Y-144351715D01*
X159891143Y-153604572D02*
X159963714Y-153386858D01*
X160036286Y-153314286D01*
X160181429Y-153241715D01*
X160399143Y-153241715D01*
X160544286Y-153314286D01*
X160616857Y-153386858D01*
X160689429Y-153532000D01*
X160689429Y-154112572D01*
X159165429Y-154112572D01*
X159165429Y-153604572D01*
X159238000Y-153459429D01*
X159310571Y-153386858D01*
X159455714Y-153314286D01*
X159600857Y-153314286D01*
X159746000Y-153386858D01*
X159818571Y-153459429D01*
X159891143Y-153604572D01*
X159891143Y-154112572D01*
X160689429Y-152588572D02*
X159165429Y-152588572D01*
X159165429Y-152008000D01*
X159238000Y-151862858D01*
X159310571Y-151790286D01*
X159455714Y-151717715D01*
X159673429Y-151717715D01*
X159818571Y-151790286D01*
X159891143Y-151862858D01*
X159963714Y-152008000D01*
X159963714Y-152588572D01*
X160689429Y-150266286D02*
X160689429Y-151137143D01*
X160689429Y-150701715D02*
X159165429Y-150701715D01*
X159383143Y-150846858D01*
X159528286Y-150992000D01*
X159600857Y-151137143D01*
X160689429Y-148814857D02*
X160689429Y-149685714D01*
X160689429Y-149250286D02*
X159165429Y-149250286D01*
X159383143Y-149395429D01*
X159528286Y-149540571D01*
X159600857Y-149685714D01*
D15*
X120844714Y-139910867D02*
X120890676Y-139956829D01*
X120936638Y-140094714D01*
X120936638Y-140186638D01*
X120890676Y-140324524D01*
X120798752Y-140416448D01*
X120706829Y-140462409D01*
X120522981Y-140508371D01*
X120385095Y-140508371D01*
X120201248Y-140462409D01*
X120109324Y-140416448D01*
X120017400Y-140324524D01*
X119971438Y-140186638D01*
X119971438Y-140094714D01*
X120017400Y-139956829D01*
X120063362Y-139910867D01*
X119971438Y-139589133D02*
X119971438Y-138991629D01*
X120339133Y-139313362D01*
X120339133Y-139175476D01*
X120385095Y-139083552D01*
X120431057Y-139037590D01*
X120522981Y-138991629D01*
X120752790Y-138991629D01*
X120844714Y-139037590D01*
X120890676Y-139083552D01*
X120936638Y-139175476D01*
X120936638Y-139451248D01*
X120890676Y-139543171D01*
X120844714Y-139589133D01*
X120844714Y-114910867D02*
X120890676Y-114956829D01*
X120936638Y-115094714D01*
X120936638Y-115186638D01*
X120890676Y-115324524D01*
X120798752Y-115416448D01*
X120706829Y-115462409D01*
X120522981Y-115508371D01*
X120385095Y-115508371D01*
X120201248Y-115462409D01*
X120109324Y-115416448D01*
X120017400Y-115324524D01*
X119971438Y-115186638D01*
X119971438Y-115094714D01*
X120017400Y-114956829D01*
X120063362Y-114910867D01*
X120293171Y-114083552D02*
X120936638Y-114083552D01*
X119925476Y-114313362D02*
X120614905Y-114543171D01*
X120614905Y-113945667D01*
X145844714Y-139910867D02*
X145890676Y-139956829D01*
X145936638Y-140094714D01*
X145936638Y-140186638D01*
X145890676Y-140324524D01*
X145798752Y-140416448D01*
X145706829Y-140462409D01*
X145522981Y-140508371D01*
X145385095Y-140508371D01*
X145201248Y-140462409D01*
X145109324Y-140416448D01*
X145017400Y-140324524D01*
X144971438Y-140186638D01*
X144971438Y-140094714D01*
X145017400Y-139956829D01*
X145063362Y-139910867D01*
X145936638Y-138991629D02*
X145936638Y-139543171D01*
X145936638Y-139267400D02*
X144971438Y-139267400D01*
X145109324Y-139359324D01*
X145201248Y-139451248D01*
X145247210Y-139543171D01*
X146094714Y-114910867D02*
X146140676Y-114956829D01*
X146186638Y-115094714D01*
X146186638Y-115186638D01*
X146140676Y-115324524D01*
X146048752Y-115416448D01*
X145956829Y-115462409D01*
X145772981Y-115508371D01*
X145635095Y-115508371D01*
X145451248Y-115462409D01*
X145359324Y-115416448D01*
X145267400Y-115324524D01*
X145221438Y-115186638D01*
X145221438Y-115094714D01*
X145267400Y-114956829D01*
X145313362Y-114910867D01*
X145313362Y-114543171D02*
X145267400Y-114497209D01*
X145221438Y-114405286D01*
X145221438Y-114175476D01*
X145267400Y-114083552D01*
X145313362Y-114037590D01*
X145405286Y-113991629D01*
X145497210Y-113991629D01*
X145635095Y-114037590D01*
X146186638Y-114589133D01*
X146186638Y-113991629D01*
D14*
X214616261Y-121892746D02*
X214140070Y-122226080D01*
X214616261Y-122464175D02*
X213616261Y-122464175D01*
X213616261Y-122083222D01*
X213663880Y-121987984D01*
X213711499Y-121940365D01*
X213806737Y-121892746D01*
X213949594Y-121892746D01*
X214044832Y-121940365D01*
X214092451Y-121987984D01*
X214140070Y-122083222D01*
X214140070Y-122464175D01*
X214616261Y-120940365D02*
X214616261Y-121511794D01*
X214616261Y-121226080D02*
X213616261Y-121226080D01*
X213759118Y-121321318D01*
X213854356Y-121416556D01*
X213901975Y-121511794D01*
X224156501Y-122390586D02*
X223680310Y-122723920D01*
X224156501Y-122962015D02*
X223156501Y-122962015D01*
X223156501Y-122581062D01*
X223204120Y-122485824D01*
X223251739Y-122438205D01*
X223346977Y-122390586D01*
X223489834Y-122390586D01*
X223585072Y-122438205D01*
X223632691Y-122485824D01*
X223680310Y-122581062D01*
X223680310Y-122962015D01*
X223251739Y-122009634D02*
X223204120Y-121962015D01*
X223156501Y-121866777D01*
X223156501Y-121628681D01*
X223204120Y-121533443D01*
X223251739Y-121485824D01*
X223346977Y-121438205D01*
X223442215Y-121438205D01*
X223585072Y-121485824D01*
X224156501Y-122057253D01*
X224156501Y-121438205D01*
X169658762Y-142918333D02*
X169706381Y-142775476D01*
X169706381Y-142537380D01*
X169658762Y-142442142D01*
X169611143Y-142394523D01*
X169515905Y-142346904D01*
X169420667Y-142346904D01*
X169325429Y-142394523D01*
X169277810Y-142442142D01*
X169230190Y-142537380D01*
X169182571Y-142727857D01*
X169134952Y-142823095D01*
X169087333Y-142870714D01*
X168992095Y-142918333D01*
X168896857Y-142918333D01*
X168801619Y-142870714D01*
X168754000Y-142823095D01*
X168706381Y-142727857D01*
X168706381Y-142489761D01*
X168754000Y-142346904D01*
X168706381Y-142013571D02*
X169706381Y-141775476D01*
X168992095Y-141584999D01*
X169706381Y-141394523D01*
X168706381Y-141156428D01*
X169706381Y-140251666D02*
X169706381Y-140823095D01*
X169706381Y-140537381D02*
X168706381Y-140537381D01*
X168849238Y-140632619D01*
X168944476Y-140727857D01*
X168992095Y-140823095D01*
X169658762Y-117518333D02*
X169706381Y-117375476D01*
X169706381Y-117137380D01*
X169658762Y-117042142D01*
X169611143Y-116994523D01*
X169515905Y-116946904D01*
X169420667Y-116946904D01*
X169325429Y-116994523D01*
X169277810Y-117042142D01*
X169230190Y-117137380D01*
X169182571Y-117327857D01*
X169134952Y-117423095D01*
X169087333Y-117470714D01*
X168992095Y-117518333D01*
X168896857Y-117518333D01*
X168801619Y-117470714D01*
X168754000Y-117423095D01*
X168706381Y-117327857D01*
X168706381Y-117089761D01*
X168754000Y-116946904D01*
X168706381Y-116613571D02*
X169706381Y-116375476D01*
X168992095Y-116184999D01*
X169706381Y-115994523D01*
X168706381Y-115756428D01*
X168801619Y-115423095D02*
X168754000Y-115375476D01*
X168706381Y-115280238D01*
X168706381Y-115042142D01*
X168754000Y-114946904D01*
X168801619Y-114899285D01*
X168896857Y-114851666D01*
X168992095Y-114851666D01*
X169134952Y-114899285D01*
X169706381Y-115470714D01*
X169706381Y-114851666D01*
X169658762Y-90848533D02*
X169706381Y-90705676D01*
X169706381Y-90467580D01*
X169658762Y-90372342D01*
X169611143Y-90324723D01*
X169515905Y-90277104D01*
X169420667Y-90277104D01*
X169325429Y-90324723D01*
X169277810Y-90372342D01*
X169230190Y-90467580D01*
X169182571Y-90658057D01*
X169134952Y-90753295D01*
X169087333Y-90800914D01*
X168992095Y-90848533D01*
X168896857Y-90848533D01*
X168801619Y-90800914D01*
X168754000Y-90753295D01*
X168706381Y-90658057D01*
X168706381Y-90419961D01*
X168754000Y-90277104D01*
X168706381Y-89943771D02*
X169706381Y-89705676D01*
X168992095Y-89515199D01*
X169706381Y-89324723D01*
X168706381Y-89086628D01*
X168706381Y-88800914D02*
X168706381Y-88181866D01*
X169087333Y-88515200D01*
X169087333Y-88372342D01*
X169134952Y-88277104D01*
X169182571Y-88229485D01*
X169277810Y-88181866D01*
X169515905Y-88181866D01*
X169611143Y-88229485D01*
X169658762Y-88277104D01*
X169706381Y-88372342D01*
X169706381Y-88658057D01*
X169658762Y-88753295D01*
X169611143Y-88800914D01*
X169658762Y-66718533D02*
X169706381Y-66575676D01*
X169706381Y-66337580D01*
X169658762Y-66242342D01*
X169611143Y-66194723D01*
X169515905Y-66147104D01*
X169420667Y-66147104D01*
X169325429Y-66194723D01*
X169277810Y-66242342D01*
X169230190Y-66337580D01*
X169182571Y-66528057D01*
X169134952Y-66623295D01*
X169087333Y-66670914D01*
X168992095Y-66718533D01*
X168896857Y-66718533D01*
X168801619Y-66670914D01*
X168754000Y-66623295D01*
X168706381Y-66528057D01*
X168706381Y-66289961D01*
X168754000Y-66147104D01*
X168706381Y-65813771D02*
X169706381Y-65575676D01*
X168992095Y-65385199D01*
X169706381Y-65194723D01*
X168706381Y-64956628D01*
X169039714Y-64147104D02*
X169706381Y-64147104D01*
X168658762Y-64385200D02*
X169373048Y-64623295D01*
X169373048Y-64004247D01*
D17*
X27175535Y-116218076D02*
X27488076Y-116218076D01*
X27524846Y-116199691D01*
X27543230Y-116181307D01*
X27561615Y-116144537D01*
X27561615Y-116070998D01*
X27543230Y-116034229D01*
X27524846Y-116015844D01*
X27488076Y-115997459D01*
X27175535Y-115997459D01*
X27212305Y-115831996D02*
X27193920Y-115813611D01*
X27175535Y-115776842D01*
X27175535Y-115684918D01*
X27193920Y-115648148D01*
X27212305Y-115629764D01*
X27249074Y-115611379D01*
X27285844Y-115611379D01*
X27340998Y-115629764D01*
X27561615Y-115850381D01*
X27561615Y-115611379D01*
X36294846Y-115997459D02*
X36313230Y-116015844D01*
X36331615Y-116070998D01*
X36331615Y-116107768D01*
X36313230Y-116162922D01*
X36276461Y-116199691D01*
X36239691Y-116218076D01*
X36166152Y-116236461D01*
X36110998Y-116236461D01*
X36037459Y-116218076D01*
X36000690Y-116199691D01*
X35963920Y-116162922D01*
X35945535Y-116107768D01*
X35945535Y-116070998D01*
X35963920Y-116015844D01*
X35982305Y-115997459D01*
X36331615Y-115831996D02*
X35945535Y-115831996D01*
X35945535Y-115740072D01*
X35963920Y-115684918D01*
X36000690Y-115648149D01*
X36037459Y-115629764D01*
X36110998Y-115611379D01*
X36166152Y-115611379D01*
X36239691Y-115629764D01*
X36276461Y-115648149D01*
X36313230Y-115684918D01*
X36331615Y-115740072D01*
X36331615Y-115831996D01*
X35945535Y-115482686D02*
X35945535Y-115225299D01*
X36331615Y-115390762D01*
X36074229Y-114912758D02*
X36331615Y-114912758D01*
X35927150Y-115004682D02*
X36202922Y-115096606D01*
X36202922Y-114857604D01*
X36331615Y-114710526D02*
X35945535Y-114710526D01*
X36129383Y-114710526D02*
X36129383Y-114489909D01*
X36331615Y-114489909D02*
X35945535Y-114489909D01*
X36294846Y-114085444D02*
X36313230Y-114103829D01*
X36331615Y-114158983D01*
X36331615Y-114195753D01*
X36313230Y-114250907D01*
X36276461Y-114287676D01*
X36239691Y-114306061D01*
X36166152Y-114324446D01*
X36110998Y-114324446D01*
X36037459Y-114306061D01*
X36000690Y-114287676D01*
X35963920Y-114250907D01*
X35945535Y-114195753D01*
X35945535Y-114158983D01*
X35963920Y-114103829D01*
X35982305Y-114085444D01*
X35945535Y-113975135D02*
X35945535Y-113754518D01*
X36331615Y-113864827D02*
X35945535Y-113864827D01*
X36074229Y-113460362D02*
X36331615Y-113460362D01*
X35927150Y-113552286D02*
X36202922Y-113644210D01*
X36202922Y-113405208D01*
X35945535Y-113184591D02*
X35945535Y-113147822D01*
X35963920Y-113111052D01*
X35982305Y-113092667D01*
X36019074Y-113074283D01*
X36092613Y-113055898D01*
X36184537Y-113055898D01*
X36258076Y-113074283D01*
X36294846Y-113092667D01*
X36313230Y-113111052D01*
X36331615Y-113147822D01*
X36331615Y-113184591D01*
X36313230Y-113221361D01*
X36294846Y-113239745D01*
X36258076Y-113258130D01*
X36184537Y-113276515D01*
X36092613Y-113276515D01*
X36019074Y-113258130D01*
X35982305Y-113239745D01*
X35963920Y-113221361D01*
X35945535Y-113184591D01*
X35945535Y-112724972D02*
X35945535Y-112798511D01*
X35963920Y-112835281D01*
X35982305Y-112853666D01*
X36037459Y-112890435D01*
X36110998Y-112908820D01*
X36258076Y-112908820D01*
X36294846Y-112890435D01*
X36313230Y-112872050D01*
X36331615Y-112835281D01*
X36331615Y-112761742D01*
X36313230Y-112724972D01*
X36294846Y-112706588D01*
X36258076Y-112688203D01*
X36166152Y-112688203D01*
X36129383Y-112706588D01*
X36110998Y-112724972D01*
X36092613Y-112761742D01*
X36092613Y-112835281D01*
X36110998Y-112872050D01*
X36129383Y-112890435D01*
X36166152Y-112908820D01*
X35945535Y-112559510D02*
X35945535Y-112302123D01*
X36331615Y-112467586D01*
X27175535Y-73038076D02*
X27488076Y-73038076D01*
X27524846Y-73019691D01*
X27543230Y-73001307D01*
X27561615Y-72964537D01*
X27561615Y-72890998D01*
X27543230Y-72854229D01*
X27524846Y-72835844D01*
X27488076Y-72817459D01*
X27175535Y-72817459D01*
X27175535Y-72670381D02*
X27175535Y-72431379D01*
X27322613Y-72560072D01*
X27322613Y-72504918D01*
X27340998Y-72468148D01*
X27359383Y-72449764D01*
X27396152Y-72431379D01*
X27488076Y-72431379D01*
X27524846Y-72449764D01*
X27543230Y-72468148D01*
X27561615Y-72504918D01*
X27561615Y-72615226D01*
X27543230Y-72651996D01*
X27524846Y-72670381D01*
X36294846Y-72817459D02*
X36313230Y-72835844D01*
X36331615Y-72890998D01*
X36331615Y-72927768D01*
X36313230Y-72982922D01*
X36276461Y-73019691D01*
X36239691Y-73038076D01*
X36166152Y-73056461D01*
X36110998Y-73056461D01*
X36037459Y-73038076D01*
X36000690Y-73019691D01*
X35963920Y-72982922D01*
X35945535Y-72927768D01*
X35945535Y-72890998D01*
X35963920Y-72835844D01*
X35982305Y-72817459D01*
X36331615Y-72651996D02*
X35945535Y-72651996D01*
X35945535Y-72560072D01*
X35963920Y-72504918D01*
X36000690Y-72468149D01*
X36037459Y-72449764D01*
X36110998Y-72431379D01*
X36166152Y-72431379D01*
X36239691Y-72449764D01*
X36276461Y-72468149D01*
X36313230Y-72504918D01*
X36331615Y-72560072D01*
X36331615Y-72651996D01*
X35945535Y-72302686D02*
X35945535Y-72045299D01*
X36331615Y-72210762D01*
X36074229Y-71732758D02*
X36331615Y-71732758D01*
X35927150Y-71824682D02*
X36202922Y-71916606D01*
X36202922Y-71677604D01*
X36331615Y-71530526D02*
X35945535Y-71530526D01*
X36129383Y-71530526D02*
X36129383Y-71309909D01*
X36331615Y-71309909D02*
X35945535Y-71309909D01*
X36294846Y-70905444D02*
X36313230Y-70923829D01*
X36331615Y-70978983D01*
X36331615Y-71015753D01*
X36313230Y-71070907D01*
X36276461Y-71107676D01*
X36239691Y-71126061D01*
X36166152Y-71144446D01*
X36110998Y-71144446D01*
X36037459Y-71126061D01*
X36000690Y-71107676D01*
X35963920Y-71070907D01*
X35945535Y-71015753D01*
X35945535Y-70978983D01*
X35963920Y-70923829D01*
X35982305Y-70905444D01*
X35945535Y-70795135D02*
X35945535Y-70574518D01*
X36331615Y-70684827D02*
X35945535Y-70684827D01*
X36074229Y-70280362D02*
X36331615Y-70280362D01*
X35927150Y-70372286D02*
X36202922Y-70464210D01*
X36202922Y-70225208D01*
X35945535Y-70004591D02*
X35945535Y-69967822D01*
X35963920Y-69931052D01*
X35982305Y-69912667D01*
X36019074Y-69894283D01*
X36092613Y-69875898D01*
X36184537Y-69875898D01*
X36258076Y-69894283D01*
X36294846Y-69912667D01*
X36313230Y-69931052D01*
X36331615Y-69967822D01*
X36331615Y-70004591D01*
X36313230Y-70041361D01*
X36294846Y-70059745D01*
X36258076Y-70078130D01*
X36184537Y-70096515D01*
X36092613Y-70096515D01*
X36019074Y-70078130D01*
X35982305Y-70059745D01*
X35963920Y-70041361D01*
X35945535Y-70004591D01*
X35945535Y-69544972D02*
X35945535Y-69618511D01*
X35963920Y-69655281D01*
X35982305Y-69673666D01*
X36037459Y-69710435D01*
X36110998Y-69728820D01*
X36258076Y-69728820D01*
X36294846Y-69710435D01*
X36313230Y-69692050D01*
X36331615Y-69655281D01*
X36331615Y-69581742D01*
X36313230Y-69544972D01*
X36294846Y-69526588D01*
X36258076Y-69508203D01*
X36166152Y-69508203D01*
X36129383Y-69526588D01*
X36110998Y-69544972D01*
X36092613Y-69581742D01*
X36092613Y-69655281D01*
X36110998Y-69692050D01*
X36129383Y-69710435D01*
X36166152Y-69728820D01*
X35945535Y-69379510D02*
X35945535Y-69122123D01*
X36331615Y-69287586D01*
D14*
X197022571Y-139627857D02*
X198022571Y-139627857D01*
X197022571Y-140270714D02*
X197808286Y-140270714D01*
X197951143Y-140199286D01*
X198022571Y-140056428D01*
X198022571Y-139842143D01*
X197951143Y-139699286D01*
X197879714Y-139627857D01*
X198022571Y-138913571D02*
X196522571Y-138913571D01*
X196522571Y-138342143D01*
X196594000Y-138199285D01*
X196665429Y-138127857D01*
X196808286Y-138056428D01*
X197022571Y-138056428D01*
X197165429Y-138127857D01*
X197236857Y-138199285D01*
X197308286Y-138342143D01*
X197308286Y-138913571D01*
X198022571Y-136627857D02*
X198022571Y-137485000D01*
X198022571Y-137056428D02*
X196522571Y-137056428D01*
X196736857Y-137199285D01*
X196879714Y-137342143D01*
X196951143Y-137485000D01*
X195054000Y-147413572D02*
X195054000Y-146699286D01*
X195482571Y-147556429D02*
X193982571Y-147056429D01*
X195482571Y-146556429D01*
X195482571Y-145199286D02*
X194768286Y-145699286D01*
X195482571Y-146056429D02*
X193982571Y-146056429D01*
X193982571Y-145485001D01*
X194054000Y-145342143D01*
X194125429Y-145270715D01*
X194268286Y-145199286D01*
X194482571Y-145199286D01*
X194625429Y-145270715D01*
X194696857Y-145342143D01*
X194768286Y-145485001D01*
X194768286Y-146056429D01*
X195482571Y-144556429D02*
X193982571Y-144556429D01*
X193982571Y-144199286D01*
X194054000Y-143985001D01*
X194196857Y-143842143D01*
X194339714Y-143770715D01*
X194625429Y-143699286D01*
X194839714Y-143699286D01*
X195125429Y-143770715D01*
X195268286Y-143842143D01*
X195411143Y-143985001D01*
X195482571Y-144199286D01*
X195482571Y-144556429D01*
X193982571Y-143056429D02*
X195196857Y-143056429D01*
X195339714Y-142985001D01*
X195411143Y-142913572D01*
X195482571Y-142770715D01*
X195482571Y-142485001D01*
X195411143Y-142342143D01*
X195339714Y-142270715D01*
X195196857Y-142199286D01*
X193982571Y-142199286D01*
X195482571Y-141485000D02*
X193982571Y-141485000D01*
X193982571Y-140913572D01*
X194054000Y-140770714D01*
X194125429Y-140699286D01*
X194268286Y-140627857D01*
X194482571Y-140627857D01*
X194625429Y-140699286D01*
X194696857Y-140770714D01*
X194768286Y-140913572D01*
X194768286Y-141485000D01*
X195482571Y-139127857D02*
X194768286Y-139627857D01*
X195482571Y-139985000D02*
X193982571Y-139985000D01*
X193982571Y-139413572D01*
X194054000Y-139270714D01*
X194125429Y-139199286D01*
X194268286Y-139127857D01*
X194482571Y-139127857D01*
X194625429Y-139199286D01*
X194696857Y-139270714D01*
X194768286Y-139413572D01*
X194768286Y-139985000D01*
X193982571Y-138199286D02*
X193982571Y-137913572D01*
X194054000Y-137770714D01*
X194196857Y-137627857D01*
X194482571Y-137556429D01*
X194982571Y-137556429D01*
X195268286Y-137627857D01*
X195411143Y-137770714D01*
X195482571Y-137913572D01*
X195482571Y-138199286D01*
X195411143Y-138342143D01*
X195268286Y-138485000D01*
X194982571Y-138556429D01*
X194482571Y-138556429D01*
X194196857Y-138485000D01*
X194054000Y-138342143D01*
X193982571Y-138199286D01*
X195482571Y-136913571D02*
X193982571Y-136913571D01*
X195054000Y-136413571D01*
X193982571Y-135913571D01*
X195482571Y-135913571D01*
X195482571Y-135199285D02*
X193982571Y-135199285D01*
X195482571Y-134484999D02*
X193982571Y-134484999D01*
X195482571Y-133627856D01*
X193982571Y-133627856D01*
X195482571Y-132913570D02*
X193982571Y-132913570D01*
X194911143Y-132199284D02*
X194911143Y-131056427D01*
X193982571Y-129699284D02*
X193982571Y-129984998D01*
X194054000Y-130127855D01*
X194125429Y-130199284D01*
X194339714Y-130342141D01*
X194625429Y-130413570D01*
X195196857Y-130413570D01*
X195339714Y-130342141D01*
X195411143Y-130270713D01*
X195482571Y-130127855D01*
X195482571Y-129842141D01*
X195411143Y-129699284D01*
X195339714Y-129627855D01*
X195196857Y-129556427D01*
X194839714Y-129556427D01*
X194696857Y-129627855D01*
X194625429Y-129699284D01*
X194554000Y-129842141D01*
X194554000Y-130127855D01*
X194625429Y-130270713D01*
X194696857Y-130342141D01*
X194839714Y-130413570D01*
M02*
