M48
INCH,TZ
T1C0.020
T2C0.024
T3C0.030
T4C0.039
T5C0.039
T6C0.040
T7C0.043
T8C0.050
%
G90
G05
T1
X27357Y-28036
X27357Y-37879
X27357Y-47721
X27357Y-57564
X28157Y-27036
X28157Y-36879
X28157Y-46721
X28157Y-56564
X37200Y-28036
X37200Y-37879
X37200Y-47721
X37200Y-57564
X38000Y-27036
X38000Y-36879
X38000Y-46721
X38000Y-56564
X47042Y-28036
X47042Y-37879
X47042Y-47721
X47042Y-57564
X47842Y-27036
X47842Y-36879
X47842Y-46721
X47842Y-56564
X56885Y-28036
X56885Y-37879
X56885Y-47721
X56885Y-57564
X57685Y-27036
X57685Y-36879
X57685Y-46721
X57685Y-56564
T2
X83144Y-53172
X84144Y-53172
X87244Y-53172
X88244Y-53172
T3
X79694Y-52022
X79694Y-58022
X80694Y-52022
X80694Y-58022
X81694Y-52022
X81694Y-58022
X82694Y-52022
X82694Y-58022
X83694Y-52022
X83694Y-58022
X84694Y-52022
X84694Y-58022
X85694Y-52022
X85694Y-58022
X86694Y-52022
X86694Y-58022
X87694Y-52022
X87694Y-58022
X88694Y-52022
X88694Y-58022
X89694Y-52022
X89694Y-58022
X90694Y-52022
X90694Y-58022
T4
X28543Y-24016
X28543Y-24803
X28543Y-25591
X28543Y-26378
X28543Y-33858
X28543Y-34646
X28543Y-35433
X28543Y-36220
X28543Y-43701
X28543Y-44488
X28543Y-45276
X28543Y-46063
X28543Y-53543
X28543Y-54331
X28543Y-55118
X28543Y-55906
X38386Y-24016
X38386Y-24803
X38386Y-25591
X38386Y-26378
X38386Y-33858
X38386Y-34646
X38386Y-35433
X38386Y-36220
X38386Y-43701
X38386Y-44488
X38386Y-45276
X38386Y-46063
X38386Y-53543
X38386Y-54331
X38386Y-55118
X38386Y-55906
X48228Y-24016
X48228Y-24803
X48228Y-25591
X48228Y-26378
X48228Y-33858
X48228Y-34646
X48228Y-35433
X48228Y-36220
X48228Y-43701
X48228Y-44488
X48228Y-45276
X48228Y-46063
X48228Y-53543
X48228Y-54331
X48228Y-55118
X48228Y-55906
X58071Y-24016
X58071Y-24803
X58071Y-25591
X58071Y-26378
X58071Y-33858
X58071Y-34646
X58071Y-35433
X58071Y-36220
X58071Y-43701
X58071Y-44488
X58071Y-45276
X58071Y-46063
X58071Y-53543
X58071Y-54331
X58071Y-55118
X58071Y-55906
T5
X35694Y-29522
X35694Y-32000
X35694Y-50522
X35694Y-52000
X45000Y-32000
X45033Y-29522
X45194Y-49522
X45194Y-51500
X56194Y-29500
X56194Y-32000
X56194Y-49500
X56194Y-51500
X65194Y-29022
X65194Y-39022
X65194Y-49500
X65194Y-51500
X85694Y-46022
X85694Y-50022
X86694Y-46022
X86694Y-50022
T6
X78496Y-29872
X78496Y-33000
X78500Y-28000
X78500Y-35500
X78500Y-37522
X78500Y-43500
X79496Y-29872
X79496Y-33000
X79500Y-28000
X79500Y-35500
X79500Y-37522
X79500Y-43500
X80496Y-29872
X80496Y-33000
X80500Y-28000
X80500Y-35500
X80500Y-37522
X80500Y-43500
X81496Y-29872
X81496Y-33000
X81500Y-28000
X81500Y-35500
X81500Y-37522
X81500Y-43500
X82496Y-29872
X82496Y-33000
X82500Y-28000
X82500Y-35500
X82500Y-37522
X82500Y-43500
X83496Y-29872
X83496Y-33000
X83500Y-28000
X83500Y-35500
X83500Y-37522
X83500Y-43500
X84496Y-29872
X84496Y-33000
X84500Y-28000
X84500Y-35500
X84500Y-37522
X84500Y-43500
X85496Y-29872
X85496Y-33000
X85500Y-28000
X85500Y-35500
X85500Y-37522
X85500Y-43500
T7
X67423Y-24463
X67423Y-27022
X67423Y-33963
X67423Y-36522
X67423Y-44463
X67423Y-47022
X67423Y-54463
X67423Y-57022
X69194Y-24463
X69194Y-27022
X69194Y-33963
X69194Y-36522
X69194Y-44463
X69194Y-47022
X69194Y-54463
X69194Y-57022
T8
X31694Y-29522
X31694Y-32000
X31694Y-50522
X31694Y-52000
X41000Y-32000
X41033Y-29522
X41194Y-49522
X41194Y-51500
X52194Y-29500
X52194Y-32000
X52194Y-49500
X52194Y-51500
X61194Y-29022
X61194Y-39022
X61194Y-49500
X61194Y-51500
T0
M30
