  0
SECTION
  2
HEADER
  9
$ACADVER
  1
AC1018
  9
$ACADMAINTVER
 70
     0
  9
$DWGCODEPAGE
  3
ANSI_1252
  9
$INSBASE
 10
0.0
 20
0.0
 30
0.0
  9
$EXTMIN
 10
115.4649053696394
 20
-7.245016160888214
 30
0.0
  9
$EXTMAX
 10
316.0453780354845
 20
171.9999999999999
 30
0.0
  9
$LIMMIN
 10
0.0
 20
0.0
  9
$LIMMAX
 10
12.0
 20
9.0
  9
$ORTHOMODE
 70
     0
  9
$REGENMODE
 70
     1
  9
$FILLMODE
 70
     1
  9
$QTEXTMODE
 70
     0
  9
$MIRRTEXT
 70
     1
  9
$LTSCALE
 40
1.0
  9
$ATTMODE
 70
     1
  9
$TEXTSIZE
 40
0.2
  9
$TRACEWID
 40
0.05
  9
$TEXTSTYLE
  7
Standard
  9
$CLAYER
  8
boolean
  9
$CELTYPE
  6
ByLayer
  9
$CECOLOR
 62
   256
  9
$CELTSCALE
 40
1.0
  9
$DISPSILH
 70
     0
  9
$DIMSCALE
 40
1.0
  9
$DIMASZ
 40
0.18
  9
$DIMEXO
 40
0.0625
  9
$DIMDLI
 40
0.38
  9
$DIMRND
 40
0.0
  9
$DIMDLE
 40
0.0
  9
$DIMEXE
 40
0.18
  9
$DIMTP
 40
0.0
  9
$DIMTM
 40
0.0
  9
$DIMTXT
 40
0.18
  9
$DIMCEN
 40
0.09
  9
$DIMTSZ
 40
0.0
  9
$DIMTOL
 70
     0
  9
$DIMLIM
 70
     0
  9
$DIMTIH
 70
     1
  9
$DIMTOH
 70
     1
  9
$DIMSE1
 70
     0
  9
$DIMSE2
 70
     0
  9
$DIMTAD
 70
     0
  9
$DIMZIN
 70
     0
  9
$DIMBLK
  1

  9
$DIMASO
 70
     1
  9
$DIMSHO
 70
     1
  9
$DIMPOST
  1

  9
$DIMAPOST
  1

  9
$DIMALT
 70
     0
  9
$DIMALTD
 70
     2
  9
$DIMALTF
 40
25.4
  9
$DIMLFAC
 40
1.0
  9
$DIMTOFL
 70
     0
  9
$DIMTVP
 40
0.0
  9
$DIMTIX
 70
     0
  9
$DIMSOXD
 70
     0
  9
$DIMSAH
 70
     0
  9
$DIMBLK1
  1

  9
$DIMBLK2
  1

  9
$DIMSTYLE
  2
Standard
  9
$DIMCLRD
 70
     0
  9
$DIMCLRE
 70
     0
  9
$DIMCLRT
 70
     0
  9
$DIMTFAC
 40
1.0
  9
$DIMGAP
 40
0.09
  9
$DIMJUST
 70
     0
  9
$DIMSD1
 70
     0
  9
$DIMSD2
 70
     0
  9
$DIMTOLJ
 70
     1
  9
$DIMTZIN
 70
     0
  9
$DIMALTZ
 70
     0
  9
$DIMALTTZ
 70
     0
  9
$DIMUPT
 70
     0
  9
$DIMDEC
 70
     4
  9
$DIMTDEC
 70
     4
  9
$DIMALTU
 70
     2
  9
$DIMALTTD
 70
     2
  9
$DIMTXSTY
  7
Standard
  9
$DIMAUNIT
 70
     0
  9
$DIMADEC
 70
     0
  9
$DIMALTRND
 40
0.0
  9
$DIMAZIN
 70
     0
  9
$DIMDSEP
 70
    46
  9
$DIMATFIT
 70
     3
  9
$DIMFRAC
 70
     0
  9
$DIMLDRBLK
  1

  9
$DIMLUNIT
 70
     2
  9
$DIMLWD
 70
    -2
  9
$DIMLWE
 70
    -2
  9
$DIMTMOVE
 70
     2
  9
$LUNITS
 70
     2
  9
$LUPREC
 70
     3
  9
$SKETCHINC
 40
0.1
  9
$FILLETRAD
 40
0.5
  9
$AUNITS
 70
     0
  9
$AUPREC
 70
     0
  9
$MENU
  1
.
  9
$ELEVATION
 40
0.0
  9
$PELEVATION
 40
0.0
  9
$THICKNESS
 40
0.0
  9
$LIMCHECK
 70
     0
  9
$CHAMFERA
 40
0.5
  9
$CHAMFERB
 40
0.5
  9
$CHAMFERC
 40
1.0
  9
$CHAMFERD
 40
0.0
  9
$SKPOLY
 70
     0
  9
$TDCREATE
 40
2457802.604625718
  9
$TDUCREATE
 40
2457802.521292384
  9
$TDUPDATE
 40
2457802.604643056
  9
$TDUUPDATE
 40
2457802.521309722
  9
$TDINDWG
 40
0.0000000116
  9
$TDUSRTIMER
 40
0.0000000116
  9
$USRTIMER
 70
     1
  9
$ANGBASE
 50
0.0
  9
$ANGDIR
 70
     0
  9
$PDMODE
 70
     0
  9
$PDSIZE
 40
0.0
  9
$PLINEWID
 40
0.0
  9
$SPLFRAME
 70
     0
  9
$SPLINETYPE
 70
     6
  9
$SPLINESEGS
 70
     8
  9
$HANDSEED
  5
25B
  9
$SURFTAB1
 70
     6
  9
$SURFTAB2
 70
     6
  9
$SURFTYPE
 70
     6
  9
$SURFU
 70
     6
  9
$SURFV
 70
     6
  9
$UCSBASE
  2

  9
$UCSNAME
  2

  9
$UCSORG
 10
0.0
 20
0.0
 30
0.0
  9
$UCSXDIR
 10
1.0
 20
0.0
 30
0.0
  9
$UCSYDIR
 10
0.0
 20
1.0
 30
0.0
  9
$UCSORTHOREF
  2

  9
$UCSORTHOVIEW
 70
     0
  9
$UCSORGTOP
 10
0.0
 20
0.0
 30
0.0
  9
$UCSORGBOTTOM
 10
0.0
 20
0.0
 30
0.0
  9
$UCSORGLEFT
 10
0.0
 20
0.0
 30
0.0
  9
$UCSORGRIGHT
 10
0.0
 20
0.0
 30
0.0
  9
$UCSORGFRONT
 10
0.0
 20
0.0
 30
0.0
  9
$UCSORGBACK
 10
0.0
 20
0.0
 30
0.0
  9
$PUCSBASE
  2

  9
$PUCSNAME
  2

  9
$PUCSORG
 10
0.0
 20
0.0
 30
0.0
  9
$PUCSXDIR
 10
1.0
 20
0.0
 30
0.0
  9
$PUCSYDIR
 10
0.0
 20
1.0
 30
0.0
  9
$PUCSORTHOREF
  2

  9
$PUCSORTHOVIEW
 70
     0
  9
$PUCSORGTOP
 10
0.0
 20
0.0
 30
0.0
  9
$PUCSORGBOTTOM
 10
0.0
 20
0.0
 30
0.0
  9
$PUCSORGLEFT
 10
0.0
 20
0.0
 30
0.0
  9
$PUCSORGRIGHT
 10
0.0
 20
0.0
 30
0.0
  9
$PUCSORGFRONT
 10
0.0
 20
0.0
 30
0.0
  9
$PUCSORGBACK
 10
0.0
 20
0.0
 30
0.0
  9
$USERI1
 70
     0
  9
$USERI2
 70
     0
  9
$USERI3
 70
     0
  9
$USERI4
 70
     0
  9
$USERI5
 70
     0
  9
$USERR1
 40
0.0
  9
$USERR2
 40
0.0
  9
$USERR3
 40
0.0
  9
$USERR4
 40
0.0
  9
$USERR5
 40
0.0
  9
$WORLDVIEW
 70
     1
  9
$SHADEDGE
 70
     3
  9
$SHADEDIF
 70
    70
  9
$TILEMODE
 70
     1
  9
$MAXACTVP
 70
    64
  9
$PINSBASE
 10
0.0
 20
0.0
 30
0.0
  9
$PLIMCHECK
 70
     0
  9
$PEXTMIN
 10
1.000000000000000E+20
 20
1.000000000000000E+20
 30
1.000000000000000E+20
  9
$PEXTMAX
 10
-1.000000000000000E+20
 20
-1.000000000000000E+20
 30
-1.000000000000000E+20
  9
$PLIMMIN
 10
0.0
 20
0.0
  9
$PLIMMAX
 10
12.0
 20
9.0
  9
$UNITMODE
 70
     0
  9
$VISRETAIN
 70
     1
  9
$PLINEGEN
 70
     0
  9
$PSLTSCALE
 70
     1
  9
$TREEDEPTH
 70
  3020
  9
$CMLSTYLE
  2
Standard
  9
$CMLJUST
 70
     0
  9
$CMLSCALE
 40
1.0
  9
$PROXYGRAPHICS
 70
     1
  9
$MEASUREMENT
 70
     0
  9
$CELWEIGHT
370
    -1
  9
$ENDCAPS
280
     0
  9
$JOINSTYLE
280
     0
  9
$LWDISPLAY
290
     0
  9
$INSUNITS
 70
     4
  9
$HYPERLINKBASE
  1

  9
$STYLESHEET
  1

  9
$XEDIT
290
     1
  9
$CEPSNTYPE
380
     0
  9
$PSTYLEMODE
290
     1
  9
$FINGERPRINTGUID
  2
{0A7031D8-9101-4E73-87DE-B83EB3A3F343}
  9
$VERSIONGUID
  2
{FAEB1C32-E019-11D5-929B-00C0DF256EC4}
  9
$EXTNAMES
290
     1
  9
$PSVPSCALE
 40
0.0
  9
$OLESTARTUP
290
     0
  9
$SORTENTS
280
   127
  9
$INDEXCTL
280
     0
  9
$HIDETEXT
280
     1
  9
$XCLIPFRAME
290
     0
  9
$HALOGAP
280
     0
  9
$OBSCOLOR
 70
   257
  9
$OBSLTYPE
280
     0
  9
$INTERSECTIONDISPLAY
280
     0
  9
$INTERSECTIONCOLOR
 70
   257
  9
$DIMASSOC
280
     2
  9
$PROJECTNAME
  1

  0
ENDSEC
  0
SECTION
  2
CLASSES
  0
CLASS
  1
ACDBDICTIONARYWDFLT
  2
AcDbDictionaryWithDefault
  3
ObjectDBX Classes
 90
        0
 91
        4
280
     0
281
     0
  0
CLASS
  1
VISUALSTYLE
  2
AcDbVisualStyle
  3
ObjectDBX Classes
 90
     4095
 91
        4
280
     0
281
     0
  0
CLASS
  1
MATERIAL
  2
AcDbMaterial
  3
ObjectDBX Classes
 90
     1153
 91
        4
280
     0
281
     0
  0
CLASS
  1
SUN
  2
AcDbSun
  3
SCENEOE
 90
     1024
 91
        4
280
     0
281
     0
  0
ENDSEC
  0
SECTION
  2
TABLES
  0
TABLE
  2
VPORT
  5
8
330
0
100
AcDbSymbolTable
 70
     1
  0
VPORT
  5
29
330
8
100
AcDbSymbolTableRecord
100
AcDbViewportTableRecord
  2
*Active
 70
     0
 10
0.0
 20
0.0
 11
1.0
 21
1.0
 12
215.755141702562
 22
82.37749191955582
 13
0.0
 23
0.0
 14
0.5
 24
0.5
 15
0.5
 25
0.5
 16
0.0
 26
0.0
 36
1.0
 17
0.0
 27
0.0
 37
0.0
 40
182.8299164841058
 41
1.119029566132018
 42
50.0
 43
0.0
 44
0.0
 50
0.0
 51
0.0
 71
     0
 72
   100
 73
     1
 74
     3
 75
     0
 76
     0
 77
     0
 78
     0
281
     0
 65
     1
110
0.0
120
0.0
130
0.0
111
1.0
121
0.0
131
0.0
112
0.0
122
1.0
132
0.0
 79
     0
146
0.0
  0
ENDTAB
  0
TABLE
  2
LTYPE
  5
5
330
0
100
AcDbSymbolTable
 70
     1
  0
LTYPE
  5
14
330
5
100
AcDbSymbolTableRecord
100
AcDbLinetypeTableRecord
  2
ByBlock
 70
     0
  3

 72
    65
 73
     0
 40
0.0
  0
LTYPE
  5
15
330
5
100
AcDbSymbolTableRecord
100
AcDbLinetypeTableRecord
  2
ByLayer
 70
     0
  3

 72
    65
 73
     0
 40
0.0
  0
LTYPE
  5
16
330
5
100
AcDbSymbolTableRecord
100
AcDbLinetypeTableRecord
  2
Continuous
 70
     0
  3
Solid line
 72
    65
 73
     0
 40
0.0
  0
ENDTAB
  0
TABLE
  2
LAYER
  5
2
330
0
100
AcDbSymbolTable
 70
     2
  0
LAYER
  5
10
330
2
100
AcDbSymbolTableRecord
100
AcDbLayerTableRecord
  2
0
 70
     0
 62
     7
  6
Continuous
370
    -3
390
F
  0
LAYER
  5
40
330
2
100
AcDbSymbolTableRecord
100
AcDbLayerTableRecord
  2
boolean
 70
     0
 62
    14
420
 10747904
  6
Continuous
370
    -3
390
F
  0
ENDTAB
  0
TABLE
  2
STYLE
  5
3
330
0
100
AcDbSymbolTable
 70
     1
  0
STYLE
  5
11
330
3
100
AcDbSymbolTableRecord
100
AcDbTextStyleTableRecord
  2
Standard
 70
     0
 40
0.0
 41
1.0
 50
0.0
 71
     0
 42
0.2
  3
txt
  4

  0
ENDTAB
  0
TABLE
  2
VIEW
  5
6
330
0
100
AcDbSymbolTable
 70
     0
  0
ENDTAB
  0
TABLE
  2
UCS
  5
7
330
0
100
AcDbSymbolTable
 70
     0
  0
ENDTAB
  0
TABLE
  2
APPID
  5
9
330
0
100
AcDbSymbolTable
 70
     1
  0
APPID
  5
12
330
9
100
AcDbSymbolTableRecord
100
AcDbRegAppTableRecord
  2
ACAD
 70
     0
  0
ENDTAB
  0
TABLE
  2
DIMSTYLE
  5
A
330
0
100
AcDbSymbolTable
 70
     1
100
AcDbDimStyleTable
  0
DIMSTYLE
105
27
330
A
100
AcDbSymbolTableRecord
100
AcDbDimStyleTableRecord
  2
Standard
 70
     0
178
     0
340
11
  0
ENDTAB
  0
TABLE
  2
BLOCK_RECORD
  5
1
330
0
100
AcDbSymbolTable
 70
     1
  0
BLOCK_RECORD
  5
1F
330
1
100
AcDbSymbolTableRecord
100
AcDbBlockTableRecord
  2
*Model_Space
340
22
  0
BLOCK_RECORD
  5
1B
330
1
100
AcDbSymbolTableRecord
100
AcDbBlockTableRecord
  2
*Paper_Space
340
1E
  0
BLOCK_RECORD
  5
23
330
1
100
AcDbSymbolTableRecord
100
AcDbBlockTableRecord
  2
*Paper_Space0
340
26
  0
ENDTAB
  0
ENDSEC
  0
SECTION
  2
BLOCKS
  0
BLOCK
  5
20
330
1F
100
AcDbEntity
  8
0
100
AcDbBlockBegin
  2
*Model_Space
 70
     0
 10
0.0
 20
0.0
 30
0.0
  3
*Model_Space
  1

  0
ENDBLK
  5
21
330
1F
100
AcDbEntity
  8
0
100
AcDbBlockEnd
  0
BLOCK
  5
1C
330
1B
100
AcDbEntity
 67
     1
  8
0
100
AcDbBlockBegin
  2
*Paper_Space
 70
     0
 10
0.0
 20
0.0
 30
0.0
  3
*Paper_Space
  1

  0
ENDBLK
  5
1D
330
1B
100
AcDbEntity
 67
     1
  8
0
100
AcDbBlockEnd
  0
BLOCK
  5
24
330
23
100
AcDbEntity
  8
0
100
AcDbBlockBegin
  2
*Paper_Space0
 70
     0
 10
0.0
 20
0.0
 30
0.0
  3
*Paper_Space0
  1

  0
ENDBLK
  5
25
330
23
100
AcDbEntity
  8
0
100
AcDbBlockEnd
  0
ENDSEC
  0
SECTION
  2
ENTITIES
  0
POLYLINE
  5
41
330
1F
100
AcDbEntity
  8
boolean
100
AcDb2dPolyline
 66
     1
 10
0.0
 20
0.0
 30
0.0
  0
VERTEX
  5
42
330
41
100
AcDbEntity
  8
boolean
100
AcDbVertex
100
AcDb2dVertex
 10
259.1198553494722
 20
168.9999999999998
 30
0.0
  0
VERTEX
  5
43
330
41
100
AcDbEntity
  8
boolean
100
AcDbVertex
100
AcDb2dVertex
 10
256.957007555467
 20
168.9999999999998
 30
0.0
  0
SEQEND
  5
44
330
41
100
AcDbEntity
  8
boolean
  0
POLYLINE
  5
45
330
1F
100
AcDbEntity
  8
boolean
100
AcDb2dPolyline
 66
     1
 10
0.0
 20
0.0
 30
0.0
  0
VERTEX
  5
46
330
45
100
AcDbEntity
  8
boolean
100
AcDbVertex
100
AcDb2dVertex
 10
256.9570075554669
 20
168.9999999999998
 30
0.0
  0
VERTEX
  5
47
330
45
100
AcDbEntity
  8
boolean
100
AcDbVertex
100
AcDb2dVertex
 10
240.9570075554658
 20
168.9999999999998
 30
0.0
  0
SEQEND
  5
48
330
45
100
AcDbEntity
  8
boolean
  0
POLYLINE
  5
49
330
1F
100
AcDbEntity
  8
boolean
100
AcDb2dPolyline
 66
     1
 10
0.0
 20
0.0
 30
0.0
  0
VERTEX
  5
4A
330
49
100
AcDbEntity
  8
boolean
100
AcDbVertex
100
AcDb2dVertex
 10
240.957007555467
 20
168.9999999999998
 30
0.0
  0
VERTEX
  5
4B
330
49
100
AcDbEntity
  8
boolean
100
AcDbVertex
100
AcDb2dVertex
 10
238.9570075554668
 20
168.9999999999998
 30
0.0
  0
SEQEND
  5
4C
330
49
100
AcDbEntity
  8
boolean
  0
POLYLINE
  5
4D
330
1F
100
AcDbEntity
  8
boolean
100
AcDb2dPolyline
 66
     1
 10
0.0
 20
0.0
 30
0.0
  0
VERTEX
  5
4E
330
4D
100
AcDbEntity
  8
boolean
100
AcDbVertex
100
AcDb2dVertex
 10
238.9570075554682
 20
168.9999999999998
 30
0.0
  0
VERTEX
  5
4F
330
4D
100
AcDbEntity
  8
boolean
100
AcDbVertex
100
AcDb2dVertex
 10
220.9570075554669
 20
168.9999999999998
 30
0.0
  0
SEQEND
  5
50
330
4D
100
AcDbEntity
  8
boolean
  0
POLYLINE
  5
51
330
1F
100
AcDbEntity
  8
boolean
100
AcDb2dPolyline
 66
     1
 10
0.0
 20
0.0
 30
0.0
  0
VERTEX
  5
52
330
51
100
AcDbEntity
  8
boolean
100
AcDbVertex
100
AcDb2dVertex
 10
220.9570075554669
 20
168.9999999999998
 30
0.0
  0
VERTEX
  5
53
330
51
100
AcDbEntity
  8
boolean
100
AcDbVertex
100
AcDb2dVertex
 10
218.957007555467
 20
168.9999999999998
 30
0.0
  0
SEQEND
  5
54
330
51
100
AcDbEntity
  8
boolean
  0
POLYLINE
  5
55
330
1F
100
AcDbEntity
  8
boolean
100
AcDb2dPolyline
 66
     1
 10
0.0
 20
0.0
 30
0.0
  0
VERTEX
  5
56
330
55
100
AcDbEntity
  8
boolean
100
AcDbVertex
100
AcDb2dVertex
 10
218.9570075554669
 20
168.9999999999998
 30
0.0
  0
VERTEX
  5
57
330
55
100
AcDbEntity
  8
boolean
100
AcDbVertex
100
AcDb2dVertex
 10
212.553275849657
 20
168.9999999999998
 30
0.0
  0
SEQEND
  5
58
330
55
100
AcDbEntity
  8
boolean
  0
POLYLINE
  5
59
330
1F
100
AcDbEntity
  8
boolean
100
AcDb2dPolyline
 66
     1
 10
0.0
 20
0.0
 30
0.0
  0
VERTEX
  5
5A
330
59
100
AcDbEntity
  8
boolean
100
AcDbVertex
100
AcDb2dVertex
 10
212.553275849657
 20
168.9999999999999
 30
0.0
  0
VERTEX
  5
5B
330
59
100
AcDbEntity
  8
boolean
100
AcDbVertex
100
AcDb2dVertex
 10
212.553275849657
 20
171.9999999999999
 30
0.0
  0
VERTEX
  5
5C
330
59
100
AcDbEntity
  8
boolean
100
AcDbVertex
100
AcDb2dVertex
 10
210.553275849657
 20
171.9999999999999
 30
0.0
  0
VERTEX
  5
5D
330
59
100
AcDbEntity
  8
boolean
100
AcDbVertex
100
AcDb2dVertex
 10
210.553275849657
 20
168.9999999999999
 30
0.0
  0
SEQEND
  5
5E
330
59
100
AcDbEntity
  8
boolean
  0
POLYLINE
  5
5F
330
1F
100
AcDbEntity
  8
boolean
100
AcDb2dPolyline
 66
     1
 10
0.0
 20
0.0
 30
0.0
  0
VERTEX
  5
60
330
5F
100
AcDbEntity
  8
boolean
100
AcDbVertex
100
AcDb2dVertex
 10
210.553275849657
 20
168.9999999999998
 30
0.0
  0
VERTEX
  5
61
330
5F
100
AcDbEntity
  8
boolean
100
AcDbVertex
100
AcDb2dVertex
 10
192.5532758496571
 20
168.9999999999999
 30
0.0
  0
SEQEND
  5
62
330
5F
100
AcDbEntity
  8
boolean
  0
POLYLINE
  5
63
330
1F
100
AcDbEntity
  8
boolean
100
AcDb2dPolyline
 66
     1
 10
0.0
 20
0.0
 30
0.0
  0
VERTEX
  5
64
330
63
100
AcDbEntity
  8
boolean
100
AcDbVertex
100
AcDb2dVertex
 10
192.553275849657
 20
168.9999999999999
 30
0.0
  0
VERTEX
  5
65
330
63
100
AcDbEntity
  8
boolean
100
AcDbVertex
100
AcDb2dVertex
 10
192.553275849657
 20
171.9999999999999
 30
0.0
  0
VERTEX
  5
66
330
63
100
AcDbEntity
  8
boolean
100
AcDbVertex
100
AcDb2dVertex
 10
190.553275849657
 20
171.9999999999999
 30
0.0
  0
VERTEX
  5
67
330
63
100
AcDbEntity
  8
boolean
100
AcDbVertex
100
AcDb2dVertex
 10
190.553275849657
 20
168.9999999999999
 30
0.0
  0
SEQEND
  5
68
330
63
100
AcDbEntity
  8
boolean
  0
POLYLINE
  5
69
330
1F
100
AcDbEntity
  8
boolean
100
AcDb2dPolyline
 66
     1
 10
0.0
 20
0.0
 30
0.0
  0
VERTEX
  5
6A
330
69
100
AcDbEntity
  8
boolean
100
AcDbVertex
100
AcDb2dVertex
 10
190.553275849657
 20
168.9999999999998
 30
0.0
  0
VERTEX
  5
6B
330
69
100
AcDbEntity
  8
boolean
100
AcDbVertex
100
AcDb2dVertex
 10
174.5532758496571
 20
168.9999999999998
 30
0.0
  0
SEQEND
  5
6C
330
69
100
AcDbEntity
  8
boolean
  0
POLYLINE
  5
6D
330
1F
100
AcDbEntity
  8
boolean
100
AcDb2dPolyline
 66
     1
 10
0.0
 20
0.0
 30
0.0
  0
VERTEX
  5
6E
330
6D
100
AcDbEntity
  8
boolean
100
AcDbVertex
100
AcDb2dVertex
 10
174.553275849657
 20
168.9999999999998
 30
0.0
  0
VERTEX
  5
6F
330
6D
100
AcDbEntity
  8
boolean
100
AcDbVertex
100
AcDb2dVertex
 10
174.553275849657
 20
171.9999999999999
 30
0.0
  0
VERTEX
  5
70
330
6D
100
AcDbEntity
  8
boolean
100
AcDbVertex
100
AcDb2dVertex
 10
172.3904280556517
 20
171.9999999999999
 30
0.0
  0
VERTEX
  5
71
330
6D
100
AcDbEntity
  8
boolean
100
AcDbVertex
100
AcDb2dVertex
 10
172.3904280556517
 20
168.9999999999998
 30
0.0
  0
SEQEND
  5
72
330
6D
100
AcDbEntity
  8
boolean
  0
POLYLINE
  5
73
330
1F
100
AcDbEntity
  8
boolean
100
AcDb2dPolyline
 66
     1
 10
0.0
 20
0.0
 30
0.0
  0
VERTEX
  5
74
330
73
100
AcDbEntity
  8
boolean
100
AcDbVertex
100
AcDb2dVertex
 10
172.3904280556516
 20
168.9999999999999
 30
0.0
  0
VERTEX
  5
75
330
73
100
AcDbEntity
  8
boolean
100
AcDbVertex
100
AcDb2dVertex
 10
161.1318471964707
 20
168.9999999999998
 30
0.0
  0
SEQEND
  5
76
330
73
100
AcDbEntity
  8
boolean
  0
POLYLINE
  5
77
330
1F
100
AcDbEntity
  8
boolean
100
AcDb2dPolyline
 66
     1
 10
0.0
 20
0.0
 30
0.0
  0
VERTEX
  5
78
330
77
100
AcDbEntity
  8
boolean
100
AcDbVertex
100
AcDb2dVertex
 10
161.1318471964713
 20
168.9999999999999
 30
0.0
  0
VERTEX
  5
79
330
77
100
AcDbEntity
  8
boolean
100
AcDbVertex
100
AcDb2dVertex
 10
152.8777999688873
 20
167.6728935495057
 30
0.0
  0
VERTEX
  5
7A
330
77
100
AcDbEntity
  8
boolean
100
AcDbVertex
100
AcDb2dVertex
 10
152.8121448936804
 20
168.0452229263331
 30
0.0
  0
VERTEX
  5
7B
330
77
100
AcDbEntity
  8
boolean
100
AcDbVertex
100
AcDb2dVertex
 10
152.7351460307842
 20
168.4159048973139
 30
0.0
  0
VERTEX
  5
7C
330
77
100
AcDbEntity
  8
boolean
100
AcDbVertex
100
AcDb2dVertex
 10
152.646870493094
 20
168.7844223106185
 30
0.0
  0
VERTEX
  5
7D
330
77
100
AcDbEntity
  8
boolean
100
AcDbVertex
100
AcDb2dVertex
 10
152.5474167668997
 20
169.1502620858404
 30
0.0
  0
VERTEX
  5
7E
330
77
100
AcDbEntity
  8
boolean
100
AcDbVertex
100
AcDb2dVertex
 10
152.4369143671362
 20
169.5129175878769
 30
0.0
  0
VERTEX
  5
7F
330
77
100
AcDbEntity
  8
boolean
100
AcDbVertex
100
AcDb2dVertex
 10
152.3155232777621
 20
169.8718909629229
 30
0.0
  0
VERTEX
  5
80
330
77
100
AcDbEntity
  8
boolean
100
AcDbVertex
100
AcDb2dVertex
 10
152.1834331823189
 20
170.2266954139917
 30
0.0
  0
VERTEX
  5
81
330
77
100
AcDbEntity
  8
boolean
100
AcDbVertex
100
AcDb2dVertex
 10
152.0408624924115
 20
170.5768573941602
 30
0.0
  0
VERTEX
  5
82
330
77
100
AcDbEntity
  8
boolean
100
AcDbVertex
100
AcDb2dVertex
 10
128.0792796304176
 20
166.724254255413
 30
0.0
  0
VERTEX
  5
83
330
77
100
AcDbEntity
  8
boolean
100
AcDbVertex
100
AcDb2dVertex
 10
128.0536567412998
 20
166.3470496884276
 30
0.0
  0
VERTEX
  5
84
330
77
100
AcDbEntity
  8
boolean
100
AcDbVertex
100
AcDb2dVertex
 10
128.0394414747827
 20
165.968721880075
 30
0.0
  0
VERTEX
  5
85
330
77
100
AcDbEntity
  8
boolean
100
AcDbVertex
100
AcDb2dVertex
 10
128.0366927959548
 20
165.5897889748124
 30
0.0
  0
VERTEX
  5
86
330
77
100
AcDbEntity
  8
boolean
100
AcDbVertex
100
AcDb2dVertex
 10
128.0454382362966
 20
165.2107726942568
 30
0.0
  0
VERTEX
  5
87
330
77
100
AcDbEntity
  8
boolean
100
AcDbVertex
100
AcDb2dVertex
 10
128.0656736586237
 20
164.8321959499417
 30
0.0
  0
VERTEX
  5
88
330
77
100
AcDbEntity
  8
boolean
100
AcDbVertex
100
AcDb2dVertex
 10
128.0973632397124
 20
164.4545804412871
 30
0.0
  0
VERTEX
  5
89
330
77
100
AcDbEntity
  8
boolean
100
AcDbVertex
100
AcDb2dVertex
 10
128.1404396711282
 20
164.0784442619165
 30
0.0
  0
VERTEX
  5
8A
330
77
100
AcDbEntity
  8
boolean
100
AcDbVertex
100
AcDb2dVertex
 10
128.1948045759723
 20
163.7042995373477
 30
0.0
  0
VERTEX
  5
8B
330
77
100
AcDbEntity
  8
boolean
100
AcDbVertex
100
AcDb2dVertex
 10
115.8855330961341
 20
161.7251839433411
 30
0.0
  0
VERTEX
  5
8C
330
77
100
AcDbEntity
  8
boolean
100
AcDbVertex
100
AcDb2dVertex
 10
115.8746027224404
 20
161.7233019354883
 30
0.0
  0
VERTEX
  5
8D
330
77
100
AcDbEntity
  8
boolean
100
AcDbVertex
100
AcDb2dVertex
 10
115.863619327409
 20
161.7211577938298
 30
0.0
  0
VERTEX
  5
8E
330
77
100
AcDbEntity
  8
boolean
100
AcDbVertex
100
AcDb2dVertex
 10
115.852591150514
 20
161.7187463713007
 30
0.0
  0
VERTEX
  5
8F
330
77
100
AcDbEntity
  8
boolean
100
AcDbVertex
100
AcDb2dVertex
 10
115.8415268030566
 20
161.7160628124119
 30
0.0
  0
VERTEX
  5
90
330
77
100
AcDbEntity
  8
boolean
100
AcDbVertex
100
AcDb2dVertex
 10
115.8304352588424
 20
161.7131025805469
 30
0.0
  0
VERTEX
  5
91
330
77
100
AcDbEntity
  8
boolean
100
AcDbVertex
100
AcDb2dVertex
 10
115.8193258427384
 20
161.7098614852491
 30
0.0
  0
VERTEX
  5
92
330
77
100
AcDbEntity
  8
boolean
100
AcDbVertex
100
AcDb2dVertex
 10
115.8082082170523
 20
161.7063357093252
 30
0.0
  0
VERTEX
  5
93
330
77
100
AcDbEntity
  8
boolean
100
AcDbVertex
100
AcDb2dVertex
 10
115.7970923656952
 20
161.7025218355796
 30
0.0
  0
VERTEX
  5
94
330
77
100
AcDbEntity
  8
boolean
100
AcDbVertex
100
AcDb2dVertex
 10
115.7859885761022
 20
161.6984168729869
 30
0.0
  0
VERTEX
  5
95
330
77
100
AcDbEntity
  8
boolean
100
AcDbVertex
100
AcDb2dVertex
 10
115.7749074189049
 20
161.6940182821006
 30
0.0
  0
VERTEX
  5
96
330
77
100
AcDbEntity
  8
boolean
100
AcDbVertex
100
AcDb2dVertex
 10
115.7638597253695
 20
161.6893239994924
 30
0.0
  0
VERTEX
  5
97
330
77
100
AcDbEntity
  8
boolean
100
AcDbVertex
100
AcDb2dVertex
 10
115.7528565626323
 20
161.6843324610097
 30
0.0
  0
VERTEX
  5
98
330
77
100
AcDbEntity
  8
boolean
100
AcDbVertex
100
AcDb2dVertex
 10
115.7419092067892
 20
161.6790426236395
 30
0.0
  0
VERTEX
  5
99
330
77
100
AcDbEntity
  8
boolean
100
AcDbVertex
100
AcDb2dVertex
 10
115.7310291139136
 20
161.6734539857655
 30
0.0
  0
VERTEX
  5
9A
330
77
100
AcDbEntity
  8
boolean
100
AcDbVertex
100
AcDb2dVertex
 10
115.7202278891043
 20
161.6675666056105
 30
0.0
  0
VERTEX
  5
9B
330
77
100
AcDbEntity
  8
boolean
100
AcDbVertex
100
AcDb2dVertex
 10
115.7095172536842
 20
161.6613811176597
 30
0.0
  0
VERTEX
  5
9C
330
77
100
AcDbEntity
  8
boolean
100
AcDbVertex
100
AcDb2dVertex
 10
115.6989090106954
 20
161.6548987468685
 30
0.0
  0
VERTEX
  5
9D
330
77
100
AcDbEntity
  8
boolean
100
AcDbVertex
100
AcDb2dVertex
 10
115.6884150088569
 20
161.6481213204722
 30
0.0
  0
VERTEX
  5
9E
330
77
100
AcDbEntity
  8
boolean
100
AcDbVertex
100
AcDb2dVertex
 10
115.6780471051748
 20
161.6410512772253
 30
0.0
  0
VERTEX
  5
9F
330
77
100
AcDbEntity
  8
boolean
100
AcDbVertex
100
AcDb2dVertex
 10
115.6678171264125
 20
161.6336916739165
 30
0.0
  0
VERTEX
  5
A0
330
77
100
AcDbEntity
  8
boolean
100
AcDbVertex
100
AcDb2dVertex
 10
115.6577368296479
 20
161.6260461890241
 30
0.0
  0
VERTEX
  5
A1
330
77
100
AcDbEntity
  8
boolean
100
AcDbVertex
100
AcDb2dVertex
 10
115.6478178621632
 20
161.618119123397
 30
0.0
  0
VERTEX
  5
A2
330
77
100
AcDbEntity
  8
boolean
100
AcDbVertex
100
AcDb2dVertex
 10
115.6380717209252
 20
161.6099153978717
 30
0.0
  0
VERTEX
  5
A3
330
77
100
AcDbEntity
  8
boolean
100
AcDbVertex
100
AcDb2dVertex
 10
115.6285097119259
 20
161.6014405477591
 30
0.0
  0
VERTEX
  5
A4
330
77
100
AcDbEntity
  8
boolean
100
AcDbVertex
100
AcDb2dVertex
 10
115.6191429096651
 20
161.5927007141636
 30
0.0
  0
VERTEX
  5
A5
330
77
100
AcDbEntity
  8
boolean
100
AcDbVertex
100
AcDb2dVertex
 10
115.6099821170593
 20
161.583702632126
 30
0.0
  0
VERTEX
  5
A6
330
77
100
AcDbEntity
  8
boolean
100
AcDbVertex
100
AcDb2dVertex
 10
115.6010378260672
 20
161.5744536156085
 30
0.0
  0
VERTEX
  5
A7
330
77
100
AcDbEntity
  8
boolean
100
AcDbVertex
100
AcDb2dVertex
 10
115.5923201793186
 20
161.5649615393733
 30
0.0
  0
VERTEX
  5
A8
330
77
100
AcDbEntity
  8
boolean
100
AcDbVertex
100
AcDb2dVertex
 10
115.5838389330328
 20
161.555234817833
 30
0.0
  0
VERTEX
  5
A9
330
77
100
AcDbEntity
  8
boolean
100
AcDbVertex
100
AcDb2dVertex
 10
115.5756034215023
 20
161.5452823809845
 30
0.0
  0
VERTEX
  5
AA
330
77
100
AcDbEntity
  8
boolean
100
AcDbVertex
100
AcDb2dVertex
 10
115.5676225234077
 20
161.5351136475621
 30
0.0
  0
VERTEX
  5
AB
330
77
100
AcDbEntity
  8
boolean
100
AcDbVertex
100
AcDb2dVertex
 10
115.5599046302157
 20
161.5247384955782
 30
0.0
  0
VERTEX
  5
AC
330
77
100
AcDbEntity
  8
boolean
100
AcDbVertex
100
AcDb2dVertex
 10
115.5524576168948
 20
161.5141672304405
 30
0.0
  0
VERTEX
  5
AD
330
77
100
AcDbEntity
  8
boolean
100
AcDbVertex
100
AcDb2dVertex
 10
115.5452888151609
 20
161.5034105508639
 30
0.0
  0
VERTEX
  5
AE
330
77
100
AcDbEntity
  8
boolean
100
AcDbVertex
100
AcDb2dVertex
 10
115.5384049894459
 20
161.4924795128109
 30
0.0
  0
VERTEX
  5
AF
330
77
100
AcDbEntity
  8
boolean
100
AcDbVertex
100
AcDb2dVertex
 10
115.5318123157508
 20
161.481385491717
 30
0.0
  0
VERTEX
  5
B0
330
77
100
AcDbEntity
  8
boolean
100
AcDbVertex
100
AcDb2dVertex
 10
115.5255163635254
 20
161.4701401432713
 30
0.0
  0
VERTEX
  5
B1
330
77
100
AcDbEntity
  8
boolean
100
AcDbVertex
100
AcDb2dVertex
 10
115.5195220806801
 20
161.4587553630335
 30
0.0
  0
VERTEX
  5
B2
330
77
100
AcDbEntity
  8
boolean
100
AcDbVertex
100
AcDb2dVertex
 10
115.5138337818104
 20
161.4472432451793
 30
0.0
  0
VERTEX
  5
B3
330
77
100
AcDbEntity
  8
boolean
100
AcDbVertex
100
AcDb2dVertex
 10
115.508455139682
 20
161.4356160406689
 30
0.0
  0
VERTEX
  5
B4
330
77
100
AcDbEntity
  8
boolean
100
AcDbVertex
100
AcDb2dVertex
 10
115.5033891799943
 20
161.4238861151373
 30
0.0
  0
VERTEX
  5
B5
330
77
100
AcDbEntity
  8
boolean
100
AcDbVertex
100
AcDb2dVertex
 10
115.4986382794091
 20
161.4120659067993
 30
0.0
  0
VERTEX
  5
B6
330
77
100
AcDbEntity
  8
boolean
100
AcDbVertex
100
AcDb2dVertex
 10
115.4942041668024
 20
161.4001678846608
 30
0.0
  0
VERTEX
  5
B7
330
77
100
AcDbEntity
  8
boolean
100
AcDbVertex
100
AcDb2dVertex
 10
115.4900879276669
 20
161.3882045073164
 30
0.0
  0
VERTEX
  5
B8
330
77
100
AcDbEntity
  8
boolean
100
AcDbVertex
100
AcDb2dVertex
 10
115.486290011569
 20
161.3761881826015
 30
0.0
  0
VERTEX
  5
B9
330
77
100
AcDbEntity
  8
boolean
100
AcDbVertex
100
AcDb2dVertex
 10
115.4828102425345
 20
161.3641312283535
 30
0.0
  0
VERTEX
  5
BA
330
77
100
AcDbEntity
  8
boolean
100
AcDbVertex
100
AcDb2dVertex
 10
115.4796478322185
 20
161.3520458345189
 30
0.0
  0
VERTEX
  5
BB
330
77
100
AcDbEntity
  8
boolean
100
AcDbVertex
100
AcDb2dVertex
 10
115.4768013956922
 20
161.3399440268239
 30
0.0
  0
VERTEX
  5
BC
330
77
100
AcDbEntity
  8
boolean
100
AcDbVertex
100
AcDb2dVertex
 10
115.4742689696609
 20
161.3278376322042
 30
0.0
  0
VERTEX
  5
BD
330
77
100
AcDbEntity
  8
boolean
100
AcDbVertex
100
AcDb2dVertex
 10
115.4720480329154
 20
161.3157382461684
 30
0.0
  0
VERTEX
  5
BE
330
77
100
AcDbEntity
  8
boolean
100
AcDbVertex
100
AcDb2dVertex
 10
115.470135528803
 20
161.3036572022446
 30
0.0
  0
VERTEX
  5
BF
330
77
100
AcDbEntity
  8
boolean
100
AcDbVertex
100
AcDb2dVertex
 10
115.4685278894987
 20
161.2916055436357
 30
0.0
  0
VERTEX
  5
C0
330
77
100
AcDbEntity
  8
boolean
100
AcDbVertex
100
AcDb2dVertex
 10
115.4672210618472
 20
161.2795939971851
 30
0.0
  0
VERTEX
  5
C1
330
77
100
AcDbEntity
  8
boolean
100
AcDbVertex
100
AcDb2dVertex
 10
115.4662105345475
 20
161.2676329497295
 30
0.0
  0
VERTEX
  5
C2
330
77
100
AcDbEntity
  8
boolean
100
AcDbVertex
100
AcDb2dVertex
 10
115.4654913664451
 20
161.2557324268899
 30
0.0
  0
VERTEX
  5
C3
330
77
100
AcDbEntity
  8
boolean
100
AcDbVertex
100
AcDb2dVertex
 10
115.4650582157053
 20
161.2439020743317
 30
0.0
  0
VERTEX
  5
C4
330
77
100
AcDbEntity
  8
boolean
100
AcDbVertex
100
AcDb2dVertex
 10
115.4649053696394
 20
161.2321511414999
 30
0.0
  0
VERTEX
  5
C5
330
77
100
AcDbEntity
  8
boolean
100
AcDbVertex
100
AcDb2dVertex
 10
115.4650267749659
 20
161.2204884678138
 30
0.0
  0
VERTEX
  5
C6
330
77
100
AcDbEntity
  8
boolean
100
AcDbVertex
100
AcDb2dVertex
 10
115.4654160682962
 20
161.2089224712892
 30
0.0
  0
VERTEX
  5
C7
330
77
100
AcDbEntity
  8
boolean
100
AcDbVertex
100
AcDb2dVertex
 10
115.4660666066425
 20
161.1974611395337
 30
0.0
  0
VERTEX
  5
C8
330
77
100
AcDbEntity
  8
boolean
100
AcDbVertex
100
AcDb2dVertex
 10
115.4669714977613
 20
161.1861120230468
 30
0.0
  0
VERTEX
  5
C9
330
77
100
AcDbEntity
  8
boolean
100
AcDbVertex
100
AcDb2dVertex
 10
115.4681236301536
 20
161.1748822307429
 30
0.0
  0
VERTEX
  5
CA
330
77
100
AcDbEntity
  8
boolean
100
AcDbVertex
100
AcDb2dVertex
 10
115.4695157025609
 20
161.163778427598
 30
0.0
  0
VERTEX
  5
CB
330
77
100
AcDbEntity
  8
boolean
100
AcDbVertex
100
AcDb2dVertex
 10
115.4711402528089
 20
161.1528068343166
 30
0.0
  0
VERTEX
  5
CC
330
77
100
AcDbEntity
  8
boolean
100
AcDbVertex
100
AcDb2dVertex
 10
141.9664722170993
 20
-5.042892064863588
 30
0.0
  0
VERTEX
  5
CD
330
77
100
AcDbEntity
  8
boolean
100
AcDbVertex
100
AcDb2dVertex
 10
141.9683410636981
 20
-5.053832246105576
 30
0.0
  0
VERTEX
  5
CE
330
77
100
AcDbEntity
  8
boolean
100
AcDbVertex
100
AcDb2dVertex
 10
141.9704723467232
 20
-5.064825956678714
 30
0.0
  0
VERTEX
  5
CF
330
77
100
AcDbEntity
  8
boolean
100
AcDbVertex
100
AcDb2dVertex
 10
141.9728712411734
 20
-5.075864948111279
 30
0.0
  0
VERTEX
  5
D0
330
77
100
AcDbEntity
  8
boolean
100
AcDbVertex
100
AcDb2dVertex
 10
141.9755426303936
 20
-5.086940598281086
 30
0.0
  0
VERTEX
  5
D1
330
77
100
AcDbEntity
  8
boolean
100
AcDbVertex
100
AcDb2dVertex
 10
141.9784910786451
 20
-5.098043920705119
 30
0.0
  0
VERTEX
  5
D2
330
77
100
AcDbEntity
  8
boolean
100
AcDbVertex
100
AcDb2dVertex
 10
141.9817208036803
 20
-5.10916557596086
 30
0.0
  0
VERTEX
  5
D3
330
77
100
AcDbEntity
  8
boolean
100
AcDbVertex
100
AcDb2dVertex
 10
141.9852356494956
 20
-5.120295885295556
 30
0.0
  0
VERTEX
  5
D4
330
77
100
AcDbEntity
  8
boolean
100
AcDbVertex
100
AcDb2dVertex
 10
141.9890390594497
 20
-5.131424846464784
 30
0.0
  0
VERTEX
  5
D5
330
77
100
AcDbEntity
  8
boolean
100
AcDbVertex
100
AcDb2dVertex
 10
141.9931340499402
 20
-5.142542151825265
 30
0.0
  0
VERTEX
  5
D6
330
77
100
AcDbEntity
  8
boolean
100
AcDbVertex
100
AcDb2dVertex
 10
141.9975231848419
 20
-5.153637208688826
 30
0.0
  0
VERTEX
  5
D7
330
77
100
AcDbEntity
  8
boolean
100
AcDbVertex
100
AcDb2dVertex
 10
142.0022085509141
 20
-5.164699161925192
 30
0.0
  0
VERTEX
  5
D8
330
77
100
AcDbEntity
  8
boolean
100
AcDbVertex
100
AcDb2dVertex
 10
142.00719173439
 20
-5.17571691878067
 30
0.0
  0
VERTEX
  5
D9
330
77
100
AcDbEntity
  8
boolean
100
AcDbVertex
100
AcDb2dVertex
 10
142.0124737989624
 20
-5.186679175858361
 30
0.0
  0
VERTEX
  5
DA
330
77
100
AcDbEntity
  8
boolean
100
AcDbVertex
100
AcDb2dVertex
 10
142.0180552653781
 20
-5.19757444818317
 30
0.0
  0
VERTEX
  5
DB
330
77
100
AcDbEntity
  8
boolean
100
AcDbVertex
100
AcDb2dVertex
 10
142.0239360928539
 20
-5.208391100252176
 30
0.0
  0
VERTEX
  5
DC
330
77
100
AcDbEntity
  8
boolean
100
AcDbVertex
100
AcDb2dVertex
 10
142.0301156625173
 20
-5.219117378947908
 30
0.0
  0
VERTEX
  5
DD
330
77
100
AcDbEntity
  8
boolean
100
AcDbVertex
100
AcDb2dVertex
 10
142.0365927630705
 20
-5.229741448169232
 30
0.0
  0
VERTEX
  5
DE
330
77
100
AcDbEntity
  8
boolean
100
AcDbVertex
100
AcDb2dVertex
 10
142.0433655788633
 20
-5.240251425012159
 30
0.0
  0
VERTEX
  5
DF
330
77
100
AcDbEntity
  8
boolean
100
AcDbVertex
100
AcDb2dVertex
 10
142.0504316805462
 20
-5.250635417311329
 30
0.0
  0
VERTEX
  5
E0
330
77
100
AcDbEntity
  8
boolean
100
AcDbVertex
100
AcDb2dVertex
 10
142.0577880184613
 20
-5.260881562332485
 30
0.0
  0
VERTEX
  5
E1
330
77
100
AcDbEntity
  8
boolean
100
AcDbVertex
100
AcDb2dVertex
 10
142.0654309189061
 20
-5.270978066387445
 30
0.0
  0
VERTEX
  5
E2
330
77
100
AcDbEntity
  8
boolean
100
AcDbVertex
100
AcDb2dVertex
 10
142.0733560833874
 20
-5.280913245126158
 30
0.0
  0
VERTEX
  5
E3
330
77
100
AcDbEntity
  8
boolean
100
AcDbVertex
100
AcDb2dVertex
 10
142.0815585909544
 20
-5.290675564245612
 30
0.0
  0
VERTEX
  5
E4
330
77
100
AcDbEntity
  8
boolean
100
AcDbVertex
100
AcDb2dVertex
 10
142.0900329036801
 20
-5.300253680343343
 30
0.0
  0
VERTEX
  5
E5
330
77
100
AcDbEntity
  8
boolean
100
AcDbVertex
100
AcDb2dVertex
 10
142.0987728753268
 20
-5.309636481633914
 30
0.0
  0
VERTEX
  5
E6
330
77
100
AcDbEntity
  8
boolean
100
AcDbVertex
100
AcDb2dVertex
 10
142.1077717632077
 20
-5.318813128240501
 30
0.0
  0
VERTEX
  5
E7
330
77
100
AcDbEntity
  8
boolean
100
AcDbVertex
100
AcDb2dVertex
 10
142.1170222432232
 20
-5.327773091770797
 30
0.0
  0
VERTEX
  5
E8
330
77
100
AcDbEntity
  8
boolean
100
AcDbVertex
100
AcDb2dVertex
 10
142.1265164280238
 20
-5.336506193886938
 30
0.0
  0
VERTEX
  5
E9
330
77
100
AcDbEntity
  8
boolean
100
AcDbVertex
100
AcDb2dVertex
 10
142.1362458882182
 20
-5.34500264358311
 30
0.0
  0
VERTEX
  5
EA
330
77
100
AcDbEntity
  8
boolean
100
AcDbVertex
100
AcDb2dVertex
 10
142.1462016765173
 20
-5.353253072891994
 30
0.0
  0
VERTEX
  5
EB
330
77
100
AcDbEntity
  8
boolean
100
AcDbVertex
100
AcDb2dVertex
 10
142.1563743546757
 20
-5.361248570752315
 30
0.0
  0
VERTEX
  5
EC
330
77
100
AcDbEntity
  8
boolean
100
AcDbVertex
100
AcDb2dVertex
 10
142.1667540230624
 20
-5.368980714783956
 30
0.0
  0
VERTEX
  5
ED
330
77
100
AcDbEntity
  8
boolean
100
AcDbVertex
100
AcDb2dVertex
 10
142.17733035267
 20
-5.376441600734902
 30
0.0
  0
VERTEX
  5
EE
330
77
100
AcDbEntity
  8
boolean
100
AcDbVertex
100
AcDb2dVertex
 10
142.1880926193453
 20
-5.383623869384672
 30
0.0
  0
VERTEX
  5
EF
330
77
100
AcDbEntity
  8
boolean
100
AcDbVertex
100
AcDb2dVertex
 10
142.1990297400025
 20
-5.390520730712269
 30
0.0
  0
VERTEX
  5
F0
330
77
100
AcDbEntity
  8
boolean
100
AcDbVertex
100
AcDb2dVertex
 10
142.2101303105628
 20
-5.397125985162181
 30
0.0
  0
VERTEX
  5
F1
330
77
100
AcDbEntity
  8
boolean
100
AcDbVertex
100
AcDb2dVertex
 10
142.2213826453505
 20
-5.403434041869641
 30
0.0
  0
VERTEX
  5
F2
330
77
100
AcDbEntity
  8
boolean
100
AcDbVertex
100
AcDb2dVertex
 10
142.2327748176577
 20
-5.409439933735296
 30
0.0
  0
VERTEX
  5
F3
330
77
100
AcDbEntity
  8
boolean
100
AcDbVertex
100
AcDb2dVertex
 10
142.2442947011891
 20
-5.415139329269807
 30
0.0
  0
VERTEX
  5
F4
330
77
100
AcDbEntity
  8
boolean
100
AcDbVertex
100
AcDb2dVertex
 10
142.2559300120853
 20
-5.420528541159593
 30
0.0
  0
VERTEX
  5
F5
330
77
100
AcDbEntity
  8
boolean
100
AcDbVertex
100
AcDb2dVertex
 10
142.267668351229
 20
-5.425604531535998
 30
0.0
  0
VERTEX
  5
F6
330
77
100
AcDbEntity
  8
boolean
100
AcDbVertex
100
AcDb2dVertex
 10
142.2794972465344
 20
-5.430364913960861
 30
0.0
  0
VERTEX
  5
F7
330
77
100
AcDbEntity
  8
boolean
100
AcDbVertex
100
AcDb2dVertex
 10
142.2914041949296
 20
-5.434807952171387
 30
0.0
  0
VERTEX
  5
F8
330
77
100
AcDbEntity
  8
boolean
100
AcDbVertex
100
AcDb2dVertex
 10
142.3033767037492
 20
-5.438932555656063
 30
0.0
  0
VERTEX
  5
F9
330
77
100
AcDbEntity
  8
boolean
100
AcDbVertex
100
AcDb2dVertex
 10
142.3154023312673
 20
-5.442738272160542
 30
0.0
  0
VERTEX
  5
FA
330
77
100
AcDbEntity
  8
boolean
100
AcDbVertex
100
AcDb2dVertex
 10
142.3274687261134
 20
-5.446225277247802
 30
0.0
  0
VERTEX
  5
FB
330
77
100
AcDbEntity
  8
boolean
100
AcDbVertex
100
AcDb2dVertex
 10
142.3395636653359
 20
-5.449394361059905
 30
0.0
  0
VERTEX
  5
FC
330
77
100
AcDbEntity
  8
boolean
100
AcDbVertex
100
AcDb2dVertex
 10
142.3516750908906
 20
-5.452246912449424
 30
0.0
  0
VERTEX
  5
FD
330
77
100
AcDbEntity
  8
boolean
100
AcDbVertex
100
AcDb2dVertex
 10
142.3637911443608
 20
-5.454784900666435
 30
0.0
  0
VERTEX
  5
FE
330
77
100
AcDbEntity
  8
boolean
100
AcDbVertex
100
AcDb2dVertex
 10
142.3759001997313
 20
-5.457010854802213
 30
0.0
  0
VERTEX
  5
FF
330
77
100
AcDbEntity
  8
boolean
100
AcDbVertex
100
AcDb2dVertex
 10
142.3879908940671
 20
-5.458927841202959
 30
0.0
  0
VERTEX
  5
100
330
77
100
AcDbEntity
  8
boolean
100
AcDbVertex
100
AcDb2dVertex
 10
142.4000521559695
 20
-5.46053943907609
 30
0.0
  0
VERTEX
  5
101
330
77
100
AcDbEntity
  8
boolean
100
AcDbVertex
100
AcDb2dVertex
 10
142.4120732317095
 20
-5.461849714518121
 30
0.0
  0
VERTEX
  5
102
330
77
100
AcDbEntity
  8
boolean
100
AcDbVertex
100
AcDb2dVertex
 10
142.4240437089599
 20
-5.462863193196475
 30
0.0
  0
VERTEX
  5
103
330
77
100
AcDbEntity
  8
boolean
100
AcDbVertex
100
AcDb2dVertex
 10
142.4359535380748
 20
-5.463584831918442
 30
0.0
  0
VERTEX
  5
104
330
77
100
AcDbEntity
  8
boolean
100
AcDbVertex
100
AcDb2dVertex
 10
142.4477930508872
 20
-5.464019989318486
 30
0.0
  0
VERTEX
  5
105
330
77
100
AcDbEntity
  8
boolean
100
AcDbVertex
100
AcDb2dVertex
 10
142.4595529770177
 20
-5.464174395890937
 30
0.0
  0
VERTEX
  5
106
330
77
100
AcDbEntity
  8
boolean
100
AcDbVertex
100
AcDb2dVertex
 10
142.4712244577106
 20
-5.464054123588487
 30
0.0
  0
VERTEX
  5
107
330
77
100
AcDbEntity
  8
boolean
100
AcDbVertex
100
AcDb2dVertex
 10
142.4827990572301
 20
-5.463665555198507
 30
0.0
  0
VERTEX
  5
108
330
77
100
AcDbEntity
  8
boolean
100
AcDbVertex
100
AcDb2dVertex
 10
142.4942687718714
 20
-5.463015353698912
 30
0.0
  0
VERTEX
  5
109
330
77
100
AcDbEntity
  8
boolean
100
AcDbVertex
100
AcDb2dVertex
 10
142.5056260366556
 20
-5.462110431783703
 30
0.0
  0
VERTEX
  5
10A
330
77
100
AcDbEntity
  8
boolean
100
AcDbVertex
100
AcDb2dVertex
 10
142.5168637297916
 20
-5.460957921735353
 30
0.0
  0
VERTEX
  5
10B
330
77
100
AcDbEntity
  8
boolean
100
AcDbVertex
100
AcDb2dVertex
 10
142.5279751750043
 20
-5.459565145807366
 30
0.0
  0
VERTEX
  5
10C
330
77
100
AcDbEntity
  8
boolean
100
AcDbVertex
100
AcDb2dVertex
 10
142.5389541418338
 20
-5.457939587265815
 30
0.0
  0
VERTEX
  5
10D
330
77
100
AcDbEntity
  8
boolean
100
AcDbVertex
100
AcDb2dVertex
 10
148.9249860638144
 20
-4.439862484018567
 30
0.0
  0
VERTEX
  5
10E
330
77
100
AcDbEntity
  8
boolean
100
AcDbVertex
100
AcDb2dVertex
 10
148.94153476566
 20
-4.537444233636855
 30
0.0
  0
VERTEX
  5
10F
330
77
100
AcDbEntity
  8
boolean
100
AcDbVertex
100
AcDb2dVertex
 10
148.9600704875022
 20
-4.634972441050566
 30
0.0
  0
VERTEX
  5
110
330
77
100
AcDbEntity
  8
boolean
100
AcDbVertex
100
AcDb2dVertex
 10
148.9805994633964
 20
-4.73238746907873
 30
0.0
  0
VERTEX
  5
111
330
77
100
AcDbEntity
  8
boolean
100
AcDbVertex
100
AcDb2dVertex
 10
149.0031255736013
 20
-4.829629141151483
 30
0.0
  0
VERTEX
  5
112
330
77
100
AcDbEntity
  8
boolean
100
AcDbVertex
100
AcDb2dVertex
 10
149.0276503044066
 20
-4.926636856193584
 30
0.0
  0
VERTEX
  5
113
330
77
100
AcDbEntity
  8
boolean
100
AcDbVertex
100
AcDb2dVertex
 10
149.0541727146384
 20
-5.023349706629428
 30
0.0
  0
VERTEX
  5
114
330
77
100
AcDbEntity
  8
boolean
100
AcDbVertex
100
AcDb2dVertex
 10
149.0826894091001
 20
-5.119706599059673
 30
0.0
  0
VERTEX
  5
115
330
77
100
AcDbEntity
  8
boolean
100
AcDbVertex
100
AcDb2dVertex
 10
149.1131945191788
 20
-5.215646377135441
 30
0.0
  0
VERTEX
  5
116
330
77
100
AcDbEntity
  8
boolean
100
AcDbVertex
100
AcDb2dVertex
 10
149.1456796908091
 20
-5.311107946134982
 30
0.0
  0
VERTEX
  5
117
330
77
100
AcDbEntity
  8
boolean
100
AcDbVertex
100
AcDb2dVertex
 10
149.1801340799446
 20
-5.406030398729758
 30
0.0
  0
VERTEX
  5
118
330
77
100
AcDbEntity
  8
boolean
100
AcDbVertex
100
AcDb2dVertex
 10
149.2165443556495
 20
-5.500353141412492
 30
0.0
  0
VERTEX
  5
119
330
77
100
AcDbEntity
  8
boolean
100
AcDbVertex
100
AcDb2dVertex
 10
149.2548947108794
 20
-5.594016021049003
 30
0.0
  0
VERTEX
  5
11A
330
77
100
AcDbEntity
  8
boolean
100
AcDbVertex
100
AcDb2dVertex
 10
149.2951668809751
 20
-5.68695945100874
 30
0.0
  0
VERTEX
  5
11B
330
77
100
AcDbEntity
  8
boolean
100
AcDbVertex
100
AcDb2dVertex
 10
149.3373401698524
 20
-5.77912453632594
 30
0.0
  0
VERTEX
  5
11C
330
77
100
AcDbEntity
  8
boolean
100
AcDbVertex
100
AcDb2dVertex
 10
149.3813914838236
 20
-5.870453197344475
 30
0.0
  0
VERTEX
  5
11D
330
77
100
AcDbEntity
  8
boolean
100
AcDbVertex
100
AcDb2dVertex
 10
149.4272953729435
 20
-5.960888291304498
 30
0.0
  0
VERTEX
  5
11E
330
77
100
AcDbEntity
  8
boolean
100
AcDbVertex
100
AcDb2dVertex
 10
149.4750240797276
 20
-6.050373731338271
 30
0.0
  0
VERTEX
  5
11F
330
77
100
AcDbEntity
  8
boolean
100
AcDbVertex
100
AcDb2dVertex
 10
149.5245475950493
 20
-6.138854602355649
 30
0.0
  0
VERTEX
  5
120
330
77
100
AcDbEntity
  8
boolean
100
AcDbVertex
100
AcDb2dVertex
 10
149.5758337209788
 20
-6.226277273316787
 30
0.0
  0
VERTEX
  5
121
330
77
100
AcDbEntity
  8
boolean
100
AcDbVertex
100
AcDb2dVertex
 10
149.6288481402885
 20
-6.31258950541039
 30
0.0
  0
VERTEX
  5
122
330
77
100
AcDbEntity
  8
boolean
100
AcDbVertex
100
AcDb2dVertex
 10
149.6835544923103
 20
-6.397740555680151
 30
0.0
  0
VERTEX
  5
123
330
77
100
AcDbEntity
  8
boolean
100
AcDbVertex
100
AcDb2dVertex
 10
149.7399144547961
 20
-6.481681275669665
 30
0.0
  0
VERTEX
  5
124
330
77
100
AcDbEntity
  8
boolean
100
AcDbVertex
100
AcDb2dVertex
 10
149.797887831399
 20
-6.564364204686707
 30
0.0
  0
VERTEX
  5
125
330
77
100
AcDbEntity
  8
boolean
100
AcDbVertex
100
AcDb2dVertex
 10
149.8574326443643
 20
-6.645743657321271
 30
0.0
  0
VERTEX
  5
126
330
77
100
AcDbEntity
  8
boolean
100
AcDbVertex
100
AcDb2dVertex
 10
149.918505231991
 20
-6.725775804887458
 30
0.0
  0
VERTEX
  5
127
330
77
100
AcDbEntity
  8
boolean
100
AcDbVertex
100
AcDb2dVertex
 10
149.981060350404
 20
-6.804418750497274
 30
0.0
  0
VERTEX
  5
128
330
77
100
AcDbEntity
  8
boolean
100
AcDbVertex
100
AcDb2dVertex
 10
150.045051279156
 20
-6.881632597513898
 30
0.0
  0
VERTEX
  5
129
330
77
100
AcDbEntity
  8
boolean
100
AcDbVertex
100
AcDb2dVertex
 10
150.1104299301638
 20
-6.95737951117283
 30
0.0
  0
VERTEX
  5
12A
330
77
100
AcDbEntity
  8
boolean
100
AcDbVertex
100
AcDb2dVertex
 10
150.1771469594705
 20
-7.031623773201154
 30
0.0
  0
VERTEX
  5
12B
330
77
100
AcDbEntity
  8
boolean
100
AcDbVertex
100
AcDb2dVertex
 10
150.2451518813207
 20
-7.104331829307351
 30
0.0
  0
VERTEX
  5
12C
330
77
100
AcDbEntity
  8
boolean
100
AcDbVertex
100
AcDb2dVertex
 10
150.314393184026
 20
-7.175472329456549
 30
0.0
  0
VERTEX
  5
12D
330
77
100
AcDbEntity
  8
boolean
100
AcDbVertex
100
AcDb2dVertex
 10
150.3848184471059
 20
-7.245016160888214
 30
0.0
  0
SEQEND
  5
12E
330
77
100
AcDbEntity
  8
boolean
  0
POLYLINE
  5
12F
330
1F
100
AcDbEntity
  8
boolean
100
AcDb2dPolyline
 66
     1
 10
0.0
 20
0.0
 30
0.0
  0
VERTEX
  5
130
330
12F
100
AcDbEntity
  8
boolean
100
AcDbVertex
100
AcDb2dVertex
 10
150.3848184471059
 20
-7.245016160888214
 30
0.0
  0
VERTEX
  5
131
330
12F
100
AcDbEntity
  8
boolean
100
AcDbVertex
100
AcDb2dVertex
 10
158.2850542950424
 20
-5.985541204437678
 30
0.0
  0
VERTEX
  5
132
330
12F
100
AcDbEntity
  8
boolean
100
AcDbVertex
100
AcDb2dVertex
 10
158.330364394006
 20
-5.897546562882024
 30
0.0
  0
VERTEX
  5
133
330
12F
100
AcDbEntity
  8
boolean
100
AcDbVertex
100
AcDb2dVertex
 10
158.3740527509836
 20
-5.808402543288116
 30
0.0
  0
VERTEX
  5
134
330
12F
100
AcDbEntity
  8
boolean
100
AcDbVertex
100
AcDb2dVertex
 10
158.4160785963942
 20
-5.718153115005071
 30
0.0
  0
VERTEX
  5
135
330
12F
100
AcDbEntity
  8
boolean
100
AcDbVertex
100
AcDb2dVertex
 10
158.456402720063
 20
-5.62684409117266
 30
0.0
  0
VERTEX
  5
136
330
12F
100
AcDbEntity
  8
boolean
100
AcDbVertex
100
AcDb2dVertex
 10
158.494987572288
 20
-5.534523060916637
 30
0.0
  0
VERTEX
  5
137
330
12F
100
AcDbEntity
  8
boolean
100
AcDbVertex
100
AcDb2dVertex
 10
158.53179736144
 20
-5.441239315042142
 30
0.0
  0
VERTEX
  5
138
330
12F
100
AcDbEntity
  8
boolean
100
AcDbVertex
100
AcDb2dVertex
 10
158.5667981476153
 20
-5.347043765427499
 30
0.0
  0
VERTEX
  5
139
330
12F
100
AcDbEntity
  8
boolean
100
AcDbVertex
100
AcDb2dVertex
 10
158.5999579318751
 20
-5.251988858360681
 30
0.0
  0
VERTEX
  5
13A
330
12F
100
AcDbEntity
  8
boolean
100
AcDbVertex
100
AcDb2dVertex
 10
158.6312467406213
 20
-5.156128482099929
 30
0.0
  0
VERTEX
  5
13B
330
12F
100
AcDbEntity
  8
boolean
100
AcDbVertex
100
AcDb2dVertex
 10
158.660636704678
 20
-5.059517868977624
 30
0.0
  0
VERTEX
  5
13C
330
12F
100
AcDbEntity
  8
boolean
100
AcDbVertex
100
AcDb2dVertex
 10
158.6881021326759
 20
-4.962213492402708
 30
0.0
  0
VERTEX
  5
13D
330
12F
100
AcDbEntity
  8
boolean
100
AcDbVertex
100
AcDb2dVertex
 10
158.7136195783588
 20
-4.864272959150877
 30
0.0
  0
VERTEX
  5
13E
330
12F
100
AcDbEntity
  8
boolean
100
AcDbVertex
100
AcDb2dVertex
 10
158.7371679014663
 20
-4.765754897363415
 30
0.0
  0
VERTEX
  5
13F
330
12F
100
AcDbEntity
  8
boolean
100
AcDbVertex
100
AcDb2dVertex
 10
158.7587283218794
 20
-4.666718840704368
 30
0.0
  0
VERTEX
  5
140
330
12F
100
AcDbEntity
  8
boolean
100
AcDbVertex
100
AcDb2dVertex
 10
158.7782844667498
 20
-4.567225109151625
 30
0.0
  0
VERTEX
  5
141
330
12F
100
AcDbEntity
  8
boolean
100
AcDbVertex
100
AcDb2dVertex
 10
158.7958224103755
 20
-4.467334686919944
 30
0.0
  0
VERTEX
  5
142
330
12F
100
AcDbEntity
  8
boolean
100
AcDbVertex
100
AcDb2dVertex
 10
158.8113307066233
 20
-4.367109098033012
 30
0.0
  0
VERTEX
  5
143
330
12F
100
AcDbEntity
  8
boolean
100
AcDbVertex
100
AcDb2dVertex
 10
158.8248004137426
 20
-4.266610280076771
 30
0.0
  0
VERTEX
  5
144
330
12F
100
AcDbEntity
  8
boolean
100
AcDbVertex
100
AcDb2dVertex
 10
158.836225111458
 20
-4.165900456677678
 30
0.0
  0
VERTEX
  5
145
330
12F
100
AcDbEntity
  8
boolean
100
AcDbVertex
100
AcDb2dVertex
 10
158.8456009102715
 20
-4.065042009256835
 30
0.0
  0
VERTEX
  5
146
330
12F
100
AcDbEntity
  8
boolean
100
AcDbVertex
100
AcDb2dVertex
 10
158.8529264529532
 20
-3.964097348614234
 30
0.0
  0
VERTEX
  5
147
330
12F
100
AcDbEntity
  8
boolean
100
AcDbVertex
100
AcDb2dVertex
 10
158.8582029082389
 20
-3.863128786896435
 30
0.0
  0
VERTEX
  5
148
330
12F
100
AcDbEntity
  8
boolean
100
AcDbVertex
100
AcDb2dVertex
 10
158.8614339568043
 20
-3.762198410496205
 30
0.0
  0
VERTEX
  5
149
330
12F
100
AcDbEntity
  8
boolean
100
AcDbVertex
100
AcDb2dVertex
 10
158.862625769623
 20
-3.661367954423599
 30
0.0
  0
VERTEX
  5
14A
330
12F
100
AcDbEntity
  8
boolean
100
AcDbVertex
100
AcDb2dVertex
 10
158.8617869788619
 20
-3.560698678675234
 30
0.0
  0
VERTEX
  5
14B
330
12F
100
AcDbEntity
  8
boolean
100
AcDbVertex
100
AcDb2dVertex
 10
158.8589286415078
 20
-3.460251247111936
 30
0.0
  0
VERTEX
  5
14C
330
12F
100
AcDbEntity
  8
boolean
100
AcDbVertex
100
AcDb2dVertex
 10
158.8540641959582
 20
-3.360085609334876
 30
0.0
  0
VERTEX
  5
14D
330
12F
100
AcDbEntity
  8
boolean
100
AcDbVertex
100
AcDb2dVertex
 10
158.8472094118444
 20
-3.260260886026895
 30
0.0
  0
VERTEX
  5
14E
330
12F
100
AcDbEntity
  8
boolean
100
AcDbVertex
100
AcDb2dVertex
 10
158.8383823333931
 20
-3.160835258199372
 30
0.0
  0
VERTEX
  5
14F
330
12F
100
AcDbEntity
  8
boolean
100
AcDbVertex
100
AcDb2dVertex
 10
158.8276032166605
 20
-3.06186586075574
 30
0.0
  0
VERTEX
  5
150
330
12F
100
AcDbEntity
  8
boolean
100
AcDbVertex
100
AcDb2dVertex
 10
158.8148944610042
 20
-2.963408680751265
 30
0.0
  0
VERTEX
  5
151
330
12F
100
AcDbEntity
  8
boolean
100
AcDbVertex
100
AcDb2dVertex
 10
158.8002805351821
 20
-2.865518460694986
 30
0.0
  0
VERTEX
  5
152
330
12F
100
AcDbEntity
  8
boolean
100
AcDbVertex
100
AcDb2dVertex
 10
161.093046525726
 20
-2.499999999999035
 30
0.0
  0
SEQEND
  5
153
330
12F
100
AcDbEntity
  8
boolean
  0
POLYLINE
  5
154
330
1F
100
AcDbEntity
  8
boolean
100
AcDb2dPolyline
 66
     1
 10
0.0
 20
0.0
 30
0.0
  0
VERTEX
  5
155
330
154
100
AcDbEntity
  8
boolean
100
AcDbVertex
100
AcDb2dVertex
 10
161.0930465257203
 20
-2.499999999999948
 30
0.0
  0
VERTEX
  5
156
330
154
100
AcDbEntity
  8
boolean
100
AcDbVertex
100
AcDb2dVertex
 10
270.4172368794036
 20
-2.499999999999948
 30
0.0
  0
VERTEX
  5
157
330
154
100
AcDbEntity
  8
boolean
100
AcDbVertex
100
AcDb2dVertex
 10
272.7100028699419
 20
-2.865518460694986
 30
0.0
  0
VERTEX
  5
158
330
154
100
AcDbEntity
  8
boolean
100
AcDbVertex
100
AcDb2dVertex
 10
272.6953889441197
 20
-2.963408680751265
 30
0.0
  0
VERTEX
  5
159
330
154
100
AcDbEntity
  8
boolean
100
AcDbVertex
100
AcDb2dVertex
 10
272.6826801884635
 20
-3.06186586075574
 30
0.0
  0
VERTEX
  5
15A
330
154
100
AcDbEntity
  8
boolean
100
AcDbVertex
100
AcDb2dVertex
 10
272.6719010717308
 20
-3.160835258199372
 30
0.0
  0
VERTEX
  5
15B
330
154
100
AcDbEntity
  8
boolean
100
AcDbVertex
100
AcDb2dVertex
 10
272.6630739932795
 20
-3.260260886026895
 30
0.0
  0
VERTEX
  5
15C
330
154
100
AcDbEntity
  8
boolean
100
AcDbVertex
100
AcDb2dVertex
 10
272.6562192091657
 20
-3.360085609334876
 30
0.0
  0
VERTEX
  5
15D
330
154
100
AcDbEntity
  8
boolean
100
AcDbVertex
100
AcDb2dVertex
 10
272.6513547636161
 20
-3.460251247111936
 30
0.0
  0
VERTEX
  5
15E
330
154
100
AcDbEntity
  8
boolean
100
AcDbVertex
100
AcDb2dVertex
 10
272.6484964262621
 20
-3.560698678675234
 30
0.0
  0
VERTEX
  5
15F
330
154
100
AcDbEntity
  8
boolean
100
AcDbVertex
100
AcDb2dVertex
 10
272.6476576355009
 20
-3.661367954423599
 30
0.0
  0
VERTEX
  5
160
330
154
100
AcDbEntity
  8
boolean
100
AcDbVertex
100
AcDb2dVertex
 10
272.6488494483196
 20
-3.762198410496205
 30
0.0
  0
VERTEX
  5
161
330
154
100
AcDbEntity
  8
boolean
100
AcDbVertex
100
AcDb2dVertex
 10
272.6520804968851
 20
-3.863128786896435
 30
0.0
  0
VERTEX
  5
162
330
154
100
AcDbEntity
  8
boolean
100
AcDbVertex
100
AcDb2dVertex
 10
272.6573569521708
 20
-3.964097348614234
 30
0.0
  0
VERTEX
  5
163
330
154
100
AcDbEntity
  8
boolean
100
AcDbVertex
100
AcDb2dVertex
 10
272.6646824948525
 20
-4.065042009256835
 30
0.0
  0
VERTEX
  5
164
330
154
100
AcDbEntity
  8
boolean
100
AcDbVertex
100
AcDb2dVertex
 10
272.6740582936661
 20
-4.165900456677678
 30
0.0
  0
VERTEX
  5
165
330
154
100
AcDbEntity
  8
boolean
100
AcDbVertex
100
AcDb2dVertex
 10
272.6854829913814
 20
-4.266610280076771
 30
0.0
  0
VERTEX
  5
166
330
154
100
AcDbEntity
  8
boolean
100
AcDbVertex
100
AcDb2dVertex
 10
272.6989526985006
 20
-4.367109098033012
 30
0.0
  0
VERTEX
  5
167
330
154
100
AcDbEntity
  8
boolean
100
AcDbVertex
100
AcDb2dVertex
 10
272.7144609947484
 20
-4.467334686919944
 30
0.0
  0
VERTEX
  5
168
330
154
100
AcDbEntity
  8
boolean
100
AcDbVertex
100
AcDb2dVertex
 10
272.7319989383741
 20
-4.567225109151625
 30
0.0
  0
VERTEX
  5
169
330
154
100
AcDbEntity
  8
boolean
100
AcDbVertex
100
AcDb2dVertex
 10
272.7515550832446
 20
-4.666718840704368
 30
0.0
  0
VERTEX
  5
16A
330
154
100
AcDbEntity
  8
boolean
100
AcDbVertex
100
AcDb2dVertex
 10
272.7731155036577
 20
-4.765754897363415
 30
0.0
  0
VERTEX
  5
16B
330
154
100
AcDbEntity
  8
boolean
100
AcDbVertex
100
AcDb2dVertex
 10
272.7966638267652
 20
-4.864272959150877
 30
0.0
  0
VERTEX
  5
16C
330
154
100
AcDbEntity
  8
boolean
100
AcDbVertex
100
AcDb2dVertex
 10
272.8221812724481
 20
-4.962213492402708
 30
0.0
  0
VERTEX
  5
16D
330
154
100
AcDbEntity
  8
boolean
100
AcDbVertex
100
AcDb2dVertex
 10
272.849646700446
 20
-5.059517868977624
 30
0.0
  0
VERTEX
  5
16E
330
154
100
AcDbEntity
  8
boolean
100
AcDbVertex
100
AcDb2dVertex
 10
272.8790366645027
 20
-5.156128482099929
 30
0.0
  0
VERTEX
  5
16F
330
154
100
AcDbEntity
  8
boolean
100
AcDbVertex
100
AcDb2dVertex
 10
272.9103254732488
 20
-5.251988858360681
 30
0.0
  0
VERTEX
  5
170
330
154
100
AcDbEntity
  8
boolean
100
AcDbVertex
100
AcDb2dVertex
 10
272.9434852575087
 20
-5.347043765427499
 30
0.0
  0
VERTEX
  5
171
330
154
100
AcDbEntity
  8
boolean
100
AcDbVertex
100
AcDb2dVertex
 10
272.9784860436839
 20
-5.441239315042142
 30
0.0
  0
VERTEX
  5
172
330
154
100
AcDbEntity
  8
boolean
100
AcDbVertex
100
AcDb2dVertex
 10
273.015295832836
 20
-5.534523060916637
 30
0.0
  0
VERTEX
  5
173
330
154
100
AcDbEntity
  8
boolean
100
AcDbVertex
100
AcDb2dVertex
 10
273.0538806850609
 20
-5.62684409117266
 30
0.0
  0
VERTEX
  5
174
330
154
100
AcDbEntity
  8
boolean
100
AcDbVertex
100
AcDb2dVertex
 10
273.0942048087297
 20
-5.718153115005071
 30
0.0
  0
VERTEX
  5
175
330
154
100
AcDbEntity
  8
boolean
100
AcDbVertex
100
AcDb2dVertex
 10
273.1362306541403
 20
-5.808402543288116
 30
0.0
  0
VERTEX
  5
176
330
154
100
AcDbEntity
  8
boolean
100
AcDbVertex
100
AcDb2dVertex
 10
273.1799190111179
 20
-5.897546562882024
 30
0.0
  0
VERTEX
  5
177
330
154
100
AcDbEntity
  8
boolean
100
AcDbVertex
100
AcDb2dVertex
 10
273.2252291100816
 20
-5.985541204437678
 30
0.0
  0
VERTEX
  5
178
330
154
100
AcDbEntity
  8
boolean
100
AcDbVertex
100
AcDb2dVertex
 10
281.125464958018
 20
-7.245016160888214
 30
0.0
  0
SEQEND
  5
179
330
154
100
AcDbEntity
  8
boolean
  0
POLYLINE
  5
17A
330
1F
100
AcDbEntity
  8
boolean
100
AcDb2dPolyline
 66
     1
 10
0.0
 20
0.0
 30
0.0
  0
VERTEX
  5
17B
330
17A
100
AcDbEntity
  8
boolean
100
AcDbVertex
100
AcDb2dVertex
 10
281.1254649580181
 20
-7.245016160888214
 30
0.0
  0
VERTEX
  5
17C
330
17A
100
AcDbEntity
  8
boolean
100
AcDbVertex
100
AcDb2dVertex
 10
281.1958902210979
 20
-7.175472329456549
 30
0.0
  0
VERTEX
  5
17D
330
17A
100
AcDbEntity
  8
boolean
100
AcDbVertex
100
AcDb2dVertex
 10
281.2651315238033
 20
-7.104331829307351
 30
0.0
  0
VERTEX
  5
17E
330
17A
100
AcDbEntity
  8
boolean
100
AcDbVertex
100
AcDb2dVertex
 10
281.3331364456535
 20
-7.031623773201154
 30
0.0
  0
VERTEX
  5
17F
330
17A
100
AcDbEntity
  8
boolean
100
AcDbVertex
100
AcDb2dVertex
 10
281.3998534749602
 20
-6.95737951117283
 30
0.0
  0
VERTEX
  5
180
330
17A
100
AcDbEntity
  8
boolean
100
AcDbVertex
100
AcDb2dVertex
 10
281.4652321259679
 20
-6.881632597513898
 30
0.0
  0
VERTEX
  5
181
330
17A
100
AcDbEntity
  8
boolean
100
AcDbVertex
100
AcDb2dVertex
 10
281.52922305472
 20
-6.804418750497274
 30
0.0
  0
VERTEX
  5
182
330
17A
100
AcDbEntity
  8
boolean
100
AcDbVertex
100
AcDb2dVertex
 10
281.591778173133
 20
-6.725775804887458
 30
0.0
  0
VERTEX
  5
183
330
17A
100
AcDbEntity
  8
boolean
100
AcDbVertex
100
AcDb2dVertex
 10
281.6528507607597
 20
-6.645743657321271
 30
0.0
  0
VERTEX
  5
184
330
17A
100
AcDbEntity
  8
boolean
100
AcDbVertex
100
AcDb2dVertex
 10
281.712395573725
 20
-6.564364204686707
 30
0.0
  0
VERTEX
  5
185
330
17A
100
AcDbEntity
  8
boolean
100
AcDbVertex
100
AcDb2dVertex
 10
281.770368950328
 20
-6.481681275669665
 30
0.0
  0
VERTEX
  5
186
330
17A
100
AcDbEntity
  8
boolean
100
AcDbVertex
100
AcDb2dVertex
 10
281.8267289128137
 20
-6.397740555680151
 30
0.0
  0
VERTEX
  5
187
330
17A
100
AcDbEntity
  8
boolean
100
AcDbVertex
100
AcDb2dVertex
 10
281.8814352648355
 20
-6.31258950541039
 30
0.0
  0
VERTEX
  5
188
330
17A
100
AcDbEntity
  8
boolean
100
AcDbVertex
100
AcDb2dVertex
 10
281.9344496841452
 20
-6.226277273316787
 30
0.0
  0
VERTEX
  5
189
330
17A
100
AcDbEntity
  8
boolean
100
AcDbVertex
100
AcDb2dVertex
 10
281.9857358100747
 20
-6.138854602355649
 30
0.0
  0
VERTEX
  5
18A
330
17A
100
AcDbEntity
  8
boolean
100
AcDbVertex
100
AcDb2dVertex
 10
282.0352593253964
 20
-6.050373731338271
 30
0.0
  0
VERTEX
  5
18B
330
17A
100
AcDbEntity
  8
boolean
100
AcDbVertex
100
AcDb2dVertex
 10
282.0829880321805
 20
-5.960888291304498
 30
0.0
  0
VERTEX
  5
18C
330
17A
100
AcDbEntity
  8
boolean
100
AcDbVertex
100
AcDb2dVertex
 10
282.1288919213004
 20
-5.870453197344475
 30
0.0
  0
VERTEX
  5
18D
330
17A
100
AcDbEntity
  8
boolean
100
AcDbVertex
100
AcDb2dVertex
 10
282.1729432352716
 20
-5.77912453632594
 30
0.0
  0
VERTEX
  5
18E
330
17A
100
AcDbEntity
  8
boolean
100
AcDbVertex
100
AcDb2dVertex
 10
282.2151165241489
 20
-5.68695945100874
 30
0.0
  0
VERTEX
  5
18F
330
17A
100
AcDbEntity
  8
boolean
100
AcDbVertex
100
AcDb2dVertex
 10
282.2553886942446
 20
-5.594016021049003
 30
0.0
  0
VERTEX
  5
190
330
17A
100
AcDbEntity
  8
boolean
100
AcDbVertex
100
AcDb2dVertex
 10
282.2937390494745
 20
-5.500353141412492
 30
0.0
  0
VERTEX
  5
191
330
17A
100
AcDbEntity
  8
boolean
100
AcDbVertex
100
AcDb2dVertex
 10
282.3301493251795
 20
-5.406030398729758
 30
0.0
  0
VERTEX
  5
192
330
17A
100
AcDbEntity
  8
boolean
100
AcDbVertex
100
AcDb2dVertex
 10
282.3646037143149
 20
-5.311107946134982
 30
0.0
  0
VERTEX
  5
193
330
17A
100
AcDbEntity
  8
boolean
100
AcDbVertex
100
AcDb2dVertex
 10
282.3970888859452
 20
-5.215646377135441
 30
0.0
  0
VERTEX
  5
194
330
17A
100
AcDbEntity
  8
boolean
100
AcDbVertex
100
AcDb2dVertex
 10
282.4275939960239
 20
-5.119706599059673
 30
0.0
  0
VERTEX
  5
195
330
17A
100
AcDbEntity
  8
boolean
100
AcDbVertex
100
AcDb2dVertex
 10
282.4561106904855
 20
-5.023349706629428
 30
0.0
  0
VERTEX
  5
196
330
17A
100
AcDbEntity
  8
boolean
100
AcDbVertex
100
AcDb2dVertex
 10
282.4826331007174
 20
-4.926636856193584
 30
0.0
  0
VERTEX
  5
197
330
17A
100
AcDbEntity
  8
boolean
100
AcDbVertex
100
AcDb2dVertex
 10
282.5071578315227
 20
-4.829629141151483
 30
0.0
  0
VERTEX
  5
198
330
17A
100
AcDbEntity
  8
boolean
100
AcDbVertex
100
AcDb2dVertex
 10
282.5296839417275
 20
-4.73238746907873
 30
0.0
  0
VERTEX
  5
199
330
17A
100
AcDbEntity
  8
boolean
100
AcDbVertex
100
AcDb2dVertex
 10
282.5502129176219
 20
-4.634972441050566
 30
0.0
  0
VERTEX
  5
19A
330
17A
100
AcDbEntity
  8
boolean
100
AcDbVertex
100
AcDb2dVertex
 10
282.5687486394638
 20
-4.537444233636855
 30
0.0
  0
VERTEX
  5
19B
330
17A
100
AcDbEntity
  8
boolean
100
AcDbVertex
100
AcDb2dVertex
 10
282.5852973413096
 20
-4.439862484018567
 30
0.0
  0
VERTEX
  5
19C
330
17A
100
AcDbEntity
  8
boolean
100
AcDbVertex
100
AcDb2dVertex
 10
288.9713292632901
 20
-5.457939587265815
 30
0.0
  0
VERTEX
  5
19D
330
17A
100
AcDbEntity
  8
boolean
100
AcDbVertex
100
AcDb2dVertex
 10
288.9823082301197
 20
-5.459565145807366
 30
0.0
  0
VERTEX
  5
19E
330
17A
100
AcDbEntity
  8
boolean
100
AcDbVertex
100
AcDb2dVertex
 10
288.9934196753323
 20
-5.460957921735353
 30
0.0
  0
VERTEX
  5
19F
330
17A
100
AcDbEntity
  8
boolean
100
AcDbVertex
100
AcDb2dVertex
 10
289.0046573684683
 20
-5.462110431783703
 30
0.0
  0
VERTEX
  5
1A0
330
17A
100
AcDbEntity
  8
boolean
100
AcDbVertex
100
AcDb2dVertex
 10
289.0160146332526
 20
-5.463015353698912
 30
0.0
  0
VERTEX
  5
1A1
330
17A
100
AcDbEntity
  8
boolean
100
AcDbVertex
100
AcDb2dVertex
 10
289.027484347894
 20
-5.463665555198507
 30
0.0
  0
VERTEX
  5
1A2
330
17A
100
AcDbEntity
  8
boolean
100
AcDbVertex
100
AcDb2dVertex
 10
289.0390589474134
 20
-5.464054123588487
 30
0.0
  0
VERTEX
  5
1A3
330
17A
100
AcDbEntity
  8
boolean
100
AcDbVertex
100
AcDb2dVertex
 10
289.0507304281063
 20
-5.464174395890937
 30
0.0
  0
VERTEX
  5
1A4
330
17A
100
AcDbEntity
  8
boolean
100
AcDbVertex
100
AcDb2dVertex
 10
289.0624903542368
 20
-5.464019989318486
 30
0.0
  0
VERTEX
  5
1A5
330
17A
100
AcDbEntity
  8
boolean
100
AcDbVertex
100
AcDb2dVertex
 10
289.0743298670491
 20
-5.463584831918442
 30
0.0
  0
VERTEX
  5
1A6
330
17A
100
AcDbEntity
  8
boolean
100
AcDbVertex
100
AcDb2dVertex
 10
289.086239696164
 20
-5.462863193196475
 30
0.0
  0
VERTEX
  5
1A7
330
17A
100
AcDbEntity
  8
boolean
100
AcDbVertex
100
AcDb2dVertex
 10
289.0982101734144
 20
-5.461849714518121
 30
0.0
  0
VERTEX
  5
1A8
330
17A
100
AcDbEntity
  8
boolean
100
AcDbVertex
100
AcDb2dVertex
 10
289.1102312491544
 20
-5.46053943907609
 30
0.0
  0
VERTEX
  5
1A9
330
17A
100
AcDbEntity
  8
boolean
100
AcDbVertex
100
AcDb2dVertex
 10
289.1222925110569
 20
-5.458927841202959
 30
0.0
  0
VERTEX
  5
1AA
330
17A
100
AcDbEntity
  8
boolean
100
AcDbVertex
100
AcDb2dVertex
 10
289.1343832053927
 20
-5.457010854802213
 30
0.0
  0
VERTEX
  5
1AB
330
17A
100
AcDbEntity
  8
boolean
100
AcDbVertex
100
AcDb2dVertex
 10
289.1464922607632
 20
-5.454784900666435
 30
0.0
  0
VERTEX
  5
1AC
330
17A
100
AcDbEntity
  8
boolean
100
AcDbVertex
100
AcDb2dVertex
 10
289.1586083142334
 20
-5.452246912449424
 30
0.0
  0
VERTEX
  5
1AD
330
17A
100
AcDbEntity
  8
boolean
100
AcDbVertex
100
AcDb2dVertex
 10
289.1707197397882
 20
-5.449394361059905
 30
0.0
  0
VERTEX
  5
1AE
330
17A
100
AcDbEntity
  8
boolean
100
AcDbVertex
100
AcDb2dVertex
 10
289.1828146790106
 20
-5.446225277247802
 30
0.0
  0
VERTEX
  5
1AF
330
17A
100
AcDbEntity
  8
boolean
100
AcDbVertex
100
AcDb2dVertex
 10
289.1948810738567
 20
-5.442738272160542
 30
0.0
  0
VERTEX
  5
1B0
330
17A
100
AcDbEntity
  8
boolean
100
AcDbVertex
100
AcDb2dVertex
 10
289.2069067013747
 20
-5.438932555656063
 30
0.0
  0
VERTEX
  5
1B1
330
17A
100
AcDbEntity
  8
boolean
100
AcDbVertex
100
AcDb2dVertex
 10
289.2188792101944
 20
-5.434807952171387
 30
0.0
  0
VERTEX
  5
1B2
330
17A
100
AcDbEntity
  8
boolean
100
AcDbVertex
100
AcDb2dVertex
 10
289.2307861585895
 20
-5.430364913960861
 30
0.0
  0
VERTEX
  5
1B3
330
17A
100
AcDbEntity
  8
boolean
100
AcDbVertex
100
AcDb2dVertex
 10
289.242615053895
 20
-5.425604531535998
 30
0.0
  0
VERTEX
  5
1B4
330
17A
100
AcDbEntity
  8
boolean
100
AcDbVertex
100
AcDb2dVertex
 10
289.2543533930387
 20
-5.420528541159593
 30
0.0
  0
VERTEX
  5
1B5
330
17A
100
AcDbEntity
  8
boolean
100
AcDbVertex
100
AcDb2dVertex
 10
289.2659887039348
 20
-5.415139329269807
 30
0.0
  0
VERTEX
  5
1B6
330
17A
100
AcDbEntity
  8
boolean
100
AcDbVertex
100
AcDb2dVertex
 10
289.2775085874662
 20
-5.409439933735296
 30
0.0
  0
VERTEX
  5
1B7
330
17A
100
AcDbEntity
  8
boolean
100
AcDbVertex
100
AcDb2dVertex
 10
289.2889007597735
 20
-5.403434041869641
 30
0.0
  0
VERTEX
  5
1B8
330
17A
100
AcDbEntity
  8
boolean
100
AcDbVertex
100
AcDb2dVertex
 10
289.3001530945612
 20
-5.397125985162181
 30
0.0
  0
VERTEX
  5
1B9
330
17A
100
AcDbEntity
  8
boolean
100
AcDbVertex
100
AcDb2dVertex
 10
289.3112536651216
 20
-5.390520730712269
 30
0.0
  0
VERTEX
  5
1BA
330
17A
100
AcDbEntity
  8
boolean
100
AcDbVertex
100
AcDb2dVertex
 10
289.3221907857786
 20
-5.383623869384672
 30
0.0
  0
VERTEX
  5
1BB
330
17A
100
AcDbEntity
  8
boolean
100
AcDbVertex
100
AcDb2dVertex
 10
289.3329530524539
 20
-5.376441600734902
 30
0.0
  0
VERTEX
  5
1BC
330
17A
100
AcDbEntity
  8
boolean
100
AcDbVertex
100
AcDb2dVertex
 10
289.3435293820615
 20
-5.368980714783956
 30
0.0
  0
VERTEX
  5
1BD
330
17A
100
AcDbEntity
  8
boolean
100
AcDbVertex
100
AcDb2dVertex
 10
289.3539090504482
 20
-5.361248570752315
 30
0.0
  0
VERTEX
  5
1BE
330
17A
100
AcDbEntity
  8
boolean
100
AcDbVertex
100
AcDb2dVertex
 10
289.3640817286065
 20
-5.353253072891994
 30
0.0
  0
VERTEX
  5
1BF
330
17A
100
AcDbEntity
  8
boolean
100
AcDbVertex
100
AcDb2dVertex
 10
289.3740375169059
 20
-5.34500264358311
 30
0.0
  0
VERTEX
  5
1C0
330
17A
100
AcDbEntity
  8
boolean
100
AcDbVertex
100
AcDb2dVertex
 10
289.3837669771002
 20
-5.336506193886938
 30
0.0
  0
VERTEX
  5
1C1
330
17A
100
AcDbEntity
  8
boolean
100
AcDbVertex
100
AcDb2dVertex
 10
289.3932611619007
 20
-5.327773091770797
 30
0.0
  0
VERTEX
  5
1C2
330
17A
100
AcDbEntity
  8
boolean
100
AcDbVertex
100
AcDb2dVertex
 10
289.4025116419162
 20
-5.318813128240501
 30
0.0
  0
VERTEX
  5
1C3
330
17A
100
AcDbEntity
  8
boolean
100
AcDbVertex
100
AcDb2dVertex
 10
289.4115105297971
 20
-5.309636481633914
 30
0.0
  0
VERTEX
  5
1C4
330
17A
100
AcDbEntity
  8
boolean
100
AcDbVertex
100
AcDb2dVertex
 10
289.4202505014438
 20
-5.300253680343343
 30
0.0
  0
VERTEX
  5
1C5
330
17A
100
AcDbEntity
  8
boolean
100
AcDbVertex
100
AcDb2dVertex
 10
289.4287248141695
 20
-5.290675564245612
 30
0.0
  0
VERTEX
  5
1C6
330
17A
100
AcDbEntity
  8
boolean
100
AcDbVertex
100
AcDb2dVertex
 10
289.4369273217366
 20
-5.280913245126158
 30
0.0
  0
VERTEX
  5
1C7
330
17A
100
AcDbEntity
  8
boolean
100
AcDbVertex
100
AcDb2dVertex
 10
289.4448524862178
 20
-5.270978066387445
 30
0.0
  0
VERTEX
  5
1C8
330
17A
100
AcDbEntity
  8
boolean
100
AcDbVertex
100
AcDb2dVertex
 10
289.4524953866627
 20
-5.260881562332485
 30
0.0
  0
VERTEX
  5
1C9
330
17A
100
AcDbEntity
  8
boolean
100
AcDbVertex
100
AcDb2dVertex
 10
289.4598517245777
 20
-5.250635417311329
 30
0.0
  0
VERTEX
  5
1CA
330
17A
100
AcDbEntity
  8
boolean
100
AcDbVertex
100
AcDb2dVertex
 10
289.4669178262607
 20
-5.240251425012159
 30
0.0
  0
VERTEX
  5
1CB
330
17A
100
AcDbEntity
  8
boolean
100
AcDbVertex
100
AcDb2dVertex
 10
289.4736906420535
 20
-5.229741448169232
 30
0.0
  0
VERTEX
  5
1CC
330
17A
100
AcDbEntity
  8
boolean
100
AcDbVertex
100
AcDb2dVertex
 10
289.4801677426067
 20
-5.219117378947908
 30
0.0
  0
VERTEX
  5
1CD
330
17A
100
AcDbEntity
  8
boolean
100
AcDbVertex
100
AcDb2dVertex
 10
289.48634731227
 20
-5.208391100252176
 30
0.0
  0
VERTEX
  5
1CE
330
17A
100
AcDbEntity
  8
boolean
100
AcDbVertex
100
AcDb2dVertex
 10
289.4922281397457
 20
-5.19757444818317
 30
0.0
  0
VERTEX
  5
1CF
330
17A
100
AcDbEntity
  8
boolean
100
AcDbVertex
100
AcDb2dVertex
 10
289.4978096061615
 20
-5.186679175858361
 30
0.0
  0
VERTEX
  5
1D0
330
17A
100
AcDbEntity
  8
boolean
100
AcDbVertex
100
AcDb2dVertex
 10
289.5030916707339
 20
-5.17571691878067
 30
0.0
  0
VERTEX
  5
1D1
330
17A
100
AcDbEntity
  8
boolean
100
AcDbVertex
100
AcDb2dVertex
 10
289.5080748542098
 20
-5.164699161925192
 30
0.0
  0
VERTEX
  5
1D2
330
17A
100
AcDbEntity
  8
boolean
100
AcDbVertex
100
AcDb2dVertex
 10
289.512760220282
 20
-5.153637208688826
 30
0.0
  0
VERTEX
  5
1D3
330
17A
100
AcDbEntity
  8
boolean
100
AcDbVertex
100
AcDb2dVertex
 10
289.5171493551837
 20
-5.142542151825265
 30
0.0
  0
VERTEX
  5
1D4
330
17A
100
AcDbEntity
  8
boolean
100
AcDbVertex
100
AcDb2dVertex
 10
289.5212443456742
 20
-5.131424846464784
 30
0.0
  0
VERTEX
  5
1D5
330
17A
100
AcDbEntity
  8
boolean
100
AcDbVertex
100
AcDb2dVertex
 10
289.5250477556283
 20
-5.120295885295556
 30
0.0
  0
VERTEX
  5
1D6
330
17A
100
AcDbEntity
  8
boolean
100
AcDbVertex
100
AcDb2dVertex
 10
289.5285626014436
 20
-5.10916557596086
 30
0.0
  0
VERTEX
  5
1D7
330
17A
100
AcDbEntity
  8
boolean
100
AcDbVertex
100
AcDb2dVertex
 10
289.5317923264789
 20
-5.098043920705119
 30
0.0
  0
VERTEX
  5
1D8
330
17A
100
AcDbEntity
  8
boolean
100
AcDbVertex
100
AcDb2dVertex
 10
289.5347407747304
 20
-5.086940598281086
 30
0.0
  0
VERTEX
  5
1D9
330
17A
100
AcDbEntity
  8
boolean
100
AcDbVertex
100
AcDb2dVertex
 10
289.5374121639506
 20
-5.075864948111279
 30
0.0
  0
VERTEX
  5
1DA
330
17A
100
AcDbEntity
  8
boolean
100
AcDbVertex
100
AcDb2dVertex
 10
289.5398110584009
 20
-5.064825956678714
 30
0.0
  0
VERTEX
  5
1DB
330
17A
100
AcDbEntity
  8
boolean
100
AcDbVertex
100
AcDb2dVertex
 10
289.5419423414259
 20
-5.053832246105576
 30
0.0
  0
VERTEX
  5
1DC
330
17A
100
AcDbEntity
  8
boolean
100
AcDbVertex
100
AcDb2dVertex
 10
289.5438111880246
 20
-5.042892064863588
 30
0.0
  0
VERTEX
  5
1DD
330
17A
100
AcDbEntity
  8
boolean
100
AcDbVertex
100
AcDb2dVertex
 10
316.0391431523151
 20
161.1528068343166
 30
0.0
  0
VERTEX
  5
1DE
330
17A
100
AcDbEntity
  8
boolean
100
AcDbVertex
100
AcDb2dVertex
 10
316.0407677025631
 20
161.163778427598
 30
0.0
  0
VERTEX
  5
1DF
330
17A
100
AcDbEntity
  8
boolean
100
AcDbVertex
100
AcDb2dVertex
 10
316.0421597749704
 20
161.1748822307429
 30
0.0
  0
VERTEX
  5
1E0
330
17A
100
AcDbEntity
  8
boolean
100
AcDbVertex
100
AcDb2dVertex
 10
316.0433119073626
 20
161.1861120230468
 30
0.0
  0
VERTEX
  5
1E1
330
17A
100
AcDbEntity
  8
boolean
100
AcDbVertex
100
AcDb2dVertex
 10
316.0442167984814
 20
161.1974611395337
 30
0.0
  0
VERTEX
  5
1E2
330
17A
100
AcDbEntity
  8
boolean
100
AcDbVertex
100
AcDb2dVertex
 10
316.0448673368277
 20
161.2089224712892
 30
0.0
  0
VERTEX
  5
1E3
330
17A
100
AcDbEntity
  8
boolean
100
AcDbVertex
100
AcDb2dVertex
 10
316.0452566301581
 20
161.2204884678138
 30
0.0
  0
VERTEX
  5
1E4
330
17A
100
AcDbEntity
  8
boolean
100
AcDbVertex
100
AcDb2dVertex
 10
316.0453780354845
 20
161.2321511414999
 30
0.0
  0
VERTEX
  5
1E5
330
17A
100
AcDbEntity
  8
boolean
100
AcDbVertex
100
AcDb2dVertex
 10
316.0452251894187
 20
161.2439020743317
 30
0.0
  0
VERTEX
  5
1E6
330
17A
100
AcDbEntity
  8
boolean
100
AcDbVertex
100
AcDb2dVertex
 10
316.0447920386789
 20
161.2557324268899
 30
0.0
  0
VERTEX
  5
1E7
330
17A
100
AcDbEntity
  8
boolean
100
AcDbVertex
100
AcDb2dVertex
 10
316.0440728705765
 20
161.2676329497295
 30
0.0
  0
VERTEX
  5
1E8
330
17A
100
AcDbEntity
  8
boolean
100
AcDbVertex
100
AcDb2dVertex
 10
316.0430623432767
 20
161.2795939971851
 30
0.0
  0
VERTEX
  5
1E9
330
17A
100
AcDbEntity
  8
boolean
100
AcDbVertex
100
AcDb2dVertex
 10
316.0417555156253
 20
161.2916055436357
 30
0.0
  0
VERTEX
  5
1EA
330
17A
100
AcDbEntity
  8
boolean
100
AcDbVertex
100
AcDb2dVertex
 10
316.0401478763209
 20
161.3036572022446
 30
0.0
  0
VERTEX
  5
1EB
330
17A
100
AcDbEntity
  8
boolean
100
AcDbVertex
100
AcDb2dVertex
 10
316.0382353722086
 20
161.3157382461684
 30
0.0
  0
VERTEX
  5
1EC
330
17A
100
AcDbEntity
  8
boolean
100
AcDbVertex
100
AcDb2dVertex
 10
316.0360144354631
 20
161.3278376322042
 30
0.0
  0
VERTEX
  5
1ED
330
17A
100
AcDbEntity
  8
boolean
100
AcDbVertex
100
AcDb2dVertex
 10
316.0334820094318
 20
161.3399440268239
 30
0.0
  0
VERTEX
  5
1EE
330
17A
100
AcDbEntity
  8
boolean
100
AcDbVertex
100
AcDb2dVertex
 10
316.0306355729055
 20
161.3520458345189
 30
0.0
  0
VERTEX
  5
1EF
330
17A
100
AcDbEntity
  8
boolean
100
AcDbVertex
100
AcDb2dVertex
 10
316.0274731625895
 20
161.3641312283535
 30
0.0
  0
VERTEX
  5
1F0
330
17A
100
AcDbEntity
  8
boolean
100
AcDbVertex
100
AcDb2dVertex
 10
316.023993393555
 20
161.3761881826015
 30
0.0
  0
VERTEX
  5
1F1
330
17A
100
AcDbEntity
  8
boolean
100
AcDbVertex
100
AcDb2dVertex
 10
316.020195477457
 20
161.3882045073164
 30
0.0
  0
VERTEX
  5
1F2
330
17A
100
AcDbEntity
  8
boolean
100
AcDbVertex
100
AcDb2dVertex
 10
316.0160792383216
 20
161.4001678846608
 30
0.0
  0
VERTEX
  5
1F3
330
17A
100
AcDbEntity
  8
boolean
100
AcDbVertex
100
AcDb2dVertex
 10
316.0116451257148
 20
161.4120659067993
 30
0.0
  0
VERTEX
  5
1F4
330
17A
100
AcDbEntity
  8
boolean
100
AcDbVertex
100
AcDb2dVertex
 10
316.0068942251296
 20
161.4238861151373
 30
0.0
  0
VERTEX
  5
1F5
330
17A
100
AcDbEntity
  8
boolean
100
AcDbVertex
100
AcDb2dVertex
 10
316.0018282654419
 20
161.4356160406689
 30
0.0
  0
VERTEX
  5
1F6
330
17A
100
AcDbEntity
  8
boolean
100
AcDbVertex
100
AcDb2dVertex
 10
315.9964496233135
 20
161.4472432451793
 30
0.0
  0
VERTEX
  5
1F7
330
17A
100
AcDbEntity
  8
boolean
100
AcDbVertex
100
AcDb2dVertex
 10
315.9907613244438
 20
161.4587553630335
 30
0.0
  0
VERTEX
  5
1F8
330
17A
100
AcDbEntity
  8
boolean
100
AcDbVertex
100
AcDb2dVertex
 10
315.9847670415986
 20
161.4701401432713
 30
0.0
  0
VERTEX
  5
1F9
330
17A
100
AcDbEntity
  8
boolean
100
AcDbVertex
100
AcDb2dVertex
 10
315.9784710893732
 20
161.481385491717
 30
0.0
  0
VERTEX
  5
1FA
330
17A
100
AcDbEntity
  8
boolean
100
AcDbVertex
100
AcDb2dVertex
 10
315.971878415678
 20
161.4924795128109
 30
0.0
  0
VERTEX
  5
1FB
330
17A
100
AcDbEntity
  8
boolean
100
AcDbVertex
100
AcDb2dVertex
 10
315.9649945899629
 20
161.5034105508639
 30
0.0
  0
VERTEX
  5
1FC
330
17A
100
AcDbEntity
  8
boolean
100
AcDbVertex
100
AcDb2dVertex
 10
315.9578257882292
 20
161.5141672304405
 30
0.0
  0
VERTEX
  5
1FD
330
17A
100
AcDbEntity
  8
boolean
100
AcDbVertex
100
AcDb2dVertex
 10
315.9503787749082
 20
161.5247384955782
 30
0.0
  0
VERTEX
  5
1FE
330
17A
100
AcDbEntity
  8
boolean
100
AcDbVertex
100
AcDb2dVertex
 10
315.9426608817163
 20
161.5351136475621
 30
0.0
  0
VERTEX
  5
1FF
330
17A
100
AcDbEntity
  8
boolean
100
AcDbVertex
100
AcDb2dVertex
 10
315.9346799836216
 20
161.5452823809845
 30
0.0
  0
VERTEX
  5
200
330
17A
100
AcDbEntity
  8
boolean
100
AcDbVertex
100
AcDb2dVertex
 10
315.9264444720911
 20
161.555234817833
 30
0.0
  0
VERTEX
  5
201
330
17A
100
AcDbEntity
  8
boolean
100
AcDbVertex
100
AcDb2dVertex
 10
315.9179632258054
 20
161.5649615393733
 30
0.0
  0
VERTEX
  5
202
330
17A
100
AcDbEntity
  8
boolean
100
AcDbVertex
100
AcDb2dVertex
 10
315.9092455790567
 20
161.5744536156085
 30
0.0
  0
VERTEX
  5
203
330
17A
100
AcDbEntity
  8
boolean
100
AcDbVertex
100
AcDb2dVertex
 10
315.9003012880646
 20
161.583702632126
 30
0.0
  0
VERTEX
  5
204
330
17A
100
AcDbEntity
  8
boolean
100
AcDbVertex
100
AcDb2dVertex
 10
315.8911404954589
 20
161.5927007141636
 30
0.0
  0
VERTEX
  5
205
330
17A
100
AcDbEntity
  8
boolean
100
AcDbVertex
100
AcDb2dVertex
 10
315.8817736931981
 20
161.6014405477591
 30
0.0
  0
VERTEX
  5
206
330
17A
100
AcDbEntity
  8
boolean
100
AcDbVertex
100
AcDb2dVertex
 10
315.8722116841987
 20
161.6099153978717
 30
0.0
  0
VERTEX
  5
207
330
17A
100
AcDbEntity
  8
boolean
100
AcDbVertex
100
AcDb2dVertex
 10
315.8624655429608
 20
161.618119123397
 30
0.0
  0
VERTEX
  5
208
330
17A
100
AcDbEntity
  8
boolean
100
AcDbVertex
100
AcDb2dVertex
 10
315.8525465754761
 20
161.6260461890241
 30
0.0
  0
VERTEX
  5
209
330
17A
100
AcDbEntity
  8
boolean
100
AcDbVertex
100
AcDb2dVertex
 10
315.8424662787115
 20
161.6336916739165
 30
0.0
  0
VERTEX
  5
20A
330
17A
100
AcDbEntity
  8
boolean
100
AcDbVertex
100
AcDb2dVertex
 10
315.8322362999492
 20
161.6410512772253
 30
0.0
  0
VERTEX
  5
20B
330
17A
100
AcDbEntity
  8
boolean
100
AcDbVertex
100
AcDb2dVertex
 10
315.8218683962672
 20
161.6481213204722
 30
0.0
  0
VERTEX
  5
20C
330
17A
100
AcDbEntity
  8
boolean
100
AcDbVertex
100
AcDb2dVertex
 10
315.8113743944286
 20
161.6548987468685
 30
0.0
  0
VERTEX
  5
20D
330
17A
100
AcDbEntity
  8
boolean
100
AcDbVertex
100
AcDb2dVertex
 10
315.8007661514397
 20
161.6613811176597
 30
0.0
  0
VERTEX
  5
20E
330
17A
100
AcDbEntity
  8
boolean
100
AcDbVertex
100
AcDb2dVertex
 10
315.7900555160196
 20
161.6675666056105
 30
0.0
  0
VERTEX
  5
20F
330
17A
100
AcDbEntity
  8
boolean
100
AcDbVertex
100
AcDb2dVertex
 10
315.7792542912103
 20
161.6734539857655
 30
0.0
  0
VERTEX
  5
210
330
17A
100
AcDbEntity
  8
boolean
100
AcDbVertex
100
AcDb2dVertex
 10
315.7683741983347
 20
161.6790426236395
 30
0.0
  0
VERTEX
  5
211
330
17A
100
AcDbEntity
  8
boolean
100
AcDbVertex
100
AcDb2dVertex
 10
315.7574268424916
 20
161.6843324610097
 30
0.0
  0
VERTEX
  5
212
330
17A
100
AcDbEntity
  8
boolean
100
AcDbVertex
100
AcDb2dVertex
 10
315.7464236797545
 20
161.6893239994924
 30
0.0
  0
VERTEX
  5
213
330
17A
100
AcDbEntity
  8
boolean
100
AcDbVertex
100
AcDb2dVertex
 10
315.735375986219
 20
161.6940182821006
 30
0.0
  0
VERTEX
  5
214
330
17A
100
AcDbEntity
  8
boolean
100
AcDbVertex
100
AcDb2dVertex
 10
315.7242948290217
 20
161.6984168729869
 30
0.0
  0
VERTEX
  5
215
330
17A
100
AcDbEntity
  8
boolean
100
AcDbVertex
100
AcDb2dVertex
 10
315.7131910394287
 20
161.7025218355796
 30
0.0
  0
VERTEX
  5
216
330
17A
100
AcDbEntity
  8
boolean
100
AcDbVertex
100
AcDb2dVertex
 10
315.7020751880717
 20
161.7063357093252
 30
0.0
  0
VERTEX
  5
217
330
17A
100
AcDbEntity
  8
boolean
100
AcDbVertex
100
AcDb2dVertex
 10
315.6909575623856
 20
161.7098614852491
 30
0.0
  0
VERTEX
  5
218
330
17A
100
AcDbEntity
  8
boolean
100
AcDbVertex
100
AcDb2dVertex
 10
315.6798481462815
 20
161.7131025805469
 30
0.0
  0
VERTEX
  5
219
330
17A
100
AcDbEntity
  8
boolean
100
AcDbVertex
100
AcDb2dVertex
 10
315.6687566020673
 20
161.7160628124119
 30
0.0
  0
VERTEX
  5
21A
330
17A
100
AcDbEntity
  8
boolean
100
AcDbVertex
100
AcDb2dVertex
 10
315.6576922546098
 20
161.7187463713007
 30
0.0
  0
VERTEX
  5
21B
330
17A
100
AcDbEntity
  8
boolean
100
AcDbVertex
100
AcDb2dVertex
 10
315.6466640777149
 20
161.7211577938298
 30
0.0
  0
VERTEX
  5
21C
330
17A
100
AcDbEntity
  8
boolean
100
AcDbVertex
100
AcDb2dVertex
 10
315.6356806826835
 20
161.7233019354883
 30
0.0
  0
VERTEX
  5
21D
330
17A
100
AcDbEntity
  8
boolean
100
AcDbVertex
100
AcDb2dVertex
 10
315.6247503089899
 20
161.7251839433411
 30
0.0
  0
VERTEX
  5
21E
330
17A
100
AcDbEntity
  8
boolean
100
AcDbVertex
100
AcDb2dVertex
 10
303.3154788291517
 20
163.7042995373477
 30
0.0
  0
VERTEX
  5
21F
330
17A
100
AcDbEntity
  8
boolean
100
AcDbVertex
100
AcDb2dVertex
 10
303.3698437339958
 20
164.0784442619165
 30
0.0
  0
VERTEX
  5
220
330
17A
100
AcDbEntity
  8
boolean
100
AcDbVertex
100
AcDb2dVertex
 10
303.4129201654116
 20
164.4545804412871
 30
0.0
  0
VERTEX
  5
221
330
17A
100
AcDbEntity
  8
boolean
100
AcDbVertex
100
AcDb2dVertex
 10
303.4446097465003
 20
164.8321959499417
 30
0.0
  0
VERTEX
  5
222
330
17A
100
AcDbEntity
  8
boolean
100
AcDbVertex
100
AcDb2dVertex
 10
303.4648451688273
 20
165.2107726942568
 30
0.0
  0
VERTEX
  5
223
330
17A
100
AcDbEntity
  8
boolean
100
AcDbVertex
100
AcDb2dVertex
 10
303.4735906091693
 20
165.5897889748124
 30
0.0
  0
VERTEX
  5
224
330
17A
100
AcDbEntity
  8
boolean
100
AcDbVertex
100
AcDb2dVertex
 10
303.4708419303412
 20
165.968721880075
 30
0.0
  0
VERTEX
  5
225
330
17A
100
AcDbEntity
  8
boolean
100
AcDbVertex
100
AcDb2dVertex
 10
303.4566266638242
 20
166.3470496884276
 30
0.0
  0
VERTEX
  5
226
330
17A
100
AcDbEntity
  8
boolean
100
AcDbVertex
100
AcDb2dVertex
 10
303.4310037747063
 20
166.724254255413
 30
0.0
  0
VERTEX
  5
227
330
17A
100
AcDbEntity
  8
boolean
100
AcDbVertex
100
AcDb2dVertex
 10
279.4694209127125
 20
170.5768573941602
 30
0.0
  0
VERTEX
  5
228
330
17A
100
AcDbEntity
  8
boolean
100
AcDbVertex
100
AcDb2dVertex
 10
279.326850222805
 20
170.2266954139917
 30
0.0
  0
VERTEX
  5
229
330
17A
100
AcDbEntity
  8
boolean
100
AcDbVertex
100
AcDb2dVertex
 10
279.1947601273619
 20
169.8718909629229
 30
0.0
  0
VERTEX
  5
22A
330
17A
100
AcDbEntity
  8
boolean
100
AcDbVertex
100
AcDb2dVertex
 10
279.0733690379878
 20
169.5129175878769
 30
0.0
  0
VERTEX
  5
22B
330
17A
100
AcDbEntity
  8
boolean
100
AcDbVertex
100
AcDb2dVertex
 10
278.9628666382243
 20
169.1502620858404
 30
0.0
  0
VERTEX
  5
22C
330
17A
100
AcDbEntity
  8
boolean
100
AcDbVertex
100
AcDb2dVertex
 10
278.86341291203
 20
168.7844223106185
 30
0.0
  0
VERTEX
  5
22D
330
17A
100
AcDbEntity
  8
boolean
100
AcDbVertex
100
AcDb2dVertex
 10
278.7751373743397
 20
168.4159048973139
 30
0.0
  0
VERTEX
  5
22E
330
17A
100
AcDbEntity
  8
boolean
100
AcDbVertex
100
AcDb2dVertex
 10
278.6981385114436
 20
168.0452229263331
 30
0.0
  0
VERTEX
  5
22F
330
17A
100
AcDbEntity
  8
boolean
100
AcDbVertex
100
AcDb2dVertex
 10
278.6324834362367
 20
167.6728935495057
 30
0.0
  0
VERTEX
  5
230
330
17A
100
AcDbEntity
  8
boolean
100
AcDbVertex
100
AcDb2dVertex
 10
270.3784362086533
 20
168.9999999999998
 30
0.0
  0
VERTEX
  5
231
330
17A
100
AcDbEntity
  8
boolean
100
AcDbVertex
100
AcDb2dVertex
 10
259.1198553494723
 20
168.9999999999998
 30
0.0
  0
SEQEND
  5
232
330
17A
100
AcDbEntity
  8
boolean
  0
ENDSEC
  0
SECTION
  2
OBJECTS
  0
DICTIONARY
  5
C
330
0
100
AcDbDictionary
281
     1
  3
ACAD_GROUP
350
D
  3
ACAD_LAYOUT
350
1A
  3
ACAD_MATERIAL
350
3B
  3
ACAD_MLEADERSTYLE
350
25A
  3
ACAD_MLINESTYLE
350
17
  3
ACAD_PLOTSETTINGS
350
19
  3
ACAD_PLOTSTYLENAME
350
E
  3
ACAD_TABLESTYLE
350
259
  3
ACAD_VISUALSTYLE
350
2A
  0
DICTIONARY
  5
D
102
{ACAD_REACTORS
330
C
102
}
330
C
100
AcDbDictionary
281
     1
  0
DICTIONARY
  5
1A
102
{ACAD_REACTORS
330
C
102
}
330
C
100
AcDbDictionary
281
     1
  3
Layout1
350
1E
  3
Layout2
350
26
  3
Model
350
22
  0
DICTIONARY
  5
3B
102
{ACAD_REACTORS
330
C
102
}
330
C
100
AcDbDictionary
281
     1
  3
ByBlock
350
3D
  3
ByLayer
350
3C
  3
Global
350
3E
  0
DICTIONARY
  5
25A
102
{ACAD_REACTORS
330
C
102
}
330
C
100
AcDbDictionary
281
     1
  0
DICTIONARY
  5
17
102
{ACAD_REACTORS
330
C
102
}
330
C
100
AcDbDictionary
281
     1
  3
Standard
350
18
  0
DICTIONARY
  5
19
102
{ACAD_REACTORS
330
C
102
}
330
C
100
AcDbDictionary
281
     1
  0
ACDBDICTIONARYWDFLT
  5
E
102
{ACAD_REACTORS
330
C
102
}
330
C
100
AcDbDictionary
281
     1
  3
Normal
350
F
100
AcDbDictionaryWithDefault
340
F
  0
DICTIONARY
  5
259
102
{ACAD_REACTORS
330
C
102
}
330
C
100
AcDbDictionary
281
     1
  0
DICTIONARY
  5
2A
102
{ACAD_REACTORS
330
C
102
}
330
C
100
AcDbDictionary
281
     1
  3
2dWireframe
350
2F
  3
3D Hidden
350
31
  3
3dWireframe
350
30
  3
Basic
350
32
  3
Brighten
350
36
  3
ColorChange
350
3A
  3
Conceptual
350
34
  3
Dim
350
35
  3
Facepattern
350
39
  3
Flat
350
2B
  3
FlatWithEdges
350
2C
  3
Gouraud
350
2D
  3
GouraudWithEdges
350
2E
  3
Linepattern
350
38
  3
Realistic
350
33
  3
Thicken
350
37
  0
LAYOUT
  5
1E
102
{ACAD_REACTORS
330
1A
102
}
330
1A
100
AcDbPlotSettings
  1

  2
none_device
  4

  6

 40
0.0
 41
0.0
 42
0.0
 43
0.0
 44
0.0
 45
0.0
 46
0.0
 47
0.0
 48
0.0
 49
0.0
140
0.0
141
0.0
142
1.0
143
1.0
 70
   688
 72
     0
 73
     0
 74
     5
  7

 75
    16
 76
     0
 77
     2
 78
   300
147
1.0
148
0.0
149
0.0
100
AcDbLayout
  1
Layout1
 70
     1
 71
     1
 10
0.0
 20
0.0
 11
12.0
 21
9.0
 12
0.0
 22
0.0
 32
0.0
 14
1.000000000000000E+20
 24
1.000000000000000E+20
 34
1.000000000000000E+20
 15
-1.000000000000000E+20
 25
-1.000000000000000E+20
 35
-1.000000000000000E+20
146
0.0
 13
0.0
 23
0.0
 33
0.0
 16
1.0
 26
0.0
 36
0.0
 17
0.0
 27
1.0
 37
0.0
 76
     0
330
1B
  0
LAYOUT
  5
26
102
{ACAD_REACTORS
330
1A
102
}
330
1A
100
AcDbPlotSettings
  1

  2
none_device
  4

  6

 40
0.0
 41
0.0
 42
0.0
 43
0.0
 44
0.0
 45
0.0
 46
0.0
 47
0.0
 48
0.0
 49
0.0
140
0.0
141
0.0
142
1.0
143
1.0
 70
   688
 72
     0
 73
     0
 74
     5
  7

 75
    16
 76
     0
 77
     2
 78
   300
147
1.0
148
0.0
149
0.0
100
AcDbLayout
  1
Layout2
 70
     1
 71
     2
 10
0.0
 20
0.0
 11
0.0
 21
0.0
 12
0.0
 22
0.0
 32
0.0
 14
0.0
 24
0.0
 34
0.0
 15
0.0
 25
0.0
 35
0.0
146
0.0
 13
0.0
 23
0.0
 33
0.0
 16
1.0
 26
0.0
 36
0.0
 17
0.0
 27
1.0
 37
0.0
 76
     0
330
23
  0
LAYOUT
  5
22
102
{ACAD_REACTORS
330
1A
102
}
330
1A
100
AcDbPlotSettings
  1

  2
none_device
  4

  6

 40
0.0
 41
0.0
 42
0.0
 43
0.0
 44
0.0
 45
0.0
 46
0.0
 47
0.0
 48
0.0
 49
0.0
140
0.0
141
0.0
142
1.0
143
1.0
 70
  1712
 72
     0
 73
     0
 74
     0
  7

 75
     0
 76
     0
 77
     2
 78
   300
147
1.0
148
0.0
149
0.0
100
AcDbLayout
  1
Model
 70
     1
 71
     0
 10
0.0
 20
0.0
 11
12.0
 21
9.0
 12
0.0
 22
0.0
 32
0.0
 14
115.4649053696394
 24
-7.245016160888214
 34
0.0
 15
316.0453780354845
 25
171.9999999999999
 35
0.0
146
0.0
 13
0.0
 23
0.0
 33
0.0
 16
1.0
 26
0.0
 36
0.0
 17
0.0
 27
1.0
 37
0.0
 76
     0
330
1F
331
29
  0
MATERIAL
  5
3D
102
{ACAD_REACTORS
330
3B
102
}
102
{ACAD_XDICTIONARY
360
255
102
}
330
3B
100
AcDbMaterial
  1
ByBlock
  0
MATERIAL
  5
3C
102
{ACAD_REACTORS
330
3B
102
}
102
{ACAD_XDICTIONARY
360
253
102
}
330
3B
100
AcDbMaterial
  1
ByLayer
  0
MATERIAL
  5
3E
102
{ACAD_REACTORS
330
3B
102
}
102
{ACAD_XDICTIONARY
360
257
102
}
330
3B
100
AcDbMaterial
  1
Global
  0
MLINESTYLE
  5
18
102
{ACAD_REACTORS
330
17
102
}
330
17
100
AcDbMlineStyle
  2
Standard
 70
     0
  3

 62
   256
 51
90.0
 52
90.0
 71
     2
 49
0.5
 62
   256
  6
BYLAYER
 49
-0.5
 62
   256
  6
BYLAYER
  0
ACDBPLACEHOLDER
  5
F
102
{ACAD_REACTORS
330
E
102
}
330
E
  0
VISUALSTYLE
  5
2F
102
{ACAD_REACTORS
330
2A
102
}
102
{ACAD_XDICTIONARY
360
23B
102
}
330
2A
100
AcDbVisualStyle
  2
2dWireframe
 70
     4
 71
     0
 72
     2
 73
     0
 90
        0
 40
-0.6
 41
-30.0
 62
     5
 63
     7
421
 16777215
 74
     1
 91
        4
 64
     7
 65
   257
 75
     1
175
     1
 42
1.0
 92
        0
 66
   257
 43
1.0
 76
     1
 77
     6
 78
     2
 67
     7
 79
     5
170
     0
171
     0
290
     0
174
     0
 93
        1
 44
0.0
173
     0
291
     0
 45
0.0
1001
ACAD
1000
AcDbSavedByObjectVersion
1070
     0
  0
VISUALSTYLE
  5
31
102
{ACAD_REACTORS
330
2A
102
}
102
{ACAD_XDICTIONARY
360
23F
102
}
330
2A
100
AcDbVisualStyle
  2
3D Hidden
 70
     6
 71
     1
 72
     2
 73
     2
 90
        0
 40
-0.6
 41
-30.0
 62
     5
 63
     7
421
 16777215
 74
     2
 91
        2
 64
     7
 65
   257
 75
     2
175
     1
 42
40.0
 92
        0
 66
   257
 43
1.0
 76
     1
 77
     6
 78
     2
 67
     7
 79
     3
170
     0
171
     0
290
     0
174
     0
 93
        1
 44
0.0
173
     0
291
     0
 45
0.0
1001
ACAD
1000
AcDbSavedByObjectVersion
1070
     0
  0
VISUALSTYLE
  5
30
102
{ACAD_REACTORS
330
2A
102
}
102
{ACAD_XDICTIONARY
360
23D
102
}
330
2A
100
AcDbVisualStyle
  2
3dWireframe
 70
     5
 71
     0
 72
     2
 73
     0
 90
        0
 40
-0.6
 41
-30.0
 62
     5
 63
     7
421
 16777215
 74
     1
 91
        4
 64
     7
 65
   257
 75
     1
175
     1
 42
1.0
 92
        0
 66
   257
 43
1.0
 76
     1
 77
     6
 78
     2
 67
     7
 79
     5
170
     0
171
     0
290
     0
174
     0
 93
        1
 44
0.0
173
     0
291
     0
 45
0.0
1001
ACAD
1000
AcDbSavedByObjectVersion
1070
     0
  0
VISUALSTYLE
  5
32
102
{ACAD_REACTORS
330
2A
102
}
102
{ACAD_XDICTIONARY
360
241
102
}
330
2A
100
AcDbVisualStyle
  2
Basic
 70
     7
 71
     1
 72
     0
 73
     1
 90
        0
 40
-0.6
 41
-30.0
 62
     5
 63
     7
421
 16777215
 74
     0
 91
        4
 64
     7
 65
   257
 75
     1
175
     1
 42
1.0
 92
        8
 66
     7
 43
1.0
 76
     1
 77
     6
 78
     2
 67
     7
 79
     5
170
     0
171
     0
290
     0
174
     0
 93
        1
 44
0.0
173
     0
291
     1
 45
0.0
1001
ACAD
1000
AcDbSavedByObjectVersion
1070
     0
  0
VISUALSTYLE
  5
36
102
{ACAD_REACTORS
330
2A
102
}
102
{ACAD_XDICTIONARY
360
249
102
}
330
2A
100
AcDbVisualStyle
  2
Brighten
 70
    12
 71
     2
 72
     2
 73
     0
 90
        0
 40
-0.6
 41
-30.0
 62
     5
 63
     7
421
 16777215
 74
     1
 91
        4
 64
     7
 65
   257
 75
     1
175
     1
 42
1.0
 92
        8
 66
     7
 43
1.0
 76
     1
 77
     6
 78
     2
 67
     7
 79
     5
170
     0
171
     0
290
     0
174
     0
 93
        1
 44
50.0
173
     0
291
     1
 45
0.0
1001
ACAD
1000
AcDbSavedByObjectVersion
1070
     0
  0
VISUALSTYLE
  5
3A
102
{ACAD_REACTORS
330
2A
102
}
102
{ACAD_XDICTIONARY
360
251
102
}
330
2A
100
AcDbVisualStyle
  2
ColorChange
 70
    16
 71
     2
 72
     2
 73
     3
 90
        0
 40
-0.6
 41
-30.0
 62
     5
 63
     8
421
  8421504
 74
     1
 91
        4
 64
     7
 65
   257
 75
     1
175
     1
 42
1.0
 92
        8
 66
     8
424
  8421504
 43
1.0
 76
     1
 77
     6
 78
     2
 67
     7
 79
     5
170
     0
171
     0
290
     0
174
     0
 93
        1
 44
0.0
173
     0
291
     1
 45
0.0
1001
ACAD
1000
AcDbSavedByObjectVersion
1070
     0
  0
VISUALSTYLE
  5
34
102
{ACAD_REACTORS
330
2A
102
}
102
{ACAD_XDICTIONARY
360
245
102
}
330
2A
100
AcDbVisualStyle
  2
Conceptual
 70
     9
 71
     3
 72
     2
 73
     0
 90
        0
 40
-0.6
 41
-30.0
 62
     5
 63
     7
421
 16777215
 74
     2
 91
        2
 64
     7
 65
   257
 75
     1
175
     1
 42
40.0
 92
        8
 66
     7
 43
1.0
 76
     1
 77
     6
 78
     2
 67
     7
 79
     3
170
     0
171
     0
290
     0
174
     0
 93
        1
 44
0.0
173
     0
291
     0
 45
0.0
1001
ACAD
1000
AcDbSavedByObjectVersion
1070
     0
  0
VISUALSTYLE
  5
35
102
{ACAD_REACTORS
330
2A
102
}
102
{ACAD_XDICTIONARY
360
247
102
}
330
2A
100
AcDbVisualStyle
  2
Dim
 70
    11
 71
     2
 72
     2
 73
     0
 90
        0
 40
-0.6
 41
-30.0
 62
     5
 63
     7
421
 16777215
 74
     1
 91
        4
 64
     7
 65
   257
 75
     1
175
     1
 42
1.0
 92
        8
 66
     7
 43
1.0
 76
     1
 77
     6
 78
     2
 67
     7
 79
     5
170
     0
171
     0
290
     0
174
     0
 93
        1
 44
-50.0
173
     0
291
     1
 45
0.0
1001
ACAD
1000
AcDbSavedByObjectVersion
1070
     0
  0
VISUALSTYLE
  5
39
102
{ACAD_REACTORS
330
2A
102
}
102
{ACAD_XDICTIONARY
360
24F
102
}
330
2A
100
AcDbVisualStyle
  2
Facepattern
 70
    15
 71
     2
 72
     2
 73
     0
 90
        0
 40
-0.6
 41
-30.0
 62
     5
 63
     7
421
 16777215
 74
     1
 91
        4
 64
     7
 65
   257
 75
     1
175
     1
 42
1.0
 92
        8
 66
     7
 43
1.0
 76
     1
 77
     6
 78
     2
 67
     7
 79
     5
170
     0
171
     0
290
     0
174
     0
 93
        1
 44
0.0
173
     0
291
     1
 45
0.0
1001
ACAD
1000
AcDbSavedByObjectVersion
1070
     0
  0
VISUALSTYLE
  5
2B
102
{ACAD_REACTORS
330
2A
102
}
102
{ACAD_XDICTIONARY
360
233
102
}
330
2A
100
AcDbVisualStyle
  2
Flat
 70
     0
 71
     2
 72
     1
 73
     1
 90
        2
 40
-0.6
 41
30.0
 62
     5
 63
     7
421
 16777215
 74
     0
 91
        4
 64
     7
 65
   257
 75
     1
175
     1
 42
1.0
 92
        8
 66
     7
 43
1.0
 76
     1
 77
     6
 78
     2
 67
     7
 79
     5
170
     0
171
     0
290
     0
174
     0
 93
       13
 44
0.0
173
     0
291
     1
 45
0.0
1001
ACAD
1000
AcDbSavedByObjectVersion
1070
     0
  0
VISUALSTYLE
  5
2C
102
{ACAD_REACTORS
330
2A
102
}
102
{ACAD_XDICTIONARY
360
235
102
}
330
2A
100
AcDbVisualStyle
  2
FlatWithEdges
 70
     1
 71
     2
 72
     1
 73
     1
 90
        2
 40
-0.6
 41
30.0
 62
     5
 63
     7
421
 16777215
 74
     1
 91
        4
 64
     7
 65
   257
 75
     1
175
     1
 42
1.0
 92
        0
 66
   257
 43
1.0
 76
     1
 77
     6
 78
     2
 67
     7
 79
     5
170
     0
171
     0
290
     0
174
     0
 93
       13
 44
0.0
173
     0
291
     1
 45
0.0
1001
ACAD
1000
AcDbSavedByObjectVersion
1070
     0
  0
VISUALSTYLE
  5
2D
102
{ACAD_REACTORS
330
2A
102
}
102
{ACAD_XDICTIONARY
360
237
102
}
330
2A
100
AcDbVisualStyle
  2
Gouraud
 70
     2
 71
     2
 72
     2
 73
     1
 90
        2
 40
-0.6
 41
30.0
 62
     5
 63
     7
421
 16777215
 74
     0
 91
        4
 64
     7
 65
   257
 75
     1
175
     1
 42
1.0
 92
        0
 66
     7
 43
1.0
 76
     1
 77
     6
 78
     2
 67
     7
 79
     5
170
     0
171
     0
290
     0
174
     0
 93
       13
 44
0.0
173
     0
291
     1
 45
0.0
1001
ACAD
1000
AcDbSavedByObjectVersion
1070
     0
  0
VISUALSTYLE
  5
2E
102
{ACAD_REACTORS
330
2A
102
}
102
{ACAD_XDICTIONARY
360
239
102
}
330
2A
100
AcDbVisualStyle
  2
GouraudWithEdges
 70
     3
 71
     2
 72
     2
 73
     1
 90
        2
 40
-0.6
 41
30.0
 62
     5
 63
     7
421
 16777215
 74
     1
 91
        4
 64
     7
 65
   257
 75
     1
175
     1
 42
1.0
 92
        0
 66
   257
 43
1.0
 76
     1
 77
     6
 78
     2
 67
     7
 79
     5
170
     0
171
     0
290
     0
174
     0
 93
       13
 44
0.0
173
     0
291
     1
 45
0.0
1001
ACAD
1000
AcDbSavedByObjectVersion
1070
     0
  0
VISUALSTYLE
  5
38
102
{ACAD_REACTORS
330
2A
102
}
102
{ACAD_XDICTIONARY
360
24D
102
}
330
2A
100
AcDbVisualStyle
  2
Linepattern
 70
    14
 71
     2
 72
     2
 73
     0
 90
        0
 40
-0.6
 41
-30.0
 62
     5
 63
     7
421
 16777215
 74
     1
 91
        4
 64
     7
 65
   257
 75
     7
175
     7
 42
1.0
 92
        8
 66
     7
 43
1.0
 76
     1
 77
     6
 78
     2
 67
     7
 79
     5
170
     0
171
     0
290
     0
174
     0
 93
        1
 44
0.0
173
     0
291
     1
 45
0.0
1001
ACAD
1000
AcDbSavedByObjectVersion
1070
     0
  0
VISUALSTYLE
  5
33
102
{ACAD_REACTORS
330
2A
102
}
102
{ACAD_XDICTIONARY
360
243
102
}
330
2A
100
AcDbVisualStyle
  2
Realistic
 70
     8
 71
     2
 72
     2
 73
     0
 90
        0
 40
-0.6
 41
-30.0
 62
     5
 63
     7
421
 16777215
 74
     1
 91
        0
 64
     7
 65
   257
 75
     1
175
     1
 42
1.0
 92
        8
 66
     8
424
  7895160
 43
1.0
 76
     1
 77
     6
 78
     2
 67
     7
 79
     5
170
     0
171
     0
290
     0
174
     0
 93
       13
 44
0.0
173
     0
291
     0
 45
0.0
1001
ACAD
1000
AcDbSavedByObjectVersion
1070
     0
  0
VISUALSTYLE
  5
37
102
{ACAD_REACTORS
330
2A
102
}
102
{ACAD_XDICTIONARY
360
24B
102
}
330
2A
100
AcDbVisualStyle
  2
Thicken
 70
    13
 71
     2
 72
     2
 73
     0
 90
        0
 40
-0.6
 41
-30.0
 62
     5
 63
     7
421
 16777215
 74
     1
 91
        4
 64
     7
 65
   257
 75
     1
175
     1
 42
1.0
 92
       12
 66
     7
 43
1.0
 76
     1
 77
     6
 78
     2
 67
     7
 79
     5
170
     0
171
     0
290
     0
174
     0
 93
        1
 44
0.0
173
     0
291
     1
 45
0.0
1001
ACAD
1000
AcDbSavedByObjectVersion
1070
     0
  0
DICTIONARY
  5
255
330
3D
100
AcDbDictionary
280
     1
281
     1
  3
ACAD_XREC_ROUNDTRIP
360
256
  0
DICTIONARY
  5
253
330
3C
100
AcDbDictionary
280
     1
281
     1
  3
ACAD_XREC_ROUNDTRIP
360
254
  0
DICTIONARY
  5
257
330
3E
100
AcDbDictionary
280
     1
281
     1
  3
ACAD_XREC_ROUNDTRIP
360
258
  0
DICTIONARY
  5
23B
330
2F
100
AcDbDictionary
280
     1
281
     1
  3
ACAD_XREC_ROUNDTRIP
360
23C
  0
DICTIONARY
  5
23F
330
31
100
AcDbDictionary
280
     1
281
     1
  3
ACAD_XREC_ROUNDTRIP
360
240
  0
DICTIONARY
  5
23D
330
30
100
AcDbDictionary
280
     1
281
     1
  3
ACAD_XREC_ROUNDTRIP
360
23E
  0
DICTIONARY
  5
241
330
32
100
AcDbDictionary
280
     1
281
     1
  3
ACAD_XREC_ROUNDTRIP
360
242
  0
DICTIONARY
  5
249
330
36
100
AcDbDictionary
280
     1
281
     1
  3
ACAD_XREC_ROUNDTRIP
360
24A
  0
DICTIONARY
  5
251
330
3A
100
AcDbDictionary
280
     1
281
     1
  3
ACAD_XREC_ROUNDTRIP
360
252
  0
DICTIONARY
  5
245
330
34
100
AcDbDictionary
280
     1
281
     1
  3
ACAD_XREC_ROUNDTRIP
360
246
  0
DICTIONARY
  5
247
330
35
100
AcDbDictionary
280
     1
281
     1
  3
ACAD_XREC_ROUNDTRIP
360
248
  0
DICTIONARY
  5
24F
330
39
100
AcDbDictionary
280
     1
281
     1
  3
ACAD_XREC_ROUNDTRIP
360
250
  0
DICTIONARY
  5
233
330
2B
100
AcDbDictionary
280
     1
281
     1
  3
ACAD_XREC_ROUNDTRIP
360
234
  0
DICTIONARY
  5
235
330
2C
100
AcDbDictionary
280
     1
281
     1
  3
ACAD_XREC_ROUNDTRIP
360
236
  0
DICTIONARY
  5
237
330
2D
100
AcDbDictionary
280
     1
281
     1
  3
ACAD_XREC_ROUNDTRIP
360
238
  0
DICTIONARY
  5
239
330
2E
100
AcDbDictionary
280
     1
281
     1
  3
ACAD_XREC_ROUNDTRIP
360
23A
  0
DICTIONARY
  5
24D
330
38
100
AcDbDictionary
280
     1
281
     1
  3
ACAD_XREC_ROUNDTRIP
360
24E
  0
DICTIONARY
  5
243
330
33
100
AcDbDictionary
280
     1
281
     1
  3
ACAD_XREC_ROUNDTRIP
360
244
  0
DICTIONARY
  5
24B
330
37
100
AcDbDictionary
280
     1
281
     1
  3
ACAD_XREC_ROUNDTRIP
360
24C
  0
XRECORD
  5
256
102
{ACAD_REACTORS
330
255
102
}
330
255
100
AcDbXrecord
280
     1
102
MATERIAL
148
0.0
149
0.0
149
0.0
 93
        0
 94
      127
282
     0
 72
     1
 77
     1
171
     1
175
     1
179
     1
273
     0
  0
XRECORD
  5
254
102
{ACAD_REACTORS
330
253
102
}
330
253
100
AcDbXrecord
280
     1
102
MATERIAL
148
0.0
149
0.0
149
0.0
 93
        0
 94
      127
282
     0
 72
     1
 77
     1
171
     1
175
     1
179
     1
273
     0
  0
XRECORD
  5
258
102
{ACAD_REACTORS
330
257
102
}
330
257
100
AcDbXrecord
280
     1
102
MATERIAL
148
0.0
149
0.0
149
0.0
 93
        0
 94
      127
282
     0
 72
     1
 77
     1
171
     1
175
     1
179
     1
273
     0
  0
XRECORD
  5
23C
102
{ACAD_REACTORS
330
23B
102
}
330
23B
100
AcDbXrecord
280
     1
102
RTVSPropertyOp0
 70
     1
102
RTVSPropertyOp1
 70
     1
102
RTVSPropertyOp2
 70
     1
102
RTVSPropertyOp3
 70
     1
102
RTVSPropertyOp4
 70
     1
102
RTVSPropertyOp5
 70
     1
102
RTVSPropertyOp6
 70
     1
102
RTVSPropertyOp7
 70
     1
102
RTVSPropertyOp8
 70
     1
102
RTVSPropertyOp9
 70
     1
102
RTVSPropertyOp10
 70
     1
102
RTVSPropertyOp11
 70
     1
102
RTVSPropertyOp12
 70
     1
102
RTVSPropertyOp13
 70
     1
102
RTVSPropertyOp14
 70
     1
102
RTVSPropertyOp15
 70
     1
102
RTVSPropertyOp16
 70
     1
102
RTVSPropertyOp17
 70
     1
102
RTVSPropertyOp18
 70
     1
102
RTVSPropertyOp19
 70
     1
102
RTVSPropertyOp20
 70
     1
102
RTVSPropertyOp21
 70
     1
102
RTVSPropertyOp22
 70
     1
102
RTVSPropertyOp23
 70
     1
102
RTVSPropertyOp24
 70
     1
102
RTVSPropertyOp25
 70
     1
102
RTVSPropertyOp26
 70
     1
102
RTVSPropertyOp27
 70
     1
102
RTVSPropertyOp28
 70
     1
102
RTVSPropertyOp29
 70
     1
102
RTVSPropertyOp30
 70
     1
102
RTVSPropertyOp31
 70
     1
102
RTVSPropertyOp32
 70
     1
  0
XRECORD
  5
240
102
{ACAD_REACTORS
330
23F
102
}
330
23F
100
AcDbXrecord
280
     1
102
RTVSPropertyOp0
 70
     1
102
RTVSPropertyOp1
 70
     1
102
RTVSPropertyOp2
 70
     1
102
RTVSPropertyOp3
 70
     1
102
RTVSPropertyOp4
 70
     1
102
RTVSPropertyOp5
 70
     1
102
RTVSPropertyOp6
 70
     1
102
RTVSPropertyOp7
 70
     1
102
RTVSPropertyOp8
 70
     1
102
RTVSPropertyOp9
 70
     1
102
RTVSPropertyOp10
 70
     1
102
RTVSPropertyOp11
 70
     1
102
RTVSPropertyOp12
 70
     1
102
RTVSPropertyOp13
 70
     1
102
RTVSPropertyOp14
 70
     1
102
RTVSPropertyOp15
 70
     1
102
RTVSPropertyOp16
 70
     1
102
RTVSPropertyOp17
 70
     1
102
RTVSPropertyOp18
 70
     1
102
RTVSPropertyOp19
 70
     1
102
RTVSPropertyOp20
 70
     1
102
RTVSPropertyOp21
 70
     1
102
RTVSPropertyOp22
 70
     1
102
RTVSPropertyOp23
 70
     1
102
RTVSPropertyOp24
 70
     1
102
RTVSPropertyOp25
 70
     1
102
RTVSPropertyOp26
 70
     1
102
RTVSPropertyOp27
 70
     1
102
RTVSPropertyOp28
 70
     1
102
RTVSPropertyOp29
 70
     1
102
RTVSPropertyOp30
 70
     1
102
RTVSPropertyOp31
 70
     1
102
RTVSPropertyOp32
 70
     1
  0
XRECORD
  5
23E
102
{ACAD_REACTORS
330
23D
102
}
330
23D
100
AcDbXrecord
280
     1
102
RTVSPropertyOp0
 70
     1
102
RTVSPropertyOp1
 70
     1
102
RTVSPropertyOp2
 70
     1
102
RTVSPropertyOp3
 70
     1
102
RTVSPropertyOp4
 70
     1
102
RTVSPropertyOp5
 70
     1
102
RTVSPropertyOp6
 70
     1
102
RTVSPropertyOp7
 70
     1
102
RTVSPropertyOp8
 70
     1
102
RTVSPropertyOp9
 70
     1
102
RTVSPropertyOp10
 70
     1
102
RTVSPropertyOp11
 70
     1
102
RTVSPropertyOp12
 70
     1
102
RTVSPropertyOp13
 70
     1
102
RTVSPropertyOp14
 70
     1
102
RTVSPropertyOp15
 70
     1
102
RTVSPropertyOp16
 70
     1
102
RTVSPropertyOp17
 70
     1
102
RTVSPropertyOp18
 70
     1
102
RTVSPropertyOp19
 70
     1
102
RTVSPropertyOp20
 70
     1
102
RTVSPropertyOp21
 70
     1
102
RTVSPropertyOp22
 70
     1
102
RTVSPropertyOp23
 70
     1
102
RTVSPropertyOp24
 70
     1
102
RTVSPropertyOp25
 70
     1
102
RTVSPropertyOp26
 70
     1
102
RTVSPropertyOp27
 70
     1
102
RTVSPropertyOp28
 70
     1
102
RTVSPropertyOp29
 70
     1
102
RTVSPropertyOp30
 70
     1
102
RTVSPropertyOp31
 70
     1
102
RTVSPropertyOp32
 70
     1
  0
XRECORD
  5
242
102
{ACAD_REACTORS
330
241
102
}
330
241
100
AcDbXrecord
280
     1
102
RTVSPropertyOp0
 70
     1
102
RTVSPropertyOp1
 70
     1
102
RTVSPropertyOp2
 70
     1
102
RTVSPropertyOp3
 70
     1
102
RTVSPropertyOp4
 70
     1
102
RTVSPropertyOp5
 70
     1
102
RTVSPropertyOp6
 70
     1
102
RTVSPropertyOp7
 70
     1
102
RTVSPropertyOp8
 70
     1
102
RTVSPropertyOp9
 70
     1
102
RTVSPropertyOp10
 70
     1
102
RTVSPropertyOp11
 70
     1
102
RTVSPropertyOp12
 70
     1
102
RTVSPropertyOp13
 70
     1
102
RTVSPropertyOp14
 70
     1
102
RTVSPropertyOp15
 70
     1
102
RTVSPropertyOp16
 70
     1
102
RTVSPropertyOp17
 70
     1
102
RTVSPropertyOp18
 70
     1
102
RTVSPropertyOp19
 70
     1
102
RTVSPropertyOp20
 70
     1
102
RTVSPropertyOp21
 70
     1
102
RTVSPropertyOp22
 70
     1
102
RTVSPropertyOp23
 70
     1
102
RTVSPropertyOp24
 70
     1
102
RTVSPropertyOp25
 70
     1
102
RTVSPropertyOp26
 70
     1
102
RTVSPropertyOp27
 70
     1
102
RTVSPropertyOp28
 70
     1
102
RTVSPropertyOp29
 70
     1
102
RTVSPropertyOp30
 70
     1
102
RTVSPropertyOp31
 70
     1
102
RTVSPropertyOp32
 70
     1
  0
XRECORD
  5
24A
102
{ACAD_REACTORS
330
249
102
}
330
249
100
AcDbXrecord
280
     1
102
RTVSPropertyOp0
 70
     1
102
RTVSPropertyOp1
 70
     1
102
RTVSPropertyOp2
 70
     1
102
RTVSPropertyOp3
 70
     1
102
RTVSPropertyOp4
 70
     1
102
RTVSPropertyOp5
 70
     1
102
RTVSPropertyOp6
 70
     1
102
RTVSPropertyOp7
 70
     1
102
RTVSPropertyOp8
 70
     1
102
RTVSPropertyOp9
 70
     1
102
RTVSPropertyOp10
 70
     1
102
RTVSPropertyOp11
 70
     1
102
RTVSPropertyOp12
 70
     1
102
RTVSPropertyOp13
 70
     1
102
RTVSPropertyOp14
 70
     1
102
RTVSPropertyOp15
 70
     1
102
RTVSPropertyOp16
 70
     1
102
RTVSPropertyOp17
 70
     1
102
RTVSPropertyOp18
 70
     1
102
RTVSPropertyOp19
 70
     1
102
RTVSPropertyOp20
 70
     1
102
RTVSPropertyOp21
 70
     1
102
RTVSPropertyOp22
 70
     1
102
RTVSPropertyOp23
 70
     1
102
RTVSPropertyOp24
 70
     1
102
RTVSPropertyOp25
 70
     1
102
RTVSPropertyOp26
 70
     1
102
RTVSPropertyOp27
 70
     1
102
RTVSPropertyOp28
 70
     1
102
RTVSPropertyOp29
 70
     1
102
RTVSPropertyOp30
 70
     1
102
RTVSPropertyOp31
 70
     1
102
RTVSPropertyOp32
 70
     1
  0
XRECORD
  5
252
102
{ACAD_REACTORS
330
251
102
}
330
251
100
AcDbXrecord
280
     1
102
RTVSPropertyOp0
 70
     1
102
RTVSPropertyOp1
 70
     1
102
RTVSPropertyOp2
 70
     1
102
RTVSPropertyOp3
 70
     1
102
RTVSPropertyOp4
 70
     1
102
RTVSPropertyOp5
 70
     1
102
RTVSPropertyOp6
 70
     1
102
RTVSPropertyOp7
 70
     1
102
RTVSPropertyOp8
 70
     1
102
RTVSPropertyOp9
 70
     1
102
RTVSPropertyOp10
 70
     1
102
RTVSPropertyOp11
 70
     1
102
RTVSPropertyOp12
 70
     1
102
RTVSPropertyOp13
 70
     1
102
RTVSPropertyOp14
 70
     1
102
RTVSPropertyOp15
 70
     1
102
RTVSPropertyOp16
 70
     1
102
RTVSPropertyOp17
 70
     1
102
RTVSPropertyOp18
 70
     1
102
RTVSPropertyOp19
 70
     1
102
RTVSPropertyOp20
 70
     1
102
RTVSPropertyOp21
 70
     1
102
RTVSPropertyOp22
 70
     1
102
RTVSPropertyOp23
 70
     1
102
RTVSPropertyOp24
 70
     1
102
RTVSPropertyOp25
 70
     1
102
RTVSPropertyOp26
 70
     1
102
RTVSPropertyOp27
 70
     1
102
RTVSPropertyOp28
 70
     1
102
RTVSPropertyOp29
 70
     1
102
RTVSPropertyOp30
 70
     1
102
RTVSPropertyOp31
 70
     1
102
RTVSPropertyOp32
 70
     1
  0
XRECORD
  5
246
102
{ACAD_REACTORS
330
245
102
}
330
245
100
AcDbXrecord
280
     1
102
RTVSPropertyOp0
 70
     1
102
RTVSPropertyOp1
 70
     1
102
RTVSPropertyOp2
 70
     1
102
RTVSPropertyOp3
 70
     1
102
RTVSPropertyOp4
 70
     1
102
RTVSPropertyOp5
 70
     1
102
RTVSPropertyOp6
 70
     1
102
RTVSPropertyOp7
 70
     1
102
RTVSPropertyOp8
 70
     1
102
RTVSPropertyOp9
 70
     1
102
RTVSPropertyOp10
 70
     1
102
RTVSPropertyOp11
 70
     1
102
RTVSPropertyOp12
 70
     1
102
RTVSPropertyOp13
 70
     1
102
RTVSPropertyOp14
 70
     1
102
RTVSPropertyOp15
 70
     1
102
RTVSPropertyOp16
 70
     1
102
RTVSPropertyOp17
 70
     1
102
RTVSPropertyOp18
 70
     1
102
RTVSPropertyOp19
 70
     1
102
RTVSPropertyOp20
 70
     1
102
RTVSPropertyOp21
 70
     1
102
RTVSPropertyOp22
 70
     1
102
RTVSPropertyOp23
 70
     1
102
RTVSPropertyOp24
 70
     1
102
RTVSPropertyOp25
 70
     1
102
RTVSPropertyOp26
 70
     1
102
RTVSPropertyOp27
 70
     1
102
RTVSPropertyOp28
 70
     1
102
RTVSPropertyOp29
 70
     1
102
RTVSPropertyOp30
 70
     1
102
RTVSPropertyOp31
 70
     1
102
RTVSPropertyOp32
 70
     1
  0
XRECORD
  5
248
102
{ACAD_REACTORS
330
247
102
}
330
247
100
AcDbXrecord
280
     1
102
RTVSPropertyOp0
 70
     1
102
RTVSPropertyOp1
 70
     1
102
RTVSPropertyOp2
 70
     1
102
RTVSPropertyOp3
 70
     1
102
RTVSPropertyOp4
 70
     1
102
RTVSPropertyOp5
 70
     1
102
RTVSPropertyOp6
 70
     1
102
RTVSPropertyOp7
 70
     1
102
RTVSPropertyOp8
 70
     1
102
RTVSPropertyOp9
 70
     1
102
RTVSPropertyOp10
 70
     1
102
RTVSPropertyOp11
 70
     1
102
RTVSPropertyOp12
 70
     1
102
RTVSPropertyOp13
 70
     1
102
RTVSPropertyOp14
 70
     1
102
RTVSPropertyOp15
 70
     1
102
RTVSPropertyOp16
 70
     1
102
RTVSPropertyOp17
 70
     1
102
RTVSPropertyOp18
 70
     1
102
RTVSPropertyOp19
 70
     1
102
RTVSPropertyOp20
 70
     1
102
RTVSPropertyOp21
 70
     1
102
RTVSPropertyOp22
 70
     1
102
RTVSPropertyOp23
 70
     1
102
RTVSPropertyOp24
 70
     1
102
RTVSPropertyOp25
 70
     1
102
RTVSPropertyOp26
 70
     1
102
RTVSPropertyOp27
 70
     1
102
RTVSPropertyOp28
 70
     1
102
RTVSPropertyOp29
 70
     1
102
RTVSPropertyOp30
 70
     1
102
RTVSPropertyOp31
 70
     1
102
RTVSPropertyOp32
 70
     1
  0
XRECORD
  5
250
102
{ACAD_REACTORS
330
24F
102
}
330
24F
100
AcDbXrecord
280
     1
102
RTVSPropertyOp0
 70
     1
102
RTVSPropertyOp1
 70
     1
102
RTVSPropertyOp2
 70
     1
102
RTVSPropertyOp3
 70
     1
102
RTVSPropertyOp4
 70
     1
102
RTVSPropertyOp5
 70
     1
102
RTVSPropertyOp6
 70
     1
102
RTVSPropertyOp7
 70
     1
102
RTVSPropertyOp8
 70
     1
102
RTVSPropertyOp9
 70
     1
102
RTVSPropertyOp10
 70
     1
102
RTVSPropertyOp11
 70
     1
102
RTVSPropertyOp12
 70
     1
102
RTVSPropertyOp13
 70
     1
102
RTVSPropertyOp14
 70
     1
102
RTVSPropertyOp15
 70
     1
102
RTVSPropertyOp16
 70
     1
102
RTVSPropertyOp17
 70
     1
102
RTVSPropertyOp18
 70
     1
102
RTVSPropertyOp19
 70
     1
102
RTVSPropertyOp20
 70
     1
102
RTVSPropertyOp21
 70
     1
102
RTVSPropertyOp22
 70
     1
102
RTVSPropertyOp23
 70
     1
102
RTVSPropertyOp24
 70
     1
102
RTVSPropertyOp25
 70
     1
102
RTVSPropertyOp26
 70
     1
102
RTVSPropertyOp27
 70
     1
102
RTVSPropertyOp28
 70
     1
102
RTVSPropertyOp29
 70
     1
102
RTVSPropertyOp30
 70
     1
102
RTVSPropertyOp31
 70
     1
102
RTVSPropertyOp32
 70
     1
  0
XRECORD
  5
234
102
{ACAD_REACTORS
330
233
102
}
330
233
100
AcDbXrecord
280
     1
102
RTVSPropertyOp0
 70
     1
102
RTVSPropertyOp1
 70
     1
102
RTVSPropertyOp2
 70
     1
102
RTVSPropertyOp3
 70
     1
102
RTVSPropertyOp4
 70
     1
102
RTVSPropertyOp5
 70
     1
102
RTVSPropertyOp6
 70
     1
102
RTVSPropertyOp7
 70
     1
102
RTVSPropertyOp8
 70
     1
102
RTVSPropertyOp9
 70
     1
102
RTVSPropertyOp10
 70
     1
102
RTVSPropertyOp11
 70
     1
102
RTVSPropertyOp12
 70
     1
102
RTVSPropertyOp13
 70
     1
102
RTVSPropertyOp14
 70
     1
102
RTVSPropertyOp15
 70
     1
102
RTVSPropertyOp16
 70
     1
102
RTVSPropertyOp17
 70
     1
102
RTVSPropertyOp18
 70
     1
102
RTVSPropertyOp19
 70
     1
102
RTVSPropertyOp20
 70
     1
102
RTVSPropertyOp21
 70
     1
102
RTVSPropertyOp22
 70
     1
102
RTVSPropertyOp23
 70
     1
102
RTVSPropertyOp24
 70
     1
102
RTVSPropertyOp25
 70
     1
102
RTVSPropertyOp26
 70
     1
102
RTVSPropertyOp27
 70
     1
102
RTVSPropertyOp28
 70
     1
102
RTVSPropertyOp29
 70
     1
102
RTVSPropertyOp30
 70
     1
102
RTVSPropertyOp31
 70
     1
102
RTVSPropertyOp32
 70
     1
  0
XRECORD
  5
236
102
{ACAD_REACTORS
330
235
102
}
330
235
100
AcDbXrecord
280
     1
102
RTVSPropertyOp0
 70
     1
102
RTVSPropertyOp1
 70
     1
102
RTVSPropertyOp2
 70
     1
102
RTVSPropertyOp3
 70
     1
102
RTVSPropertyOp4
 70
     1
102
RTVSPropertyOp5
 70
     1
102
RTVSPropertyOp6
 70
     1
102
RTVSPropertyOp7
 70
     1
102
RTVSPropertyOp8
 70
     1
102
RTVSPropertyOp9
 70
     1
102
RTVSPropertyOp10
 70
     1
102
RTVSPropertyOp11
 70
     1
102
RTVSPropertyOp12
 70
     1
102
RTVSPropertyOp13
 70
     1
102
RTVSPropertyOp14
 70
     1
102
RTVSPropertyOp15
 70
     1
102
RTVSPropertyOp16
 70
     1
102
RTVSPropertyOp17
 70
     1
102
RTVSPropertyOp18
 70
     1
102
RTVSPropertyOp19
 70
     1
102
RTVSPropertyOp20
 70
     1
102
RTVSPropertyOp21
 70
     1
102
RTVSPropertyOp22
 70
     1
102
RTVSPropertyOp23
 70
     1
102
RTVSPropertyOp24
 70
     1
102
RTVSPropertyOp25
 70
     1
102
RTVSPropertyOp26
 70
     1
102
RTVSPropertyOp27
 70
     1
102
RTVSPropertyOp28
 70
     1
102
RTVSPropertyOp29
 70
     1
102
RTVSPropertyOp30
 70
     1
102
RTVSPropertyOp31
 70
     1
102
RTVSPropertyOp32
 70
     1
  0
XRECORD
  5
238
102
{ACAD_REACTORS
330
237
102
}
330
237
100
AcDbXrecord
280
     1
102
RTVSPropertyOp0
 70
     1
102
RTVSPropertyOp1
 70
     1
102
RTVSPropertyOp2
 70
     1
102
RTVSPropertyOp3
 70
     1
102
RTVSPropertyOp4
 70
     1
102
RTVSPropertyOp5
 70
     1
102
RTVSPropertyOp6
 70
     1
102
RTVSPropertyOp7
 70
     1
102
RTVSPropertyOp8
 70
     1
102
RTVSPropertyOp9
 70
     1
102
RTVSPropertyOp10
 70
     1
102
RTVSPropertyOp11
 70
     1
102
RTVSPropertyOp12
 70
     1
102
RTVSPropertyOp13
 70
     1
102
RTVSPropertyOp14
 70
     1
102
RTVSPropertyOp15
 70
     1
102
RTVSPropertyOp16
 70
     1
102
RTVSPropertyOp17
 70
     1
102
RTVSPropertyOp18
 70
     1
102
RTVSPropertyOp19
 70
     1
102
RTVSPropertyOp20
 70
     1
102
RTVSPropertyOp21
 70
     1
102
RTVSPropertyOp22
 70
     1
102
RTVSPropertyOp23
 70
     1
102
RTVSPropertyOp24
 70
     1
102
RTVSPropertyOp25
 70
     1
102
RTVSPropertyOp26
 70
     1
102
RTVSPropertyOp27
 70
     1
102
RTVSPropertyOp28
 70
     1
102
RTVSPropertyOp29
 70
     1
102
RTVSPropertyOp30
 70
     1
102
RTVSPropertyOp31
 70
     1
102
RTVSPropertyOp32
 70
     1
  0
XRECORD
  5
23A
102
{ACAD_REACTORS
330
239
102
}
330
239
100
AcDbXrecord
280
     1
102
RTVSPropertyOp0
 70
     1
102
RTVSPropertyOp1
 70
     1
102
RTVSPropertyOp2
 70
     1
102
RTVSPropertyOp3
 70
     1
102
RTVSPropertyOp4
 70
     1
102
RTVSPropertyOp5
 70
     1
102
RTVSPropertyOp6
 70
     1
102
RTVSPropertyOp7
 70
     1
102
RTVSPropertyOp8
 70
     1
102
RTVSPropertyOp9
 70
     1
102
RTVSPropertyOp10
 70
     1
102
RTVSPropertyOp11
 70
     1
102
RTVSPropertyOp12
 70
     1
102
RTVSPropertyOp13
 70
     1
102
RTVSPropertyOp14
 70
     1
102
RTVSPropertyOp15
 70
     1
102
RTVSPropertyOp16
 70
     1
102
RTVSPropertyOp17
 70
     1
102
RTVSPropertyOp18
 70
     1
102
RTVSPropertyOp19
 70
     1
102
RTVSPropertyOp20
 70
     1
102
RTVSPropertyOp21
 70
     1
102
RTVSPropertyOp22
 70
     1
102
RTVSPropertyOp23
 70
     1
102
RTVSPropertyOp24
 70
     1
102
RTVSPropertyOp25
 70
     1
102
RTVSPropertyOp26
 70
     1
102
RTVSPropertyOp27
 70
     1
102
RTVSPropertyOp28
 70
     1
102
RTVSPropertyOp29
 70
     1
102
RTVSPropertyOp30
 70
     1
102
RTVSPropertyOp31
 70
     1
102
RTVSPropertyOp32
 70
     1
  0
XRECORD
  5
24E
102
{ACAD_REACTORS
330
24D
102
}
330
24D
100
AcDbXrecord
280
     1
102
RTVSPropertyOp0
 70
     1
102
RTVSPropertyOp1
 70
     1
102
RTVSPropertyOp2
 70
     1
102
RTVSPropertyOp3
 70
     1
102
RTVSPropertyOp4
 70
     1
102
RTVSPropertyOp5
 70
     1
102
RTVSPropertyOp6
 70
     1
102
RTVSPropertyOp7
 70
     1
102
RTVSPropertyOp8
 70
     1
102
RTVSPropertyOp9
 70
     1
102
RTVSPropertyOp10
 70
     1
102
RTVSPropertyOp11
 70
     1
102
RTVSPropertyOp12
 70
     1
102
RTVSPropertyOp13
 70
     1
102
RTVSPropertyOp14
 70
     1
102
RTVSPropertyOp15
 70
     1
102
RTVSPropertyOp16
 70
     1
102
RTVSPropertyOp17
 70
     1
102
RTVSPropertyOp18
 70
     1
102
RTVSPropertyOp19
 70
     1
102
RTVSPropertyOp20
 70
     1
102
RTVSPropertyOp21
 70
     1
102
RTVSPropertyOp22
 70
     1
102
RTVSPropertyOp23
 70
     1
102
RTVSPropertyOp24
 70
     1
102
RTVSPropertyOp25
 70
     1
102
RTVSPropertyOp26
 70
     1
102
RTVSPropertyOp27
 70
     1
102
RTVSPropertyOp28
 70
     1
102
RTVSPropertyOp29
 70
     1
102
RTVSPropertyOp30
 70
     1
102
RTVSPropertyOp31
 70
     1
102
RTVSPropertyOp32
 70
     1
  0
XRECORD
  5
244
102
{ACAD_REACTORS
330
243
102
}
330
243
100
AcDbXrecord
280
     1
102
RTVSPropertyOp0
 70
     1
102
RTVSPropertyOp1
 70
     1
102
RTVSPropertyOp2
 70
     1
102
RTVSPropertyOp3
 70
     1
102
RTVSPropertyOp4
 70
     1
102
RTVSPropertyOp5
 70
     1
102
RTVSPropertyOp6
 70
     1
102
RTVSPropertyOp7
 70
     1
102
RTVSPropertyOp8
 70
     1
102
RTVSPropertyOp9
 70
     1
102
RTVSPropertyOp10
 70
     1
102
RTVSPropertyOp11
 70
     1
102
RTVSPropertyOp12
 70
     1
102
RTVSPropertyOp13
 70
     1
102
RTVSPropertyOp14
 70
     1
102
RTVSPropertyOp15
 70
     1
102
RTVSPropertyOp16
 70
     1
102
RTVSPropertyOp17
 70
     1
102
RTVSPropertyOp18
 70
     1
102
RTVSPropertyOp19
 70
     1
102
RTVSPropertyOp20
 70
     1
102
RTVSPropertyOp21
 70
     1
102
RTVSPropertyOp22
 70
     1
102
RTVSPropertyOp23
 70
     1
102
RTVSPropertyOp24
 70
     1
102
RTVSPropertyOp25
 70
     1
102
RTVSPropertyOp26
 70
     1
102
RTVSPropertyOp27
 70
     1
102
RTVSPropertyOp28
 70
     1
102
RTVSPropertyOp29
 70
     1
102
RTVSPropertyOp30
 70
     1
102
RTVSPropertyOp31
 70
     1
102
RTVSPropertyOp32
 70
     1
  0
XRECORD
  5
24C
102
{ACAD_REACTORS
330
24B
102
}
330
24B
100
AcDbXrecord
280
     1
102
RTVSPropertyOp0
 70
     1
102
RTVSPropertyOp1
 70
     1
102
RTVSPropertyOp2
 70
     1
102
RTVSPropertyOp3
 70
     1
102
RTVSPropertyOp4
 70
     1
102
RTVSPropertyOp5
 70
     1
102
RTVSPropertyOp6
 70
     1
102
RTVSPropertyOp7
 70
     1
102
RTVSPropertyOp8
 70
     1
102
RTVSPropertyOp9
 70
     1
102
RTVSPropertyOp10
 70
     1
102
RTVSPropertyOp11
 70
     1
102
RTVSPropertyOp12
 70
     1
102
RTVSPropertyOp13
 70
     1
102
RTVSPropertyOp14
 70
     1
102
RTVSPropertyOp15
 70
     1
102
RTVSPropertyOp16
 70
     1
102
RTVSPropertyOp17
 70
     1
102
RTVSPropertyOp18
 70
     1
102
RTVSPropertyOp19
 70
     1
102
RTVSPropertyOp20
 70
     1
102
RTVSPropertyOp21
 70
     1
102
RTVSPropertyOp22
 70
     1
102
RTVSPropertyOp23
 70
     1
102
RTVSPropertyOp24
 70
     1
102
RTVSPropertyOp25
 70
     1
102
RTVSPropertyOp26
 70
     1
102
RTVSPropertyOp27
 70
     1
102
RTVSPropertyOp28
 70
     1
102
RTVSPropertyOp29
 70
     1
102
RTVSPropertyOp30
 70
     1
102
RTVSPropertyOp31
 70
     1
102
RTVSPropertyOp32
 70
     1
  0
ENDSEC
  0
EOF
