M48
INCH,TZ
T1C0.118
%
G90
G05
T1
X24606Y-21260
X24606Y-38976
X24606Y-40945
X24606Y-58661
X28543Y-30118
X28543Y-49803
X33465Y-25197
X33465Y-35039
X33465Y-44882
X33465Y-54724
X38386Y-30118
X38386Y-49803
X42323Y-21260
X42323Y-38976
X42323Y-40945
X42323Y-58661
X44291Y-21260
X44291Y-38976
X44291Y-40945
X44291Y-58661
X48228Y-30118
X48228Y-49803
X53150Y-25197
X53150Y-35039
X53150Y-44882
X53150Y-54724
X58071Y-30118
X58071Y-49803
X62008Y-21260
X62008Y-38976
X62008Y-40945
X62008Y-58661
X88189Y-21260
X88189Y-58661
T0
M30
