G04 #@! TF.FileFunction,Copper,L1,Top,Signal*
%FSLAX46Y46*%
G04 Gerber Fmt 4.6, Leading zero omitted, Abs format (unit mm)*
G04 Created by KiCad (PCBNEW 4.0.4-stable) date 11/27/16 15:51:27*
%MOMM*%
%LPD*%
G01*
G04 APERTURE LIST*
%ADD10C,0.100000*%
%ADD11C,0.254000*%
%ADD12C,1.524000*%
%ADD13C,1.500000*%
%ADD14R,3.500120X3.500120*%
%ADD15R,1.879600X1.879600*%
%ADD16C,1.879600*%
%ADD17C,1.998980*%
%ADD18R,1.998980X1.998980*%
%ADD19C,2.000000*%
%ADD20C,1.508000*%
%ADD21C,1.016000*%
%ADD22O,2.641600X1.320800*%
%ADD23C,1.800000*%
%ADD24C,1.778000*%
%ADD25C,3.116000*%
%ADD26C,0.749400*%
%ADD27C,0.203200*%
G04 APERTURE END LIST*
D10*
D11*
X120760000Y-96090000D02*
X121520000Y-93720000D01*
X121990000Y-96770000D02*
X122130000Y-94480000D01*
X123250000Y-96060000D02*
X123100000Y-93760000D01*
X123970000Y-94190000D02*
X124480000Y-96470000D01*
X125520000Y-95310000D02*
X124580000Y-93310000D01*
X126780000Y-95420000D02*
X125630000Y-93470000D01*
X125840000Y-92350000D02*
X127420000Y-94220000D01*
X126870000Y-92060000D02*
X128720000Y-93400000D01*
X128810000Y-92040000D02*
X126750000Y-91050000D01*
X127450000Y-90590000D02*
X129630000Y-91350000D01*
X129340000Y-90010000D02*
X127010000Y-89660000D01*
X127710000Y-89010000D02*
X129940000Y-89080000D01*
X129260000Y-87860000D02*
X126910000Y-88320000D01*
X127380000Y-87450000D02*
X129430000Y-86670000D01*
X128480000Y-85670000D02*
X126340000Y-86920000D01*
X126560000Y-85930000D02*
X128340000Y-84730000D01*
X125400000Y-85840000D02*
X127020000Y-84290000D01*
X125280000Y-84860000D02*
X126580000Y-83110000D01*
X124070000Y-85070000D02*
X125120000Y-82940000D01*
X123620000Y-84250000D02*
X124300000Y-82130000D01*
X122930000Y-84790000D02*
X123090000Y-82430000D01*
X122230000Y-84130000D02*
X122260000Y-81840000D01*
X121640000Y-84830000D02*
X121320000Y-82490000D01*
X120680000Y-84410000D02*
X120260000Y-82170000D01*
X120320000Y-85270000D02*
X119350000Y-83100000D01*
X119450000Y-85160000D02*
X118360000Y-83130000D01*
X119230000Y-86110000D02*
X117800000Y-84290000D01*
X116580000Y-84770000D02*
X118360000Y-86330000D01*
X118400000Y-87300000D02*
X116490000Y-85960000D01*
X117480000Y-87800000D02*
X115460000Y-86960000D01*
X117990000Y-88740000D02*
X115710000Y-88200000D01*
X117130000Y-89300000D02*
X115010000Y-89300000D01*
X118020000Y-89880000D02*
X115550000Y-90290000D01*
X117320000Y-90620000D02*
X115350000Y-91480000D01*
X116220000Y-92150000D02*
X118200000Y-91040000D01*
X116260000Y-93340000D02*
X118140000Y-91890000D01*
X117260000Y-93740000D02*
X118980000Y-92180000D01*
X117490000Y-94820000D02*
X119000000Y-93300000D01*
X118840000Y-95070000D02*
X120070000Y-93210000D01*
X119470000Y-96140000D02*
X120500000Y-94080000D01*
X120760000Y-71090000D02*
X121520000Y-68720000D01*
X121990000Y-71770000D02*
X122130000Y-69480000D01*
X123250000Y-71060000D02*
X123100000Y-68760000D01*
X123970000Y-69190000D02*
X124480000Y-71470000D01*
X125520000Y-70310000D02*
X124580000Y-68310000D01*
X126780000Y-70420000D02*
X125630000Y-68470000D01*
X125840000Y-67350000D02*
X127420000Y-69220000D01*
X126870000Y-67060000D02*
X128720000Y-68400000D01*
X128810000Y-67040000D02*
X126750000Y-66050000D01*
X127450000Y-65590000D02*
X129630000Y-66350000D01*
X129340000Y-65010000D02*
X127010000Y-64660000D01*
X127710000Y-64010000D02*
X129940000Y-64080000D01*
X129260000Y-62860000D02*
X126910000Y-63320000D01*
X127380000Y-62450000D02*
X129430000Y-61670000D01*
X128480000Y-60670000D02*
X126340000Y-61920000D01*
X126560000Y-60930000D02*
X128340000Y-59730000D01*
X125400000Y-60840000D02*
X127020000Y-59290000D01*
X125280000Y-59860000D02*
X126580000Y-58110000D01*
X124070000Y-60070000D02*
X125120000Y-57940000D01*
X123620000Y-59250000D02*
X124300000Y-57130000D01*
X122930000Y-59790000D02*
X123090000Y-57430000D01*
X122230000Y-59130000D02*
X122260000Y-56840000D01*
X121640000Y-59830000D02*
X121320000Y-57490000D01*
X120680000Y-59410000D02*
X120260000Y-57170000D01*
X120320000Y-60270000D02*
X119350000Y-58100000D01*
X119450000Y-60160000D02*
X118360000Y-58130000D01*
X119230000Y-61110000D02*
X117800000Y-59290000D01*
X116580000Y-59770000D02*
X118360000Y-61330000D01*
X118400000Y-62300000D02*
X116490000Y-60960000D01*
X117480000Y-62800000D02*
X115460000Y-61960000D01*
X117990000Y-63740000D02*
X115710000Y-63200000D01*
X117130000Y-64300000D02*
X115010000Y-64300000D01*
X118020000Y-64880000D02*
X115550000Y-65290000D01*
X117320000Y-65620000D02*
X115350000Y-66480000D01*
X116220000Y-67150000D02*
X118200000Y-66040000D01*
X116260000Y-68340000D02*
X118140000Y-66890000D01*
X117260000Y-68740000D02*
X118980000Y-67180000D01*
X117490000Y-69820000D02*
X119000000Y-68300000D01*
X118840000Y-70070000D02*
X120070000Y-68210000D01*
X119470000Y-71140000D02*
X120500000Y-69080000D01*
X145760000Y-96090000D02*
X146520000Y-93720000D01*
X146990000Y-96770000D02*
X147130000Y-94480000D01*
X148250000Y-96060000D02*
X148100000Y-93760000D01*
X148970000Y-94190000D02*
X149480000Y-96470000D01*
X150520000Y-95310000D02*
X149580000Y-93310000D01*
X151780000Y-95420000D02*
X150630000Y-93470000D01*
X150840000Y-92350000D02*
X152420000Y-94220000D01*
X151870000Y-92060000D02*
X153720000Y-93400000D01*
X153810000Y-92040000D02*
X151750000Y-91050000D01*
X152450000Y-90590000D02*
X154630000Y-91350000D01*
X154340000Y-90010000D02*
X152010000Y-89660000D01*
X152710000Y-89010000D02*
X154940000Y-89080000D01*
X154260000Y-87860000D02*
X151910000Y-88320000D01*
X152380000Y-87450000D02*
X154430000Y-86670000D01*
X153480000Y-85670000D02*
X151340000Y-86920000D01*
X151560000Y-85930000D02*
X153340000Y-84730000D01*
X150400000Y-85840000D02*
X152020000Y-84290000D01*
X150280000Y-84860000D02*
X151580000Y-83110000D01*
X149070000Y-85070000D02*
X150120000Y-82940000D01*
X148620000Y-84250000D02*
X149300000Y-82130000D01*
X147930000Y-84790000D02*
X148090000Y-82430000D01*
X147230000Y-84130000D02*
X147260000Y-81840000D01*
X146640000Y-84830000D02*
X146320000Y-82490000D01*
X145680000Y-84410000D02*
X145260000Y-82170000D01*
X145320000Y-85270000D02*
X144350000Y-83100000D01*
X144450000Y-85160000D02*
X143360000Y-83130000D01*
X144230000Y-86110000D02*
X142800000Y-84290000D01*
X141580000Y-84770000D02*
X143360000Y-86330000D01*
X143400000Y-87300000D02*
X141490000Y-85960000D01*
X142480000Y-87800000D02*
X140460000Y-86960000D01*
X142990000Y-88740000D02*
X140710000Y-88200000D01*
X142130000Y-89300000D02*
X140010000Y-89300000D01*
X143020000Y-89880000D02*
X140550000Y-90290000D01*
X142320000Y-90620000D02*
X140350000Y-91480000D01*
X141220000Y-92150000D02*
X143200000Y-91040000D01*
X141260000Y-93340000D02*
X143140000Y-91890000D01*
X142260000Y-93740000D02*
X143980000Y-92180000D01*
X142490000Y-94820000D02*
X144000000Y-93300000D01*
X143840000Y-95070000D02*
X145070000Y-93210000D01*
X144470000Y-96140000D02*
X145500000Y-94080000D01*
X145760000Y-71090000D02*
X146520000Y-68720000D01*
X146990000Y-71770000D02*
X147130000Y-69480000D01*
X148250000Y-71060000D02*
X148100000Y-68760000D01*
X148970000Y-69190000D02*
X149480000Y-71470000D01*
X150520000Y-70310000D02*
X149580000Y-68310000D01*
X151780000Y-70420000D02*
X150630000Y-68470000D01*
X150840000Y-67350000D02*
X152420000Y-69220000D01*
X151870000Y-67060000D02*
X153720000Y-68400000D01*
X153810000Y-67040000D02*
X151750000Y-66050000D01*
X152450000Y-65590000D02*
X154630000Y-66350000D01*
X154340000Y-65010000D02*
X152010000Y-64660000D01*
X152710000Y-64010000D02*
X154940000Y-64080000D01*
X154260000Y-62860000D02*
X151910000Y-63320000D01*
X152380000Y-62450000D02*
X154430000Y-61670000D01*
X153480000Y-60670000D02*
X151340000Y-61920000D01*
X151560000Y-60930000D02*
X153340000Y-59730000D01*
X150400000Y-60840000D02*
X152020000Y-59290000D01*
X150280000Y-59860000D02*
X151580000Y-58110000D01*
X149070000Y-60070000D02*
X150120000Y-57940000D01*
X148620000Y-59250000D02*
X149300000Y-57130000D01*
X147930000Y-59790000D02*
X148090000Y-57430000D01*
X147230000Y-59130000D02*
X147260000Y-56840000D01*
X146640000Y-59830000D02*
X146320000Y-57490000D01*
X145680000Y-59410000D02*
X145260000Y-57170000D01*
X145320000Y-60270000D02*
X144350000Y-58100000D01*
X144450000Y-60160000D02*
X143360000Y-58130000D01*
X144230000Y-61110000D02*
X142800000Y-59290000D01*
X141580000Y-59770000D02*
X143360000Y-61330000D01*
X143400000Y-62300000D02*
X141490000Y-60960000D01*
X142480000Y-62800000D02*
X140460000Y-61960000D01*
X142990000Y-63740000D02*
X140710000Y-63200000D01*
X142130000Y-64300000D02*
X140010000Y-64300000D01*
X143020000Y-64880000D02*
X140550000Y-65290000D01*
X142320000Y-65620000D02*
X140350000Y-66480000D01*
X141220000Y-67150000D02*
X143200000Y-66040000D01*
X141260000Y-68340000D02*
X143140000Y-66890000D01*
X142260000Y-68740000D02*
X143980000Y-67180000D01*
X142490000Y-69820000D02*
X144000000Y-68300000D01*
X143840000Y-70070000D02*
X145070000Y-68210000D01*
X144470000Y-71140000D02*
X145500000Y-69080000D01*
X130000000Y-89300000D02*
G75*
G03X130000000Y-89300000I-7500000J0D01*
G01*
X126990000Y-89290000D02*
G75*
G03X126990000Y-89290000I-4500000J0D01*
G01*
X126990000Y-64290000D02*
G75*
G03X126990000Y-64290000I-4500000J0D01*
G01*
X129999800Y-64300000D02*
G75*
G03X129999800Y-64300000I-7499800J0D01*
G01*
X152000600Y-89300000D02*
G75*
G03X152000600Y-89300000I-4510600J0D01*
G01*
X154999800Y-89300000D02*
G75*
G03X154999800Y-89300000I-7499800J0D01*
G01*
X152000600Y-64300000D02*
G75*
G03X152000600Y-64300000I-4510600J0D01*
G01*
X154999800Y-64300000D02*
G75*
G03X154999800Y-64300000I-7499800J0D01*
G01*
X120760000Y-146090000D02*
X121520000Y-143720000D01*
X121990000Y-146770000D02*
X122130000Y-144480000D01*
X123250000Y-146060000D02*
X123100000Y-143760000D01*
X123970000Y-144190000D02*
X124480000Y-146470000D01*
X125520000Y-145310000D02*
X124580000Y-143310000D01*
X126780000Y-145420000D02*
X125630000Y-143470000D01*
X125840000Y-142350000D02*
X127420000Y-144220000D01*
X126870000Y-142060000D02*
X128720000Y-143400000D01*
X128810000Y-142040000D02*
X126750000Y-141050000D01*
X127450000Y-140590000D02*
X129630000Y-141350000D01*
X129340000Y-140010000D02*
X127010000Y-139660000D01*
X127710000Y-139010000D02*
X129940000Y-139080000D01*
X129260000Y-137860000D02*
X126910000Y-138320000D01*
X127380000Y-137450000D02*
X129430000Y-136670000D01*
X128480000Y-135670000D02*
X126340000Y-136920000D01*
X126560000Y-135930000D02*
X128340000Y-134730000D01*
X125400000Y-135840000D02*
X127020000Y-134290000D01*
X125280000Y-134860000D02*
X126580000Y-133110000D01*
X124070000Y-135070000D02*
X125120000Y-132940000D01*
X123620000Y-134250000D02*
X124300000Y-132130000D01*
X122930000Y-134790000D02*
X123090000Y-132430000D01*
X122230000Y-134130000D02*
X122260000Y-131840000D01*
X121640000Y-134830000D02*
X121320000Y-132490000D01*
X120680000Y-134410000D02*
X120260000Y-132170000D01*
X120320000Y-135270000D02*
X119350000Y-133100000D01*
X119450000Y-135160000D02*
X118360000Y-133130000D01*
X119230000Y-136110000D02*
X117800000Y-134290000D01*
X116580000Y-134770000D02*
X118360000Y-136330000D01*
X118400000Y-137300000D02*
X116490000Y-135960000D01*
X117480000Y-137800000D02*
X115460000Y-136960000D01*
X117990000Y-138740000D02*
X115710000Y-138200000D01*
X117130000Y-139300000D02*
X115010000Y-139300000D01*
X118020000Y-139880000D02*
X115550000Y-140290000D01*
X117320000Y-140620000D02*
X115350000Y-141480000D01*
X116220000Y-142150000D02*
X118200000Y-141040000D01*
X116260000Y-143340000D02*
X118140000Y-141890000D01*
X117260000Y-143740000D02*
X118980000Y-142180000D01*
X117490000Y-144820000D02*
X119000000Y-143300000D01*
X118840000Y-145070000D02*
X120070000Y-143210000D01*
X119470000Y-146140000D02*
X120500000Y-144080000D01*
X120760000Y-121090000D02*
X121520000Y-118720000D01*
X121990000Y-121770000D02*
X122130000Y-119480000D01*
X123250000Y-121060000D02*
X123100000Y-118760000D01*
X123970000Y-119190000D02*
X124480000Y-121470000D01*
X125520000Y-120310000D02*
X124580000Y-118310000D01*
X126780000Y-120420000D02*
X125630000Y-118470000D01*
X125840000Y-117350000D02*
X127420000Y-119220000D01*
X126870000Y-117060000D02*
X128720000Y-118400000D01*
X128810000Y-117040000D02*
X126750000Y-116050000D01*
X127450000Y-115590000D02*
X129630000Y-116350000D01*
X129340000Y-115010000D02*
X127010000Y-114660000D01*
X127710000Y-114010000D02*
X129940000Y-114080000D01*
X129260000Y-112860000D02*
X126910000Y-113320000D01*
X127380000Y-112450000D02*
X129430000Y-111670000D01*
X128480000Y-110670000D02*
X126340000Y-111920000D01*
X126560000Y-110930000D02*
X128340000Y-109730000D01*
X125400000Y-110840000D02*
X127020000Y-109290000D01*
X125280000Y-109860000D02*
X126580000Y-108110000D01*
X124070000Y-110070000D02*
X125120000Y-107940000D01*
X123620000Y-109250000D02*
X124300000Y-107130000D01*
X122930000Y-109790000D02*
X123090000Y-107430000D01*
X122230000Y-109130000D02*
X122260000Y-106840000D01*
X121640000Y-109830000D02*
X121320000Y-107490000D01*
X120680000Y-109410000D02*
X120260000Y-107170000D01*
X120320000Y-110270000D02*
X119350000Y-108100000D01*
X119450000Y-110160000D02*
X118360000Y-108130000D01*
X119230000Y-111110000D02*
X117800000Y-109290000D01*
X116580000Y-109770000D02*
X118360000Y-111330000D01*
X118400000Y-112300000D02*
X116490000Y-110960000D01*
X117480000Y-112800000D02*
X115460000Y-111960000D01*
X117990000Y-113740000D02*
X115710000Y-113200000D01*
X117130000Y-114300000D02*
X115010000Y-114300000D01*
X118020000Y-114880000D02*
X115550000Y-115290000D01*
X117320000Y-115620000D02*
X115350000Y-116480000D01*
X116220000Y-117150000D02*
X118200000Y-116040000D01*
X116260000Y-118340000D02*
X118140000Y-116890000D01*
X117260000Y-118740000D02*
X118980000Y-117180000D01*
X117490000Y-119820000D02*
X119000000Y-118300000D01*
X118840000Y-120070000D02*
X120070000Y-118210000D01*
X119470000Y-121140000D02*
X120500000Y-119080000D01*
X145760000Y-146090000D02*
X146520000Y-143720000D01*
X146990000Y-146770000D02*
X147130000Y-144480000D01*
X148250000Y-146060000D02*
X148100000Y-143760000D01*
X148970000Y-144190000D02*
X149480000Y-146470000D01*
X150520000Y-145310000D02*
X149580000Y-143310000D01*
X151780000Y-145420000D02*
X150630000Y-143470000D01*
X150840000Y-142350000D02*
X152420000Y-144220000D01*
X151870000Y-142060000D02*
X153720000Y-143400000D01*
X153810000Y-142040000D02*
X151750000Y-141050000D01*
X152450000Y-140590000D02*
X154630000Y-141350000D01*
X154340000Y-140010000D02*
X152010000Y-139660000D01*
X152710000Y-139010000D02*
X154940000Y-139080000D01*
X154260000Y-137860000D02*
X151910000Y-138320000D01*
X152380000Y-137450000D02*
X154430000Y-136670000D01*
X153480000Y-135670000D02*
X151340000Y-136920000D01*
X151560000Y-135930000D02*
X153340000Y-134730000D01*
X150400000Y-135840000D02*
X152020000Y-134290000D01*
X150280000Y-134860000D02*
X151580000Y-133110000D01*
X149070000Y-135070000D02*
X150120000Y-132940000D01*
X148620000Y-134250000D02*
X149300000Y-132130000D01*
X147930000Y-134790000D02*
X148090000Y-132430000D01*
X147230000Y-134130000D02*
X147260000Y-131840000D01*
X146640000Y-134830000D02*
X146320000Y-132490000D01*
X145680000Y-134410000D02*
X145260000Y-132170000D01*
X145320000Y-135270000D02*
X144350000Y-133100000D01*
X144450000Y-135160000D02*
X143360000Y-133130000D01*
X144230000Y-136110000D02*
X142800000Y-134290000D01*
X141580000Y-134770000D02*
X143360000Y-136330000D01*
X143400000Y-137300000D02*
X141490000Y-135960000D01*
X142480000Y-137800000D02*
X140460000Y-136960000D01*
X142990000Y-138740000D02*
X140710000Y-138200000D01*
X142130000Y-139300000D02*
X140010000Y-139300000D01*
X143020000Y-139880000D02*
X140550000Y-140290000D01*
X142320000Y-140620000D02*
X140350000Y-141480000D01*
X141220000Y-142150000D02*
X143200000Y-141040000D01*
X141260000Y-143340000D02*
X143140000Y-141890000D01*
X142260000Y-143740000D02*
X143980000Y-142180000D01*
X142490000Y-144820000D02*
X144000000Y-143300000D01*
X143840000Y-145070000D02*
X145070000Y-143210000D01*
X144470000Y-146140000D02*
X145500000Y-144080000D01*
X145760000Y-121090000D02*
X146520000Y-118720000D01*
X146990000Y-121770000D02*
X147130000Y-119480000D01*
X148250000Y-121060000D02*
X148100000Y-118760000D01*
X148970000Y-119190000D02*
X149480000Y-121470000D01*
X150520000Y-120310000D02*
X149580000Y-118310000D01*
X151780000Y-120420000D02*
X150630000Y-118470000D01*
X150840000Y-117350000D02*
X152420000Y-119220000D01*
X151870000Y-117060000D02*
X153720000Y-118400000D01*
X153810000Y-117040000D02*
X151750000Y-116050000D01*
X152450000Y-115590000D02*
X154630000Y-116350000D01*
X154340000Y-115010000D02*
X152010000Y-114660000D01*
X152710000Y-114010000D02*
X154940000Y-114080000D01*
X154260000Y-112860000D02*
X151910000Y-113320000D01*
X152380000Y-112450000D02*
X154430000Y-111670000D01*
X153480000Y-110670000D02*
X151340000Y-111920000D01*
X151560000Y-110930000D02*
X153340000Y-109730000D01*
X150400000Y-110840000D02*
X152020000Y-109290000D01*
X150280000Y-109860000D02*
X151580000Y-108110000D01*
X149070000Y-110070000D02*
X150120000Y-107940000D01*
X148620000Y-109250000D02*
X149300000Y-107130000D01*
X147930000Y-109790000D02*
X148090000Y-107430000D01*
X147230000Y-109130000D02*
X147260000Y-106840000D01*
X146640000Y-109830000D02*
X146320000Y-107490000D01*
X145680000Y-109410000D02*
X145260000Y-107170000D01*
X145320000Y-110270000D02*
X144350000Y-108100000D01*
X144450000Y-110160000D02*
X143360000Y-108130000D01*
X144230000Y-111110000D02*
X142800000Y-109290000D01*
X141580000Y-109770000D02*
X143360000Y-111330000D01*
X143400000Y-112300000D02*
X141490000Y-110960000D01*
X142480000Y-112800000D02*
X140460000Y-111960000D01*
X142990000Y-113740000D02*
X140710000Y-113200000D01*
X142130000Y-114300000D02*
X140010000Y-114300000D01*
X143020000Y-114880000D02*
X140550000Y-115290000D01*
X142320000Y-115620000D02*
X140350000Y-116480000D01*
X141220000Y-117150000D02*
X143200000Y-116040000D01*
X141260000Y-118340000D02*
X143140000Y-116890000D01*
X142260000Y-118740000D02*
X143980000Y-117180000D01*
X142490000Y-119820000D02*
X144000000Y-118300000D01*
X143840000Y-120070000D02*
X145070000Y-118210000D01*
X144470000Y-121140000D02*
X145500000Y-119080000D01*
X130000000Y-139300000D02*
G75*
G03X130000000Y-139300000I-7500000J0D01*
G01*
X126990000Y-139290000D02*
G75*
G03X126990000Y-139290000I-4500000J0D01*
G01*
X126990000Y-114290000D02*
G75*
G03X126990000Y-114290000I-4500000J0D01*
G01*
X129999800Y-114300000D02*
G75*
G03X129999800Y-114300000I-7499800J0D01*
G01*
X152000600Y-139300000D02*
G75*
G03X152000600Y-139300000I-4510600J0D01*
G01*
X154999800Y-139300000D02*
G75*
G03X154999800Y-139300000I-7499800J0D01*
G01*
X152000600Y-114300000D02*
G75*
G03X152000600Y-114300000I-4510600J0D01*
G01*
X154999800Y-114300000D02*
G75*
G03X154999800Y-114300000I-7499800J0D01*
G01*
X70760000Y-146090000D02*
X71520000Y-143720000D01*
X71990000Y-146770000D02*
X72130000Y-144480000D01*
X73250000Y-146060000D02*
X73100000Y-143760000D01*
X73970000Y-144190000D02*
X74480000Y-146470000D01*
X75520000Y-145310000D02*
X74580000Y-143310000D01*
X76780000Y-145420000D02*
X75630000Y-143470000D01*
X75840000Y-142350000D02*
X77420000Y-144220000D01*
X76870000Y-142060000D02*
X78720000Y-143400000D01*
X78810000Y-142040000D02*
X76750000Y-141050000D01*
X77450000Y-140590000D02*
X79630000Y-141350000D01*
X79340000Y-140010000D02*
X77010000Y-139660000D01*
X77710000Y-139010000D02*
X79940000Y-139080000D01*
X79260000Y-137860000D02*
X76910000Y-138320000D01*
X77380000Y-137450000D02*
X79430000Y-136670000D01*
X78480000Y-135670000D02*
X76340000Y-136920000D01*
X76560000Y-135930000D02*
X78340000Y-134730000D01*
X75400000Y-135840000D02*
X77020000Y-134290000D01*
X75280000Y-134860000D02*
X76580000Y-133110000D01*
X74070000Y-135070000D02*
X75120000Y-132940000D01*
X73620000Y-134250000D02*
X74300000Y-132130000D01*
X72930000Y-134790000D02*
X73090000Y-132430000D01*
X72230000Y-134130000D02*
X72260000Y-131840000D01*
X71640000Y-134830000D02*
X71320000Y-132490000D01*
X70680000Y-134410000D02*
X70260000Y-132170000D01*
X70320000Y-135270000D02*
X69350000Y-133100000D01*
X69450000Y-135160000D02*
X68360000Y-133130000D01*
X69230000Y-136110000D02*
X67800000Y-134290000D01*
X66580000Y-134770000D02*
X68360000Y-136330000D01*
X68400000Y-137300000D02*
X66490000Y-135960000D01*
X67480000Y-137800000D02*
X65460000Y-136960000D01*
X67990000Y-138740000D02*
X65710000Y-138200000D01*
X67130000Y-139300000D02*
X65010000Y-139300000D01*
X68020000Y-139880000D02*
X65550000Y-140290000D01*
X67320000Y-140620000D02*
X65350000Y-141480000D01*
X66220000Y-142150000D02*
X68200000Y-141040000D01*
X66260000Y-143340000D02*
X68140000Y-141890000D01*
X67260000Y-143740000D02*
X68980000Y-142180000D01*
X67490000Y-144820000D02*
X69000000Y-143300000D01*
X68840000Y-145070000D02*
X70070000Y-143210000D01*
X69470000Y-146140000D02*
X70500000Y-144080000D01*
X70760000Y-121090000D02*
X71520000Y-118720000D01*
X71990000Y-121770000D02*
X72130000Y-119480000D01*
X73250000Y-121060000D02*
X73100000Y-118760000D01*
X73970000Y-119190000D02*
X74480000Y-121470000D01*
X75520000Y-120310000D02*
X74580000Y-118310000D01*
X76780000Y-120420000D02*
X75630000Y-118470000D01*
X75840000Y-117350000D02*
X77420000Y-119220000D01*
X76870000Y-117060000D02*
X78720000Y-118400000D01*
X78810000Y-117040000D02*
X76750000Y-116050000D01*
X77450000Y-115590000D02*
X79630000Y-116350000D01*
X79340000Y-115010000D02*
X77010000Y-114660000D01*
X77710000Y-114010000D02*
X79940000Y-114080000D01*
X79260000Y-112860000D02*
X76910000Y-113320000D01*
X77380000Y-112450000D02*
X79430000Y-111670000D01*
X78480000Y-110670000D02*
X76340000Y-111920000D01*
X76560000Y-110930000D02*
X78340000Y-109730000D01*
X75400000Y-110840000D02*
X77020000Y-109290000D01*
X75280000Y-109860000D02*
X76580000Y-108110000D01*
X74070000Y-110070000D02*
X75120000Y-107940000D01*
X73620000Y-109250000D02*
X74300000Y-107130000D01*
X72930000Y-109790000D02*
X73090000Y-107430000D01*
X72230000Y-109130000D02*
X72260000Y-106840000D01*
X71640000Y-109830000D02*
X71320000Y-107490000D01*
X70680000Y-109410000D02*
X70260000Y-107170000D01*
X70320000Y-110270000D02*
X69350000Y-108100000D01*
X69450000Y-110160000D02*
X68360000Y-108130000D01*
X69230000Y-111110000D02*
X67800000Y-109290000D01*
X66580000Y-109770000D02*
X68360000Y-111330000D01*
X68400000Y-112300000D02*
X66490000Y-110960000D01*
X67480000Y-112800000D02*
X65460000Y-111960000D01*
X67990000Y-113740000D02*
X65710000Y-113200000D01*
X67130000Y-114300000D02*
X65010000Y-114300000D01*
X68020000Y-114880000D02*
X65550000Y-115290000D01*
X67320000Y-115620000D02*
X65350000Y-116480000D01*
X66220000Y-117150000D02*
X68200000Y-116040000D01*
X66260000Y-118340000D02*
X68140000Y-116890000D01*
X67260000Y-118740000D02*
X68980000Y-117180000D01*
X67490000Y-119820000D02*
X69000000Y-118300000D01*
X68840000Y-120070000D02*
X70070000Y-118210000D01*
X69470000Y-121140000D02*
X70500000Y-119080000D01*
X95760000Y-146090000D02*
X96520000Y-143720000D01*
X96990000Y-146770000D02*
X97130000Y-144480000D01*
X98250000Y-146060000D02*
X98100000Y-143760000D01*
X98970000Y-144190000D02*
X99480000Y-146470000D01*
X100520000Y-145310000D02*
X99580000Y-143310000D01*
X101780000Y-145420000D02*
X100630000Y-143470000D01*
X100840000Y-142350000D02*
X102420000Y-144220000D01*
X101870000Y-142060000D02*
X103720000Y-143400000D01*
X103810000Y-142040000D02*
X101750000Y-141050000D01*
X102450000Y-140590000D02*
X104630000Y-141350000D01*
X104340000Y-140010000D02*
X102010000Y-139660000D01*
X102710000Y-139010000D02*
X104940000Y-139080000D01*
X104260000Y-137860000D02*
X101910000Y-138320000D01*
X102380000Y-137450000D02*
X104430000Y-136670000D01*
X103480000Y-135670000D02*
X101340000Y-136920000D01*
X101560000Y-135930000D02*
X103340000Y-134730000D01*
X100400000Y-135840000D02*
X102020000Y-134290000D01*
X100280000Y-134860000D02*
X101580000Y-133110000D01*
X99070000Y-135070000D02*
X100120000Y-132940000D01*
X98620000Y-134250000D02*
X99300000Y-132130000D01*
X97930000Y-134790000D02*
X98090000Y-132430000D01*
X97230000Y-134130000D02*
X97260000Y-131840000D01*
X96640000Y-134830000D02*
X96320000Y-132490000D01*
X95680000Y-134410000D02*
X95260000Y-132170000D01*
X95320000Y-135270000D02*
X94350000Y-133100000D01*
X94450000Y-135160000D02*
X93360000Y-133130000D01*
X94230000Y-136110000D02*
X92800000Y-134290000D01*
X91580000Y-134770000D02*
X93360000Y-136330000D01*
X93400000Y-137300000D02*
X91490000Y-135960000D01*
X92480000Y-137800000D02*
X90460000Y-136960000D01*
X92990000Y-138740000D02*
X90710000Y-138200000D01*
X92130000Y-139300000D02*
X90010000Y-139300000D01*
X93020000Y-139880000D02*
X90550000Y-140290000D01*
X92320000Y-140620000D02*
X90350000Y-141480000D01*
X91220000Y-142150000D02*
X93200000Y-141040000D01*
X91260000Y-143340000D02*
X93140000Y-141890000D01*
X92260000Y-143740000D02*
X93980000Y-142180000D01*
X92490000Y-144820000D02*
X94000000Y-143300000D01*
X93840000Y-145070000D02*
X95070000Y-143210000D01*
X94470000Y-146140000D02*
X95500000Y-144080000D01*
X95760000Y-121090000D02*
X96520000Y-118720000D01*
X96990000Y-121770000D02*
X97130000Y-119480000D01*
X98250000Y-121060000D02*
X98100000Y-118760000D01*
X98970000Y-119190000D02*
X99480000Y-121470000D01*
X100520000Y-120310000D02*
X99580000Y-118310000D01*
X101780000Y-120420000D02*
X100630000Y-118470000D01*
X100840000Y-117350000D02*
X102420000Y-119220000D01*
X101870000Y-117060000D02*
X103720000Y-118400000D01*
X103810000Y-117040000D02*
X101750000Y-116050000D01*
X102450000Y-115590000D02*
X104630000Y-116350000D01*
X104340000Y-115010000D02*
X102010000Y-114660000D01*
X102710000Y-114010000D02*
X104940000Y-114080000D01*
X104260000Y-112860000D02*
X101910000Y-113320000D01*
X102380000Y-112450000D02*
X104430000Y-111670000D01*
X103480000Y-110670000D02*
X101340000Y-111920000D01*
X101560000Y-110930000D02*
X103340000Y-109730000D01*
X100400000Y-110840000D02*
X102020000Y-109290000D01*
X100280000Y-109860000D02*
X101580000Y-108110000D01*
X99070000Y-110070000D02*
X100120000Y-107940000D01*
X98620000Y-109250000D02*
X99300000Y-107130000D01*
X97930000Y-109790000D02*
X98090000Y-107430000D01*
X97230000Y-109130000D02*
X97260000Y-106840000D01*
X96640000Y-109830000D02*
X96320000Y-107490000D01*
X95680000Y-109410000D02*
X95260000Y-107170000D01*
X95320000Y-110270000D02*
X94350000Y-108100000D01*
X94450000Y-110160000D02*
X93360000Y-108130000D01*
X94230000Y-111110000D02*
X92800000Y-109290000D01*
X91580000Y-109770000D02*
X93360000Y-111330000D01*
X93400000Y-112300000D02*
X91490000Y-110960000D01*
X92480000Y-112800000D02*
X90460000Y-111960000D01*
X92990000Y-113740000D02*
X90710000Y-113200000D01*
X92130000Y-114300000D02*
X90010000Y-114300000D01*
X93020000Y-114880000D02*
X90550000Y-115290000D01*
X92320000Y-115620000D02*
X90350000Y-116480000D01*
X91220000Y-117150000D02*
X93200000Y-116040000D01*
X91260000Y-118340000D02*
X93140000Y-116890000D01*
X92260000Y-118740000D02*
X93980000Y-117180000D01*
X92490000Y-119820000D02*
X94000000Y-118300000D01*
X93840000Y-120070000D02*
X95070000Y-118210000D01*
X94470000Y-121140000D02*
X95500000Y-119080000D01*
X80000000Y-139300000D02*
G75*
G03X80000000Y-139300000I-7500000J0D01*
G01*
X76990000Y-139290000D02*
G75*
G03X76990000Y-139290000I-4500000J0D01*
G01*
X76990000Y-114290000D02*
G75*
G03X76990000Y-114290000I-4500000J0D01*
G01*
X79999800Y-114300000D02*
G75*
G03X79999800Y-114300000I-7499800J0D01*
G01*
X102000600Y-139300000D02*
G75*
G03X102000600Y-139300000I-4510600J0D01*
G01*
X104999800Y-139300000D02*
G75*
G03X104999800Y-139300000I-7499800J0D01*
G01*
X102000600Y-114300000D02*
G75*
G03X102000600Y-114300000I-4510600J0D01*
G01*
X104999800Y-114300000D02*
G75*
G03X104999800Y-114300000I-7499800J0D01*
G01*
X70760000Y-96090000D02*
X71520000Y-93720000D01*
X71990000Y-96770000D02*
X72130000Y-94480000D01*
X73250000Y-96060000D02*
X73100000Y-93760000D01*
X73970000Y-94190000D02*
X74480000Y-96470000D01*
X75520000Y-95310000D02*
X74580000Y-93310000D01*
X76780000Y-95420000D02*
X75630000Y-93470000D01*
X75840000Y-92350000D02*
X77420000Y-94220000D01*
X76870000Y-92060000D02*
X78720000Y-93400000D01*
X78810000Y-92040000D02*
X76750000Y-91050000D01*
X77450000Y-90590000D02*
X79630000Y-91350000D01*
X79340000Y-90010000D02*
X77010000Y-89660000D01*
X77710000Y-89010000D02*
X79940000Y-89080000D01*
X79260000Y-87860000D02*
X76910000Y-88320000D01*
X77380000Y-87450000D02*
X79430000Y-86670000D01*
X78480000Y-85670000D02*
X76340000Y-86920000D01*
X76560000Y-85930000D02*
X78340000Y-84730000D01*
X75400000Y-85840000D02*
X77020000Y-84290000D01*
X75280000Y-84860000D02*
X76580000Y-83110000D01*
X74070000Y-85070000D02*
X75120000Y-82940000D01*
X73620000Y-84250000D02*
X74300000Y-82130000D01*
X72930000Y-84790000D02*
X73090000Y-82430000D01*
X72230000Y-84130000D02*
X72260000Y-81840000D01*
X71640000Y-84830000D02*
X71320000Y-82490000D01*
X70680000Y-84410000D02*
X70260000Y-82170000D01*
X70320000Y-85270000D02*
X69350000Y-83100000D01*
X69450000Y-85160000D02*
X68360000Y-83130000D01*
X69230000Y-86110000D02*
X67800000Y-84290000D01*
X66580000Y-84770000D02*
X68360000Y-86330000D01*
X68400000Y-87300000D02*
X66490000Y-85960000D01*
X67480000Y-87800000D02*
X65460000Y-86960000D01*
X67990000Y-88740000D02*
X65710000Y-88200000D01*
X67130000Y-89300000D02*
X65010000Y-89300000D01*
X68020000Y-89880000D02*
X65550000Y-90290000D01*
X67320000Y-90620000D02*
X65350000Y-91480000D01*
X66220000Y-92150000D02*
X68200000Y-91040000D01*
X66260000Y-93340000D02*
X68140000Y-91890000D01*
X67260000Y-93740000D02*
X68980000Y-92180000D01*
X67490000Y-94820000D02*
X69000000Y-93300000D01*
X68840000Y-95070000D02*
X70070000Y-93210000D01*
X69470000Y-96140000D02*
X70500000Y-94080000D01*
X70760000Y-71090000D02*
X71520000Y-68720000D01*
X71990000Y-71770000D02*
X72130000Y-69480000D01*
X73250000Y-71060000D02*
X73100000Y-68760000D01*
X73970000Y-69190000D02*
X74480000Y-71470000D01*
X75520000Y-70310000D02*
X74580000Y-68310000D01*
X76780000Y-70420000D02*
X75630000Y-68470000D01*
X75840000Y-67350000D02*
X77420000Y-69220000D01*
X76870000Y-67060000D02*
X78720000Y-68400000D01*
X78810000Y-67040000D02*
X76750000Y-66050000D01*
X77450000Y-65590000D02*
X79630000Y-66350000D01*
X79340000Y-65010000D02*
X77010000Y-64660000D01*
X77710000Y-64010000D02*
X79940000Y-64080000D01*
X79260000Y-62860000D02*
X76910000Y-63320000D01*
X77380000Y-62450000D02*
X79430000Y-61670000D01*
X78480000Y-60670000D02*
X76340000Y-61920000D01*
X76560000Y-60930000D02*
X78340000Y-59730000D01*
X75400000Y-60840000D02*
X77020000Y-59290000D01*
X75280000Y-59860000D02*
X76580000Y-58110000D01*
X74070000Y-60070000D02*
X75120000Y-57940000D01*
X73620000Y-59250000D02*
X74300000Y-57130000D01*
X72930000Y-59790000D02*
X73090000Y-57430000D01*
X72230000Y-59130000D02*
X72260000Y-56840000D01*
X71640000Y-59830000D02*
X71320000Y-57490000D01*
X70680000Y-59410000D02*
X70260000Y-57170000D01*
X70320000Y-60270000D02*
X69350000Y-58100000D01*
X69450000Y-60160000D02*
X68360000Y-58130000D01*
X69230000Y-61110000D02*
X67800000Y-59290000D01*
X66580000Y-59770000D02*
X68360000Y-61330000D01*
X68400000Y-62300000D02*
X66490000Y-60960000D01*
X67480000Y-62800000D02*
X65460000Y-61960000D01*
X67990000Y-63740000D02*
X65710000Y-63200000D01*
X67130000Y-64300000D02*
X65010000Y-64300000D01*
X68020000Y-64880000D02*
X65550000Y-65290000D01*
X67320000Y-65620000D02*
X65350000Y-66480000D01*
X66220000Y-67150000D02*
X68200000Y-66040000D01*
X66260000Y-68340000D02*
X68140000Y-66890000D01*
X67260000Y-68740000D02*
X68980000Y-67180000D01*
X67490000Y-69820000D02*
X69000000Y-68300000D01*
X68840000Y-70070000D02*
X70070000Y-68210000D01*
X69470000Y-71140000D02*
X70500000Y-69080000D01*
X95760000Y-96090000D02*
X96520000Y-93720000D01*
X96990000Y-96770000D02*
X97130000Y-94480000D01*
X98250000Y-96060000D02*
X98100000Y-93760000D01*
X98970000Y-94190000D02*
X99480000Y-96470000D01*
X100520000Y-95310000D02*
X99580000Y-93310000D01*
X101780000Y-95420000D02*
X100630000Y-93470000D01*
X100840000Y-92350000D02*
X102420000Y-94220000D01*
X101870000Y-92060000D02*
X103720000Y-93400000D01*
X103810000Y-92040000D02*
X101750000Y-91050000D01*
X102450000Y-90590000D02*
X104630000Y-91350000D01*
X104340000Y-90010000D02*
X102010000Y-89660000D01*
X102710000Y-89010000D02*
X104940000Y-89080000D01*
X104260000Y-87860000D02*
X101910000Y-88320000D01*
X102380000Y-87450000D02*
X104430000Y-86670000D01*
X103480000Y-85670000D02*
X101340000Y-86920000D01*
X101560000Y-85930000D02*
X103340000Y-84730000D01*
X100400000Y-85840000D02*
X102020000Y-84290000D01*
X100280000Y-84860000D02*
X101580000Y-83110000D01*
X99070000Y-85070000D02*
X100120000Y-82940000D01*
X98620000Y-84250000D02*
X99300000Y-82130000D01*
X97930000Y-84790000D02*
X98090000Y-82430000D01*
X97230000Y-84130000D02*
X97260000Y-81840000D01*
X96640000Y-84830000D02*
X96320000Y-82490000D01*
X95680000Y-84410000D02*
X95260000Y-82170000D01*
X95320000Y-85270000D02*
X94350000Y-83100000D01*
X94450000Y-85160000D02*
X93360000Y-83130000D01*
X94230000Y-86110000D02*
X92800000Y-84290000D01*
X91580000Y-84770000D02*
X93360000Y-86330000D01*
X93400000Y-87300000D02*
X91490000Y-85960000D01*
X92480000Y-87800000D02*
X90460000Y-86960000D01*
X92990000Y-88740000D02*
X90710000Y-88200000D01*
X92130000Y-89300000D02*
X90010000Y-89300000D01*
X93020000Y-89880000D02*
X90550000Y-90290000D01*
X92320000Y-90620000D02*
X90350000Y-91480000D01*
X91220000Y-92150000D02*
X93200000Y-91040000D01*
X91260000Y-93340000D02*
X93140000Y-91890000D01*
X92260000Y-93740000D02*
X93980000Y-92180000D01*
X92490000Y-94820000D02*
X94000000Y-93300000D01*
X93840000Y-95070000D02*
X95070000Y-93210000D01*
X94470000Y-96140000D02*
X95500000Y-94080000D01*
X95760000Y-71090000D02*
X96520000Y-68720000D01*
X96990000Y-71770000D02*
X97130000Y-69480000D01*
X98250000Y-71060000D02*
X98100000Y-68760000D01*
X98970000Y-69190000D02*
X99480000Y-71470000D01*
X100520000Y-70310000D02*
X99580000Y-68310000D01*
X101780000Y-70420000D02*
X100630000Y-68470000D01*
X100840000Y-67350000D02*
X102420000Y-69220000D01*
X101870000Y-67060000D02*
X103720000Y-68400000D01*
X103810000Y-67040000D02*
X101750000Y-66050000D01*
X102450000Y-65590000D02*
X104630000Y-66350000D01*
X104340000Y-65010000D02*
X102010000Y-64660000D01*
X102710000Y-64010000D02*
X104940000Y-64080000D01*
X104260000Y-62860000D02*
X101910000Y-63320000D01*
X102380000Y-62450000D02*
X104430000Y-61670000D01*
X103480000Y-60670000D02*
X101340000Y-61920000D01*
X101560000Y-60930000D02*
X103340000Y-59730000D01*
X100400000Y-60840000D02*
X102020000Y-59290000D01*
X100280000Y-59860000D02*
X101580000Y-58110000D01*
X99070000Y-60070000D02*
X100120000Y-57940000D01*
X98620000Y-59250000D02*
X99300000Y-57130000D01*
X97930000Y-59790000D02*
X98090000Y-57430000D01*
X97230000Y-59130000D02*
X97260000Y-56840000D01*
X96640000Y-59830000D02*
X96320000Y-57490000D01*
X95680000Y-59410000D02*
X95260000Y-57170000D01*
X95320000Y-60270000D02*
X94350000Y-58100000D01*
X94450000Y-60160000D02*
X93360000Y-58130000D01*
X94230000Y-61110000D02*
X92800000Y-59290000D01*
X91580000Y-59770000D02*
X93360000Y-61330000D01*
X93400000Y-62300000D02*
X91490000Y-60960000D01*
X92480000Y-62800000D02*
X90460000Y-61960000D01*
X92990000Y-63740000D02*
X90710000Y-63200000D01*
X92130000Y-64300000D02*
X90010000Y-64300000D01*
X93020000Y-64880000D02*
X90550000Y-65290000D01*
X92320000Y-65620000D02*
X90350000Y-66480000D01*
X91220000Y-67150000D02*
X93200000Y-66040000D01*
X91260000Y-68340000D02*
X93140000Y-66890000D01*
X92260000Y-68740000D02*
X93980000Y-67180000D01*
X92490000Y-69820000D02*
X94000000Y-68300000D01*
X93840000Y-70070000D02*
X95070000Y-68210000D01*
X94470000Y-71140000D02*
X95500000Y-69080000D01*
X80000000Y-89300000D02*
G75*
G03X80000000Y-89300000I-7500000J0D01*
G01*
X76990000Y-89290000D02*
G75*
G03X76990000Y-89290000I-4500000J0D01*
G01*
X76990000Y-64290000D02*
G75*
G03X76990000Y-64290000I-4500000J0D01*
G01*
X79999800Y-64300000D02*
G75*
G03X79999800Y-64300000I-7499800J0D01*
G01*
X102000600Y-89300000D02*
G75*
G03X102000600Y-89300000I-4510600J0D01*
G01*
X104999800Y-89300000D02*
G75*
G03X104999800Y-89300000I-7499800J0D01*
G01*
X102000600Y-64300000D02*
G75*
G03X102000600Y-64300000I-4510600J0D01*
G01*
X104999800Y-64300000D02*
G75*
G03X104999800Y-64300000I-7499800J0D01*
G01*
D12*
X194310000Y-125730000D03*
X196850000Y-125730000D03*
X199390000Y-125730000D03*
X201930000Y-125730000D03*
X204470000Y-125730000D03*
X207010000Y-125730000D03*
X209550000Y-125730000D03*
X212090000Y-125730000D03*
X214630000Y-125730000D03*
X217170000Y-125730000D03*
X219710000Y-125730000D03*
X222250000Y-125730000D03*
X194310000Y-110490000D03*
X196850000Y-110490000D03*
X199390000Y-110490000D03*
X201930000Y-110490000D03*
X204470000Y-110490000D03*
X207010000Y-110490000D03*
X209550000Y-110490000D03*
X212090000Y-110490000D03*
X214630000Y-110490000D03*
X217170000Y-110490000D03*
X219710000Y-110490000D03*
X222250000Y-110490000D03*
D13*
X203073000Y-113411000D03*
X205613000Y-113411000D03*
X213487000Y-113411000D03*
X216027000Y-113411000D03*
D14*
X217319860Y-138430000D03*
X223319340Y-138430000D03*
X220319600Y-133731000D03*
D15*
X222250000Y-68580000D03*
D16*
X222250000Y-73660000D03*
X222250000Y-86360000D03*
X222250000Y-88900000D03*
X222250000Y-91440000D03*
X222250000Y-93980000D03*
X222250000Y-96520000D03*
X222250000Y-99060000D03*
D12*
X222250000Y-60960000D03*
X222250000Y-63500000D03*
X222250000Y-66040000D03*
X222250000Y-71120000D03*
X222250000Y-76200000D03*
X222250000Y-78740000D03*
X222250000Y-81280000D03*
X222250000Y-83820000D03*
D17*
X70502540Y-138840000D03*
D18*
X70502540Y-149000000D03*
D17*
X70005040Y-113840000D03*
D18*
X70005040Y-124000000D03*
D17*
X69999960Y-89660000D03*
D18*
X69999960Y-79500000D03*
D17*
X69499960Y-64660000D03*
D18*
X69499960Y-54500000D03*
D17*
X95500040Y-138840000D03*
D18*
X95500040Y-149000000D03*
D17*
X95002540Y-113840000D03*
D18*
X95002540Y-124000000D03*
D17*
X94994960Y-89660000D03*
D18*
X94994960Y-79500000D03*
D17*
X94999960Y-64660000D03*
D18*
X94999960Y-54500000D03*
D17*
X120502540Y-138840000D03*
D18*
X120502540Y-149000000D03*
D17*
X120002540Y-113840000D03*
D18*
X120002540Y-124000000D03*
D17*
X119997460Y-89660000D03*
D18*
X119997460Y-79500000D03*
D17*
X120000460Y-64660000D03*
D18*
X120000460Y-54500000D03*
D17*
X149840000Y-139497460D03*
D18*
X160000000Y-139497460D03*
D17*
X149840000Y-114000460D03*
D18*
X160000000Y-114000460D03*
D17*
X149840000Y-89497460D03*
D18*
X160000000Y-89497460D03*
D17*
X149840000Y-63997460D03*
D18*
X160000000Y-63997460D03*
D15*
X212090000Y-55880000D03*
D16*
X212090000Y-58420000D03*
X212090000Y-60960000D03*
X212090000Y-63500000D03*
X212090000Y-66040000D03*
X212090000Y-68580000D03*
X212090000Y-71120000D03*
X212090000Y-73660000D03*
D15*
X209550000Y-73660000D03*
D16*
X209550000Y-71120000D03*
X209550000Y-68580000D03*
X209550000Y-66040000D03*
X209550000Y-63500000D03*
X209550000Y-60960000D03*
X209550000Y-58420000D03*
X209550000Y-55880000D03*
D19*
X174732000Y-142270000D03*
X170232000Y-142270000D03*
X174732000Y-135770000D03*
X170232000Y-135770000D03*
X174732000Y-117270000D03*
X170232000Y-117270000D03*
X174732000Y-110770000D03*
X170232000Y-110770000D03*
X174732000Y-92270000D03*
X170232000Y-92270000D03*
X174732000Y-85770000D03*
X170232000Y-85770000D03*
X174732000Y-67270000D03*
X170232000Y-67270000D03*
X174732000Y-60770000D03*
X170232000Y-60770000D03*
D15*
X212090000Y-76200000D03*
D16*
X212090000Y-78740000D03*
X212090000Y-81280000D03*
X212090000Y-83820000D03*
X212090000Y-86360000D03*
X212090000Y-88900000D03*
X212090000Y-91440000D03*
X212090000Y-93980000D03*
D15*
X209550000Y-93980000D03*
D16*
X209550000Y-91440000D03*
X209550000Y-88900000D03*
X209550000Y-86360000D03*
X209550000Y-83820000D03*
X209550000Y-81280000D03*
X209550000Y-78740000D03*
X209550000Y-76200000D03*
D15*
X187960000Y-76200000D03*
D16*
X190500000Y-76200000D03*
X193040000Y-76200000D03*
X195580000Y-76200000D03*
X198120000Y-76200000D03*
X200660000Y-76200000D03*
X203200000Y-76200000D03*
X205740000Y-76200000D03*
D15*
X205740000Y-81280000D03*
D16*
X203200000Y-81280000D03*
X200660000Y-81280000D03*
X198120000Y-81280000D03*
X195580000Y-81280000D03*
X193040000Y-81280000D03*
X190500000Y-81280000D03*
X187960000Y-81280000D03*
D15*
X214630000Y-93980000D03*
D16*
X214630000Y-91440000D03*
X214630000Y-88900000D03*
X214630000Y-86360000D03*
X214630000Y-83820000D03*
X214630000Y-81280000D03*
X214630000Y-78740000D03*
X214630000Y-76200000D03*
D15*
X217170000Y-76200000D03*
D16*
X217170000Y-78740000D03*
X217170000Y-81280000D03*
X217170000Y-83820000D03*
X217170000Y-86360000D03*
X217170000Y-88900000D03*
X217170000Y-91440000D03*
X217170000Y-93980000D03*
D15*
X205740000Y-60960000D03*
D16*
X203200000Y-60960000D03*
X200660000Y-60960000D03*
X198120000Y-60960000D03*
X195580000Y-60960000D03*
X193040000Y-60960000D03*
X190500000Y-60960000D03*
X187960000Y-60960000D03*
D15*
X187960000Y-55880000D03*
D16*
X190500000Y-55880000D03*
X193040000Y-55880000D03*
X195580000Y-55880000D03*
X198120000Y-55880000D03*
X200660000Y-55880000D03*
X203200000Y-55880000D03*
X205740000Y-55880000D03*
D15*
X217170000Y-55880000D03*
D16*
X217170000Y-58420000D03*
X217170000Y-60960000D03*
X217170000Y-63500000D03*
X217170000Y-66040000D03*
X217170000Y-68580000D03*
X217170000Y-71120000D03*
X217170000Y-73660000D03*
D15*
X214630000Y-73660000D03*
D16*
X214630000Y-71120000D03*
X214630000Y-68580000D03*
X214630000Y-66040000D03*
X214630000Y-63500000D03*
X214630000Y-60960000D03*
X214630000Y-58420000D03*
X214630000Y-55880000D03*
D15*
X205740000Y-66040000D03*
D16*
X203200000Y-66040000D03*
X200660000Y-66040000D03*
X198120000Y-66040000D03*
X195580000Y-66040000D03*
X193040000Y-66040000D03*
X190500000Y-66040000D03*
X187960000Y-66040000D03*
D15*
X187960000Y-71120000D03*
D16*
X190500000Y-71120000D03*
X193040000Y-71120000D03*
X195580000Y-71120000D03*
X198120000Y-71120000D03*
X200660000Y-71120000D03*
X203200000Y-71120000D03*
X205740000Y-71120000D03*
D15*
X187960000Y-86360000D03*
D16*
X190500000Y-86360000D03*
X193040000Y-86360000D03*
X195580000Y-86360000D03*
X198120000Y-86360000D03*
X200660000Y-86360000D03*
X203200000Y-86360000D03*
X205740000Y-86360000D03*
D15*
X187960000Y-101600000D03*
D16*
X190500000Y-101600000D03*
X193040000Y-101600000D03*
X195580000Y-101600000D03*
X198120000Y-101600000D03*
X200660000Y-101600000D03*
X203200000Y-101600000D03*
X205740000Y-101600000D03*
D17*
X212090000Y-133350000D03*
X212090000Y-143510000D03*
X208280000Y-143510000D03*
X208280000Y-133350000D03*
D20*
X122500000Y-90000000D03*
X122500000Y-88000000D03*
X122500000Y-86000000D03*
X122500000Y-92000000D03*
X122500000Y-65000000D03*
X122500000Y-63000000D03*
X122500000Y-61000000D03*
X122500000Y-67000000D03*
X147500000Y-90000000D03*
X147500000Y-88000000D03*
X147500000Y-86000000D03*
X147500000Y-92000000D03*
D21*
X146519000Y-93672000D03*
X144487000Y-96212000D03*
D20*
X147500000Y-65000000D03*
X147500000Y-63000000D03*
X147500000Y-61000000D03*
X147500000Y-67000000D03*
D21*
X146519000Y-68672000D03*
X144487000Y-71212000D03*
X121519000Y-93672000D03*
X119487000Y-96212000D03*
X121519000Y-68672000D03*
X119487000Y-71212000D03*
D20*
X122500000Y-140000000D03*
X122500000Y-138000000D03*
X122500000Y-136000000D03*
X122500000Y-142000000D03*
X122500000Y-115000000D03*
X122500000Y-113000000D03*
X122500000Y-111000000D03*
X122500000Y-117000000D03*
X147500000Y-140000000D03*
X147500000Y-138000000D03*
X147500000Y-136000000D03*
X147500000Y-142000000D03*
D21*
X146519000Y-143672000D03*
X144487000Y-146212000D03*
D20*
X147500000Y-115000000D03*
X147500000Y-113000000D03*
X147500000Y-111000000D03*
X147500000Y-117000000D03*
D21*
X146519000Y-118672000D03*
X144487000Y-121212000D03*
X121519000Y-143672000D03*
X119487000Y-146212000D03*
X121519000Y-118672000D03*
X119487000Y-121212000D03*
D20*
X72500000Y-140000000D03*
X72500000Y-138000000D03*
X72500000Y-136000000D03*
X72500000Y-142000000D03*
X72500000Y-115000000D03*
X72500000Y-113000000D03*
X72500000Y-111000000D03*
X72500000Y-117000000D03*
X97500000Y-140000000D03*
X97500000Y-138000000D03*
X97500000Y-136000000D03*
X97500000Y-142000000D03*
D21*
X96519000Y-143672000D03*
X94487000Y-146212000D03*
D20*
X97500000Y-115000000D03*
X97500000Y-113000000D03*
X97500000Y-111000000D03*
X97500000Y-117000000D03*
D21*
X96519000Y-118672000D03*
X94487000Y-121212000D03*
X71519000Y-143672000D03*
X69487000Y-146212000D03*
X71519000Y-118672000D03*
X69487000Y-121212000D03*
D20*
X72500000Y-90000000D03*
X72500000Y-88000000D03*
X72500000Y-86000000D03*
X72500000Y-92000000D03*
X72500000Y-65000000D03*
X72500000Y-63000000D03*
X72500000Y-61000000D03*
X72500000Y-67000000D03*
X97500000Y-90000000D03*
X97500000Y-88000000D03*
X97500000Y-86000000D03*
X97500000Y-92000000D03*
D21*
X96519000Y-93672000D03*
X94487000Y-96212000D03*
D20*
X97500000Y-65000000D03*
X97500000Y-63000000D03*
X97500000Y-61000000D03*
X97500000Y-67000000D03*
D21*
X96519000Y-68672000D03*
X94487000Y-71212000D03*
X71519000Y-93672000D03*
X69487000Y-96212000D03*
X71519000Y-68672000D03*
X69487000Y-71212000D03*
D22*
X180340000Y-119380000D03*
X180340000Y-121920000D03*
X180340000Y-124460000D03*
X180340000Y-127000000D03*
X180340000Y-129540000D03*
X180340000Y-132080000D03*
X180340000Y-134620000D03*
X180340000Y-137160000D03*
X180340000Y-139700000D03*
X180340000Y-142240000D03*
X180340000Y-144780000D03*
X180340000Y-147320000D03*
X165100000Y-147320000D03*
X165100000Y-144780000D03*
X165100000Y-142240000D03*
X165100000Y-139700000D03*
X165100000Y-137160000D03*
X165100000Y-134620000D03*
X165100000Y-132080000D03*
X165100000Y-129540000D03*
X165100000Y-127000000D03*
X165100000Y-124460000D03*
X165100000Y-121920000D03*
X165100000Y-119380000D03*
X180340000Y-55880000D03*
X180340000Y-58420000D03*
X180340000Y-60960000D03*
X180340000Y-63500000D03*
X180340000Y-66040000D03*
X180340000Y-68580000D03*
X180340000Y-71120000D03*
X180340000Y-73660000D03*
X180340000Y-76200000D03*
X180340000Y-78740000D03*
X180340000Y-81280000D03*
X180340000Y-83820000D03*
X165100000Y-83820000D03*
X165100000Y-81280000D03*
X165100000Y-78740000D03*
X165100000Y-76200000D03*
X165100000Y-73660000D03*
X165100000Y-71120000D03*
X165100000Y-68580000D03*
X165100000Y-66040000D03*
X165100000Y-63500000D03*
X165100000Y-60960000D03*
X165100000Y-58420000D03*
X165100000Y-55880000D03*
D15*
X219710000Y-68580000D03*
D16*
X219710000Y-73660000D03*
X219710000Y-86360000D03*
X219710000Y-88900000D03*
X219710000Y-91440000D03*
X219710000Y-93980000D03*
X219710000Y-96520000D03*
X219710000Y-99060000D03*
D12*
X219710000Y-60960000D03*
X219710000Y-63500000D03*
X219710000Y-66040000D03*
X219710000Y-71120000D03*
X219710000Y-76200000D03*
X219710000Y-78740000D03*
X219710000Y-81280000D03*
X219710000Y-83820000D03*
D23*
X204500000Y-141500000D03*
X204500000Y-139000000D03*
X204500000Y-136500000D03*
D24*
X190000000Y-138000000D03*
X190000000Y-140000000D03*
D25*
X197000000Y-144550000D03*
X197000000Y-133450000D03*
D24*
X190000000Y-136000000D03*
X190000000Y-142000000D03*
D15*
X187960000Y-93980000D03*
D16*
X190500000Y-93980000D03*
X193040000Y-93980000D03*
X195580000Y-93980000D03*
X198120000Y-93980000D03*
X200660000Y-93980000D03*
X203200000Y-93980000D03*
X205740000Y-93980000D03*
D26*
X114520300Y-135313800D03*
X167676000Y-62492500D03*
X150109900Y-129556600D03*
X143035100Y-127919300D03*
X139049300Y-67435700D03*
X138796900Y-87852700D03*
X124039700Y-105918000D03*
X144674800Y-106445400D03*
X123527100Y-104513600D03*
X144191000Y-104513600D03*
X163067100Y-74602200D03*
X160589600Y-74590800D03*
X144338900Y-97378900D03*
X123747200Y-98540400D03*
X155682100Y-62692900D03*
X106247400Y-138228800D03*
X109257900Y-115710200D03*
X106055900Y-88705400D03*
X106055900Y-68828100D03*
X133376600Y-128797100D03*
X129940200Y-132471300D03*
X130153900Y-67425400D03*
X130673200Y-87865100D03*
D27*
X99068400Y-149000000D02*
X105567400Y-142501000D01*
X95500000Y-149000000D02*
X99068400Y-149000000D01*
X111341400Y-142501000D02*
X105567400Y-142501000D01*
X119145100Y-150304700D02*
X111341400Y-142501000D01*
X150644700Y-150304700D02*
X119145100Y-150304700D01*
X159709300Y-141240100D02*
X150644700Y-150304700D01*
X167237100Y-141240100D02*
X159709300Y-141240100D01*
X167643900Y-140833300D02*
X167237100Y-141240100D01*
X175040800Y-140833300D02*
X167643900Y-140833300D01*
X178714100Y-137160000D02*
X175040800Y-140833300D01*
X180340000Y-137160000D02*
X178714100Y-137160000D01*
X95002500Y-124000000D02*
X99041200Y-124000000D01*
X105567400Y-130526200D02*
X105567400Y-142501000D01*
X99041200Y-124000000D02*
X105567400Y-130526200D01*
X105356000Y-117685200D02*
X99041200Y-124000000D01*
X105356000Y-85924200D02*
X105356000Y-117685200D01*
X98051800Y-78620000D02*
X105356000Y-85924200D01*
X97171800Y-79500000D02*
X98051800Y-78620000D01*
X94995000Y-79500000D02*
X97171800Y-79500000D01*
X98977800Y-54500000D02*
X95000000Y-54500000D01*
X105481500Y-61003700D02*
X98977800Y-54500000D01*
X105481500Y-65783300D02*
X105481500Y-61003700D01*
X105304300Y-65960500D02*
X105481500Y-65783300D01*
X105304300Y-71367500D02*
X105304300Y-65960500D01*
X98051800Y-78620000D02*
X105304300Y-71367500D01*
X120502500Y-149000000D02*
X120502500Y-147695400D01*
X119442500Y-147695400D02*
X120502500Y-147695400D01*
X114494400Y-142747300D02*
X119442500Y-147695400D01*
X114494400Y-135339700D02*
X114494400Y-142747300D01*
X114520300Y-135313800D02*
X114494400Y-135339700D01*
X114488200Y-72686100D02*
X119997500Y-78195400D01*
X114488200Y-60909200D02*
X114488200Y-72686100D01*
X119592800Y-55804600D02*
X114488200Y-60909200D01*
X120000500Y-55804600D02*
X119592800Y-55804600D01*
X120000500Y-54500000D02*
X120000500Y-55804600D01*
X119997500Y-79500000D02*
X119997500Y-78195400D01*
X180340000Y-134620000D02*
X178714100Y-134620000D01*
X150771800Y-147695400D02*
X120502500Y-147695400D01*
X157633900Y-140833300D02*
X150771800Y-147695400D01*
X166865200Y-140833300D02*
X157633900Y-140833300D01*
X168541400Y-139157100D02*
X166865200Y-140833300D01*
X174177000Y-139157100D02*
X168541400Y-139157100D01*
X178714100Y-134620000D02*
X174177000Y-139157100D01*
X119671400Y-80804600D02*
X119997500Y-80804600D01*
X114502800Y-85973200D02*
X119671400Y-80804600D01*
X114502800Y-117684900D02*
X114502800Y-85973200D01*
X119513300Y-122695400D02*
X114502800Y-117684900D01*
X120002500Y-122695400D02*
X119513300Y-122695400D01*
X120002500Y-124000000D02*
X120002500Y-122695400D01*
X119997500Y-79500000D02*
X119997500Y-80804600D01*
X180340000Y-132080000D02*
X178714100Y-132080000D01*
X160000000Y-116311500D02*
X160000000Y-114000500D01*
X164338500Y-120650000D02*
X160000000Y-116311500D01*
X165903300Y-120650000D02*
X164338500Y-120650000D01*
X172254600Y-127001200D02*
X165903300Y-120650000D01*
X173635300Y-127001200D02*
X172254600Y-127001200D01*
X178714100Y-132080000D02*
X173635300Y-127001200D01*
X160000000Y-137630800D02*
X160000000Y-139497500D01*
X163989800Y-133641000D02*
X160000000Y-137630800D01*
X165614800Y-133641000D02*
X163989800Y-133641000D01*
X172254600Y-127001200D02*
X165614800Y-133641000D01*
X187960000Y-93980000D02*
X186715100Y-93980000D01*
X205740000Y-93980000D02*
X203200000Y-93980000D01*
X200660000Y-93980000D02*
X198120000Y-93980000D01*
X198120000Y-93980000D02*
X195580000Y-93980000D01*
X195580000Y-93980000D02*
X193040000Y-93980000D01*
X193040000Y-93980000D02*
X190500000Y-93980000D01*
X190500000Y-93980000D02*
X187960000Y-93980000D01*
X170232000Y-89629400D02*
X170232000Y-85770000D01*
X171552300Y-90949700D02*
X170232000Y-89629400D01*
X170232000Y-92270000D02*
X171552300Y-90949700D01*
X183684800Y-90949700D02*
X186715100Y-93980000D01*
X171552300Y-90949700D02*
X183684800Y-90949700D01*
X168835900Y-117270000D02*
X166725900Y-119380000D01*
X170232000Y-117270000D02*
X168835900Y-117270000D01*
X165100000Y-119380000D02*
X166725900Y-119380000D01*
X219710000Y-73660000D02*
X222250000Y-73660000D01*
X223502600Y-124477400D02*
X222250000Y-125730000D01*
X223502600Y-74912600D02*
X223502600Y-124477400D01*
X222250000Y-73660000D02*
X223502600Y-74912600D01*
X219710000Y-86360000D02*
X222250000Y-86360000D01*
X219710000Y-91440000D02*
X222250000Y-91440000D01*
X218440000Y-109220000D02*
X217170000Y-110490000D01*
X218440000Y-92710000D02*
X218440000Y-109220000D01*
X219710000Y-91440000D02*
X218440000Y-92710000D01*
X219710000Y-93980000D02*
X222250000Y-93980000D01*
X205931800Y-111568200D02*
X207010000Y-110490000D01*
X201428200Y-111568200D02*
X205931800Y-111568200D01*
X200660000Y-110800000D02*
X201428200Y-111568200D01*
X200660000Y-110211000D02*
X200660000Y-110800000D01*
X199406700Y-108957700D02*
X200660000Y-110211000D01*
X196095800Y-108957700D02*
X199406700Y-108957700D01*
X189204900Y-102066800D02*
X196095800Y-108957700D01*
X189204900Y-101600000D02*
X189204900Y-102066800D01*
X187960000Y-101600000D02*
X189204900Y-101600000D01*
X202315200Y-108335200D02*
X204470000Y-110490000D01*
X197235200Y-108335200D02*
X202315200Y-108335200D01*
X190500000Y-101600000D02*
X197235200Y-108335200D01*
X213360000Y-110744000D02*
X216027000Y-113411000D01*
X213360000Y-110217700D02*
X213360000Y-110744000D01*
X211070700Y-107928400D02*
X213360000Y-110217700D01*
X204448400Y-107928400D02*
X211070700Y-107928400D01*
X198120000Y-101600000D02*
X204448400Y-107928400D01*
X209550000Y-55880000D02*
X212090000Y-55880000D01*
X209550000Y-58420000D02*
X212090000Y-58420000D01*
X209550000Y-60960000D02*
X212090000Y-60960000D01*
X209550000Y-63500000D02*
X212090000Y-63500000D01*
X209550000Y-66040000D02*
X212090000Y-66040000D01*
X209550000Y-68580000D02*
X212090000Y-68580000D01*
X209550000Y-71120000D02*
X212090000Y-71120000D01*
X209550000Y-73660000D02*
X212090000Y-73660000D01*
X180340000Y-58420000D02*
X178714100Y-58420000D01*
X174866700Y-62492500D02*
X167676000Y-62492500D01*
X178714100Y-58645100D02*
X174866700Y-62492500D01*
X178714100Y-58420000D02*
X178714100Y-58645100D01*
X165100000Y-129540000D02*
X163474100Y-129540000D01*
X163457500Y-129556600D02*
X150109900Y-129556600D01*
X163474100Y-129540000D02*
X163457500Y-129556600D01*
X144672400Y-129556600D02*
X143035100Y-127919300D01*
X150109900Y-129556600D02*
X144672400Y-129556600D01*
X139049300Y-87600300D02*
X138796900Y-87852700D01*
X139049300Y-67435700D02*
X139049300Y-87600300D01*
X180340000Y-60960000D02*
X181965900Y-60960000D01*
X144147400Y-105918000D02*
X144674800Y-106445400D01*
X124039700Y-105918000D02*
X144147400Y-105918000D01*
X182372700Y-61366800D02*
X181965900Y-60960000D01*
X182372700Y-76833800D02*
X182372700Y-61366800D01*
X181432100Y-77774400D02*
X182372700Y-76833800D01*
X164000400Y-77774400D02*
X181432100Y-77774400D01*
X158695300Y-83079500D02*
X164000400Y-77774400D01*
X158695300Y-91370100D02*
X158695300Y-83079500D01*
X144147400Y-105918000D02*
X158695300Y-91370100D01*
X123527100Y-104513600D02*
X144191000Y-104513600D01*
X69487000Y-121351200D02*
X69487000Y-121212000D01*
X70460100Y-122324300D02*
X69487000Y-121351200D01*
X93374700Y-122324300D02*
X70460100Y-122324300D01*
X94487000Y-121212000D02*
X93374700Y-122324300D01*
X143405200Y-122293800D02*
X144487000Y-121212000D01*
X120486900Y-122293800D02*
X143405200Y-122293800D01*
X119487000Y-121293900D02*
X120486900Y-122293800D01*
X119487000Y-121212000D02*
X119487000Y-121293900D01*
X163090500Y-74625600D02*
X163067100Y-74602200D01*
X175208500Y-74625600D02*
X163090500Y-74625600D01*
X178714100Y-71120000D02*
X175208500Y-74625600D01*
X180340000Y-71120000D02*
X178714100Y-71120000D01*
X162790400Y-72390000D02*
X160589600Y-74590800D01*
X174494600Y-72390000D02*
X162790400Y-72390000D01*
X179574600Y-67310000D02*
X174494600Y-72390000D01*
X181103500Y-67310000D02*
X179574600Y-67310000D01*
X181965900Y-66447600D02*
X181103500Y-67310000D01*
X181965900Y-63500000D02*
X181965900Y-66447600D01*
X180340000Y-63500000D02*
X181965900Y-63500000D01*
X143177400Y-98540400D02*
X123747200Y-98540400D01*
X144338900Y-97378900D02*
X143177400Y-98540400D01*
X180340000Y-73660000D02*
X181965900Y-73660000D01*
X145501600Y-97337200D02*
X144487000Y-96322600D01*
X150874400Y-97337200D02*
X145501600Y-97337200D01*
X156429500Y-91782100D02*
X150874400Y-97337200D01*
X156429500Y-84770000D02*
X156429500Y-91782100D01*
X164033900Y-77165600D02*
X156429500Y-84770000D01*
X181465600Y-77165600D02*
X164033900Y-77165600D01*
X181965900Y-76665300D02*
X181465600Y-77165600D01*
X181965900Y-73660000D02*
X181965900Y-76665300D01*
X144487000Y-96322600D02*
X144487000Y-96212000D01*
X119487000Y-96296700D02*
X119487000Y-96212000D01*
X120526300Y-97336000D02*
X119487000Y-96296700D01*
X139149900Y-97336000D02*
X120526300Y-97336000D01*
X140163300Y-96322600D02*
X139149900Y-97336000D01*
X144487000Y-96322600D02*
X140163300Y-96322600D01*
X180340000Y-66040000D02*
X178714100Y-66040000D01*
X162250500Y-62692900D02*
X155682100Y-62692900D01*
X164632100Y-65074500D02*
X162250500Y-62692900D01*
X177748600Y-65074500D02*
X164632100Y-65074500D01*
X178714100Y-66040000D02*
X177748600Y-65074500D01*
X93384800Y-72314200D02*
X94487000Y-71212000D01*
X70485500Y-72314200D02*
X93384800Y-72314200D01*
X69487000Y-71315700D02*
X70485500Y-72314200D01*
X69487000Y-71212000D02*
X69487000Y-71315700D01*
X180340000Y-76200000D02*
X178714100Y-76200000D01*
X177748500Y-75234400D02*
X178714100Y-76200000D01*
X163396400Y-75234400D02*
X177748500Y-75234400D01*
X163348800Y-75282000D02*
X163396400Y-75234400D01*
X160319400Y-75282000D02*
X163348800Y-75282000D01*
X159468500Y-74431100D02*
X160319400Y-75282000D01*
X147630900Y-74431100D02*
X159468500Y-74431100D01*
X144487000Y-71287200D02*
X147630900Y-74431100D01*
X144487000Y-71212000D02*
X144487000Y-71287200D01*
X165100000Y-124460000D02*
X163474100Y-124460000D01*
X115800400Y-128675800D02*
X106247400Y-138228800D01*
X115800400Y-128675900D02*
X115800400Y-128675800D01*
X123593900Y-128675900D02*
X115800400Y-128675900D01*
X127809800Y-124460000D02*
X123593900Y-128675900D01*
X163474100Y-124460000D02*
X127809800Y-124460000D01*
X109314600Y-122190100D02*
X115800400Y-128675800D01*
X109314600Y-115767000D02*
X109314600Y-122190100D01*
X109257900Y-115710300D02*
X109314600Y-115767000D01*
X109257900Y-115710200D02*
X109257900Y-115710300D01*
X109321000Y-115647100D02*
X109257900Y-115710200D01*
X109321000Y-91970500D02*
X109321000Y-115647100D01*
X106055900Y-88705400D02*
X109321000Y-91970500D01*
X106055900Y-68828100D02*
X106055900Y-88705400D01*
X165100000Y-127000000D02*
X163474100Y-127000000D01*
X129940200Y-132233500D02*
X129940200Y-132471300D01*
X133376600Y-128797100D02*
X129940200Y-132233500D01*
X130673200Y-67944700D02*
X130153900Y-67425400D01*
X130673200Y-87865100D02*
X130673200Y-67944700D01*
X134934200Y-127239500D02*
X133376600Y-128797100D01*
X143316800Y-127239500D02*
X134934200Y-127239500D01*
X144417800Y-128340500D02*
X143316800Y-127239500D01*
X162133600Y-128340500D02*
X144417800Y-128340500D01*
X163474100Y-127000000D02*
X162133600Y-128340500D01*
X210820000Y-111760000D02*
X209550000Y-110490000D01*
X210820000Y-132080000D02*
X210820000Y-111760000D01*
X212090000Y-133350000D02*
X210820000Y-132080000D01*
X180340000Y-119380000D02*
X181965900Y-119380000D01*
X204386900Y-129456900D02*
X208280000Y-133350000D01*
X192042800Y-129456900D02*
X204386900Y-129456900D01*
X181965900Y-119380000D02*
X192042800Y-129456900D01*
X174732000Y-110770000D02*
X174732000Y-117270000D01*
X184175100Y-83820000D02*
X186715100Y-86360000D01*
X180340000Y-83820000D02*
X184175100Y-83820000D01*
X187960000Y-86360000D02*
X186715100Y-86360000D01*
X200660000Y-86360000D02*
X198120000Y-86360000D01*
X198120000Y-86360000D02*
X195580000Y-86360000D01*
X195580000Y-86360000D02*
X193040000Y-86360000D01*
X193040000Y-86360000D02*
X190500000Y-86360000D01*
X190500000Y-86360000D02*
X187960000Y-86360000D01*
X173634100Y-78740000D02*
X178714100Y-83820000D01*
X165100000Y-78740000D02*
X173634100Y-78740000D01*
X180340000Y-83820000D02*
X178714100Y-83820000D01*
X200660000Y-86360000D02*
X203200000Y-86360000D01*
X204470000Y-147320000D02*
X180340000Y-147320000D01*
X208280000Y-143510000D02*
X204470000Y-147320000D01*
X171805900Y-147320000D02*
X166725900Y-142240000D01*
X180340000Y-147320000D02*
X171805900Y-147320000D01*
X165100000Y-142240000D02*
X166725900Y-142240000D01*
X210784100Y-142204100D02*
X212090000Y-143510000D01*
X209585900Y-142204100D02*
X210784100Y-142204100D01*
X209585900Y-132803200D02*
X209585900Y-142204100D01*
X202512700Y-125730000D02*
X209585900Y-132803200D01*
X201930000Y-125730000D02*
X202512700Y-125730000D01*
X209585900Y-142204100D02*
X208280000Y-143510000D01*
X165100000Y-83820000D02*
X166725900Y-83820000D01*
X166725900Y-90611500D02*
X166725900Y-83820000D01*
X192864800Y-116750400D02*
X166725900Y-90611500D01*
X198030400Y-116750400D02*
X192864800Y-116750400D01*
X207010000Y-125730000D02*
X198030400Y-116750400D01*
X202326700Y-123586700D02*
X204470000Y-125730000D01*
X199111200Y-123586700D02*
X202326700Y-123586700D01*
X163474100Y-87949600D02*
X199111200Y-123586700D01*
X163474100Y-81280000D02*
X163474100Y-87949600D01*
X165100000Y-81280000D02*
X163474100Y-81280000D01*
X209550000Y-76200000D02*
X212090000Y-76200000D01*
X209550000Y-78740000D02*
X212090000Y-78740000D01*
X209550000Y-81280000D02*
X212090000Y-81280000D01*
X209550000Y-83820000D02*
X212090000Y-83820000D01*
X209550000Y-86360000D02*
X212090000Y-86360000D01*
X209550000Y-88900000D02*
X212090000Y-88900000D01*
X209550000Y-91440000D02*
X212090000Y-91440000D01*
X209550000Y-93980000D02*
X212090000Y-93980000D01*
X217170000Y-93980000D02*
X214630000Y-93980000D01*
X217170000Y-91440000D02*
X214630000Y-91440000D01*
X217170000Y-88900000D02*
X214630000Y-88900000D01*
X217170000Y-86360000D02*
X214630000Y-86360000D01*
X217170000Y-83820000D02*
X214630000Y-83820000D01*
X217170000Y-81280000D02*
X214630000Y-81280000D01*
X217170000Y-78740000D02*
X214630000Y-78740000D01*
X217170000Y-76200000D02*
X214630000Y-76200000D01*
X214630000Y-55880000D02*
X217170000Y-55880000D01*
X214630000Y-58420000D02*
X217170000Y-58420000D01*
X214630000Y-60960000D02*
X217170000Y-60960000D01*
X214630000Y-63500000D02*
X217170000Y-63500000D01*
X214630000Y-66040000D02*
X217170000Y-66040000D01*
X214630000Y-68580000D02*
X217170000Y-68580000D01*
X214630000Y-71120000D02*
X217170000Y-71120000D01*
X214630000Y-73660000D02*
X217170000Y-73660000D01*
X219710000Y-96520000D02*
X222250000Y-96520000D01*
X219710000Y-99060000D02*
X222250000Y-99060000D01*
X219710000Y-60960000D02*
X222250000Y-60960000D01*
X219710000Y-63500000D02*
X222250000Y-63500000D01*
X219710000Y-66040000D02*
X222250000Y-66040000D01*
X219710000Y-71120000D02*
X222250000Y-71120000D01*
X219710000Y-76200000D02*
X222250000Y-76200000D01*
X219710000Y-78740000D02*
X222250000Y-78740000D01*
X219710000Y-81280000D02*
X222250000Y-81280000D01*
X219710000Y-83820000D02*
X222250000Y-83820000D01*
X208280000Y-124460000D02*
X194310000Y-110490000D01*
X208280000Y-127778200D02*
X208280000Y-124460000D01*
X210413200Y-129911400D02*
X208280000Y-127778200D01*
X210413200Y-133578500D02*
X210413200Y-129911400D01*
X215264700Y-138430000D02*
X210413200Y-133578500D01*
X217319900Y-138430000D02*
X215264700Y-138430000D01*
M02*
