G04 #@! TF.FileFunction,Soldermask,Top*
%FSLAX46Y46*%
G04 Gerber Fmt 4.6, Leading zero omitted, Abs format (unit mm)*
G04 Created by KiCad (PCBNEW 4.0.4-stable) date 11/27/16 15:51:27*
%MOMM*%
%LPD*%
G01*
G04 APERTURE LIST*
%ADD10C,0.100000*%
%ADD11C,3.000000*%
%ADD12C,1.524000*%
%ADD13C,1.500000*%
%ADD14R,3.500120X3.500120*%
%ADD15R,1.879600X1.879600*%
%ADD16C,1.879600*%
%ADD17C,1.998980*%
%ADD18R,1.998980X1.998980*%
%ADD19C,2.000000*%
%ADD20C,1.508000*%
%ADD21C,1.016000*%
%ADD22O,2.641600X1.320800*%
%ADD23C,1.800000*%
%ADD24C,1.778000*%
%ADD25C,3.116000*%
%ADD26C,3.000000*%
G04 APERTURE END LIST*
D10*
D11*
X128524567Y-89300000D02*
G75*
G03X128524567Y-89300000I-6024567J0D01*
G01*
X128524567Y-89300000D02*
G75*
G03X128524567Y-89300000I-6024567J0D01*
G01*
X128559567Y-64281067D02*
G75*
G03X128559567Y-64281067I-6024567J0D01*
G01*
X153515067Y-89300067D02*
G75*
G03X153515067Y-89300067I-6024567J0D01*
G01*
X153515067Y-64281067D02*
G75*
G03X153515067Y-64281067I-6024567J0D01*
G01*
X128524567Y-139300000D02*
G75*
G03X128524567Y-139300000I-6024567J0D01*
G01*
X128524567Y-139300000D02*
G75*
G03X128524567Y-139300000I-6024567J0D01*
G01*
X128559567Y-114281067D02*
G75*
G03X128559567Y-114281067I-6024567J0D01*
G01*
X153515067Y-139300067D02*
G75*
G03X153515067Y-139300067I-6024567J0D01*
G01*
X153515067Y-114281067D02*
G75*
G03X153515067Y-114281067I-6024567J0D01*
G01*
X78524567Y-139300000D02*
G75*
G03X78524567Y-139300000I-6024567J0D01*
G01*
X78524567Y-139300000D02*
G75*
G03X78524567Y-139300000I-6024567J0D01*
G01*
X78559567Y-114281067D02*
G75*
G03X78559567Y-114281067I-6024567J0D01*
G01*
X103515067Y-139300067D02*
G75*
G03X103515067Y-139300067I-6024567J0D01*
G01*
X103515067Y-114281067D02*
G75*
G03X103515067Y-114281067I-6024567J0D01*
G01*
X78524567Y-89300000D02*
G75*
G03X78524567Y-89300000I-6024567J0D01*
G01*
X78524567Y-89300000D02*
G75*
G03X78524567Y-89300000I-6024567J0D01*
G01*
X78559567Y-64281067D02*
G75*
G03X78559567Y-64281067I-6024567J0D01*
G01*
X103515067Y-89300067D02*
G75*
G03X103515067Y-89300067I-6024567J0D01*
G01*
X103515067Y-64281067D02*
G75*
G03X103515067Y-64281067I-6024567J0D01*
G01*
D12*
X194310000Y-125730000D03*
X196850000Y-125730000D03*
X199390000Y-125730000D03*
X201930000Y-125730000D03*
X204470000Y-125730000D03*
X207010000Y-125730000D03*
X209550000Y-125730000D03*
X212090000Y-125730000D03*
X214630000Y-125730000D03*
X217170000Y-125730000D03*
X219710000Y-125730000D03*
X222250000Y-125730000D03*
X194310000Y-110490000D03*
X196850000Y-110490000D03*
X199390000Y-110490000D03*
X201930000Y-110490000D03*
X204470000Y-110490000D03*
X207010000Y-110490000D03*
X209550000Y-110490000D03*
X212090000Y-110490000D03*
X214630000Y-110490000D03*
X217170000Y-110490000D03*
X219710000Y-110490000D03*
X222250000Y-110490000D03*
D13*
X203073000Y-113411000D03*
X205613000Y-113411000D03*
X213487000Y-113411000D03*
X216027000Y-113411000D03*
D14*
X217319860Y-138430000D03*
X223319340Y-138430000D03*
X220319600Y-133731000D03*
D15*
X222250000Y-68580000D03*
D16*
X222250000Y-73660000D03*
X222250000Y-86360000D03*
X222250000Y-88900000D03*
X222250000Y-91440000D03*
X222250000Y-93980000D03*
X222250000Y-96520000D03*
X222250000Y-99060000D03*
D12*
X222250000Y-60960000D03*
X222250000Y-63500000D03*
X222250000Y-66040000D03*
X222250000Y-71120000D03*
X222250000Y-76200000D03*
X222250000Y-78740000D03*
X222250000Y-81280000D03*
X222250000Y-83820000D03*
D17*
X70502540Y-138840000D03*
D18*
X70502540Y-149000000D03*
D17*
X70005040Y-113840000D03*
D18*
X70005040Y-124000000D03*
D17*
X69999960Y-89660000D03*
D18*
X69999960Y-79500000D03*
D17*
X69499960Y-64660000D03*
D18*
X69499960Y-54500000D03*
D17*
X95500040Y-138840000D03*
D18*
X95500040Y-149000000D03*
D17*
X95002540Y-113840000D03*
D18*
X95002540Y-124000000D03*
D17*
X94994960Y-89660000D03*
D18*
X94994960Y-79500000D03*
D17*
X94999960Y-64660000D03*
D18*
X94999960Y-54500000D03*
D17*
X120502540Y-138840000D03*
D18*
X120502540Y-149000000D03*
D17*
X120002540Y-113840000D03*
D18*
X120002540Y-124000000D03*
D17*
X119997460Y-89660000D03*
D18*
X119997460Y-79500000D03*
D17*
X120000460Y-64660000D03*
D18*
X120000460Y-54500000D03*
D17*
X149840000Y-139497460D03*
D18*
X160000000Y-139497460D03*
D17*
X149840000Y-114000460D03*
D18*
X160000000Y-114000460D03*
D17*
X149840000Y-89497460D03*
D18*
X160000000Y-89497460D03*
D17*
X149840000Y-63997460D03*
D18*
X160000000Y-63997460D03*
D15*
X212090000Y-55880000D03*
D16*
X212090000Y-58420000D03*
X212090000Y-60960000D03*
X212090000Y-63500000D03*
X212090000Y-66040000D03*
X212090000Y-68580000D03*
X212090000Y-71120000D03*
X212090000Y-73660000D03*
D15*
X209550000Y-73660000D03*
D16*
X209550000Y-71120000D03*
X209550000Y-68580000D03*
X209550000Y-66040000D03*
X209550000Y-63500000D03*
X209550000Y-60960000D03*
X209550000Y-58420000D03*
X209550000Y-55880000D03*
D19*
X174732000Y-142270000D03*
X170232000Y-142270000D03*
X174732000Y-135770000D03*
X170232000Y-135770000D03*
X174732000Y-117270000D03*
X170232000Y-117270000D03*
X174732000Y-110770000D03*
X170232000Y-110770000D03*
X174732000Y-92270000D03*
X170232000Y-92270000D03*
X174732000Y-85770000D03*
X170232000Y-85770000D03*
X174732000Y-67270000D03*
X170232000Y-67270000D03*
X174732000Y-60770000D03*
X170232000Y-60770000D03*
D15*
X212090000Y-76200000D03*
D16*
X212090000Y-78740000D03*
X212090000Y-81280000D03*
X212090000Y-83820000D03*
X212090000Y-86360000D03*
X212090000Y-88900000D03*
X212090000Y-91440000D03*
X212090000Y-93980000D03*
D15*
X209550000Y-93980000D03*
D16*
X209550000Y-91440000D03*
X209550000Y-88900000D03*
X209550000Y-86360000D03*
X209550000Y-83820000D03*
X209550000Y-81280000D03*
X209550000Y-78740000D03*
X209550000Y-76200000D03*
D15*
X187960000Y-76200000D03*
D16*
X190500000Y-76200000D03*
X193040000Y-76200000D03*
X195580000Y-76200000D03*
X198120000Y-76200000D03*
X200660000Y-76200000D03*
X203200000Y-76200000D03*
X205740000Y-76200000D03*
D15*
X205740000Y-81280000D03*
D16*
X203200000Y-81280000D03*
X200660000Y-81280000D03*
X198120000Y-81280000D03*
X195580000Y-81280000D03*
X193040000Y-81280000D03*
X190500000Y-81280000D03*
X187960000Y-81280000D03*
D15*
X214630000Y-93980000D03*
D16*
X214630000Y-91440000D03*
X214630000Y-88900000D03*
X214630000Y-86360000D03*
X214630000Y-83820000D03*
X214630000Y-81280000D03*
X214630000Y-78740000D03*
X214630000Y-76200000D03*
D15*
X217170000Y-76200000D03*
D16*
X217170000Y-78740000D03*
X217170000Y-81280000D03*
X217170000Y-83820000D03*
X217170000Y-86360000D03*
X217170000Y-88900000D03*
X217170000Y-91440000D03*
X217170000Y-93980000D03*
D15*
X205740000Y-60960000D03*
D16*
X203200000Y-60960000D03*
X200660000Y-60960000D03*
X198120000Y-60960000D03*
X195580000Y-60960000D03*
X193040000Y-60960000D03*
X190500000Y-60960000D03*
X187960000Y-60960000D03*
D15*
X187960000Y-55880000D03*
D16*
X190500000Y-55880000D03*
X193040000Y-55880000D03*
X195580000Y-55880000D03*
X198120000Y-55880000D03*
X200660000Y-55880000D03*
X203200000Y-55880000D03*
X205740000Y-55880000D03*
D15*
X217170000Y-55880000D03*
D16*
X217170000Y-58420000D03*
X217170000Y-60960000D03*
X217170000Y-63500000D03*
X217170000Y-66040000D03*
X217170000Y-68580000D03*
X217170000Y-71120000D03*
X217170000Y-73660000D03*
D15*
X214630000Y-73660000D03*
D16*
X214630000Y-71120000D03*
X214630000Y-68580000D03*
X214630000Y-66040000D03*
X214630000Y-63500000D03*
X214630000Y-60960000D03*
X214630000Y-58420000D03*
X214630000Y-55880000D03*
D15*
X205740000Y-66040000D03*
D16*
X203200000Y-66040000D03*
X200660000Y-66040000D03*
X198120000Y-66040000D03*
X195580000Y-66040000D03*
X193040000Y-66040000D03*
X190500000Y-66040000D03*
X187960000Y-66040000D03*
D15*
X187960000Y-71120000D03*
D16*
X190500000Y-71120000D03*
X193040000Y-71120000D03*
X195580000Y-71120000D03*
X198120000Y-71120000D03*
X200660000Y-71120000D03*
X203200000Y-71120000D03*
X205740000Y-71120000D03*
D15*
X187960000Y-86360000D03*
D16*
X190500000Y-86360000D03*
X193040000Y-86360000D03*
X195580000Y-86360000D03*
X198120000Y-86360000D03*
X200660000Y-86360000D03*
X203200000Y-86360000D03*
X205740000Y-86360000D03*
D15*
X187960000Y-101600000D03*
D16*
X190500000Y-101600000D03*
X193040000Y-101600000D03*
X195580000Y-101600000D03*
X198120000Y-101600000D03*
X200660000Y-101600000D03*
X203200000Y-101600000D03*
X205740000Y-101600000D03*
D17*
X212090000Y-133350000D03*
X212090000Y-143510000D03*
X208280000Y-143510000D03*
X208280000Y-133350000D03*
D20*
X122500000Y-90000000D03*
X122500000Y-88000000D03*
X122500000Y-86000000D03*
X122500000Y-92000000D03*
X122500000Y-65000000D03*
X122500000Y-63000000D03*
X122500000Y-61000000D03*
X122500000Y-67000000D03*
X147500000Y-90000000D03*
X147500000Y-88000000D03*
X147500000Y-86000000D03*
X147500000Y-92000000D03*
D21*
X146519000Y-93672000D03*
X144487000Y-96212000D03*
D20*
X147500000Y-65000000D03*
X147500000Y-63000000D03*
X147500000Y-61000000D03*
X147500000Y-67000000D03*
D21*
X146519000Y-68672000D03*
X144487000Y-71212000D03*
X121519000Y-93672000D03*
X119487000Y-96212000D03*
X121519000Y-68672000D03*
X119487000Y-71212000D03*
D20*
X122500000Y-140000000D03*
X122500000Y-138000000D03*
X122500000Y-136000000D03*
X122500000Y-142000000D03*
X122500000Y-115000000D03*
X122500000Y-113000000D03*
X122500000Y-111000000D03*
X122500000Y-117000000D03*
X147500000Y-140000000D03*
X147500000Y-138000000D03*
X147500000Y-136000000D03*
X147500000Y-142000000D03*
D21*
X146519000Y-143672000D03*
X144487000Y-146212000D03*
D20*
X147500000Y-115000000D03*
X147500000Y-113000000D03*
X147500000Y-111000000D03*
X147500000Y-117000000D03*
D21*
X146519000Y-118672000D03*
X144487000Y-121212000D03*
X121519000Y-143672000D03*
X119487000Y-146212000D03*
X121519000Y-118672000D03*
X119487000Y-121212000D03*
D20*
X72500000Y-140000000D03*
X72500000Y-138000000D03*
X72500000Y-136000000D03*
X72500000Y-142000000D03*
X72500000Y-115000000D03*
X72500000Y-113000000D03*
X72500000Y-111000000D03*
X72500000Y-117000000D03*
X97500000Y-140000000D03*
X97500000Y-138000000D03*
X97500000Y-136000000D03*
X97500000Y-142000000D03*
D21*
X96519000Y-143672000D03*
X94487000Y-146212000D03*
D20*
X97500000Y-115000000D03*
X97500000Y-113000000D03*
X97500000Y-111000000D03*
X97500000Y-117000000D03*
D21*
X96519000Y-118672000D03*
X94487000Y-121212000D03*
X71519000Y-143672000D03*
X69487000Y-146212000D03*
X71519000Y-118672000D03*
X69487000Y-121212000D03*
D20*
X72500000Y-90000000D03*
X72500000Y-88000000D03*
X72500000Y-86000000D03*
X72500000Y-92000000D03*
X72500000Y-65000000D03*
X72500000Y-63000000D03*
X72500000Y-61000000D03*
X72500000Y-67000000D03*
X97500000Y-90000000D03*
X97500000Y-88000000D03*
X97500000Y-86000000D03*
X97500000Y-92000000D03*
D21*
X96519000Y-93672000D03*
X94487000Y-96212000D03*
D20*
X97500000Y-65000000D03*
X97500000Y-63000000D03*
X97500000Y-61000000D03*
X97500000Y-67000000D03*
D21*
X96519000Y-68672000D03*
X94487000Y-71212000D03*
X71519000Y-93672000D03*
X69487000Y-96212000D03*
X71519000Y-68672000D03*
X69487000Y-71212000D03*
D22*
X180340000Y-119380000D03*
X180340000Y-121920000D03*
X180340000Y-124460000D03*
X180340000Y-127000000D03*
X180340000Y-129540000D03*
X180340000Y-132080000D03*
X180340000Y-134620000D03*
X180340000Y-137160000D03*
X180340000Y-139700000D03*
X180340000Y-142240000D03*
X180340000Y-144780000D03*
X180340000Y-147320000D03*
X165100000Y-147320000D03*
X165100000Y-144780000D03*
X165100000Y-142240000D03*
X165100000Y-139700000D03*
X165100000Y-137160000D03*
X165100000Y-134620000D03*
X165100000Y-132080000D03*
X165100000Y-129540000D03*
X165100000Y-127000000D03*
X165100000Y-124460000D03*
X165100000Y-121920000D03*
X165100000Y-119380000D03*
X180340000Y-55880000D03*
X180340000Y-58420000D03*
X180340000Y-60960000D03*
X180340000Y-63500000D03*
X180340000Y-66040000D03*
X180340000Y-68580000D03*
X180340000Y-71120000D03*
X180340000Y-73660000D03*
X180340000Y-76200000D03*
X180340000Y-78740000D03*
X180340000Y-81280000D03*
X180340000Y-83820000D03*
X165100000Y-83820000D03*
X165100000Y-81280000D03*
X165100000Y-78740000D03*
X165100000Y-76200000D03*
X165100000Y-73660000D03*
X165100000Y-71120000D03*
X165100000Y-68580000D03*
X165100000Y-66040000D03*
X165100000Y-63500000D03*
X165100000Y-60960000D03*
X165100000Y-58420000D03*
X165100000Y-55880000D03*
D15*
X219710000Y-68580000D03*
D16*
X219710000Y-73660000D03*
X219710000Y-86360000D03*
X219710000Y-88900000D03*
X219710000Y-91440000D03*
X219710000Y-93980000D03*
X219710000Y-96520000D03*
X219710000Y-99060000D03*
D12*
X219710000Y-60960000D03*
X219710000Y-63500000D03*
X219710000Y-66040000D03*
X219710000Y-71120000D03*
X219710000Y-76200000D03*
X219710000Y-78740000D03*
X219710000Y-81280000D03*
X219710000Y-83820000D03*
D23*
X204500000Y-141500000D03*
X204500000Y-139000000D03*
X204500000Y-136500000D03*
D24*
X190000000Y-138000000D03*
X190000000Y-140000000D03*
D25*
X197000000Y-144550000D03*
X197000000Y-133450000D03*
D24*
X190000000Y-136000000D03*
X190000000Y-142000000D03*
D26*
X224000000Y-149000000D03*
X224000000Y-54000000D03*
D15*
X187960000Y-93980000D03*
D16*
X190500000Y-93980000D03*
X193040000Y-93980000D03*
X195580000Y-93980000D03*
X198120000Y-93980000D03*
X200660000Y-93980000D03*
X203200000Y-93980000D03*
X205740000Y-93980000D03*
M02*
