M48
INCH,TZ
T1C0.020
T2C0.020
T3C0.024
T4C0.030
T5C0.032
T6C0.039
T7C0.039
T8C0.040
T9C0.043
T10C0.050
T11C0.083
%
G90
G05
T1
X41754Y-27098
X41754Y-34923
X41830Y-54421
X43015Y-45555
X45087Y-53273
X48633Y-41147
X48719Y-38795
X48835Y-41700
X51158Y-52154
X51242Y-26545
X51446Y-34593
X52510Y-50708
X54644Y-34588
X54744Y-26549
X56313Y-50362
X56768Y-41147
X56826Y-38338
X56959Y-41908
X59098Y-51007
X61292Y-24682
X63224Y-29366
X64200Y-29371
X66014Y-24603
T2
X27357Y-28036
X27357Y-37879
X27357Y-47721
X27357Y-57564
X28157Y-27036
X28157Y-36879
X28157Y-46721
X28157Y-56564
X37200Y-28036
X37200Y-37879
X37200Y-47721
X37200Y-57564
X38000Y-27036
X38000Y-36879
X38000Y-46721
X38000Y-56564
X47042Y-28036
X47042Y-37879
X47042Y-47721
X47042Y-57564
X47842Y-27036
X47842Y-36879
X47842Y-46721
X47842Y-56564
X56885Y-28036
X56885Y-37879
X56885Y-47721
X56885Y-57564
X57685Y-27036
X57685Y-36879
X57685Y-46721
X57685Y-56564
T3
X79950Y-44650
X80950Y-44650
X84050Y-44650
X85050Y-44650
T4
X76500Y-43500
X76500Y-49500
X77500Y-43500
X77500Y-49500
X78500Y-43500
X78500Y-49500
X79500Y-43500
X79500Y-49500
X80500Y-43500
X80500Y-49500
X81500Y-43500
X81500Y-49500
X82500Y-43500
X82500Y-49500
X83500Y-43500
X83500Y-49500
X84500Y-43500
X84500Y-49500
X85500Y-43500
X85500Y-49500
X86500Y-24000
X86500Y-25000
X86500Y-26000
X86500Y-28000
X86500Y-30000
X86500Y-31000
X86500Y-32000
X86500Y-33000
X86500Y-43500
X86500Y-49500
X87500Y-24000
X87500Y-25000
X87500Y-26000
X87500Y-28000
X87500Y-30000
X87500Y-31000
X87500Y-32000
X87500Y-33000
X87500Y-43500
X87500Y-49500
T5
X65000Y-22000
X65000Y-23000
X65000Y-24000
X65000Y-25000
X65000Y-26000
X65000Y-27000
X65000Y-28000
X65000Y-29000
X65000Y-30000
X65000Y-31000
X65000Y-32000
X65000Y-33000
X65000Y-47000
X65000Y-48000
X65000Y-49000
X65000Y-50000
X65000Y-51000
X65000Y-52000
X65000Y-53000
X65000Y-54000
X65000Y-55000
X65000Y-56000
X65000Y-57000
X65000Y-58000
X71000Y-22000
X71000Y-23000
X71000Y-24000
X71000Y-25000
X71000Y-26000
X71000Y-27000
X71000Y-28000
X71000Y-29000
X71000Y-30000
X71000Y-31000
X71000Y-32000
X71000Y-33000
X71000Y-47000
X71000Y-48000
X71000Y-49000
X71000Y-50000
X71000Y-51000
X71000Y-52000
X71000Y-53000
X71000Y-54000
X71000Y-55000
X71000Y-56000
X71000Y-57000
X71000Y-58000
T6
X28543Y-24016
X28543Y-24803
X28543Y-25591
X28543Y-26378
X28543Y-33858
X28543Y-34646
X28543Y-35433
X28543Y-36220
X28543Y-43701
X28543Y-44488
X28543Y-45276
X28543Y-46063
X28543Y-53543
X28543Y-54331
X28543Y-55118
X28543Y-55906
X38386Y-24016
X38386Y-24803
X38386Y-25591
X38386Y-26378
X38386Y-33858
X38386Y-34646
X38386Y-35433
X38386Y-36220
X38386Y-43701
X38386Y-44488
X38386Y-45276
X38386Y-46063
X38386Y-53543
X38386Y-54331
X38386Y-55118
X38386Y-55906
X48228Y-24016
X48228Y-24803
X48228Y-25591
X48228Y-26378
X48228Y-33858
X48228Y-34646
X48228Y-35433
X48228Y-36220
X48228Y-43701
X48228Y-44488
X48228Y-45276
X48228Y-46063
X48228Y-53543
X48228Y-54331
X48228Y-55118
X48228Y-55906
X58071Y-24016
X58071Y-24803
X58071Y-25591
X58071Y-26378
X58071Y-33858
X58071Y-34646
X58071Y-35433
X58071Y-36220
X58071Y-43701
X58071Y-44488
X58071Y-45276
X58071Y-46063
X58071Y-53543
X58071Y-54331
X58071Y-55118
X58071Y-55906
T7
X27362Y-21457
X27559Y-31299
X27561Y-48819
X27757Y-58661
X37400Y-31299
X37402Y-21457
X37403Y-48819
X37598Y-58661
X47243Y-31299
X47244Y-21457
X47245Y-48819
X47442Y-58661
X62992Y-25196
X62992Y-35235
X62992Y-44882
X62992Y-54920
X82000Y-52500
X82000Y-56500
X83500Y-52500
X83500Y-56500
T8
X74000Y-22000
X74000Y-24000
X74000Y-26000
X74000Y-28000
X74000Y-30000
X74000Y-32000
X74000Y-34000
X74000Y-37000
X74000Y-40000
X75000Y-22000
X75000Y-24000
X75000Y-26000
X75000Y-28000
X75000Y-30000
X75000Y-32000
X75000Y-34000
X75000Y-37000
X75000Y-40000
X76000Y-22000
X76000Y-24000
X76000Y-26000
X76000Y-28000
X76000Y-30000
X76000Y-32000
X76000Y-34000
X76000Y-37000
X76000Y-40000
X77000Y-22000
X77000Y-24000
X77000Y-26000
X77000Y-28000
X77000Y-30000
X77000Y-32000
X77000Y-34000
X77000Y-37000
X77000Y-40000
X78000Y-22000
X78000Y-24000
X78000Y-26000
X78000Y-28000
X78000Y-30000
X78000Y-32000
X78000Y-34000
X78000Y-37000
X78000Y-40000
X79000Y-22000
X79000Y-24000
X79000Y-26000
X79000Y-28000
X79000Y-30000
X79000Y-32000
X79000Y-34000
X79000Y-37000
X79000Y-40000
X80000Y-22000
X80000Y-24000
X80000Y-26000
X80000Y-28000
X80000Y-30000
X80000Y-32000
X80000Y-34000
X80000Y-37000
X80000Y-40000
X81000Y-22000
X81000Y-24000
X81000Y-26000
X81000Y-28000
X81000Y-30000
X81000Y-32000
X81000Y-34000
X81000Y-37000
X81000Y-40000
X82500Y-22000
X82500Y-23000
X82500Y-24000
X82500Y-25000
X82500Y-26000
X82500Y-27000
X82500Y-28000
X82500Y-29000
X82500Y-30000
X82500Y-31000
X82500Y-32000
X82500Y-33000
X82500Y-34000
X82500Y-35000
X82500Y-36000
X82500Y-37000
X83500Y-22000
X83500Y-23000
X83500Y-24000
X83500Y-25000
X83500Y-26000
X83500Y-27000
X83500Y-28000
X83500Y-29000
X83500Y-30000
X83500Y-31000
X83500Y-32000
X83500Y-33000
X83500Y-34000
X83500Y-35000
X83500Y-36000
X83500Y-37000
X84500Y-22000
X84500Y-23000
X84500Y-24000
X84500Y-25000
X84500Y-26000
X84500Y-27000
X84500Y-28000
X84500Y-29000
X84500Y-30000
X84500Y-31000
X84500Y-32000
X84500Y-33000
X84500Y-34000
X84500Y-35000
X84500Y-36000
X84500Y-37000
X85500Y-22000
X85500Y-23000
X85500Y-24000
X85500Y-25000
X85500Y-26000
X85500Y-27000
X85500Y-28000
X85500Y-29000
X85500Y-30000
X85500Y-31000
X85500Y-32000
X85500Y-33000
X85500Y-34000
X85500Y-35000
X85500Y-36000
X85500Y-37000
X86500Y-27000
X86500Y-29000
X86500Y-34000
X86500Y-35000
X86500Y-36000
X86500Y-37000
X86500Y-38000
X86500Y-39000
X87500Y-27000
X87500Y-29000
X87500Y-34000
X87500Y-35000
X87500Y-36000
X87500Y-37000
X87500Y-38000
X87500Y-39000
T9
X67020Y-23925
X67020Y-26484
X67020Y-33768
X67020Y-36327
X67020Y-43610
X67020Y-46169
X67020Y-53453
X67020Y-56012
X68792Y-23925
X68792Y-26484
X68792Y-33768
X68792Y-36327
X68792Y-43610
X68792Y-46169
X68792Y-53453
X68792Y-56012
X74803Y-53543
X74803Y-54331
X74803Y-55118
X74803Y-55906
X80512Y-53740
X80512Y-54724
X80512Y-55709
T10
X27362Y-25457
X27559Y-35299
X27561Y-44819
X27757Y-54661
X37400Y-35299
X37402Y-25457
X37403Y-44819
X37598Y-54661
X47243Y-35299
X47244Y-25457
X47245Y-44819
X47442Y-54661
X58992Y-25196
X58992Y-35235
X58992Y-44882
X58992Y-54920
T11
X77559Y-52539
X77559Y-56909
T7
X85559Y-54894G85X85559Y-54107
G05
X87134Y-52650G85X86347Y-52650
G05
X87921Y-54894G85X87921Y-54107
G05
T0
M30
