G04 #@! TF.FileFunction,Copper,L2,Bot,Signal*
%FSLAX46Y46*%
G04 Gerber Fmt 4.6, Leading zero omitted, Abs format (unit mm)*
G04 Created by KiCad (PCBNEW 4.0.4-stable) date 11/27/16 15:51:27*
%MOMM*%
%LPD*%
G01*
G04 APERTURE LIST*
%ADD10C,0.100000*%
%ADD11C,1.524000*%
%ADD12C,1.500000*%
%ADD13R,3.500120X3.500120*%
%ADD14R,1.879600X1.879600*%
%ADD15C,1.879600*%
%ADD16C,1.998980*%
%ADD17R,1.998980X1.998980*%
%ADD18C,2.000000*%
%ADD19C,1.508000*%
%ADD20C,1.016000*%
%ADD21O,2.641600X1.320800*%
%ADD22C,1.800000*%
%ADD23C,1.778000*%
%ADD24C,3.116000*%
%ADD25C,0.749400*%
%ADD26C,0.203200*%
G04 APERTURE END LIST*
D10*
D11*
X194310000Y-125730000D03*
X196850000Y-125730000D03*
X199390000Y-125730000D03*
X201930000Y-125730000D03*
X204470000Y-125730000D03*
X207010000Y-125730000D03*
X209550000Y-125730000D03*
X212090000Y-125730000D03*
X214630000Y-125730000D03*
X217170000Y-125730000D03*
X219710000Y-125730000D03*
X222250000Y-125730000D03*
X194310000Y-110490000D03*
X196850000Y-110490000D03*
X199390000Y-110490000D03*
X201930000Y-110490000D03*
X204470000Y-110490000D03*
X207010000Y-110490000D03*
X209550000Y-110490000D03*
X212090000Y-110490000D03*
X214630000Y-110490000D03*
X217170000Y-110490000D03*
X219710000Y-110490000D03*
X222250000Y-110490000D03*
D12*
X203073000Y-113411000D03*
X205613000Y-113411000D03*
X213487000Y-113411000D03*
X216027000Y-113411000D03*
D13*
X217319860Y-138430000D03*
X223319340Y-138430000D03*
X220319600Y-133731000D03*
D14*
X222250000Y-68580000D03*
D15*
X222250000Y-73660000D03*
X222250000Y-86360000D03*
X222250000Y-88900000D03*
X222250000Y-91440000D03*
X222250000Y-93980000D03*
X222250000Y-96520000D03*
X222250000Y-99060000D03*
D11*
X222250000Y-60960000D03*
X222250000Y-63500000D03*
X222250000Y-66040000D03*
X222250000Y-71120000D03*
X222250000Y-76200000D03*
X222250000Y-78740000D03*
X222250000Y-81280000D03*
X222250000Y-83820000D03*
D16*
X70502540Y-138840000D03*
D17*
X70502540Y-149000000D03*
D16*
X70005040Y-113840000D03*
D17*
X70005040Y-124000000D03*
D16*
X69999960Y-89660000D03*
D17*
X69999960Y-79500000D03*
D16*
X69499960Y-64660000D03*
D17*
X69499960Y-54500000D03*
D16*
X95500040Y-138840000D03*
D17*
X95500040Y-149000000D03*
D16*
X95002540Y-113840000D03*
D17*
X95002540Y-124000000D03*
D16*
X94994960Y-89660000D03*
D17*
X94994960Y-79500000D03*
D16*
X94999960Y-64660000D03*
D17*
X94999960Y-54500000D03*
D16*
X120502540Y-138840000D03*
D17*
X120502540Y-149000000D03*
D16*
X120002540Y-113840000D03*
D17*
X120002540Y-124000000D03*
D16*
X119997460Y-89660000D03*
D17*
X119997460Y-79500000D03*
D16*
X120000460Y-64660000D03*
D17*
X120000460Y-54500000D03*
D16*
X149840000Y-139497460D03*
D17*
X160000000Y-139497460D03*
D16*
X149840000Y-114000460D03*
D17*
X160000000Y-114000460D03*
D16*
X149840000Y-89497460D03*
D17*
X160000000Y-89497460D03*
D16*
X149840000Y-63997460D03*
D17*
X160000000Y-63997460D03*
D14*
X212090000Y-55880000D03*
D15*
X212090000Y-58420000D03*
X212090000Y-60960000D03*
X212090000Y-63500000D03*
X212090000Y-66040000D03*
X212090000Y-68580000D03*
X212090000Y-71120000D03*
X212090000Y-73660000D03*
D14*
X209550000Y-73660000D03*
D15*
X209550000Y-71120000D03*
X209550000Y-68580000D03*
X209550000Y-66040000D03*
X209550000Y-63500000D03*
X209550000Y-60960000D03*
X209550000Y-58420000D03*
X209550000Y-55880000D03*
D18*
X174732000Y-142270000D03*
X170232000Y-142270000D03*
X174732000Y-135770000D03*
X170232000Y-135770000D03*
X174732000Y-117270000D03*
X170232000Y-117270000D03*
X174732000Y-110770000D03*
X170232000Y-110770000D03*
X174732000Y-92270000D03*
X170232000Y-92270000D03*
X174732000Y-85770000D03*
X170232000Y-85770000D03*
X174732000Y-67270000D03*
X170232000Y-67270000D03*
X174732000Y-60770000D03*
X170232000Y-60770000D03*
D14*
X212090000Y-76200000D03*
D15*
X212090000Y-78740000D03*
X212090000Y-81280000D03*
X212090000Y-83820000D03*
X212090000Y-86360000D03*
X212090000Y-88900000D03*
X212090000Y-91440000D03*
X212090000Y-93980000D03*
D14*
X209550000Y-93980000D03*
D15*
X209550000Y-91440000D03*
X209550000Y-88900000D03*
X209550000Y-86360000D03*
X209550000Y-83820000D03*
X209550000Y-81280000D03*
X209550000Y-78740000D03*
X209550000Y-76200000D03*
D14*
X187960000Y-76200000D03*
D15*
X190500000Y-76200000D03*
X193040000Y-76200000D03*
X195580000Y-76200000D03*
X198120000Y-76200000D03*
X200660000Y-76200000D03*
X203200000Y-76200000D03*
X205740000Y-76200000D03*
D14*
X205740000Y-81280000D03*
D15*
X203200000Y-81280000D03*
X200660000Y-81280000D03*
X198120000Y-81280000D03*
X195580000Y-81280000D03*
X193040000Y-81280000D03*
X190500000Y-81280000D03*
X187960000Y-81280000D03*
D14*
X214630000Y-93980000D03*
D15*
X214630000Y-91440000D03*
X214630000Y-88900000D03*
X214630000Y-86360000D03*
X214630000Y-83820000D03*
X214630000Y-81280000D03*
X214630000Y-78740000D03*
X214630000Y-76200000D03*
D14*
X217170000Y-76200000D03*
D15*
X217170000Y-78740000D03*
X217170000Y-81280000D03*
X217170000Y-83820000D03*
X217170000Y-86360000D03*
X217170000Y-88900000D03*
X217170000Y-91440000D03*
X217170000Y-93980000D03*
D14*
X205740000Y-60960000D03*
D15*
X203200000Y-60960000D03*
X200660000Y-60960000D03*
X198120000Y-60960000D03*
X195580000Y-60960000D03*
X193040000Y-60960000D03*
X190500000Y-60960000D03*
X187960000Y-60960000D03*
D14*
X187960000Y-55880000D03*
D15*
X190500000Y-55880000D03*
X193040000Y-55880000D03*
X195580000Y-55880000D03*
X198120000Y-55880000D03*
X200660000Y-55880000D03*
X203200000Y-55880000D03*
X205740000Y-55880000D03*
D14*
X217170000Y-55880000D03*
D15*
X217170000Y-58420000D03*
X217170000Y-60960000D03*
X217170000Y-63500000D03*
X217170000Y-66040000D03*
X217170000Y-68580000D03*
X217170000Y-71120000D03*
X217170000Y-73660000D03*
D14*
X214630000Y-73660000D03*
D15*
X214630000Y-71120000D03*
X214630000Y-68580000D03*
X214630000Y-66040000D03*
X214630000Y-63500000D03*
X214630000Y-60960000D03*
X214630000Y-58420000D03*
X214630000Y-55880000D03*
D14*
X205740000Y-66040000D03*
D15*
X203200000Y-66040000D03*
X200660000Y-66040000D03*
X198120000Y-66040000D03*
X195580000Y-66040000D03*
X193040000Y-66040000D03*
X190500000Y-66040000D03*
X187960000Y-66040000D03*
D14*
X187960000Y-71120000D03*
D15*
X190500000Y-71120000D03*
X193040000Y-71120000D03*
X195580000Y-71120000D03*
X198120000Y-71120000D03*
X200660000Y-71120000D03*
X203200000Y-71120000D03*
X205740000Y-71120000D03*
D14*
X187960000Y-86360000D03*
D15*
X190500000Y-86360000D03*
X193040000Y-86360000D03*
X195580000Y-86360000D03*
X198120000Y-86360000D03*
X200660000Y-86360000D03*
X203200000Y-86360000D03*
X205740000Y-86360000D03*
D14*
X187960000Y-101600000D03*
D15*
X190500000Y-101600000D03*
X193040000Y-101600000D03*
X195580000Y-101600000D03*
X198120000Y-101600000D03*
X200660000Y-101600000D03*
X203200000Y-101600000D03*
X205740000Y-101600000D03*
D16*
X212090000Y-133350000D03*
X212090000Y-143510000D03*
X208280000Y-143510000D03*
X208280000Y-133350000D03*
D19*
X122500000Y-90000000D03*
X122500000Y-88000000D03*
X122500000Y-86000000D03*
X122500000Y-92000000D03*
X122500000Y-65000000D03*
X122500000Y-63000000D03*
X122500000Y-61000000D03*
X122500000Y-67000000D03*
X147500000Y-90000000D03*
X147500000Y-88000000D03*
X147500000Y-86000000D03*
X147500000Y-92000000D03*
D20*
X146519000Y-93672000D03*
X144487000Y-96212000D03*
D19*
X147500000Y-65000000D03*
X147500000Y-63000000D03*
X147500000Y-61000000D03*
X147500000Y-67000000D03*
D20*
X146519000Y-68672000D03*
X144487000Y-71212000D03*
X121519000Y-93672000D03*
X119487000Y-96212000D03*
X121519000Y-68672000D03*
X119487000Y-71212000D03*
D19*
X122500000Y-140000000D03*
X122500000Y-138000000D03*
X122500000Y-136000000D03*
X122500000Y-142000000D03*
X122500000Y-115000000D03*
X122500000Y-113000000D03*
X122500000Y-111000000D03*
X122500000Y-117000000D03*
X147500000Y-140000000D03*
X147500000Y-138000000D03*
X147500000Y-136000000D03*
X147500000Y-142000000D03*
D20*
X146519000Y-143672000D03*
X144487000Y-146212000D03*
D19*
X147500000Y-115000000D03*
X147500000Y-113000000D03*
X147500000Y-111000000D03*
X147500000Y-117000000D03*
D20*
X146519000Y-118672000D03*
X144487000Y-121212000D03*
X121519000Y-143672000D03*
X119487000Y-146212000D03*
X121519000Y-118672000D03*
X119487000Y-121212000D03*
D19*
X72500000Y-140000000D03*
X72500000Y-138000000D03*
X72500000Y-136000000D03*
X72500000Y-142000000D03*
X72500000Y-115000000D03*
X72500000Y-113000000D03*
X72500000Y-111000000D03*
X72500000Y-117000000D03*
X97500000Y-140000000D03*
X97500000Y-138000000D03*
X97500000Y-136000000D03*
X97500000Y-142000000D03*
D20*
X96519000Y-143672000D03*
X94487000Y-146212000D03*
D19*
X97500000Y-115000000D03*
X97500000Y-113000000D03*
X97500000Y-111000000D03*
X97500000Y-117000000D03*
D20*
X96519000Y-118672000D03*
X94487000Y-121212000D03*
X71519000Y-143672000D03*
X69487000Y-146212000D03*
X71519000Y-118672000D03*
X69487000Y-121212000D03*
D19*
X72500000Y-90000000D03*
X72500000Y-88000000D03*
X72500000Y-86000000D03*
X72500000Y-92000000D03*
X72500000Y-65000000D03*
X72500000Y-63000000D03*
X72500000Y-61000000D03*
X72500000Y-67000000D03*
X97500000Y-90000000D03*
X97500000Y-88000000D03*
X97500000Y-86000000D03*
X97500000Y-92000000D03*
D20*
X96519000Y-93672000D03*
X94487000Y-96212000D03*
D19*
X97500000Y-65000000D03*
X97500000Y-63000000D03*
X97500000Y-61000000D03*
X97500000Y-67000000D03*
D20*
X96519000Y-68672000D03*
X94487000Y-71212000D03*
X71519000Y-93672000D03*
X69487000Y-96212000D03*
X71519000Y-68672000D03*
X69487000Y-71212000D03*
D21*
X180340000Y-119380000D03*
X180340000Y-121920000D03*
X180340000Y-124460000D03*
X180340000Y-127000000D03*
X180340000Y-129540000D03*
X180340000Y-132080000D03*
X180340000Y-134620000D03*
X180340000Y-137160000D03*
X180340000Y-139700000D03*
X180340000Y-142240000D03*
X180340000Y-144780000D03*
X180340000Y-147320000D03*
X165100000Y-147320000D03*
X165100000Y-144780000D03*
X165100000Y-142240000D03*
X165100000Y-139700000D03*
X165100000Y-137160000D03*
X165100000Y-134620000D03*
X165100000Y-132080000D03*
X165100000Y-129540000D03*
X165100000Y-127000000D03*
X165100000Y-124460000D03*
X165100000Y-121920000D03*
X165100000Y-119380000D03*
X180340000Y-55880000D03*
X180340000Y-58420000D03*
X180340000Y-60960000D03*
X180340000Y-63500000D03*
X180340000Y-66040000D03*
X180340000Y-68580000D03*
X180340000Y-71120000D03*
X180340000Y-73660000D03*
X180340000Y-76200000D03*
X180340000Y-78740000D03*
X180340000Y-81280000D03*
X180340000Y-83820000D03*
X165100000Y-83820000D03*
X165100000Y-81280000D03*
X165100000Y-78740000D03*
X165100000Y-76200000D03*
X165100000Y-73660000D03*
X165100000Y-71120000D03*
X165100000Y-68580000D03*
X165100000Y-66040000D03*
X165100000Y-63500000D03*
X165100000Y-60960000D03*
X165100000Y-58420000D03*
X165100000Y-55880000D03*
D14*
X219710000Y-68580000D03*
D15*
X219710000Y-73660000D03*
X219710000Y-86360000D03*
X219710000Y-88900000D03*
X219710000Y-91440000D03*
X219710000Y-93980000D03*
X219710000Y-96520000D03*
X219710000Y-99060000D03*
D11*
X219710000Y-60960000D03*
X219710000Y-63500000D03*
X219710000Y-66040000D03*
X219710000Y-71120000D03*
X219710000Y-76200000D03*
X219710000Y-78740000D03*
X219710000Y-81280000D03*
X219710000Y-83820000D03*
D22*
X204500000Y-141500000D03*
X204500000Y-139000000D03*
X204500000Y-136500000D03*
D23*
X190000000Y-138000000D03*
X190000000Y-140000000D03*
D24*
X197000000Y-144550000D03*
X197000000Y-133450000D03*
D23*
X190000000Y-136000000D03*
X190000000Y-142000000D03*
D14*
X187960000Y-93980000D03*
D15*
X190500000Y-93980000D03*
X193040000Y-93980000D03*
X195580000Y-93980000D03*
X198120000Y-93980000D03*
X200660000Y-93980000D03*
X203200000Y-93980000D03*
X205740000Y-93980000D03*
D25*
X114520300Y-135313800D03*
X167676000Y-62492500D03*
X150109900Y-129556600D03*
X143035100Y-127919300D03*
X139049300Y-67435700D03*
X138796900Y-87852700D03*
X124039700Y-105918000D03*
X144674800Y-106445400D03*
X123527100Y-104513600D03*
X144191000Y-104513600D03*
X163067100Y-74602200D03*
X160589600Y-74590800D03*
X144338900Y-97378900D03*
X123747200Y-98540400D03*
X155682100Y-62692900D03*
X106247400Y-138228800D03*
X109257900Y-115710200D03*
X106055900Y-88705400D03*
X106055900Y-68828100D03*
X133376600Y-128797100D03*
X129940200Y-132471300D03*
X130153900Y-67425400D03*
X130673200Y-87865100D03*
D26*
X70502500Y-142655500D02*
X70502500Y-138840000D01*
X71519000Y-143672000D02*
X70502500Y-142655500D01*
X68195400Y-57109200D02*
X69500000Y-55804600D01*
X68195400Y-76390800D02*
X68195400Y-57109200D01*
X70000000Y-78195400D02*
X68195400Y-76390800D01*
X70000000Y-79500000D02*
X70000000Y-78195400D01*
X69500000Y-54500000D02*
X69500000Y-55804600D01*
X68212900Y-82591700D02*
X70000000Y-80804600D01*
X68212900Y-121147900D02*
X68212900Y-82591700D01*
X69760400Y-122695400D02*
X68212900Y-121147900D01*
X70005000Y-122695400D02*
X69760400Y-122695400D01*
X70005000Y-124000000D02*
X70005000Y-122695400D01*
X70000000Y-79500000D02*
X70000000Y-80804600D01*
X68616800Y-126692800D02*
X70005000Y-125304600D01*
X68616800Y-146543500D02*
X68616800Y-126692800D01*
X69768700Y-147695400D02*
X68616800Y-146543500D01*
X70502500Y-147695400D02*
X69768700Y-147695400D01*
X70502500Y-149000000D02*
X70502500Y-147695400D01*
X70005000Y-124000000D02*
X70005000Y-125304600D01*
X71172700Y-147025200D02*
X70502500Y-147695400D01*
X150769500Y-147025200D02*
X71172700Y-147025200D01*
X154208700Y-143586000D02*
X150769500Y-147025200D01*
X175306600Y-143586000D02*
X154208700Y-143586000D01*
X178714100Y-140178500D02*
X175306600Y-143586000D01*
X178714100Y-139700000D02*
X178714100Y-140178500D01*
X180340000Y-139700000D02*
X178714100Y-139700000D01*
X70005000Y-117158000D02*
X70005000Y-113840000D01*
X71519000Y-118672000D02*
X70005000Y-117158000D01*
X70000000Y-92153000D02*
X70000000Y-89660000D01*
X71519000Y-93672000D02*
X70000000Y-92153000D01*
X69500000Y-66653000D02*
X69500000Y-64660000D01*
X71519000Y-68672000D02*
X69500000Y-66653000D01*
X95500000Y-142653000D02*
X95500000Y-138840000D01*
X96519000Y-143672000D02*
X95500000Y-142653000D01*
X95002500Y-117155500D02*
X95002500Y-113840000D01*
X96519000Y-118672000D02*
X95002500Y-117155500D01*
X94995000Y-92148000D02*
X94995000Y-89660000D01*
X96519000Y-93672000D02*
X94995000Y-92148000D01*
X95000000Y-67153000D02*
X95000000Y-64660000D01*
X96519000Y-68672000D02*
X95000000Y-67153000D01*
X120502500Y-142655500D02*
X120502500Y-138840000D01*
X121519000Y-143672000D02*
X120502500Y-142655500D01*
X114520300Y-130786800D02*
X114520300Y-135313800D01*
X120002500Y-125304600D02*
X114520300Y-130786800D01*
X120002500Y-124000000D02*
X120002500Y-125304600D01*
X120002500Y-117155500D02*
X120002500Y-113840000D01*
X121519000Y-118672000D02*
X120002500Y-117155500D01*
X119997500Y-92150500D02*
X119997500Y-89660000D01*
X121519000Y-93672000D02*
X119997500Y-92150500D01*
X120000500Y-67153500D02*
X120000500Y-64660000D01*
X121519000Y-68672000D02*
X120000500Y-67153500D01*
X149840000Y-141158000D02*
X149840000Y-139497500D01*
X147326000Y-143672000D02*
X149840000Y-141158000D01*
X146519000Y-143672000D02*
X147326000Y-143672000D01*
X160000000Y-63997500D02*
X160000000Y-62692900D01*
X160000000Y-89497500D02*
X160000000Y-88192900D01*
X160000000Y-89497500D02*
X160000000Y-114000500D01*
X162735600Y-59957300D02*
X160000000Y-62692900D01*
X166134200Y-59957300D02*
X162735600Y-59957300D01*
X168365500Y-62188600D02*
X166134200Y-59957300D01*
X168365500Y-77500300D02*
X168365500Y-62188600D01*
X166160300Y-79705500D02*
X168365500Y-77500300D01*
X164569700Y-79705500D02*
X166160300Y-79705500D01*
X160000000Y-84275200D02*
X164569700Y-79705500D01*
X160000000Y-88192900D02*
X160000000Y-84275200D01*
X147330600Y-118672000D02*
X146519000Y-118672000D01*
X149840000Y-116162600D02*
X147330600Y-118672000D01*
X149840000Y-114000500D02*
X149840000Y-116162600D01*
X149840000Y-91158000D02*
X149840000Y-89497500D01*
X147326000Y-93672000D02*
X149840000Y-91158000D01*
X146519000Y-93672000D02*
X147326000Y-93672000D01*
X147381000Y-68672000D02*
X146519000Y-68672000D01*
X149840000Y-66213000D02*
X147381000Y-68672000D01*
X149840000Y-63997500D02*
X149840000Y-66213000D01*
X170232000Y-92270000D02*
X170232000Y-110770000D01*
X170232000Y-110770000D02*
X170232000Y-117270000D01*
X170232000Y-117270000D02*
X170232000Y-135770000D01*
X170232000Y-135770000D02*
X170232000Y-142270000D01*
X200660000Y-93980000D02*
X201930000Y-95250000D01*
X203200000Y-93980000D02*
X201930000Y-95250000D01*
X201930000Y-95250000D02*
X201930000Y-110490000D01*
X170232000Y-67270000D02*
X170232000Y-85770000D01*
X170232000Y-60770000D02*
X170232000Y-67270000D01*
X166725900Y-57263900D02*
X170232000Y-60770000D01*
X166725900Y-55880000D02*
X166725900Y-57263900D01*
X165100000Y-55880000D02*
X166725900Y-55880000D01*
X223911700Y-121528300D02*
X219710000Y-125730000D01*
X223911700Y-71253200D02*
X223911700Y-121528300D01*
X222483400Y-69824900D02*
X223911700Y-71253200D01*
X222250000Y-69824900D02*
X222483400Y-69824900D01*
X222250000Y-68580000D02*
X222250000Y-69824900D01*
X219710000Y-68580000D02*
X222250000Y-68580000D01*
X223496700Y-109243300D02*
X222250000Y-110490000D01*
X223496700Y-87606700D02*
X223496700Y-109243300D01*
X222250000Y-86360000D02*
X223496700Y-87606700D01*
X219710000Y-88900000D02*
X220980000Y-90170000D01*
X222250000Y-88900000D02*
X220980000Y-90170000D01*
X220980000Y-109220000D02*
X219710000Y-110490000D01*
X220980000Y-90170000D02*
X220980000Y-109220000D01*
X214630000Y-99060000D02*
X214630000Y-110490000D01*
X219710000Y-93980000D02*
X214630000Y-99060000D01*
X204550100Y-114473900D02*
X205613000Y-113411000D01*
X201856800Y-114473900D02*
X204550100Y-114473900D01*
X198120000Y-110737100D02*
X201856800Y-114473900D01*
X198120000Y-106680000D02*
X198120000Y-110737100D01*
X193040000Y-101600000D02*
X198120000Y-106680000D01*
X200660000Y-110998000D02*
X203073000Y-113411000D01*
X200660000Y-106680000D02*
X200660000Y-110998000D01*
X195580000Y-101600000D02*
X200660000Y-106680000D01*
X73310200Y-137189800D02*
X72500000Y-138000000D01*
X96689800Y-137189800D02*
X73310200Y-137189800D01*
X97500000Y-138000000D02*
X96689800Y-137189800D01*
X97976200Y-137523800D02*
X97500000Y-138000000D01*
X122023800Y-137523800D02*
X97976200Y-137523800D01*
X122500000Y-138000000D02*
X122023800Y-137523800D01*
X141291500Y-131791500D02*
X147500000Y-138000000D01*
X128708500Y-131791500D02*
X141291500Y-131791500D01*
X122500000Y-138000000D02*
X128708500Y-131791500D01*
X148880600Y-136619400D02*
X147500000Y-138000000D01*
X148880600Y-128854400D02*
X148880600Y-136619400D01*
X154962900Y-122772100D02*
X148880600Y-128854400D01*
X154962900Y-84112200D02*
X154962900Y-122772100D01*
X163386400Y-75688700D02*
X154962900Y-84112200D01*
X163517300Y-75688700D02*
X163386400Y-75688700D01*
X164081900Y-75124100D02*
X163517300Y-75688700D01*
X166268900Y-75124100D02*
X164081900Y-75124100D01*
X167958800Y-73434200D02*
X166268900Y-75124100D01*
X167958800Y-62775300D02*
X167958800Y-73434200D01*
X167676000Y-62492500D02*
X167958800Y-62775300D01*
X72500000Y-136000000D02*
X97500000Y-136000000D01*
X122500000Y-136000000D02*
X97500000Y-136000000D01*
X127144700Y-131355300D02*
X145595600Y-131355300D01*
X122500000Y-136000000D02*
X127144700Y-131355300D01*
X147500000Y-133259700D02*
X147500000Y-136000000D01*
X145595600Y-131355300D02*
X147500000Y-133259700D01*
X165100000Y-66040000D02*
X163474100Y-66040000D01*
X154556200Y-122394700D02*
X145595600Y-131355300D01*
X154556200Y-83943600D02*
X154556200Y-122394700D01*
X163217800Y-75282000D02*
X154556200Y-83943600D01*
X163348700Y-75282000D02*
X163217800Y-75282000D01*
X164005100Y-74625600D02*
X163348700Y-75282000D01*
X166192200Y-74625600D02*
X164005100Y-74625600D01*
X167552100Y-73265700D02*
X166192200Y-74625600D01*
X167552100Y-63729100D02*
X167552100Y-73265700D01*
X166329800Y-62506800D02*
X167552100Y-63729100D01*
X163997700Y-62506800D02*
X166329800Y-62506800D01*
X163474100Y-63030400D02*
X163997700Y-62506800D01*
X163474100Y-66040000D02*
X163474100Y-63030400D01*
X165100000Y-76200000D02*
X163474100Y-76200000D01*
X96873500Y-144490700D02*
X97500000Y-143864200D01*
X74990700Y-144490700D02*
X96873500Y-144490700D01*
X72500000Y-142000000D02*
X74990700Y-144490700D01*
X97500000Y-143864200D02*
X97500000Y-142000000D01*
X121925200Y-144485200D02*
X122500000Y-143910400D01*
X98121000Y-144485200D02*
X121925200Y-144485200D01*
X97500000Y-143864200D02*
X98121000Y-144485200D01*
X122500000Y-143910400D02*
X122500000Y-142000000D01*
X145687000Y-143910400D02*
X122500000Y-143910400D01*
X147040900Y-142000000D02*
X147500000Y-142000000D01*
X145687000Y-143353900D02*
X147040900Y-142000000D01*
X145687000Y-143910400D02*
X145687000Y-143353900D01*
X145687000Y-144028700D02*
X145687000Y-143910400D01*
X146143500Y-144485200D02*
X145687000Y-144028700D01*
X147089700Y-144485200D02*
X146143500Y-144485200D01*
X155694800Y-135880100D02*
X147089700Y-144485200D01*
X155694800Y-83979300D02*
X155694800Y-135880100D01*
X163474100Y-76200000D02*
X155694800Y-83979300D01*
X180340000Y-68580000D02*
X178714100Y-68580000D01*
X94487000Y-146212000D02*
X69487000Y-146212000D01*
X144487000Y-146212000D02*
X119487000Y-146212000D01*
X119487000Y-146212000D02*
X94487000Y-146212000D01*
X150313700Y-146212000D02*
X144487000Y-146212000D01*
X155555700Y-140970000D02*
X150313700Y-146212000D01*
X166046000Y-140970000D02*
X155555700Y-140970000D01*
X168359400Y-138656600D02*
X166046000Y-140970000D01*
X168359400Y-91996600D02*
X168359400Y-138656600D01*
X173307900Y-87048100D02*
X168359400Y-91996600D01*
X173307900Y-73986200D02*
X173307900Y-87048100D01*
X178714100Y-68580000D02*
X173307900Y-73986200D01*
X150109900Y-137269200D02*
X150109900Y-129556600D01*
X147500000Y-139879100D02*
X150109900Y-137269200D01*
X147500000Y-140000000D02*
X147500000Y-139879100D01*
X143035100Y-119464900D02*
X147500000Y-115000000D01*
X143035100Y-127919300D02*
X143035100Y-119464900D01*
X141485000Y-65000000D02*
X139049300Y-67435700D01*
X147500000Y-65000000D02*
X141485000Y-65000000D01*
X144222100Y-93277900D02*
X138796900Y-87852700D01*
X143472300Y-94027700D02*
X144222100Y-93277900D01*
X143472300Y-110972300D02*
X143472300Y-94027700D01*
X147500000Y-115000000D02*
X143472300Y-110972300D01*
X144222100Y-93277900D02*
X147500000Y-90000000D01*
X71335600Y-87871400D02*
X70853500Y-88353500D01*
X71335600Y-78209100D02*
X71335600Y-87871400D01*
X70663000Y-77536500D02*
X71335600Y-78209100D01*
X70663000Y-72057000D02*
X70663000Y-77536500D01*
X72380100Y-70339900D02*
X70663000Y-72057000D01*
X72380100Y-68380400D02*
X72380100Y-70339900D01*
X71407500Y-67407800D02*
X72380100Y-68380400D01*
X71407500Y-66092500D02*
X71407500Y-67407800D01*
X72500000Y-65000000D02*
X71407500Y-66092500D01*
X70853500Y-88353500D02*
X72500000Y-90000000D01*
X165100000Y-121920000D02*
X163474100Y-121920000D01*
X71440800Y-113940800D02*
X72500000Y-115000000D01*
X71440800Y-100377400D02*
X71440800Y-113940800D01*
X68670700Y-97607300D02*
X71440800Y-100377400D01*
X68670700Y-89144400D02*
X68670700Y-97607300D01*
X69461600Y-88353500D02*
X68670700Y-89144400D01*
X70853500Y-88353500D02*
X69461600Y-88353500D01*
X71158600Y-144531400D02*
X72393200Y-144531400D01*
X69183000Y-142555800D02*
X71158600Y-144531400D01*
X69183000Y-137297400D02*
X69183000Y-142555800D01*
X74306400Y-132174000D02*
X69183000Y-137297400D01*
X74306400Y-120306700D02*
X74306400Y-132174000D01*
X71430800Y-117431100D02*
X74306400Y-120306700D01*
X71430800Y-116069200D02*
X71430800Y-117431100D01*
X72500000Y-115000000D02*
X71430800Y-116069200D01*
X72769400Y-144907600D02*
X72393200Y-144531400D01*
X147315600Y-144907600D02*
X72769400Y-144907600D01*
X163474100Y-128749100D02*
X147315600Y-144907600D01*
X163474100Y-121920000D02*
X163474100Y-128749100D01*
X71414400Y-141085600D02*
X72500000Y-140000000D01*
X71414400Y-142414800D02*
X71414400Y-141085600D01*
X72393200Y-143393600D02*
X71414400Y-142414800D01*
X72393200Y-144531400D02*
X72393200Y-143393600D01*
X97976200Y-112523800D02*
X97500000Y-113000000D01*
X122023800Y-112523800D02*
X97976200Y-112523800D01*
X122500000Y-113000000D02*
X122023800Y-112523800D01*
X73310200Y-112189800D02*
X72500000Y-113000000D01*
X96689800Y-112189800D02*
X73310200Y-112189800D01*
X97500000Y-113000000D02*
X96689800Y-112189800D01*
X124039700Y-111460300D02*
X122500000Y-113000000D01*
X124039700Y-105918000D02*
X124039700Y-111460300D01*
X144674800Y-110174800D02*
X147500000Y-113000000D01*
X144674800Y-106445400D02*
X144674800Y-110174800D01*
X97500000Y-111000000D02*
X72500000Y-111000000D01*
X122500000Y-111000000D02*
X97500000Y-111000000D01*
X122500000Y-105540700D02*
X123527100Y-104513600D01*
X122500000Y-111000000D02*
X122500000Y-105540700D01*
X147500000Y-107822600D02*
X144191000Y-104513600D01*
X147500000Y-111000000D02*
X147500000Y-107822600D01*
X165100000Y-63500000D02*
X166725900Y-63500000D01*
X167145300Y-63919400D02*
X166725900Y-63500000D01*
X167145300Y-71129300D02*
X167145300Y-63919400D01*
X165884600Y-72390000D02*
X167145300Y-71129300D01*
X163719600Y-72390000D02*
X165884600Y-72390000D01*
X161676100Y-74433500D02*
X163719600Y-72390000D01*
X161676100Y-75041000D02*
X161676100Y-74433500D01*
X153073100Y-83644000D02*
X161676100Y-75041000D01*
X153073100Y-95631500D02*
X153073100Y-83644000D01*
X144191000Y-104513600D02*
X153073100Y-95631500D01*
X165100000Y-73660000D02*
X163474100Y-73660000D01*
X145636700Y-118362200D02*
X145636700Y-119528400D01*
X146998900Y-117000000D02*
X145636700Y-118362200D01*
X147500000Y-117000000D02*
X146998900Y-117000000D01*
X122500000Y-118907200D02*
X122500000Y-117000000D01*
X121900700Y-119506500D02*
X122500000Y-118907200D01*
X98140700Y-119506500D02*
X121900700Y-119506500D01*
X98022900Y-119388700D02*
X98140700Y-119506500D01*
X97881800Y-119529800D02*
X98022900Y-119388700D01*
X75029800Y-119529800D02*
X97881800Y-119529800D01*
X72500000Y-117000000D02*
X75029800Y-119529800D01*
X98022900Y-117522900D02*
X97500000Y-117000000D01*
X98022900Y-119388700D02*
X98022900Y-117522900D01*
X145010900Y-119528400D02*
X145636700Y-119528400D01*
X143630700Y-120908600D02*
X145010900Y-119528400D01*
X143630700Y-127553400D02*
X143630700Y-120908600D01*
X143714900Y-127637600D02*
X143630700Y-127553400D01*
X143714900Y-128201000D02*
X143714900Y-127637600D01*
X142398300Y-129517600D02*
X143714900Y-128201000D01*
X133110400Y-129517600D02*
X142398300Y-129517600D01*
X122500000Y-118907200D02*
X133110400Y-129517600D01*
X163035900Y-73660000D02*
X163474100Y-73660000D01*
X162126400Y-74569500D02*
X163035900Y-73660000D01*
X162126400Y-75165900D02*
X162126400Y-74569500D01*
X153742800Y-83549500D02*
X162126400Y-75165900D01*
X153742800Y-112875300D02*
X153742800Y-83549500D01*
X147089700Y-119528400D02*
X153742800Y-112875300D01*
X145636700Y-119528400D02*
X147089700Y-119528400D01*
X119487000Y-121212000D02*
X94487000Y-121212000D01*
X163067100Y-74800400D02*
X163067100Y-74602200D01*
X154149500Y-83718000D02*
X163067100Y-74800400D01*
X154149500Y-113106900D02*
X154149500Y-83718000D01*
X146044400Y-121212000D02*
X154149500Y-113106900D01*
X144487000Y-121212000D02*
X146044400Y-121212000D01*
X96676800Y-87176800D02*
X97500000Y-88000000D01*
X73323200Y-87176800D02*
X96676800Y-87176800D01*
X72500000Y-88000000D02*
X73323200Y-87176800D01*
X122500000Y-88000000D02*
X97500000Y-88000000D01*
X123374600Y-87125400D02*
X122500000Y-88000000D01*
X146945200Y-87125400D02*
X123374600Y-87125400D01*
X147500100Y-87680300D02*
X146945200Y-87125400D01*
X160589600Y-74590800D02*
X147500100Y-87680300D01*
X147500100Y-88000000D02*
X147500000Y-88000000D01*
X147500100Y-87680300D02*
X147500100Y-88000000D01*
X72500000Y-86000000D02*
X97500000Y-86000000D01*
X147500000Y-86000000D02*
X122500000Y-86000000D01*
X122500000Y-86000000D02*
X97500000Y-86000000D01*
X163583400Y-69916600D02*
X147500000Y-86000000D01*
X165869400Y-69916600D02*
X163583400Y-69916600D01*
X166738500Y-69047500D02*
X165869400Y-69916600D01*
X166738500Y-68178300D02*
X166738500Y-69047500D01*
X165870200Y-67310000D02*
X166738500Y-68178300D01*
X164159800Y-67310000D02*
X165870200Y-67310000D01*
X163057900Y-66208100D02*
X164159800Y-67310000D01*
X163057900Y-61376200D02*
X163057900Y-66208100D01*
X163474100Y-60960000D02*
X163057900Y-61376200D01*
X165100000Y-60960000D02*
X163474100Y-60960000D01*
X165100000Y-71120000D02*
X163474100Y-71120000D01*
X144571700Y-97378900D02*
X144338900Y-97378900D01*
X146161500Y-95789100D02*
X144571700Y-97378900D01*
X146161500Y-94509700D02*
X146161500Y-95789100D01*
X145700000Y-94048200D02*
X146161500Y-94509700D01*
X145700000Y-93266200D02*
X145700000Y-94048200D01*
X146966200Y-92000000D02*
X145700000Y-93266200D01*
X147500000Y-92000000D02*
X146966200Y-92000000D01*
X96864900Y-94501200D02*
X98433100Y-92933000D01*
X75001200Y-94501200D02*
X96864900Y-94501200D01*
X72500000Y-92000000D02*
X75001200Y-94501200D01*
X98433100Y-92933000D02*
X97500000Y-92000000D01*
X99985300Y-94485300D02*
X122500000Y-94485300D01*
X98433100Y-92933000D02*
X99985300Y-94485300D01*
X123747200Y-95732500D02*
X122500000Y-94485300D01*
X123747200Y-98540400D02*
X123747200Y-95732500D01*
X122500000Y-94485300D02*
X122500000Y-92000000D01*
X161269400Y-73324700D02*
X163474100Y-71120000D01*
X161269400Y-74872500D02*
X161269400Y-73324700D01*
X152522700Y-83619200D02*
X161269400Y-74872500D01*
X152522700Y-89050600D02*
X152522700Y-83619200D01*
X147063600Y-94509700D02*
X152522700Y-89050600D01*
X146161500Y-94509700D02*
X147063600Y-94509700D01*
X119487000Y-96212000D02*
X94487000Y-96212000D01*
X94487000Y-96212000D02*
X69487000Y-96212000D01*
X147807100Y-62692900D02*
X155682100Y-62692900D01*
X147500000Y-63000000D02*
X147807100Y-62692900D01*
X122500000Y-63000000D02*
X97500000Y-63000000D01*
X73323200Y-62176800D02*
X72500000Y-63000000D01*
X96676800Y-62176800D02*
X73323200Y-62176800D01*
X97500000Y-63000000D02*
X96676800Y-62176800D01*
X123305100Y-62194900D02*
X122500000Y-63000000D01*
X146694900Y-62194900D02*
X123305100Y-62194900D01*
X147500000Y-63000000D02*
X146694900Y-62194900D01*
X97500000Y-61000000D02*
X72500000Y-61000000D01*
X147500000Y-61000000D02*
X122500000Y-61000000D01*
X122500000Y-61000000D02*
X97500000Y-61000000D01*
X150080000Y-58420000D02*
X147500000Y-61000000D01*
X165100000Y-58420000D02*
X150080000Y-58420000D01*
X97500000Y-67000000D02*
X97500000Y-68895000D01*
X74991700Y-69491700D02*
X72500000Y-67000000D01*
X96903300Y-69491700D02*
X74991700Y-69491700D01*
X97500000Y-68895000D02*
X96903300Y-69491700D01*
X121823700Y-69524700D02*
X123424200Y-67924200D01*
X98129700Y-69524700D02*
X121823700Y-69524700D01*
X97500000Y-68895000D02*
X98129700Y-69524700D01*
X123424200Y-67924200D02*
X122500000Y-67000000D01*
X146819100Y-67000000D02*
X145694300Y-68124800D01*
X147500000Y-67000000D02*
X146819100Y-67000000D01*
X123624800Y-68124800D02*
X123424200Y-67924200D01*
X145694300Y-68124800D02*
X123624800Y-68124800D01*
X145694300Y-69020100D02*
X145694300Y-68124800D01*
X146184000Y-69509800D02*
X145694300Y-69020100D01*
X162544300Y-69509800D02*
X146184000Y-69509800D01*
X163474100Y-68580000D02*
X162544300Y-69509800D01*
X165100000Y-68580000D02*
X163474100Y-68580000D01*
X144487000Y-71212000D02*
X119487000Y-71212000D01*
X119487000Y-71212000D02*
X94487000Y-71212000D01*
X99271200Y-138228800D02*
X97500000Y-140000000D01*
X106247400Y-138228800D02*
X99271200Y-138228800D01*
X104761300Y-90000000D02*
X106055900Y-88705400D01*
X97500000Y-90000000D02*
X104761300Y-90000000D01*
X108547700Y-115000000D02*
X109257900Y-115710200D01*
X97500000Y-115000000D02*
X108547700Y-115000000D01*
X102227800Y-65000000D02*
X106055900Y-68828100D01*
X97500000Y-65000000D02*
X102227800Y-65000000D01*
X122500000Y-139911500D02*
X122500000Y-140000000D01*
X129940200Y-132471300D02*
X122500000Y-139911500D01*
X133376600Y-124097400D02*
X124279200Y-115000000D01*
X133376600Y-128797100D02*
X133376600Y-124097400D01*
X124279200Y-115000000D02*
X122500000Y-115000000D01*
X124925400Y-67425400D02*
X130153900Y-67425400D01*
X122500000Y-65000000D02*
X124925400Y-67425400D01*
X129073900Y-87865100D02*
X130673200Y-87865100D01*
X124719500Y-92219500D02*
X129073900Y-87865100D01*
X124719500Y-114559700D02*
X124719500Y-92219500D01*
X124279200Y-115000000D02*
X124719500Y-114559700D01*
X124719500Y-92219500D02*
X122500000Y-90000000D01*
X208077200Y-109017200D02*
X209550000Y-110490000D01*
X208077200Y-86924000D02*
X208077200Y-109017200D01*
X205278200Y-84125000D02*
X208077200Y-86924000D01*
X204253900Y-84125000D02*
X205278200Y-84125000D01*
X201930000Y-81801100D02*
X204253900Y-84125000D01*
X201930000Y-75704300D02*
X201930000Y-81801100D01*
X200545700Y-74320000D02*
X201930000Y-75704300D01*
X197008000Y-74320000D02*
X200545700Y-74320000D01*
X194310000Y-71622000D02*
X197008000Y-74320000D01*
X194310000Y-65523800D02*
X194310000Y-71622000D01*
X190991200Y-62205000D02*
X194310000Y-65523800D01*
X187429700Y-62205000D02*
X190991200Y-62205000D01*
X181965900Y-56741200D02*
X187429700Y-62205000D01*
X181965900Y-55880000D02*
X181965900Y-56741200D01*
X180340000Y-55880000D02*
X181965900Y-55880000D01*
X213196300Y-128433700D02*
X208280000Y-133350000D01*
X213196300Y-119833900D02*
X213196300Y-128433700D01*
X212090000Y-118727600D02*
X213196300Y-119833900D01*
X212090000Y-110490000D02*
X212090000Y-118727600D01*
X180340000Y-129540000D02*
X178714100Y-129540000D01*
X178714100Y-131787900D02*
X174732000Y-135770000D01*
X178714100Y-129540000D02*
X178714100Y-131787900D01*
X174732000Y-135770000D02*
X174732000Y-142270000D01*
X174732000Y-123017900D02*
X174732000Y-117270000D01*
X178714100Y-127000000D02*
X174732000Y-123017900D01*
X180340000Y-127000000D02*
X178714100Y-127000000D01*
X180340000Y-124460000D02*
X178714100Y-124460000D01*
X178046000Y-95584000D02*
X174732000Y-92270000D01*
X178046000Y-123791900D02*
X178046000Y-95584000D01*
X178714100Y-124460000D02*
X178046000Y-123791900D01*
X174732000Y-92270000D02*
X174732000Y-85770000D01*
X174732000Y-60770000D02*
X174732000Y-67270000D01*
X181113900Y-67270000D02*
X174732000Y-67270000D01*
X181981600Y-68137700D02*
X181113900Y-67270000D01*
X181981600Y-74077000D02*
X181981600Y-68137700D01*
X181128600Y-74930000D02*
X181981600Y-74077000D01*
X179529800Y-74930000D02*
X181128600Y-74930000D01*
X178714100Y-75745700D02*
X179529800Y-74930000D01*
X178714100Y-121920000D02*
X178714100Y-75745700D01*
X180340000Y-121920000D02*
X178714100Y-121920000D01*
X180340000Y-78740000D02*
X181965900Y-78740000D01*
X182372600Y-79146700D02*
X181965900Y-78740000D01*
X182372600Y-111252600D02*
X182372600Y-79146700D01*
X196850000Y-125730000D02*
X182372600Y-111252600D01*
X181965900Y-113385900D02*
X194310000Y-125730000D01*
X181965900Y-81280000D02*
X181965900Y-113385900D01*
X180340000Y-81280000D02*
X181965900Y-81280000D01*
X203200000Y-86360000D02*
X204470000Y-87630000D01*
X204470000Y-104006800D02*
X204470000Y-87630000D01*
X205740000Y-105276800D02*
X204470000Y-104006800D01*
X205740000Y-111523300D02*
X205740000Y-105276800D01*
X206690400Y-112473700D02*
X205740000Y-111523300D01*
X206690400Y-120969600D02*
X206690400Y-112473700D01*
X201930000Y-125730000D02*
X206690400Y-120969600D01*
X204470000Y-87630000D02*
X205740000Y-86360000D01*
X216184100Y-143510000D02*
X212090000Y-143510000D01*
X221264100Y-138430000D02*
X216184100Y-143510000D01*
X223319300Y-138430000D02*
X221264100Y-138430000D01*
X205740000Y-55880000D02*
X205740000Y-60960000D01*
X165100000Y-132080000D02*
X166725900Y-132080000D01*
X166725900Y-91328900D02*
X166725900Y-132080000D01*
X171537100Y-86517700D02*
X166725900Y-91328900D01*
X171537100Y-60309400D02*
X171537100Y-86517700D01*
X178461600Y-53384900D02*
X171537100Y-60309400D01*
X203244900Y-53384900D02*
X178461600Y-53384900D01*
X205740000Y-55880000D02*
X203244900Y-53384900D01*
X203200000Y-55880000D02*
X203200000Y-60960000D01*
X165100000Y-134620000D02*
X166725900Y-134620000D01*
X167139300Y-134206600D02*
X166725900Y-134620000D01*
X167139300Y-91490900D02*
X167139300Y-134206600D01*
X171955700Y-86674500D02*
X167139300Y-91490900D01*
X171955700Y-60511200D02*
X171955700Y-86674500D01*
X178666800Y-53800100D02*
X171955700Y-60511200D01*
X201120100Y-53800100D02*
X178666800Y-53800100D01*
X203200000Y-55880000D02*
X201120100Y-53800100D01*
X165100000Y-137160000D02*
X166725900Y-137160000D01*
X200660000Y-55880000D02*
X200660000Y-60960000D01*
X167546000Y-136339900D02*
X166725900Y-137160000D01*
X167546000Y-91659500D02*
X167546000Y-136339900D01*
X172410900Y-86794600D02*
X167546000Y-91659500D01*
X172410900Y-60658300D02*
X172410900Y-86794600D01*
X178858600Y-54210600D02*
X172410900Y-60658300D01*
X198990600Y-54210600D02*
X178858600Y-54210600D01*
X200660000Y-55880000D02*
X198990600Y-54210600D01*
X198120000Y-55880000D02*
X198120000Y-60960000D01*
X165100000Y-139700000D02*
X166725900Y-139700000D01*
X167952700Y-138473200D02*
X166725900Y-139700000D01*
X167952700Y-91828000D02*
X167952700Y-138473200D01*
X172832200Y-86948500D02*
X167952700Y-91828000D01*
X172832200Y-60821100D02*
X172832200Y-86948500D01*
X179035000Y-54618300D02*
X172832200Y-60821100D01*
X196858300Y-54618300D02*
X179035000Y-54618300D01*
X198120000Y-55880000D02*
X196858300Y-54618300D01*
X180340000Y-142240000D02*
X181965900Y-142240000D01*
X204731900Y-130548100D02*
X209550000Y-125730000D01*
X193657800Y-130548100D02*
X204731900Y-130548100D01*
X181965900Y-142240000D02*
X193657800Y-130548100D01*
X189509900Y-144780000D02*
X180340000Y-144780000D01*
X199201500Y-135088400D02*
X189509900Y-144780000D01*
X202731600Y-135088400D02*
X199201500Y-135088400D01*
X212090000Y-125730000D02*
X202731600Y-135088400D01*
X165100000Y-147320000D02*
X166725900Y-147320000D01*
X217170000Y-130157100D02*
X217170000Y-125730000D01*
X209577100Y-137750000D02*
X217170000Y-130157100D01*
X198442900Y-137750000D02*
X209577100Y-137750000D01*
X189838400Y-146354500D02*
X198442900Y-137750000D01*
X167691400Y-146354500D02*
X189838400Y-146354500D01*
X166725900Y-147320000D02*
X167691400Y-146354500D01*
X214630000Y-128860100D02*
X214630000Y-125730000D01*
X208200600Y-135289500D02*
X214630000Y-128860100D01*
X203352500Y-135289500D02*
X208200600Y-135289500D01*
X201343800Y-137298200D02*
X203352500Y-135289500D01*
X197694700Y-137298200D02*
X201343800Y-137298200D01*
X189247300Y-145745600D02*
X197694700Y-137298200D01*
X167691500Y-145745600D02*
X189247300Y-145745600D01*
X166725900Y-144780000D02*
X167691500Y-145745600D01*
X165100000Y-144780000D02*
X166725900Y-144780000D01*
X187960000Y-81280000D02*
X187960000Y-76200000D01*
X190500000Y-81280000D02*
X190500000Y-76200000D01*
X193040000Y-81280000D02*
X193040000Y-76200000D01*
X195580000Y-81280000D02*
X195580000Y-76200000D01*
X198120000Y-81280000D02*
X198120000Y-76200000D01*
X200660000Y-81280000D02*
X200660000Y-76200000D01*
X203200000Y-81280000D02*
X203200000Y-76200000D01*
X205740000Y-81280000D02*
X205740000Y-76200000D01*
X195580000Y-55880000D02*
X195580000Y-60960000D01*
X193040000Y-55880000D02*
X193040000Y-60960000D01*
X190500000Y-55880000D02*
X190500000Y-60960000D01*
X187960000Y-55880000D02*
X187960000Y-60960000D01*
X205740000Y-71120000D02*
X205740000Y-66040000D01*
X203200000Y-71120000D02*
X203200000Y-66040000D01*
X200660000Y-71120000D02*
X200660000Y-66040000D01*
X198120000Y-71120000D02*
X198120000Y-66040000D01*
X195580000Y-71120000D02*
X195580000Y-66040000D01*
X193040000Y-71120000D02*
X193040000Y-66040000D01*
X190500000Y-71120000D02*
X190500000Y-66040000D01*
X187960000Y-71120000D02*
X187960000Y-66040000D01*
M02*
