G04 #@! TF.FileFunction,Legend,Top*
%FSLAX46Y46*%
G04 Gerber Fmt 4.6, Leading zero omitted, Abs format (unit mm)*
G04 Created by KiCad (PCBNEW 4.0.4-stable) date 11/27/16 15:51:27*
%MOMM*%
%LPD*%
G01*
G04 APERTURE LIST*
%ADD10C,0.100000*%
%ADD11C,0.200000*%
%ADD12C,0.300000*%
%ADD13C,0.150000*%
%ADD14C,0.203200*%
%ADD15C,0.254000*%
%ADD16C,0.127000*%
%ADD17C,0.101600*%
%ADD18C,0.152400*%
G04 APERTURE END LIST*
D10*
D11*
X224790000Y-83820000D02*
X224790000Y-74930000D01*
X224790000Y-72390000D02*
X224790000Y-69850000D01*
X226060000Y-85090000D02*
X226060000Y-93980000D01*
D12*
X223968571Y-68651428D02*
X223968571Y-68508571D01*
X224040000Y-68365714D01*
X224111429Y-68294285D01*
X224254286Y-68222856D01*
X224540000Y-68151428D01*
X224897143Y-68151428D01*
X225182857Y-68222856D01*
X225325714Y-68294285D01*
X225397143Y-68365714D01*
X225468571Y-68508571D01*
X225468571Y-68651428D01*
X225397143Y-68794285D01*
X225325714Y-68865714D01*
X225182857Y-68937142D01*
X224897143Y-69008571D01*
X224540000Y-69008571D01*
X224254286Y-68937142D01*
X224111429Y-68865714D01*
X224040000Y-68794285D01*
X223968571Y-68651428D01*
X225468571Y-73231428D02*
X225468571Y-74088571D01*
X225468571Y-73659999D02*
X223968571Y-73659999D01*
X224182857Y-73802856D01*
X224325714Y-73945714D01*
X224397143Y-74088571D01*
X224111429Y-86788571D02*
X224040000Y-86717142D01*
X223968571Y-86574285D01*
X223968571Y-86217142D01*
X224040000Y-86074285D01*
X224111429Y-86002856D01*
X224254286Y-85931428D01*
X224397143Y-85931428D01*
X224611429Y-86002856D01*
X225468571Y-86859999D01*
X225468571Y-85931428D01*
X223968571Y-89399999D02*
X223968571Y-88471428D01*
X224540000Y-88971428D01*
X224540000Y-88757142D01*
X224611429Y-88614285D01*
X224682857Y-88542856D01*
X224825714Y-88471428D01*
X225182857Y-88471428D01*
X225325714Y-88542856D01*
X225397143Y-88614285D01*
X225468571Y-88757142D01*
X225468571Y-89185714D01*
X225397143Y-89328571D01*
X225325714Y-89399999D01*
X224468571Y-91154285D02*
X225468571Y-91154285D01*
X223897143Y-91511428D02*
X224968571Y-91868571D01*
X224968571Y-90939999D01*
X225468571Y-97107142D02*
X223968571Y-97107142D01*
X223968571Y-96535714D01*
X224040000Y-96392856D01*
X224111429Y-96321428D01*
X224254286Y-96249999D01*
X224468571Y-96249999D01*
X224611429Y-96321428D01*
X224682857Y-96392856D01*
X224754286Y-96535714D01*
X224754286Y-97107142D01*
X224682857Y-95107142D02*
X224754286Y-94892856D01*
X224825714Y-94821428D01*
X224968571Y-94749999D01*
X225182857Y-94749999D01*
X225325714Y-94821428D01*
X225397143Y-94892856D01*
X225468571Y-95035714D01*
X225468571Y-95607142D01*
X223968571Y-95607142D01*
X223968571Y-95107142D01*
X224040000Y-94964285D01*
X224111429Y-94892856D01*
X224254286Y-94821428D01*
X224397143Y-94821428D01*
X224540000Y-94892856D01*
X224611429Y-94964285D01*
X224682857Y-95107142D01*
X224682857Y-95607142D01*
X223968571Y-93392856D02*
X223968571Y-94107142D01*
X224682857Y-94178571D01*
X224611429Y-94107142D01*
X224540000Y-93964285D01*
X224540000Y-93607142D01*
X224611429Y-93464285D01*
X224682857Y-93392856D01*
X224825714Y-93321428D01*
X225182857Y-93321428D01*
X225325714Y-93392856D01*
X225397143Y-93464285D01*
X225468571Y-93607142D01*
X225468571Y-93964285D01*
X225397143Y-94107142D01*
X225325714Y-94178571D01*
X188210000Y-106001428D02*
X188210000Y-105287142D01*
X188638571Y-106144285D02*
X187138571Y-105644285D01*
X188638571Y-105144285D01*
X187281429Y-104715714D02*
X187210000Y-104644285D01*
X187138571Y-104501428D01*
X187138571Y-104144285D01*
X187210000Y-104001428D01*
X187281429Y-103929999D01*
X187424286Y-103858571D01*
X187567143Y-103858571D01*
X187781429Y-103929999D01*
X188638571Y-104787142D01*
X188638571Y-103858571D01*
X190750000Y-106001428D02*
X190750000Y-105287142D01*
X191178571Y-106144285D02*
X189678571Y-105644285D01*
X191178571Y-105144285D01*
X189678571Y-104787142D02*
X189678571Y-103858571D01*
X190250000Y-104358571D01*
X190250000Y-104144285D01*
X190321429Y-104001428D01*
X190392857Y-103929999D01*
X190535714Y-103858571D01*
X190892857Y-103858571D01*
X191035714Y-103929999D01*
X191107143Y-104001428D01*
X191178571Y-104144285D01*
X191178571Y-104572857D01*
X191107143Y-104715714D01*
X191035714Y-104787142D01*
X193290000Y-106001428D02*
X193290000Y-105287142D01*
X193718571Y-106144285D02*
X192218571Y-105644285D01*
X193718571Y-105144285D01*
X192718571Y-104001428D02*
X193718571Y-104001428D01*
X192147143Y-104358571D02*
X193218571Y-104715714D01*
X193218571Y-103787142D01*
X195830000Y-106001428D02*
X195830000Y-105287142D01*
X196258571Y-106144285D02*
X194758571Y-105644285D01*
X196258571Y-105144285D01*
X194758571Y-103929999D02*
X194758571Y-104644285D01*
X195472857Y-104715714D01*
X195401429Y-104644285D01*
X195330000Y-104501428D01*
X195330000Y-104144285D01*
X195401429Y-104001428D01*
X195472857Y-103929999D01*
X195615714Y-103858571D01*
X195972857Y-103858571D01*
X196115714Y-103929999D01*
X196187143Y-104001428D01*
X196258571Y-104144285D01*
X196258571Y-104501428D01*
X196187143Y-104644285D01*
X196115714Y-104715714D01*
X198370000Y-106001428D02*
X198370000Y-105287142D01*
X198798571Y-106144285D02*
X197298571Y-105644285D01*
X198798571Y-105144285D01*
X197298571Y-104001428D02*
X197298571Y-104287142D01*
X197370000Y-104429999D01*
X197441429Y-104501428D01*
X197655714Y-104644285D01*
X197941429Y-104715714D01*
X198512857Y-104715714D01*
X198655714Y-104644285D01*
X198727143Y-104572857D01*
X198798571Y-104429999D01*
X198798571Y-104144285D01*
X198727143Y-104001428D01*
X198655714Y-103929999D01*
X198512857Y-103858571D01*
X198155714Y-103858571D01*
X198012857Y-103929999D01*
X197941429Y-104001428D01*
X197870000Y-104144285D01*
X197870000Y-104429999D01*
X197941429Y-104572857D01*
X198012857Y-104644285D01*
X198155714Y-104715714D01*
X186742857Y-93378571D02*
X187242857Y-94878571D01*
X187742857Y-93378571D01*
X189100000Y-94735714D02*
X189028571Y-94807143D01*
X188814285Y-94878571D01*
X188671428Y-94878571D01*
X188457143Y-94807143D01*
X188314285Y-94664286D01*
X188242857Y-94521429D01*
X188171428Y-94235714D01*
X188171428Y-94021429D01*
X188242857Y-93735714D01*
X188314285Y-93592857D01*
X188457143Y-93450000D01*
X188671428Y-93378571D01*
X188814285Y-93378571D01*
X189028571Y-93450000D01*
X189100000Y-93521429D01*
X190600000Y-94735714D02*
X190528571Y-94807143D01*
X190314285Y-94878571D01*
X190171428Y-94878571D01*
X189957143Y-94807143D01*
X189814285Y-94664286D01*
X189742857Y-94521429D01*
X189671428Y-94235714D01*
X189671428Y-94021429D01*
X189742857Y-93735714D01*
X189814285Y-93592857D01*
X189957143Y-93450000D01*
X190171428Y-93378571D01*
X190314285Y-93378571D01*
X190528571Y-93450000D01*
X190600000Y-93521429D01*
X187742857Y-83250000D02*
X187600000Y-83178571D01*
X187385714Y-83178571D01*
X187171429Y-83250000D01*
X187028571Y-83392857D01*
X186957143Y-83535714D01*
X186885714Y-83821429D01*
X186885714Y-84035714D01*
X186957143Y-84321429D01*
X187028571Y-84464286D01*
X187171429Y-84607143D01*
X187385714Y-84678571D01*
X187528571Y-84678571D01*
X187742857Y-84607143D01*
X187814286Y-84535714D01*
X187814286Y-84035714D01*
X187528571Y-84035714D01*
X188457143Y-84678571D02*
X188457143Y-83178571D01*
X189314286Y-84678571D01*
X189314286Y-83178571D01*
X190028572Y-84678571D02*
X190028572Y-83178571D01*
X190385715Y-83178571D01*
X190600000Y-83250000D01*
X190742858Y-83392857D01*
X190814286Y-83535714D01*
X190885715Y-83821429D01*
X190885715Y-84035714D01*
X190814286Y-84321429D01*
X190742858Y-84464286D01*
X190600000Y-84607143D01*
X190385715Y-84678571D01*
X190028572Y-84678571D01*
X186857143Y-74678571D02*
X186857143Y-73178571D01*
X187357143Y-74250000D01*
X187857143Y-73178571D01*
X187857143Y-74678571D01*
X188571429Y-73178571D02*
X188571429Y-74392857D01*
X188642857Y-74535714D01*
X188714286Y-74607143D01*
X188857143Y-74678571D01*
X189142857Y-74678571D01*
X189285715Y-74607143D01*
X189357143Y-74535714D01*
X189428572Y-74392857D01*
X189428572Y-73178571D01*
X189928572Y-73178571D02*
X190785715Y-73178571D01*
X190357144Y-74678571D02*
X190357144Y-73178571D01*
X191285715Y-73178571D02*
X191285715Y-74392857D01*
X191357143Y-74535714D01*
X191428572Y-74607143D01*
X191571429Y-74678571D01*
X191857143Y-74678571D01*
X192000001Y-74607143D01*
X192071429Y-74535714D01*
X192142858Y-74392857D01*
X192142858Y-73178571D01*
X192785715Y-74250000D02*
X193500001Y-74250000D01*
X192642858Y-74678571D02*
X193142858Y-73178571D01*
X193642858Y-74678571D01*
X194857144Y-74678571D02*
X194142858Y-74678571D01*
X194142858Y-73178571D01*
X195285715Y-74607143D02*
X195500001Y-74678571D01*
X195857144Y-74678571D01*
X196000001Y-74607143D01*
X196071430Y-74535714D01*
X196142858Y-74392857D01*
X196142858Y-74250000D01*
X196071430Y-74107143D01*
X196000001Y-74035714D01*
X195857144Y-73964286D01*
X195571430Y-73892857D01*
X195428572Y-73821429D01*
X195357144Y-73750000D01*
X195285715Y-73607143D01*
X195285715Y-73464286D01*
X195357144Y-73321429D01*
X195428572Y-73250000D01*
X195571430Y-73178571D01*
X195928572Y-73178571D01*
X196142858Y-73250000D01*
X186857143Y-64178571D02*
X186857143Y-62678571D01*
X187357143Y-63750000D01*
X187857143Y-62678571D01*
X187857143Y-64178571D01*
X188571429Y-62678571D02*
X188571429Y-63892857D01*
X188642857Y-64035714D01*
X188714286Y-64107143D01*
X188857143Y-64178571D01*
X189142857Y-64178571D01*
X189285715Y-64107143D01*
X189357143Y-64035714D01*
X189428572Y-63892857D01*
X189428572Y-62678571D01*
X189928572Y-62678571D02*
X190785715Y-62678571D01*
X190357144Y-64178571D02*
X190357144Y-62678571D01*
X191285715Y-62678571D02*
X191285715Y-63892857D01*
X191357143Y-64035714D01*
X191428572Y-64107143D01*
X191571429Y-64178571D01*
X191857143Y-64178571D01*
X192000001Y-64107143D01*
X192071429Y-64035714D01*
X192142858Y-63892857D01*
X192142858Y-62678571D01*
X192785715Y-63750000D02*
X193500001Y-63750000D01*
X192642858Y-64178571D02*
X193142858Y-62678571D01*
X193642858Y-64178571D01*
X194857144Y-64178571D02*
X194142858Y-64178571D01*
X194142858Y-62678571D01*
X195285715Y-64107143D02*
X195500001Y-64178571D01*
X195857144Y-64178571D01*
X196000001Y-64107143D01*
X196071430Y-64035714D01*
X196142858Y-63892857D01*
X196142858Y-63750000D01*
X196071430Y-63607143D01*
X196000001Y-63535714D01*
X195857144Y-63464286D01*
X195571430Y-63392857D01*
X195428572Y-63321429D01*
X195357144Y-63250000D01*
X195285715Y-63107143D01*
X195285715Y-62964286D01*
X195357144Y-62821429D01*
X195428572Y-62750000D01*
X195571430Y-62678571D01*
X195928572Y-62678571D01*
X196142858Y-62750000D01*
X186857143Y-54178571D02*
X186857143Y-52678571D01*
X187357143Y-53750000D01*
X187857143Y-52678571D01*
X187857143Y-54178571D01*
X188571429Y-52678571D02*
X188571429Y-53892857D01*
X188642857Y-54035714D01*
X188714286Y-54107143D01*
X188857143Y-54178571D01*
X189142857Y-54178571D01*
X189285715Y-54107143D01*
X189357143Y-54035714D01*
X189428572Y-53892857D01*
X189428572Y-52678571D01*
X189928572Y-52678571D02*
X190785715Y-52678571D01*
X190357144Y-54178571D02*
X190357144Y-52678571D01*
X191285715Y-52678571D02*
X191285715Y-53892857D01*
X191357143Y-54035714D01*
X191428572Y-54107143D01*
X191571429Y-54178571D01*
X191857143Y-54178571D01*
X192000001Y-54107143D01*
X192071429Y-54035714D01*
X192142858Y-53892857D01*
X192142858Y-52678571D01*
X192785715Y-53750000D02*
X193500001Y-53750000D01*
X192642858Y-54178571D02*
X193142858Y-52678571D01*
X193642858Y-54178571D01*
X194857144Y-54178571D02*
X194142858Y-54178571D01*
X194142858Y-52678571D01*
X195285715Y-54107143D02*
X195500001Y-54178571D01*
X195857144Y-54178571D01*
X196000001Y-54107143D01*
X196071430Y-54035714D01*
X196142858Y-53892857D01*
X196142858Y-53750000D01*
X196071430Y-53607143D01*
X196000001Y-53535714D01*
X195857144Y-53464286D01*
X195571430Y-53392857D01*
X195428572Y-53321429D01*
X195357144Y-53250000D01*
X195285715Y-53107143D01*
X195285715Y-52964286D01*
X195357144Y-52821429D01*
X195428572Y-52750000D01*
X195571430Y-52678571D01*
X195928572Y-52678571D01*
X196142858Y-52750000D01*
D13*
X193460000Y-113520000D02*
X192460000Y-112520000D01*
X192460000Y-113520000D02*
X193460000Y-112520000D01*
X192960000Y-123270000D02*
X192960000Y-113020000D01*
X192460000Y-123770000D02*
X193460000Y-122770000D01*
X193460000Y-123770000D02*
X192460000Y-122770000D01*
X226060000Y-142930880D02*
X226060000Y-133929120D01*
X226020000Y-133930000D02*
X216519760Y-133929120D01*
X216519760Y-133929120D02*
X216519760Y-142930880D01*
X216519760Y-142930880D02*
X226020000Y-142930000D01*
D14*
X213360000Y-70485000D02*
X213360000Y-71755000D01*
X213360000Y-71755000D02*
X212725000Y-72390000D01*
X211455000Y-72390000D02*
X210820000Y-71755000D01*
X212725000Y-67310000D02*
X213360000Y-67945000D01*
X213360000Y-67945000D02*
X213360000Y-69215000D01*
X213360000Y-69215000D02*
X212725000Y-69850000D01*
X211455000Y-69850000D02*
X210820000Y-69215000D01*
X210820000Y-69215000D02*
X210820000Y-67945000D01*
X210820000Y-67945000D02*
X211455000Y-67310000D01*
X213360000Y-70485000D02*
X212725000Y-69850000D01*
X211455000Y-69850000D02*
X210820000Y-70485000D01*
X210820000Y-71755000D02*
X210820000Y-70485000D01*
X213360000Y-62865000D02*
X213360000Y-64135000D01*
X213360000Y-64135000D02*
X212725000Y-64770000D01*
X211455000Y-64770000D02*
X210820000Y-64135000D01*
X212725000Y-64770000D02*
X213360000Y-65405000D01*
X213360000Y-65405000D02*
X213360000Y-66675000D01*
X213360000Y-66675000D02*
X212725000Y-67310000D01*
X211455000Y-67310000D02*
X210820000Y-66675000D01*
X210820000Y-66675000D02*
X210820000Y-65405000D01*
X210820000Y-65405000D02*
X211455000Y-64770000D01*
X212725000Y-59690000D02*
X213360000Y-60325000D01*
X213360000Y-60325000D02*
X213360000Y-61595000D01*
X213360000Y-61595000D02*
X212725000Y-62230000D01*
X211455000Y-62230000D02*
X210820000Y-61595000D01*
X210820000Y-61595000D02*
X210820000Y-60325000D01*
X210820000Y-60325000D02*
X211455000Y-59690000D01*
X213360000Y-62865000D02*
X212725000Y-62230000D01*
X211455000Y-62230000D02*
X210820000Y-62865000D01*
X210820000Y-64135000D02*
X210820000Y-62865000D01*
X213360000Y-55245000D02*
X213360000Y-56515000D01*
X213360000Y-56515000D02*
X212725000Y-57150000D01*
X211455000Y-57150000D02*
X210820000Y-56515000D01*
X212725000Y-57150000D02*
X213360000Y-57785000D01*
X213360000Y-57785000D02*
X213360000Y-59055000D01*
X213360000Y-59055000D02*
X212725000Y-59690000D01*
X211455000Y-59690000D02*
X210820000Y-59055000D01*
X210820000Y-59055000D02*
X210820000Y-57785000D01*
X210820000Y-57785000D02*
X211455000Y-57150000D01*
X212725000Y-54610000D02*
X211455000Y-54610000D01*
X213360000Y-55245000D02*
X212725000Y-54610000D01*
X211455000Y-54610000D02*
X210820000Y-55245000D01*
X210820000Y-56515000D02*
X210820000Y-55245000D01*
X213360000Y-73025000D02*
X213360000Y-74295000D01*
X213360000Y-74295000D02*
X212725000Y-74930000D01*
X212725000Y-74930000D02*
X211455000Y-74930000D01*
X211455000Y-74930000D02*
X210820000Y-74295000D01*
X213360000Y-73025000D02*
X212725000Y-72390000D01*
X211455000Y-72390000D02*
X210820000Y-73025000D01*
X210820000Y-74295000D02*
X210820000Y-73025000D01*
X208280000Y-59055000D02*
X208280000Y-57785000D01*
X208280000Y-57785000D02*
X208915000Y-57150000D01*
X210185000Y-57150000D02*
X210820000Y-57785000D01*
X208915000Y-62230000D02*
X208280000Y-61595000D01*
X208280000Y-61595000D02*
X208280000Y-60325000D01*
X208280000Y-60325000D02*
X208915000Y-59690000D01*
X210185000Y-59690000D02*
X210820000Y-60325000D01*
X210820000Y-60325000D02*
X210820000Y-61595000D01*
X210820000Y-61595000D02*
X210185000Y-62230000D01*
X208280000Y-59055000D02*
X208915000Y-59690000D01*
X210185000Y-59690000D02*
X210820000Y-59055000D01*
X210820000Y-57785000D02*
X210820000Y-59055000D01*
X208280000Y-66675000D02*
X208280000Y-65405000D01*
X208280000Y-65405000D02*
X208915000Y-64770000D01*
X210185000Y-64770000D02*
X210820000Y-65405000D01*
X208915000Y-64770000D02*
X208280000Y-64135000D01*
X208280000Y-64135000D02*
X208280000Y-62865000D01*
X208280000Y-62865000D02*
X208915000Y-62230000D01*
X210185000Y-62230000D02*
X210820000Y-62865000D01*
X210820000Y-62865000D02*
X210820000Y-64135000D01*
X210820000Y-64135000D02*
X210185000Y-64770000D01*
X208915000Y-69850000D02*
X208280000Y-69215000D01*
X208280000Y-69215000D02*
X208280000Y-67945000D01*
X208280000Y-67945000D02*
X208915000Y-67310000D01*
X210185000Y-67310000D02*
X210820000Y-67945000D01*
X210820000Y-67945000D02*
X210820000Y-69215000D01*
X210820000Y-69215000D02*
X210185000Y-69850000D01*
X208280000Y-66675000D02*
X208915000Y-67310000D01*
X210185000Y-67310000D02*
X210820000Y-66675000D01*
X210820000Y-65405000D02*
X210820000Y-66675000D01*
X208280000Y-74295000D02*
X208280000Y-73025000D01*
X208280000Y-73025000D02*
X208915000Y-72390000D01*
X210185000Y-72390000D02*
X210820000Y-73025000D01*
X208915000Y-72390000D02*
X208280000Y-71755000D01*
X208280000Y-71755000D02*
X208280000Y-70485000D01*
X208280000Y-70485000D02*
X208915000Y-69850000D01*
X210185000Y-69850000D02*
X210820000Y-70485000D01*
X210820000Y-70485000D02*
X210820000Y-71755000D01*
X210820000Y-71755000D02*
X210185000Y-72390000D01*
X208915000Y-74930000D02*
X210185000Y-74930000D01*
X208280000Y-74295000D02*
X208915000Y-74930000D01*
X210185000Y-74930000D02*
X210820000Y-74295000D01*
X210820000Y-73025000D02*
X210820000Y-74295000D01*
X208280000Y-56515000D02*
X208280000Y-55245000D01*
X208280000Y-55245000D02*
X208915000Y-54610000D01*
X208915000Y-54610000D02*
X210185000Y-54610000D01*
X210185000Y-54610000D02*
X210820000Y-55245000D01*
X208280000Y-56515000D02*
X208915000Y-57150000D01*
X210185000Y-57150000D02*
X210820000Y-56515000D01*
X210820000Y-55245000D02*
X210820000Y-56515000D01*
D13*
X174497564Y-139020000D02*
G75*
G03X174497564Y-139020000I-2015564J0D01*
G01*
X175732000Y-141270000D02*
X175732000Y-136770000D01*
X171732000Y-142520000D02*
X173232000Y-142520000D01*
X169232000Y-136770000D02*
X169232000Y-141270000D01*
X173232000Y-135520000D02*
X171732000Y-135520000D01*
X174497564Y-114020000D02*
G75*
G03X174497564Y-114020000I-2015564J0D01*
G01*
X175732000Y-116270000D02*
X175732000Y-111770000D01*
X171732000Y-117520000D02*
X173232000Y-117520000D01*
X169232000Y-111770000D02*
X169232000Y-116270000D01*
X173232000Y-110520000D02*
X171732000Y-110520000D01*
X174497564Y-89020000D02*
G75*
G03X174497564Y-89020000I-2015564J0D01*
G01*
X175732000Y-91270000D02*
X175732000Y-86770000D01*
X171732000Y-92520000D02*
X173232000Y-92520000D01*
X169232000Y-86770000D02*
X169232000Y-91270000D01*
X173232000Y-85520000D02*
X171732000Y-85520000D01*
X174497564Y-64020000D02*
G75*
G03X174497564Y-64020000I-2015564J0D01*
G01*
X175732000Y-66270000D02*
X175732000Y-61770000D01*
X171732000Y-67520000D02*
X173232000Y-67520000D01*
X169232000Y-61770000D02*
X169232000Y-66270000D01*
X173232000Y-60520000D02*
X171732000Y-60520000D01*
D14*
X213360000Y-90805000D02*
X213360000Y-92075000D01*
X213360000Y-92075000D02*
X212725000Y-92710000D01*
X211455000Y-92710000D02*
X210820000Y-92075000D01*
X212725000Y-87630000D02*
X213360000Y-88265000D01*
X213360000Y-88265000D02*
X213360000Y-89535000D01*
X213360000Y-89535000D02*
X212725000Y-90170000D01*
X211455000Y-90170000D02*
X210820000Y-89535000D01*
X210820000Y-89535000D02*
X210820000Y-88265000D01*
X210820000Y-88265000D02*
X211455000Y-87630000D01*
X213360000Y-90805000D02*
X212725000Y-90170000D01*
X211455000Y-90170000D02*
X210820000Y-90805000D01*
X210820000Y-92075000D02*
X210820000Y-90805000D01*
X213360000Y-83185000D02*
X213360000Y-84455000D01*
X213360000Y-84455000D02*
X212725000Y-85090000D01*
X211455000Y-85090000D02*
X210820000Y-84455000D01*
X212725000Y-85090000D02*
X213360000Y-85725000D01*
X213360000Y-85725000D02*
X213360000Y-86995000D01*
X213360000Y-86995000D02*
X212725000Y-87630000D01*
X211455000Y-87630000D02*
X210820000Y-86995000D01*
X210820000Y-86995000D02*
X210820000Y-85725000D01*
X210820000Y-85725000D02*
X211455000Y-85090000D01*
X212725000Y-80010000D02*
X213360000Y-80645000D01*
X213360000Y-80645000D02*
X213360000Y-81915000D01*
X213360000Y-81915000D02*
X212725000Y-82550000D01*
X211455000Y-82550000D02*
X210820000Y-81915000D01*
X210820000Y-81915000D02*
X210820000Y-80645000D01*
X210820000Y-80645000D02*
X211455000Y-80010000D01*
X213360000Y-83185000D02*
X212725000Y-82550000D01*
X211455000Y-82550000D02*
X210820000Y-83185000D01*
X210820000Y-84455000D02*
X210820000Y-83185000D01*
X213360000Y-75565000D02*
X213360000Y-76835000D01*
X213360000Y-76835000D02*
X212725000Y-77470000D01*
X211455000Y-77470000D02*
X210820000Y-76835000D01*
X212725000Y-77470000D02*
X213360000Y-78105000D01*
X213360000Y-78105000D02*
X213360000Y-79375000D01*
X213360000Y-79375000D02*
X212725000Y-80010000D01*
X211455000Y-80010000D02*
X210820000Y-79375000D01*
X210820000Y-79375000D02*
X210820000Y-78105000D01*
X210820000Y-78105000D02*
X211455000Y-77470000D01*
X212725000Y-74930000D02*
X211455000Y-74930000D01*
X213360000Y-75565000D02*
X212725000Y-74930000D01*
X211455000Y-74930000D02*
X210820000Y-75565000D01*
X210820000Y-76835000D02*
X210820000Y-75565000D01*
X213360000Y-93345000D02*
X213360000Y-94615000D01*
X213360000Y-94615000D02*
X212725000Y-95250000D01*
X212725000Y-95250000D02*
X211455000Y-95250000D01*
X211455000Y-95250000D02*
X210820000Y-94615000D01*
X213360000Y-93345000D02*
X212725000Y-92710000D01*
X211455000Y-92710000D02*
X210820000Y-93345000D01*
X210820000Y-94615000D02*
X210820000Y-93345000D01*
X208280000Y-79375000D02*
X208280000Y-78105000D01*
X208280000Y-78105000D02*
X208915000Y-77470000D01*
X210185000Y-77470000D02*
X210820000Y-78105000D01*
X208915000Y-82550000D02*
X208280000Y-81915000D01*
X208280000Y-81915000D02*
X208280000Y-80645000D01*
X208280000Y-80645000D02*
X208915000Y-80010000D01*
X210185000Y-80010000D02*
X210820000Y-80645000D01*
X210820000Y-80645000D02*
X210820000Y-81915000D01*
X210820000Y-81915000D02*
X210185000Y-82550000D01*
X208280000Y-79375000D02*
X208915000Y-80010000D01*
X210185000Y-80010000D02*
X210820000Y-79375000D01*
X210820000Y-78105000D02*
X210820000Y-79375000D01*
X208280000Y-86995000D02*
X208280000Y-85725000D01*
X208280000Y-85725000D02*
X208915000Y-85090000D01*
X210185000Y-85090000D02*
X210820000Y-85725000D01*
X208915000Y-85090000D02*
X208280000Y-84455000D01*
X208280000Y-84455000D02*
X208280000Y-83185000D01*
X208280000Y-83185000D02*
X208915000Y-82550000D01*
X210185000Y-82550000D02*
X210820000Y-83185000D01*
X210820000Y-83185000D02*
X210820000Y-84455000D01*
X210820000Y-84455000D02*
X210185000Y-85090000D01*
X208915000Y-90170000D02*
X208280000Y-89535000D01*
X208280000Y-89535000D02*
X208280000Y-88265000D01*
X208280000Y-88265000D02*
X208915000Y-87630000D01*
X210185000Y-87630000D02*
X210820000Y-88265000D01*
X210820000Y-88265000D02*
X210820000Y-89535000D01*
X210820000Y-89535000D02*
X210185000Y-90170000D01*
X208280000Y-86995000D02*
X208915000Y-87630000D01*
X210185000Y-87630000D02*
X210820000Y-86995000D01*
X210820000Y-85725000D02*
X210820000Y-86995000D01*
X208280000Y-94615000D02*
X208280000Y-93345000D01*
X208280000Y-93345000D02*
X208915000Y-92710000D01*
X210185000Y-92710000D02*
X210820000Y-93345000D01*
X208915000Y-92710000D02*
X208280000Y-92075000D01*
X208280000Y-92075000D02*
X208280000Y-90805000D01*
X208280000Y-90805000D02*
X208915000Y-90170000D01*
X210185000Y-90170000D02*
X210820000Y-90805000D01*
X210820000Y-90805000D02*
X210820000Y-92075000D01*
X210820000Y-92075000D02*
X210185000Y-92710000D01*
X208915000Y-95250000D02*
X210185000Y-95250000D01*
X208280000Y-94615000D02*
X208915000Y-95250000D01*
X210185000Y-95250000D02*
X210820000Y-94615000D01*
X210820000Y-93345000D02*
X210820000Y-94615000D01*
X208280000Y-76835000D02*
X208280000Y-75565000D01*
X208280000Y-75565000D02*
X208915000Y-74930000D01*
X208915000Y-74930000D02*
X210185000Y-74930000D01*
X210185000Y-74930000D02*
X210820000Y-75565000D01*
X208280000Y-76835000D02*
X208915000Y-77470000D01*
X210185000Y-77470000D02*
X210820000Y-76835000D01*
X210820000Y-75565000D02*
X210820000Y-76835000D01*
X202565000Y-74930000D02*
X203835000Y-74930000D01*
X203835000Y-74930000D02*
X204470000Y-75565000D01*
X204470000Y-76835000D02*
X203835000Y-77470000D01*
X199390000Y-75565000D02*
X200025000Y-74930000D01*
X200025000Y-74930000D02*
X201295000Y-74930000D01*
X201295000Y-74930000D02*
X201930000Y-75565000D01*
X201930000Y-76835000D02*
X201295000Y-77470000D01*
X201295000Y-77470000D02*
X200025000Y-77470000D01*
X200025000Y-77470000D02*
X199390000Y-76835000D01*
X202565000Y-74930000D02*
X201930000Y-75565000D01*
X201930000Y-76835000D02*
X202565000Y-77470000D01*
X203835000Y-77470000D02*
X202565000Y-77470000D01*
X194945000Y-74930000D02*
X196215000Y-74930000D01*
X196215000Y-74930000D02*
X196850000Y-75565000D01*
X196850000Y-76835000D02*
X196215000Y-77470000D01*
X196850000Y-75565000D02*
X197485000Y-74930000D01*
X197485000Y-74930000D02*
X198755000Y-74930000D01*
X198755000Y-74930000D02*
X199390000Y-75565000D01*
X199390000Y-76835000D02*
X198755000Y-77470000D01*
X198755000Y-77470000D02*
X197485000Y-77470000D01*
X197485000Y-77470000D02*
X196850000Y-76835000D01*
X191770000Y-75565000D02*
X192405000Y-74930000D01*
X192405000Y-74930000D02*
X193675000Y-74930000D01*
X193675000Y-74930000D02*
X194310000Y-75565000D01*
X194310000Y-76835000D02*
X193675000Y-77470000D01*
X193675000Y-77470000D02*
X192405000Y-77470000D01*
X192405000Y-77470000D02*
X191770000Y-76835000D01*
X194945000Y-74930000D02*
X194310000Y-75565000D01*
X194310000Y-76835000D02*
X194945000Y-77470000D01*
X196215000Y-77470000D02*
X194945000Y-77470000D01*
X187325000Y-74930000D02*
X188595000Y-74930000D01*
X188595000Y-74930000D02*
X189230000Y-75565000D01*
X189230000Y-76835000D02*
X188595000Y-77470000D01*
X189230000Y-75565000D02*
X189865000Y-74930000D01*
X189865000Y-74930000D02*
X191135000Y-74930000D01*
X191135000Y-74930000D02*
X191770000Y-75565000D01*
X191770000Y-76835000D02*
X191135000Y-77470000D01*
X191135000Y-77470000D02*
X189865000Y-77470000D01*
X189865000Y-77470000D02*
X189230000Y-76835000D01*
X186690000Y-75565000D02*
X186690000Y-76835000D01*
X187325000Y-74930000D02*
X186690000Y-75565000D01*
X186690000Y-76835000D02*
X187325000Y-77470000D01*
X188595000Y-77470000D02*
X187325000Y-77470000D01*
X205105000Y-74930000D02*
X206375000Y-74930000D01*
X206375000Y-74930000D02*
X207010000Y-75565000D01*
X207010000Y-75565000D02*
X207010000Y-76835000D01*
X207010000Y-76835000D02*
X206375000Y-77470000D01*
X205105000Y-74930000D02*
X204470000Y-75565000D01*
X204470000Y-76835000D02*
X205105000Y-77470000D01*
X206375000Y-77470000D02*
X205105000Y-77470000D01*
X191135000Y-82550000D02*
X189865000Y-82550000D01*
X189865000Y-82550000D02*
X189230000Y-81915000D01*
X189230000Y-80645000D02*
X189865000Y-80010000D01*
X194310000Y-81915000D02*
X193675000Y-82550000D01*
X193675000Y-82550000D02*
X192405000Y-82550000D01*
X192405000Y-82550000D02*
X191770000Y-81915000D01*
X191770000Y-80645000D02*
X192405000Y-80010000D01*
X192405000Y-80010000D02*
X193675000Y-80010000D01*
X193675000Y-80010000D02*
X194310000Y-80645000D01*
X191135000Y-82550000D02*
X191770000Y-81915000D01*
X191770000Y-80645000D02*
X191135000Y-80010000D01*
X189865000Y-80010000D02*
X191135000Y-80010000D01*
X198755000Y-82550000D02*
X197485000Y-82550000D01*
X197485000Y-82550000D02*
X196850000Y-81915000D01*
X196850000Y-80645000D02*
X197485000Y-80010000D01*
X196850000Y-81915000D02*
X196215000Y-82550000D01*
X196215000Y-82550000D02*
X194945000Y-82550000D01*
X194945000Y-82550000D02*
X194310000Y-81915000D01*
X194310000Y-80645000D02*
X194945000Y-80010000D01*
X194945000Y-80010000D02*
X196215000Y-80010000D01*
X196215000Y-80010000D02*
X196850000Y-80645000D01*
X201930000Y-81915000D02*
X201295000Y-82550000D01*
X201295000Y-82550000D02*
X200025000Y-82550000D01*
X200025000Y-82550000D02*
X199390000Y-81915000D01*
X199390000Y-80645000D02*
X200025000Y-80010000D01*
X200025000Y-80010000D02*
X201295000Y-80010000D01*
X201295000Y-80010000D02*
X201930000Y-80645000D01*
X198755000Y-82550000D02*
X199390000Y-81915000D01*
X199390000Y-80645000D02*
X198755000Y-80010000D01*
X197485000Y-80010000D02*
X198755000Y-80010000D01*
X206375000Y-82550000D02*
X205105000Y-82550000D01*
X205105000Y-82550000D02*
X204470000Y-81915000D01*
X204470000Y-80645000D02*
X205105000Y-80010000D01*
X204470000Y-81915000D02*
X203835000Y-82550000D01*
X203835000Y-82550000D02*
X202565000Y-82550000D01*
X202565000Y-82550000D02*
X201930000Y-81915000D01*
X201930000Y-80645000D02*
X202565000Y-80010000D01*
X202565000Y-80010000D02*
X203835000Y-80010000D01*
X203835000Y-80010000D02*
X204470000Y-80645000D01*
X207010000Y-81915000D02*
X207010000Y-80645000D01*
X206375000Y-82550000D02*
X207010000Y-81915000D01*
X207010000Y-80645000D02*
X206375000Y-80010000D01*
X205105000Y-80010000D02*
X206375000Y-80010000D01*
X188595000Y-82550000D02*
X187325000Y-82550000D01*
X187325000Y-82550000D02*
X186690000Y-81915000D01*
X186690000Y-81915000D02*
X186690000Y-80645000D01*
X186690000Y-80645000D02*
X187325000Y-80010000D01*
X188595000Y-82550000D02*
X189230000Y-81915000D01*
X189230000Y-80645000D02*
X188595000Y-80010000D01*
X187325000Y-80010000D02*
X188595000Y-80010000D01*
X213360000Y-79375000D02*
X213360000Y-78105000D01*
X213360000Y-78105000D02*
X213995000Y-77470000D01*
X215265000Y-77470000D02*
X215900000Y-78105000D01*
X213995000Y-82550000D02*
X213360000Y-81915000D01*
X213360000Y-81915000D02*
X213360000Y-80645000D01*
X213360000Y-80645000D02*
X213995000Y-80010000D01*
X215265000Y-80010000D02*
X215900000Y-80645000D01*
X215900000Y-80645000D02*
X215900000Y-81915000D01*
X215900000Y-81915000D02*
X215265000Y-82550000D01*
X213360000Y-79375000D02*
X213995000Y-80010000D01*
X215265000Y-80010000D02*
X215900000Y-79375000D01*
X215900000Y-78105000D02*
X215900000Y-79375000D01*
X213360000Y-86995000D02*
X213360000Y-85725000D01*
X213360000Y-85725000D02*
X213995000Y-85090000D01*
X215265000Y-85090000D02*
X215900000Y-85725000D01*
X213995000Y-85090000D02*
X213360000Y-84455000D01*
X213360000Y-84455000D02*
X213360000Y-83185000D01*
X213360000Y-83185000D02*
X213995000Y-82550000D01*
X215265000Y-82550000D02*
X215900000Y-83185000D01*
X215900000Y-83185000D02*
X215900000Y-84455000D01*
X215900000Y-84455000D02*
X215265000Y-85090000D01*
X213995000Y-90170000D02*
X213360000Y-89535000D01*
X213360000Y-89535000D02*
X213360000Y-88265000D01*
X213360000Y-88265000D02*
X213995000Y-87630000D01*
X215265000Y-87630000D02*
X215900000Y-88265000D01*
X215900000Y-88265000D02*
X215900000Y-89535000D01*
X215900000Y-89535000D02*
X215265000Y-90170000D01*
X213360000Y-86995000D02*
X213995000Y-87630000D01*
X215265000Y-87630000D02*
X215900000Y-86995000D01*
X215900000Y-85725000D02*
X215900000Y-86995000D01*
X213360000Y-94615000D02*
X213360000Y-93345000D01*
X213360000Y-93345000D02*
X213995000Y-92710000D01*
X215265000Y-92710000D02*
X215900000Y-93345000D01*
X213995000Y-92710000D02*
X213360000Y-92075000D01*
X213360000Y-92075000D02*
X213360000Y-90805000D01*
X213360000Y-90805000D02*
X213995000Y-90170000D01*
X215265000Y-90170000D02*
X215900000Y-90805000D01*
X215900000Y-90805000D02*
X215900000Y-92075000D01*
X215900000Y-92075000D02*
X215265000Y-92710000D01*
X213995000Y-95250000D02*
X215265000Y-95250000D01*
X213360000Y-94615000D02*
X213995000Y-95250000D01*
X215265000Y-95250000D02*
X215900000Y-94615000D01*
X215900000Y-93345000D02*
X215900000Y-94615000D01*
X213360000Y-76835000D02*
X213360000Y-75565000D01*
X213360000Y-75565000D02*
X213995000Y-74930000D01*
X213995000Y-74930000D02*
X215265000Y-74930000D01*
X215265000Y-74930000D02*
X215900000Y-75565000D01*
X213360000Y-76835000D02*
X213995000Y-77470000D01*
X215265000Y-77470000D02*
X215900000Y-76835000D01*
X215900000Y-75565000D02*
X215900000Y-76835000D01*
X218440000Y-90805000D02*
X218440000Y-92075000D01*
X218440000Y-92075000D02*
X217805000Y-92710000D01*
X216535000Y-92710000D02*
X215900000Y-92075000D01*
X217805000Y-87630000D02*
X218440000Y-88265000D01*
X218440000Y-88265000D02*
X218440000Y-89535000D01*
X218440000Y-89535000D02*
X217805000Y-90170000D01*
X216535000Y-90170000D02*
X215900000Y-89535000D01*
X215900000Y-89535000D02*
X215900000Y-88265000D01*
X215900000Y-88265000D02*
X216535000Y-87630000D01*
X218440000Y-90805000D02*
X217805000Y-90170000D01*
X216535000Y-90170000D02*
X215900000Y-90805000D01*
X215900000Y-92075000D02*
X215900000Y-90805000D01*
X218440000Y-83185000D02*
X218440000Y-84455000D01*
X218440000Y-84455000D02*
X217805000Y-85090000D01*
X216535000Y-85090000D02*
X215900000Y-84455000D01*
X217805000Y-85090000D02*
X218440000Y-85725000D01*
X218440000Y-85725000D02*
X218440000Y-86995000D01*
X218440000Y-86995000D02*
X217805000Y-87630000D01*
X216535000Y-87630000D02*
X215900000Y-86995000D01*
X215900000Y-86995000D02*
X215900000Y-85725000D01*
X215900000Y-85725000D02*
X216535000Y-85090000D01*
X217805000Y-80010000D02*
X218440000Y-80645000D01*
X218440000Y-80645000D02*
X218440000Y-81915000D01*
X218440000Y-81915000D02*
X217805000Y-82550000D01*
X216535000Y-82550000D02*
X215900000Y-81915000D01*
X215900000Y-81915000D02*
X215900000Y-80645000D01*
X215900000Y-80645000D02*
X216535000Y-80010000D01*
X218440000Y-83185000D02*
X217805000Y-82550000D01*
X216535000Y-82550000D02*
X215900000Y-83185000D01*
X215900000Y-84455000D02*
X215900000Y-83185000D01*
X218440000Y-75565000D02*
X218440000Y-76835000D01*
X218440000Y-76835000D02*
X217805000Y-77470000D01*
X216535000Y-77470000D02*
X215900000Y-76835000D01*
X217805000Y-77470000D02*
X218440000Y-78105000D01*
X218440000Y-78105000D02*
X218440000Y-79375000D01*
X218440000Y-79375000D02*
X217805000Y-80010000D01*
X216535000Y-80010000D02*
X215900000Y-79375000D01*
X215900000Y-79375000D02*
X215900000Y-78105000D01*
X215900000Y-78105000D02*
X216535000Y-77470000D01*
X217805000Y-74930000D02*
X216535000Y-74930000D01*
X218440000Y-75565000D02*
X217805000Y-74930000D01*
X216535000Y-74930000D02*
X215900000Y-75565000D01*
X215900000Y-76835000D02*
X215900000Y-75565000D01*
X218440000Y-93345000D02*
X218440000Y-94615000D01*
X218440000Y-94615000D02*
X217805000Y-95250000D01*
X217805000Y-95250000D02*
X216535000Y-95250000D01*
X216535000Y-95250000D02*
X215900000Y-94615000D01*
X218440000Y-93345000D02*
X217805000Y-92710000D01*
X216535000Y-92710000D02*
X215900000Y-93345000D01*
X215900000Y-94615000D02*
X215900000Y-93345000D01*
X191135000Y-62230000D02*
X189865000Y-62230000D01*
X189865000Y-62230000D02*
X189230000Y-61595000D01*
X189230000Y-60325000D02*
X189865000Y-59690000D01*
X194310000Y-61595000D02*
X193675000Y-62230000D01*
X193675000Y-62230000D02*
X192405000Y-62230000D01*
X192405000Y-62230000D02*
X191770000Y-61595000D01*
X191770000Y-60325000D02*
X192405000Y-59690000D01*
X192405000Y-59690000D02*
X193675000Y-59690000D01*
X193675000Y-59690000D02*
X194310000Y-60325000D01*
X191135000Y-62230000D02*
X191770000Y-61595000D01*
X191770000Y-60325000D02*
X191135000Y-59690000D01*
X189865000Y-59690000D02*
X191135000Y-59690000D01*
X198755000Y-62230000D02*
X197485000Y-62230000D01*
X197485000Y-62230000D02*
X196850000Y-61595000D01*
X196850000Y-60325000D02*
X197485000Y-59690000D01*
X196850000Y-61595000D02*
X196215000Y-62230000D01*
X196215000Y-62230000D02*
X194945000Y-62230000D01*
X194945000Y-62230000D02*
X194310000Y-61595000D01*
X194310000Y-60325000D02*
X194945000Y-59690000D01*
X194945000Y-59690000D02*
X196215000Y-59690000D01*
X196215000Y-59690000D02*
X196850000Y-60325000D01*
X201930000Y-61595000D02*
X201295000Y-62230000D01*
X201295000Y-62230000D02*
X200025000Y-62230000D01*
X200025000Y-62230000D02*
X199390000Y-61595000D01*
X199390000Y-60325000D02*
X200025000Y-59690000D01*
X200025000Y-59690000D02*
X201295000Y-59690000D01*
X201295000Y-59690000D02*
X201930000Y-60325000D01*
X198755000Y-62230000D02*
X199390000Y-61595000D01*
X199390000Y-60325000D02*
X198755000Y-59690000D01*
X197485000Y-59690000D02*
X198755000Y-59690000D01*
X206375000Y-62230000D02*
X205105000Y-62230000D01*
X205105000Y-62230000D02*
X204470000Y-61595000D01*
X204470000Y-60325000D02*
X205105000Y-59690000D01*
X204470000Y-61595000D02*
X203835000Y-62230000D01*
X203835000Y-62230000D02*
X202565000Y-62230000D01*
X202565000Y-62230000D02*
X201930000Y-61595000D01*
X201930000Y-60325000D02*
X202565000Y-59690000D01*
X202565000Y-59690000D02*
X203835000Y-59690000D01*
X203835000Y-59690000D02*
X204470000Y-60325000D01*
X207010000Y-61595000D02*
X207010000Y-60325000D01*
X206375000Y-62230000D02*
X207010000Y-61595000D01*
X207010000Y-60325000D02*
X206375000Y-59690000D01*
X205105000Y-59690000D02*
X206375000Y-59690000D01*
X188595000Y-62230000D02*
X187325000Y-62230000D01*
X187325000Y-62230000D02*
X186690000Y-61595000D01*
X186690000Y-61595000D02*
X186690000Y-60325000D01*
X186690000Y-60325000D02*
X187325000Y-59690000D01*
X188595000Y-62230000D02*
X189230000Y-61595000D01*
X189230000Y-60325000D02*
X188595000Y-59690000D01*
X187325000Y-59690000D02*
X188595000Y-59690000D01*
X202565000Y-54610000D02*
X203835000Y-54610000D01*
X203835000Y-54610000D02*
X204470000Y-55245000D01*
X204470000Y-56515000D02*
X203835000Y-57150000D01*
X199390000Y-55245000D02*
X200025000Y-54610000D01*
X200025000Y-54610000D02*
X201295000Y-54610000D01*
X201295000Y-54610000D02*
X201930000Y-55245000D01*
X201930000Y-56515000D02*
X201295000Y-57150000D01*
X201295000Y-57150000D02*
X200025000Y-57150000D01*
X200025000Y-57150000D02*
X199390000Y-56515000D01*
X202565000Y-54610000D02*
X201930000Y-55245000D01*
X201930000Y-56515000D02*
X202565000Y-57150000D01*
X203835000Y-57150000D02*
X202565000Y-57150000D01*
X194945000Y-54610000D02*
X196215000Y-54610000D01*
X196215000Y-54610000D02*
X196850000Y-55245000D01*
X196850000Y-56515000D02*
X196215000Y-57150000D01*
X196850000Y-55245000D02*
X197485000Y-54610000D01*
X197485000Y-54610000D02*
X198755000Y-54610000D01*
X198755000Y-54610000D02*
X199390000Y-55245000D01*
X199390000Y-56515000D02*
X198755000Y-57150000D01*
X198755000Y-57150000D02*
X197485000Y-57150000D01*
X197485000Y-57150000D02*
X196850000Y-56515000D01*
X191770000Y-55245000D02*
X192405000Y-54610000D01*
X192405000Y-54610000D02*
X193675000Y-54610000D01*
X193675000Y-54610000D02*
X194310000Y-55245000D01*
X194310000Y-56515000D02*
X193675000Y-57150000D01*
X193675000Y-57150000D02*
X192405000Y-57150000D01*
X192405000Y-57150000D02*
X191770000Y-56515000D01*
X194945000Y-54610000D02*
X194310000Y-55245000D01*
X194310000Y-56515000D02*
X194945000Y-57150000D01*
X196215000Y-57150000D02*
X194945000Y-57150000D01*
X187325000Y-54610000D02*
X188595000Y-54610000D01*
X188595000Y-54610000D02*
X189230000Y-55245000D01*
X189230000Y-56515000D02*
X188595000Y-57150000D01*
X189230000Y-55245000D02*
X189865000Y-54610000D01*
X189865000Y-54610000D02*
X191135000Y-54610000D01*
X191135000Y-54610000D02*
X191770000Y-55245000D01*
X191770000Y-56515000D02*
X191135000Y-57150000D01*
X191135000Y-57150000D02*
X189865000Y-57150000D01*
X189865000Y-57150000D02*
X189230000Y-56515000D01*
X186690000Y-55245000D02*
X186690000Y-56515000D01*
X187325000Y-54610000D02*
X186690000Y-55245000D01*
X186690000Y-56515000D02*
X187325000Y-57150000D01*
X188595000Y-57150000D02*
X187325000Y-57150000D01*
X205105000Y-54610000D02*
X206375000Y-54610000D01*
X206375000Y-54610000D02*
X207010000Y-55245000D01*
X207010000Y-55245000D02*
X207010000Y-56515000D01*
X207010000Y-56515000D02*
X206375000Y-57150000D01*
X205105000Y-54610000D02*
X204470000Y-55245000D01*
X204470000Y-56515000D02*
X205105000Y-57150000D01*
X206375000Y-57150000D02*
X205105000Y-57150000D01*
X218440000Y-70485000D02*
X218440000Y-71755000D01*
X218440000Y-71755000D02*
X217805000Y-72390000D01*
X216535000Y-72390000D02*
X215900000Y-71755000D01*
X217805000Y-67310000D02*
X218440000Y-67945000D01*
X218440000Y-67945000D02*
X218440000Y-69215000D01*
X218440000Y-69215000D02*
X217805000Y-69850000D01*
X216535000Y-69850000D02*
X215900000Y-69215000D01*
X215900000Y-69215000D02*
X215900000Y-67945000D01*
X215900000Y-67945000D02*
X216535000Y-67310000D01*
X218440000Y-70485000D02*
X217805000Y-69850000D01*
X216535000Y-69850000D02*
X215900000Y-70485000D01*
X215900000Y-71755000D02*
X215900000Y-70485000D01*
X218440000Y-62865000D02*
X218440000Y-64135000D01*
X218440000Y-64135000D02*
X217805000Y-64770000D01*
X216535000Y-64770000D02*
X215900000Y-64135000D01*
X217805000Y-64770000D02*
X218440000Y-65405000D01*
X218440000Y-65405000D02*
X218440000Y-66675000D01*
X218440000Y-66675000D02*
X217805000Y-67310000D01*
X216535000Y-67310000D02*
X215900000Y-66675000D01*
X215900000Y-66675000D02*
X215900000Y-65405000D01*
X215900000Y-65405000D02*
X216535000Y-64770000D01*
X217805000Y-59690000D02*
X218440000Y-60325000D01*
X218440000Y-60325000D02*
X218440000Y-61595000D01*
X218440000Y-61595000D02*
X217805000Y-62230000D01*
X216535000Y-62230000D02*
X215900000Y-61595000D01*
X215900000Y-61595000D02*
X215900000Y-60325000D01*
X215900000Y-60325000D02*
X216535000Y-59690000D01*
X218440000Y-62865000D02*
X217805000Y-62230000D01*
X216535000Y-62230000D02*
X215900000Y-62865000D01*
X215900000Y-64135000D02*
X215900000Y-62865000D01*
X218440000Y-55245000D02*
X218440000Y-56515000D01*
X218440000Y-56515000D02*
X217805000Y-57150000D01*
X216535000Y-57150000D02*
X215900000Y-56515000D01*
X217805000Y-57150000D02*
X218440000Y-57785000D01*
X218440000Y-57785000D02*
X218440000Y-59055000D01*
X218440000Y-59055000D02*
X217805000Y-59690000D01*
X216535000Y-59690000D02*
X215900000Y-59055000D01*
X215900000Y-59055000D02*
X215900000Y-57785000D01*
X215900000Y-57785000D02*
X216535000Y-57150000D01*
X217805000Y-54610000D02*
X216535000Y-54610000D01*
X218440000Y-55245000D02*
X217805000Y-54610000D01*
X216535000Y-54610000D02*
X215900000Y-55245000D01*
X215900000Y-56515000D02*
X215900000Y-55245000D01*
X218440000Y-73025000D02*
X218440000Y-74295000D01*
X218440000Y-74295000D02*
X217805000Y-74930000D01*
X217805000Y-74930000D02*
X216535000Y-74930000D01*
X216535000Y-74930000D02*
X215900000Y-74295000D01*
X218440000Y-73025000D02*
X217805000Y-72390000D01*
X216535000Y-72390000D02*
X215900000Y-73025000D01*
X215900000Y-74295000D02*
X215900000Y-73025000D01*
X213360000Y-59055000D02*
X213360000Y-57785000D01*
X213360000Y-57785000D02*
X213995000Y-57150000D01*
X215265000Y-57150000D02*
X215900000Y-57785000D01*
X213995000Y-62230000D02*
X213360000Y-61595000D01*
X213360000Y-61595000D02*
X213360000Y-60325000D01*
X213360000Y-60325000D02*
X213995000Y-59690000D01*
X215265000Y-59690000D02*
X215900000Y-60325000D01*
X215900000Y-60325000D02*
X215900000Y-61595000D01*
X215900000Y-61595000D02*
X215265000Y-62230000D01*
X213360000Y-59055000D02*
X213995000Y-59690000D01*
X215265000Y-59690000D02*
X215900000Y-59055000D01*
X215900000Y-57785000D02*
X215900000Y-59055000D01*
X213360000Y-66675000D02*
X213360000Y-65405000D01*
X213360000Y-65405000D02*
X213995000Y-64770000D01*
X215265000Y-64770000D02*
X215900000Y-65405000D01*
X213995000Y-64770000D02*
X213360000Y-64135000D01*
X213360000Y-64135000D02*
X213360000Y-62865000D01*
X213360000Y-62865000D02*
X213995000Y-62230000D01*
X215265000Y-62230000D02*
X215900000Y-62865000D01*
X215900000Y-62865000D02*
X215900000Y-64135000D01*
X215900000Y-64135000D02*
X215265000Y-64770000D01*
X213995000Y-69850000D02*
X213360000Y-69215000D01*
X213360000Y-69215000D02*
X213360000Y-67945000D01*
X213360000Y-67945000D02*
X213995000Y-67310000D01*
X215265000Y-67310000D02*
X215900000Y-67945000D01*
X215900000Y-67945000D02*
X215900000Y-69215000D01*
X215900000Y-69215000D02*
X215265000Y-69850000D01*
X213360000Y-66675000D02*
X213995000Y-67310000D01*
X215265000Y-67310000D02*
X215900000Y-66675000D01*
X215900000Y-65405000D02*
X215900000Y-66675000D01*
X213360000Y-74295000D02*
X213360000Y-73025000D01*
X213360000Y-73025000D02*
X213995000Y-72390000D01*
X215265000Y-72390000D02*
X215900000Y-73025000D01*
X213995000Y-72390000D02*
X213360000Y-71755000D01*
X213360000Y-71755000D02*
X213360000Y-70485000D01*
X213360000Y-70485000D02*
X213995000Y-69850000D01*
X215265000Y-69850000D02*
X215900000Y-70485000D01*
X215900000Y-70485000D02*
X215900000Y-71755000D01*
X215900000Y-71755000D02*
X215265000Y-72390000D01*
X213995000Y-74930000D02*
X215265000Y-74930000D01*
X213360000Y-74295000D02*
X213995000Y-74930000D01*
X215265000Y-74930000D02*
X215900000Y-74295000D01*
X215900000Y-73025000D02*
X215900000Y-74295000D01*
X213360000Y-56515000D02*
X213360000Y-55245000D01*
X213360000Y-55245000D02*
X213995000Y-54610000D01*
X213995000Y-54610000D02*
X215265000Y-54610000D01*
X215265000Y-54610000D02*
X215900000Y-55245000D01*
X213360000Y-56515000D02*
X213995000Y-57150000D01*
X215265000Y-57150000D02*
X215900000Y-56515000D01*
X215900000Y-55245000D02*
X215900000Y-56515000D01*
X191135000Y-67310000D02*
X189865000Y-67310000D01*
X189865000Y-67310000D02*
X189230000Y-66675000D01*
X189230000Y-65405000D02*
X189865000Y-64770000D01*
X194310000Y-66675000D02*
X193675000Y-67310000D01*
X193675000Y-67310000D02*
X192405000Y-67310000D01*
X192405000Y-67310000D02*
X191770000Y-66675000D01*
X191770000Y-65405000D02*
X192405000Y-64770000D01*
X192405000Y-64770000D02*
X193675000Y-64770000D01*
X193675000Y-64770000D02*
X194310000Y-65405000D01*
X191135000Y-67310000D02*
X191770000Y-66675000D01*
X191770000Y-65405000D02*
X191135000Y-64770000D01*
X189865000Y-64770000D02*
X191135000Y-64770000D01*
X198755000Y-67310000D02*
X197485000Y-67310000D01*
X197485000Y-67310000D02*
X196850000Y-66675000D01*
X196850000Y-65405000D02*
X197485000Y-64770000D01*
X196850000Y-66675000D02*
X196215000Y-67310000D01*
X196215000Y-67310000D02*
X194945000Y-67310000D01*
X194945000Y-67310000D02*
X194310000Y-66675000D01*
X194310000Y-65405000D02*
X194945000Y-64770000D01*
X194945000Y-64770000D02*
X196215000Y-64770000D01*
X196215000Y-64770000D02*
X196850000Y-65405000D01*
X201930000Y-66675000D02*
X201295000Y-67310000D01*
X201295000Y-67310000D02*
X200025000Y-67310000D01*
X200025000Y-67310000D02*
X199390000Y-66675000D01*
X199390000Y-65405000D02*
X200025000Y-64770000D01*
X200025000Y-64770000D02*
X201295000Y-64770000D01*
X201295000Y-64770000D02*
X201930000Y-65405000D01*
X198755000Y-67310000D02*
X199390000Y-66675000D01*
X199390000Y-65405000D02*
X198755000Y-64770000D01*
X197485000Y-64770000D02*
X198755000Y-64770000D01*
X206375000Y-67310000D02*
X205105000Y-67310000D01*
X205105000Y-67310000D02*
X204470000Y-66675000D01*
X204470000Y-65405000D02*
X205105000Y-64770000D01*
X204470000Y-66675000D02*
X203835000Y-67310000D01*
X203835000Y-67310000D02*
X202565000Y-67310000D01*
X202565000Y-67310000D02*
X201930000Y-66675000D01*
X201930000Y-65405000D02*
X202565000Y-64770000D01*
X202565000Y-64770000D02*
X203835000Y-64770000D01*
X203835000Y-64770000D02*
X204470000Y-65405000D01*
X207010000Y-66675000D02*
X207010000Y-65405000D01*
X206375000Y-67310000D02*
X207010000Y-66675000D01*
X207010000Y-65405000D02*
X206375000Y-64770000D01*
X205105000Y-64770000D02*
X206375000Y-64770000D01*
X188595000Y-67310000D02*
X187325000Y-67310000D01*
X187325000Y-67310000D02*
X186690000Y-66675000D01*
X186690000Y-66675000D02*
X186690000Y-65405000D01*
X186690000Y-65405000D02*
X187325000Y-64770000D01*
X188595000Y-67310000D02*
X189230000Y-66675000D01*
X189230000Y-65405000D02*
X188595000Y-64770000D01*
X187325000Y-64770000D02*
X188595000Y-64770000D01*
X202565000Y-69850000D02*
X203835000Y-69850000D01*
X203835000Y-69850000D02*
X204470000Y-70485000D01*
X204470000Y-71755000D02*
X203835000Y-72390000D01*
X199390000Y-70485000D02*
X200025000Y-69850000D01*
X200025000Y-69850000D02*
X201295000Y-69850000D01*
X201295000Y-69850000D02*
X201930000Y-70485000D01*
X201930000Y-71755000D02*
X201295000Y-72390000D01*
X201295000Y-72390000D02*
X200025000Y-72390000D01*
X200025000Y-72390000D02*
X199390000Y-71755000D01*
X202565000Y-69850000D02*
X201930000Y-70485000D01*
X201930000Y-71755000D02*
X202565000Y-72390000D01*
X203835000Y-72390000D02*
X202565000Y-72390000D01*
X194945000Y-69850000D02*
X196215000Y-69850000D01*
X196215000Y-69850000D02*
X196850000Y-70485000D01*
X196850000Y-71755000D02*
X196215000Y-72390000D01*
X196850000Y-70485000D02*
X197485000Y-69850000D01*
X197485000Y-69850000D02*
X198755000Y-69850000D01*
X198755000Y-69850000D02*
X199390000Y-70485000D01*
X199390000Y-71755000D02*
X198755000Y-72390000D01*
X198755000Y-72390000D02*
X197485000Y-72390000D01*
X197485000Y-72390000D02*
X196850000Y-71755000D01*
X191770000Y-70485000D02*
X192405000Y-69850000D01*
X192405000Y-69850000D02*
X193675000Y-69850000D01*
X193675000Y-69850000D02*
X194310000Y-70485000D01*
X194310000Y-71755000D02*
X193675000Y-72390000D01*
X193675000Y-72390000D02*
X192405000Y-72390000D01*
X192405000Y-72390000D02*
X191770000Y-71755000D01*
X194945000Y-69850000D02*
X194310000Y-70485000D01*
X194310000Y-71755000D02*
X194945000Y-72390000D01*
X196215000Y-72390000D02*
X194945000Y-72390000D01*
X187325000Y-69850000D02*
X188595000Y-69850000D01*
X188595000Y-69850000D02*
X189230000Y-70485000D01*
X189230000Y-71755000D02*
X188595000Y-72390000D01*
X189230000Y-70485000D02*
X189865000Y-69850000D01*
X189865000Y-69850000D02*
X191135000Y-69850000D01*
X191135000Y-69850000D02*
X191770000Y-70485000D01*
X191770000Y-71755000D02*
X191135000Y-72390000D01*
X191135000Y-72390000D02*
X189865000Y-72390000D01*
X189865000Y-72390000D02*
X189230000Y-71755000D01*
X186690000Y-70485000D02*
X186690000Y-71755000D01*
X187325000Y-69850000D02*
X186690000Y-70485000D01*
X186690000Y-71755000D02*
X187325000Y-72390000D01*
X188595000Y-72390000D02*
X187325000Y-72390000D01*
X205105000Y-69850000D02*
X206375000Y-69850000D01*
X206375000Y-69850000D02*
X207010000Y-70485000D01*
X207010000Y-70485000D02*
X207010000Y-71755000D01*
X207010000Y-71755000D02*
X206375000Y-72390000D01*
X205105000Y-69850000D02*
X204470000Y-70485000D01*
X204470000Y-71755000D02*
X205105000Y-72390000D01*
X206375000Y-72390000D02*
X205105000Y-72390000D01*
X202565000Y-85090000D02*
X203835000Y-85090000D01*
X203835000Y-85090000D02*
X204470000Y-85725000D01*
X204470000Y-86995000D02*
X203835000Y-87630000D01*
X199390000Y-85725000D02*
X200025000Y-85090000D01*
X200025000Y-85090000D02*
X201295000Y-85090000D01*
X201295000Y-85090000D02*
X201930000Y-85725000D01*
X201930000Y-86995000D02*
X201295000Y-87630000D01*
X201295000Y-87630000D02*
X200025000Y-87630000D01*
X200025000Y-87630000D02*
X199390000Y-86995000D01*
X202565000Y-85090000D02*
X201930000Y-85725000D01*
X201930000Y-86995000D02*
X202565000Y-87630000D01*
X203835000Y-87630000D02*
X202565000Y-87630000D01*
X194945000Y-85090000D02*
X196215000Y-85090000D01*
X196215000Y-85090000D02*
X196850000Y-85725000D01*
X196850000Y-86995000D02*
X196215000Y-87630000D01*
X196850000Y-85725000D02*
X197485000Y-85090000D01*
X197485000Y-85090000D02*
X198755000Y-85090000D01*
X198755000Y-85090000D02*
X199390000Y-85725000D01*
X199390000Y-86995000D02*
X198755000Y-87630000D01*
X198755000Y-87630000D02*
X197485000Y-87630000D01*
X197485000Y-87630000D02*
X196850000Y-86995000D01*
X191770000Y-85725000D02*
X192405000Y-85090000D01*
X192405000Y-85090000D02*
X193675000Y-85090000D01*
X193675000Y-85090000D02*
X194310000Y-85725000D01*
X194310000Y-86995000D02*
X193675000Y-87630000D01*
X193675000Y-87630000D02*
X192405000Y-87630000D01*
X192405000Y-87630000D02*
X191770000Y-86995000D01*
X194945000Y-85090000D02*
X194310000Y-85725000D01*
X194310000Y-86995000D02*
X194945000Y-87630000D01*
X196215000Y-87630000D02*
X194945000Y-87630000D01*
X187325000Y-85090000D02*
X188595000Y-85090000D01*
X188595000Y-85090000D02*
X189230000Y-85725000D01*
X189230000Y-86995000D02*
X188595000Y-87630000D01*
X189230000Y-85725000D02*
X189865000Y-85090000D01*
X189865000Y-85090000D02*
X191135000Y-85090000D01*
X191135000Y-85090000D02*
X191770000Y-85725000D01*
X191770000Y-86995000D02*
X191135000Y-87630000D01*
X191135000Y-87630000D02*
X189865000Y-87630000D01*
X189865000Y-87630000D02*
X189230000Y-86995000D01*
X186690000Y-85725000D02*
X186690000Y-86995000D01*
X187325000Y-85090000D02*
X186690000Y-85725000D01*
X186690000Y-86995000D02*
X187325000Y-87630000D01*
X188595000Y-87630000D02*
X187325000Y-87630000D01*
X205105000Y-85090000D02*
X206375000Y-85090000D01*
X206375000Y-85090000D02*
X207010000Y-85725000D01*
X207010000Y-85725000D02*
X207010000Y-86995000D01*
X207010000Y-86995000D02*
X206375000Y-87630000D01*
X205105000Y-85090000D02*
X204470000Y-85725000D01*
X204470000Y-86995000D02*
X205105000Y-87630000D01*
X206375000Y-87630000D02*
X205105000Y-87630000D01*
X202565000Y-100330000D02*
X203835000Y-100330000D01*
X203835000Y-100330000D02*
X204470000Y-100965000D01*
X204470000Y-102235000D02*
X203835000Y-102870000D01*
X199390000Y-100965000D02*
X200025000Y-100330000D01*
X200025000Y-100330000D02*
X201295000Y-100330000D01*
X201295000Y-100330000D02*
X201930000Y-100965000D01*
X201930000Y-102235000D02*
X201295000Y-102870000D01*
X201295000Y-102870000D02*
X200025000Y-102870000D01*
X200025000Y-102870000D02*
X199390000Y-102235000D01*
X202565000Y-100330000D02*
X201930000Y-100965000D01*
X201930000Y-102235000D02*
X202565000Y-102870000D01*
X203835000Y-102870000D02*
X202565000Y-102870000D01*
X194945000Y-100330000D02*
X196215000Y-100330000D01*
X196215000Y-100330000D02*
X196850000Y-100965000D01*
X196850000Y-102235000D02*
X196215000Y-102870000D01*
X196850000Y-100965000D02*
X197485000Y-100330000D01*
X197485000Y-100330000D02*
X198755000Y-100330000D01*
X198755000Y-100330000D02*
X199390000Y-100965000D01*
X199390000Y-102235000D02*
X198755000Y-102870000D01*
X198755000Y-102870000D02*
X197485000Y-102870000D01*
X197485000Y-102870000D02*
X196850000Y-102235000D01*
X191770000Y-100965000D02*
X192405000Y-100330000D01*
X192405000Y-100330000D02*
X193675000Y-100330000D01*
X193675000Y-100330000D02*
X194310000Y-100965000D01*
X194310000Y-102235000D02*
X193675000Y-102870000D01*
X193675000Y-102870000D02*
X192405000Y-102870000D01*
X192405000Y-102870000D02*
X191770000Y-102235000D01*
X194945000Y-100330000D02*
X194310000Y-100965000D01*
X194310000Y-102235000D02*
X194945000Y-102870000D01*
X196215000Y-102870000D02*
X194945000Y-102870000D01*
X187325000Y-100330000D02*
X188595000Y-100330000D01*
X188595000Y-100330000D02*
X189230000Y-100965000D01*
X189230000Y-102235000D02*
X188595000Y-102870000D01*
X189230000Y-100965000D02*
X189865000Y-100330000D01*
X189865000Y-100330000D02*
X191135000Y-100330000D01*
X191135000Y-100330000D02*
X191770000Y-100965000D01*
X191770000Y-102235000D02*
X191135000Y-102870000D01*
X191135000Y-102870000D02*
X189865000Y-102870000D01*
X189865000Y-102870000D02*
X189230000Y-102235000D01*
X186690000Y-100965000D02*
X186690000Y-102235000D01*
X187325000Y-100330000D02*
X186690000Y-100965000D01*
X186690000Y-102235000D02*
X187325000Y-102870000D01*
X188595000Y-102870000D02*
X187325000Y-102870000D01*
X205105000Y-100330000D02*
X206375000Y-100330000D01*
X206375000Y-100330000D02*
X207010000Y-100965000D01*
X207010000Y-100965000D02*
X207010000Y-102235000D01*
X207010000Y-102235000D02*
X206375000Y-102870000D01*
X205105000Y-100330000D02*
X204470000Y-100965000D01*
X204470000Y-102235000D02*
X205105000Y-102870000D01*
X206375000Y-102870000D02*
X205105000Y-102870000D01*
D13*
X213360000Y-135890000D02*
X213360000Y-140970000D01*
X213360000Y-140970000D02*
X210820000Y-140970000D01*
X210820000Y-140970000D02*
X210820000Y-135890000D01*
X210820000Y-135890000D02*
X213360000Y-135890000D01*
X212090000Y-135890000D02*
X212090000Y-134620000D01*
X212090000Y-140970000D02*
X212090000Y-142240000D01*
X207010000Y-140970000D02*
X207010000Y-135890000D01*
X207010000Y-135890000D02*
X209550000Y-135890000D01*
X209550000Y-135890000D02*
X209550000Y-140970000D01*
X209550000Y-140970000D02*
X207010000Y-140970000D01*
X208280000Y-140970000D02*
X208280000Y-142240000D01*
X208280000Y-135890000D02*
X208280000Y-134620000D01*
D15*
X160000000Y-101500000D02*
X110000000Y-101500000D01*
X110000000Y-101500000D02*
X110000000Y-51500000D01*
X110000000Y-51500000D02*
X160000000Y-51500000D01*
X160000000Y-51500000D02*
X160000000Y-101500000D01*
D14*
X123750002Y-86250001D02*
G75*
G02X124500000Y-92000000I-1062501J-3062499D01*
G01*
X121250000Y-86250000D02*
G75*
G03X120500000Y-92000000I1062500J-3062500D01*
G01*
X120500000Y-92000000D02*
X121250000Y-92000000D01*
X124500000Y-92000000D02*
X123750000Y-92000000D01*
X123750002Y-61250001D02*
G75*
G02X124500000Y-67000000I-1062501J-3062499D01*
G01*
X121250000Y-61250000D02*
G75*
G03X120500000Y-67000000I1062500J-3062500D01*
G01*
X120500000Y-67000000D02*
X121250000Y-67000000D01*
X124500000Y-67000000D02*
X123750000Y-67000000D01*
X148750002Y-86250001D02*
G75*
G02X149500000Y-92000000I-1062501J-3062499D01*
G01*
X146250000Y-86250000D02*
G75*
G03X145500000Y-92000000I1062500J-3062500D01*
G01*
X145500000Y-92000000D02*
X146250000Y-92000000D01*
X149500000Y-92000000D02*
X148750000Y-92000000D01*
X148750002Y-61250001D02*
G75*
G02X149500000Y-67000000I-1062501J-3062499D01*
G01*
X146250000Y-61250000D02*
G75*
G03X145500000Y-67000000I1062500J-3062500D01*
G01*
X145500000Y-67000000D02*
X146250000Y-67000000D01*
X149500000Y-67000000D02*
X148750000Y-67000000D01*
D16*
X120535000Y-92354000D02*
X124535000Y-92354000D01*
X120535000Y-92354000D02*
G75*
G02X124535000Y-92354000I2000000J3000000D01*
G01*
X120535000Y-67335000D02*
X124535000Y-67335000D01*
X120535000Y-67335000D02*
G75*
G02X124535000Y-67335000I2000000J3000000D01*
G01*
X145554000Y-92354000D02*
X149554000Y-92354000D01*
X145554000Y-92354000D02*
G75*
G02X149554000Y-92354000I2000000J3000000D01*
G01*
X145554000Y-67335000D02*
X149554000Y-67335000D01*
X145554000Y-67335000D02*
G75*
G02X149554000Y-67335000I2000000J3000000D01*
G01*
D15*
X160000000Y-151500000D02*
X110000000Y-151500000D01*
X110000000Y-151500000D02*
X110000000Y-101500000D01*
X110000000Y-101500000D02*
X160000000Y-101500000D01*
X160000000Y-101500000D02*
X160000000Y-151500000D01*
D14*
X123750002Y-136250001D02*
G75*
G02X124500000Y-142000000I-1062501J-3062499D01*
G01*
X121250000Y-136250000D02*
G75*
G03X120500000Y-142000000I1062500J-3062500D01*
G01*
X120500000Y-142000000D02*
X121250000Y-142000000D01*
X124500000Y-142000000D02*
X123750000Y-142000000D01*
X123750002Y-111250001D02*
G75*
G02X124500000Y-117000000I-1062501J-3062499D01*
G01*
X121250000Y-111250000D02*
G75*
G03X120500000Y-117000000I1062500J-3062500D01*
G01*
X120500000Y-117000000D02*
X121250000Y-117000000D01*
X124500000Y-117000000D02*
X123750000Y-117000000D01*
X148750002Y-136250001D02*
G75*
G02X149500000Y-142000000I-1062501J-3062499D01*
G01*
X146250000Y-136250000D02*
G75*
G03X145500000Y-142000000I1062500J-3062500D01*
G01*
X145500000Y-142000000D02*
X146250000Y-142000000D01*
X149500000Y-142000000D02*
X148750000Y-142000000D01*
X148750002Y-111250001D02*
G75*
G02X149500000Y-117000000I-1062501J-3062499D01*
G01*
X146250000Y-111250000D02*
G75*
G03X145500000Y-117000000I1062500J-3062500D01*
G01*
X145500000Y-117000000D02*
X146250000Y-117000000D01*
X149500000Y-117000000D02*
X148750000Y-117000000D01*
D16*
X120535000Y-142354000D02*
X124535000Y-142354000D01*
X120535000Y-142354000D02*
G75*
G02X124535000Y-142354000I2000000J3000000D01*
G01*
X120535000Y-117335000D02*
X124535000Y-117335000D01*
X120535000Y-117335000D02*
G75*
G02X124535000Y-117335000I2000000J3000000D01*
G01*
X145554000Y-142354000D02*
X149554000Y-142354000D01*
X145554000Y-142354000D02*
G75*
G02X149554000Y-142354000I2000000J3000000D01*
G01*
X145554000Y-117335000D02*
X149554000Y-117335000D01*
X145554000Y-117335000D02*
G75*
G02X149554000Y-117335000I2000000J3000000D01*
G01*
D15*
X110000000Y-151500000D02*
X60000000Y-151500000D01*
X60000000Y-151500000D02*
X60000000Y-101500000D01*
X60000000Y-101500000D02*
X110000000Y-101500000D01*
X110000000Y-101500000D02*
X110000000Y-151500000D01*
D14*
X73750002Y-136250001D02*
G75*
G02X74500000Y-142000000I-1062501J-3062499D01*
G01*
X71250000Y-136250000D02*
G75*
G03X70500000Y-142000000I1062500J-3062500D01*
G01*
X70500000Y-142000000D02*
X71250000Y-142000000D01*
X74500000Y-142000000D02*
X73750000Y-142000000D01*
X73750002Y-111250001D02*
G75*
G02X74500000Y-117000000I-1062501J-3062499D01*
G01*
X71250000Y-111250000D02*
G75*
G03X70500000Y-117000000I1062500J-3062500D01*
G01*
X70500000Y-117000000D02*
X71250000Y-117000000D01*
X74500000Y-117000000D02*
X73750000Y-117000000D01*
X98750002Y-136250001D02*
G75*
G02X99500000Y-142000000I-1062501J-3062499D01*
G01*
X96250000Y-136250000D02*
G75*
G03X95500000Y-142000000I1062500J-3062500D01*
G01*
X95500000Y-142000000D02*
X96250000Y-142000000D01*
X99500000Y-142000000D02*
X98750000Y-142000000D01*
X98750002Y-111250001D02*
G75*
G02X99500000Y-117000000I-1062501J-3062499D01*
G01*
X96250000Y-111250000D02*
G75*
G03X95500000Y-117000000I1062500J-3062500D01*
G01*
X95500000Y-117000000D02*
X96250000Y-117000000D01*
X99500000Y-117000000D02*
X98750000Y-117000000D01*
D16*
X70535000Y-142354000D02*
X74535000Y-142354000D01*
X70535000Y-142354000D02*
G75*
G02X74535000Y-142354000I2000000J3000000D01*
G01*
X70535000Y-117335000D02*
X74535000Y-117335000D01*
X70535000Y-117335000D02*
G75*
G02X74535000Y-117335000I2000000J3000000D01*
G01*
X95554000Y-142354000D02*
X99554000Y-142354000D01*
X95554000Y-142354000D02*
G75*
G02X99554000Y-142354000I2000000J3000000D01*
G01*
X95554000Y-117335000D02*
X99554000Y-117335000D01*
X95554000Y-117335000D02*
G75*
G02X99554000Y-117335000I2000000J3000000D01*
G01*
D15*
X110000000Y-101500000D02*
X60000000Y-101500000D01*
X60000000Y-101500000D02*
X60000000Y-51500000D01*
X60000000Y-51500000D02*
X110000000Y-51500000D01*
X110000000Y-51500000D02*
X110000000Y-101500000D01*
D14*
X73750002Y-86250001D02*
G75*
G02X74500000Y-92000000I-1062501J-3062499D01*
G01*
X71250000Y-86250000D02*
G75*
G03X70500000Y-92000000I1062500J-3062500D01*
G01*
X70500000Y-92000000D02*
X71250000Y-92000000D01*
X74500000Y-92000000D02*
X73750000Y-92000000D01*
X73750002Y-61250001D02*
G75*
G02X74500000Y-67000000I-1062501J-3062499D01*
G01*
X71250000Y-61250000D02*
G75*
G03X70500000Y-67000000I1062500J-3062500D01*
G01*
X70500000Y-67000000D02*
X71250000Y-67000000D01*
X74500000Y-67000000D02*
X73750000Y-67000000D01*
X98750002Y-86250001D02*
G75*
G02X99500000Y-92000000I-1062501J-3062499D01*
G01*
X96250000Y-86250000D02*
G75*
G03X95500000Y-92000000I1062500J-3062500D01*
G01*
X95500000Y-92000000D02*
X96250000Y-92000000D01*
X99500000Y-92000000D02*
X98750000Y-92000000D01*
X98750002Y-61250001D02*
G75*
G02X99500000Y-67000000I-1062501J-3062499D01*
G01*
X96250000Y-61250000D02*
G75*
G03X95500000Y-67000000I1062500J-3062500D01*
G01*
X95500000Y-67000000D02*
X96250000Y-67000000D01*
X99500000Y-67000000D02*
X98750000Y-67000000D01*
D16*
X70535000Y-92354000D02*
X74535000Y-92354000D01*
X70535000Y-92354000D02*
G75*
G02X74535000Y-92354000I2000000J3000000D01*
G01*
X70535000Y-67335000D02*
X74535000Y-67335000D01*
X70535000Y-67335000D02*
G75*
G02X74535000Y-67335000I2000000J3000000D01*
G01*
X95554000Y-92354000D02*
X99554000Y-92354000D01*
X95554000Y-92354000D02*
G75*
G02X99554000Y-92354000I2000000J3000000D01*
G01*
X95554000Y-67335000D02*
X99554000Y-67335000D01*
X95554000Y-67335000D02*
G75*
G02X99554000Y-67335000I2000000J3000000D01*
G01*
D14*
X195300000Y-145200000D02*
X191106200Y-145200000D01*
X190300000Y-144393800D02*
G75*
G03X191106200Y-145200000I806200J0D01*
G01*
X190300000Y-144393800D02*
X190300000Y-142900000D01*
X190300000Y-133606200D02*
G75*
G02X191106200Y-132800000I806200J0D01*
G01*
X190300000Y-133606200D02*
X190300000Y-135100000D01*
X195300000Y-132800000D02*
X191106200Y-132800000D01*
X198700000Y-132800000D02*
X202893800Y-132800000D01*
X203700000Y-133606200D02*
G75*
G03X202893800Y-132800000I-806200J0D01*
G01*
X203700000Y-133606200D02*
X203700000Y-135600000D01*
X203700000Y-144393800D02*
G75*
G02X202893800Y-145200000I-806200J0D01*
G01*
X203700000Y-144393800D02*
X203700000Y-142400000D01*
X198700000Y-145200000D02*
X202893800Y-145200000D01*
X200000000Y-139000000D02*
G75*
G03X200000000Y-139000000I-3000000J0D01*
G01*
X202565000Y-92710000D02*
X203835000Y-92710000D01*
X203835000Y-92710000D02*
X204470000Y-93345000D01*
X204470000Y-94615000D02*
X203835000Y-95250000D01*
X199390000Y-93345000D02*
X200025000Y-92710000D01*
X200025000Y-92710000D02*
X201295000Y-92710000D01*
X201295000Y-92710000D02*
X201930000Y-93345000D01*
X201930000Y-94615000D02*
X201295000Y-95250000D01*
X201295000Y-95250000D02*
X200025000Y-95250000D01*
X200025000Y-95250000D02*
X199390000Y-94615000D01*
X202565000Y-92710000D02*
X201930000Y-93345000D01*
X201930000Y-94615000D02*
X202565000Y-95250000D01*
X203835000Y-95250000D02*
X202565000Y-95250000D01*
X194945000Y-92710000D02*
X196215000Y-92710000D01*
X196215000Y-92710000D02*
X196850000Y-93345000D01*
X196850000Y-94615000D02*
X196215000Y-95250000D01*
X196850000Y-93345000D02*
X197485000Y-92710000D01*
X197485000Y-92710000D02*
X198755000Y-92710000D01*
X198755000Y-92710000D02*
X199390000Y-93345000D01*
X199390000Y-94615000D02*
X198755000Y-95250000D01*
X198755000Y-95250000D02*
X197485000Y-95250000D01*
X197485000Y-95250000D02*
X196850000Y-94615000D01*
X191770000Y-93345000D02*
X192405000Y-92710000D01*
X192405000Y-92710000D02*
X193675000Y-92710000D01*
X193675000Y-92710000D02*
X194310000Y-93345000D01*
X194310000Y-94615000D02*
X193675000Y-95250000D01*
X193675000Y-95250000D02*
X192405000Y-95250000D01*
X192405000Y-95250000D02*
X191770000Y-94615000D01*
X194945000Y-92710000D02*
X194310000Y-93345000D01*
X194310000Y-94615000D02*
X194945000Y-95250000D01*
X196215000Y-95250000D02*
X194945000Y-95250000D01*
X187325000Y-92710000D02*
X188595000Y-92710000D01*
X188595000Y-92710000D02*
X189230000Y-93345000D01*
X189230000Y-94615000D02*
X188595000Y-95250000D01*
X189230000Y-93345000D02*
X189865000Y-92710000D01*
X189865000Y-92710000D02*
X191135000Y-92710000D01*
X191135000Y-92710000D02*
X191770000Y-93345000D01*
X191770000Y-94615000D02*
X191135000Y-95250000D01*
X191135000Y-95250000D02*
X189865000Y-95250000D01*
X189865000Y-95250000D02*
X189230000Y-94615000D01*
X186690000Y-93345000D02*
X186690000Y-94615000D01*
X187325000Y-92710000D02*
X186690000Y-93345000D01*
X186690000Y-94615000D02*
X187325000Y-95250000D01*
X188595000Y-95250000D02*
X187325000Y-95250000D01*
X205105000Y-92710000D02*
X206375000Y-92710000D01*
X206375000Y-92710000D02*
X207010000Y-93345000D01*
X207010000Y-93345000D02*
X207010000Y-94615000D01*
X207010000Y-94615000D02*
X206375000Y-95250000D01*
X205105000Y-92710000D02*
X204470000Y-93345000D01*
X204470000Y-94615000D02*
X205105000Y-95250000D01*
X206375000Y-95250000D02*
X205105000Y-95250000D01*
D13*
X198771428Y-119760000D02*
X199485714Y-119760000D01*
X198628571Y-120188571D02*
X199128571Y-118688571D01*
X199628571Y-120188571D01*
X200985714Y-120188571D02*
X200485714Y-119474286D01*
X200128571Y-120188571D02*
X200128571Y-118688571D01*
X200699999Y-118688571D01*
X200842857Y-118760000D01*
X200914285Y-118831429D01*
X200985714Y-118974286D01*
X200985714Y-119188571D01*
X200914285Y-119331429D01*
X200842857Y-119402857D01*
X200699999Y-119474286D01*
X200128571Y-119474286D01*
X201628571Y-120188571D02*
X201628571Y-118688571D01*
X201985714Y-118688571D01*
X202199999Y-118760000D01*
X202342857Y-118902857D01*
X202414285Y-119045714D01*
X202485714Y-119331429D01*
X202485714Y-119545714D01*
X202414285Y-119831429D01*
X202342857Y-119974286D01*
X202199999Y-120117143D01*
X201985714Y-120188571D01*
X201628571Y-120188571D01*
X203128571Y-118688571D02*
X203128571Y-119902857D01*
X203199999Y-120045714D01*
X203271428Y-120117143D01*
X203414285Y-120188571D01*
X203699999Y-120188571D01*
X203842857Y-120117143D01*
X203914285Y-120045714D01*
X203985714Y-119902857D01*
X203985714Y-118688571D01*
X204700000Y-120188571D02*
X204700000Y-118688571D01*
X205271428Y-118688571D01*
X205414286Y-118760000D01*
X205485714Y-118831429D01*
X205557143Y-118974286D01*
X205557143Y-119188571D01*
X205485714Y-119331429D01*
X205414286Y-119402857D01*
X205271428Y-119474286D01*
X204700000Y-119474286D01*
X207057143Y-120188571D02*
X206557143Y-119474286D01*
X206200000Y-120188571D02*
X206200000Y-118688571D01*
X206771428Y-118688571D01*
X206914286Y-118760000D01*
X206985714Y-118831429D01*
X207057143Y-118974286D01*
X207057143Y-119188571D01*
X206985714Y-119331429D01*
X206914286Y-119402857D01*
X206771428Y-119474286D01*
X206200000Y-119474286D01*
X207985714Y-118688571D02*
X208271428Y-118688571D01*
X208414286Y-118760000D01*
X208557143Y-118902857D01*
X208628571Y-119188571D01*
X208628571Y-119688571D01*
X208557143Y-119974286D01*
X208414286Y-120117143D01*
X208271428Y-120188571D01*
X207985714Y-120188571D01*
X207842857Y-120117143D01*
X207700000Y-119974286D01*
X207628571Y-119688571D01*
X207628571Y-119188571D01*
X207700000Y-118902857D01*
X207842857Y-118760000D01*
X207985714Y-118688571D01*
X209271429Y-120188571D02*
X209271429Y-118688571D01*
X209771429Y-119760000D01*
X210271429Y-118688571D01*
X210271429Y-120188571D01*
X210985715Y-120188571D02*
X210985715Y-118688571D01*
X211700001Y-120188571D02*
X211700001Y-118688571D01*
X212557144Y-120188571D01*
X212557144Y-118688571D01*
X213271430Y-120188571D02*
X213271430Y-118688571D01*
X213985716Y-119617143D02*
X215128573Y-119617143D01*
X216485716Y-118688571D02*
X216200002Y-118688571D01*
X216057145Y-118760000D01*
X215985716Y-118831429D01*
X215842859Y-119045714D01*
X215771430Y-119331429D01*
X215771430Y-119902857D01*
X215842859Y-120045714D01*
X215914287Y-120117143D01*
X216057145Y-120188571D01*
X216342859Y-120188571D01*
X216485716Y-120117143D01*
X216557145Y-120045714D01*
X216628573Y-119902857D01*
X216628573Y-119545714D01*
X216557145Y-119402857D01*
X216485716Y-119331429D01*
X216342859Y-119260000D01*
X216057145Y-119260000D01*
X215914287Y-119331429D01*
X215842859Y-119402857D01*
X215771430Y-119545714D01*
X213778103Y-139644285D02*
X213825722Y-139691904D01*
X213873341Y-139834761D01*
X213873341Y-139929999D01*
X213825722Y-140072857D01*
X213730484Y-140168095D01*
X213635246Y-140215714D01*
X213444770Y-140263333D01*
X213301912Y-140263333D01*
X213111436Y-140215714D01*
X213016198Y-140168095D01*
X212920960Y-140072857D01*
X212873341Y-139929999D01*
X212873341Y-139834761D01*
X212920960Y-139691904D01*
X212968579Y-139644285D01*
X212873341Y-139025238D02*
X212873341Y-138834761D01*
X212920960Y-138739523D01*
X213016198Y-138644285D01*
X213206674Y-138596666D01*
X213540008Y-138596666D01*
X213730484Y-138644285D01*
X213825722Y-138739523D01*
X213873341Y-138834761D01*
X213873341Y-139025238D01*
X213825722Y-139120476D01*
X213730484Y-139215714D01*
X213540008Y-139263333D01*
X213206674Y-139263333D01*
X213016198Y-139215714D01*
X212920960Y-139120476D01*
X212873341Y-139025238D01*
X213873341Y-138168095D02*
X212873341Y-138168095D01*
X213873341Y-137596666D01*
X212873341Y-137596666D01*
X213873341Y-136596666D02*
X213873341Y-137168095D01*
X213873341Y-136882381D02*
X212873341Y-136882381D01*
X213016198Y-136977619D01*
X213111436Y-137072857D01*
X213159055Y-137168095D01*
X229052381Y-108036191D02*
X229052381Y-108512382D01*
X228052381Y-108512382D01*
X228957143Y-107131429D02*
X229004762Y-107179048D01*
X229052381Y-107321905D01*
X229052381Y-107417143D01*
X229004762Y-107560001D01*
X228909524Y-107655239D01*
X228814286Y-107702858D01*
X228623810Y-107750477D01*
X228480952Y-107750477D01*
X228290476Y-107702858D01*
X228195238Y-107655239D01*
X228100000Y-107560001D01*
X228052381Y-107417143D01*
X228052381Y-107321905D01*
X228100000Y-107179048D01*
X228147619Y-107131429D01*
X229052381Y-106702858D02*
X228052381Y-106702858D01*
X228052381Y-106464763D01*
X228100000Y-106321905D01*
X228195238Y-106226667D01*
X228290476Y-106179048D01*
X228480952Y-106131429D01*
X228623810Y-106131429D01*
X228814286Y-106179048D01*
X228909524Y-106226667D01*
X229004762Y-106321905D01*
X229052381Y-106464763D01*
X229052381Y-106702858D01*
X229052381Y-104798096D02*
X229004762Y-104893334D01*
X228957143Y-104940953D01*
X228861905Y-104988572D01*
X228576190Y-104988572D01*
X228480952Y-104940953D01*
X228433333Y-104893334D01*
X228385714Y-104798096D01*
X228385714Y-104655238D01*
X228433333Y-104560000D01*
X228480952Y-104512381D01*
X228576190Y-104464762D01*
X228861905Y-104464762D01*
X228957143Y-104512381D01*
X229004762Y-104560000D01*
X229052381Y-104655238D01*
X229052381Y-104798096D01*
X229052381Y-104036191D02*
X228385714Y-104036191D01*
X228576190Y-104036191D02*
X228480952Y-103988572D01*
X228433333Y-103940953D01*
X228385714Y-103845715D01*
X228385714Y-103750476D01*
X229052381Y-102655238D02*
X228052381Y-102655238D01*
X228052381Y-102274285D01*
X228100000Y-102179047D01*
X228147619Y-102131428D01*
X228242857Y-102083809D01*
X228385714Y-102083809D01*
X228480952Y-102131428D01*
X228528571Y-102179047D01*
X228576190Y-102274285D01*
X228576190Y-102655238D01*
X228052381Y-101464762D02*
X228052381Y-101274285D01*
X228100000Y-101179047D01*
X228195238Y-101083809D01*
X228385714Y-101036190D01*
X228719048Y-101036190D01*
X228909524Y-101083809D01*
X229004762Y-101179047D01*
X229052381Y-101274285D01*
X229052381Y-101464762D01*
X229004762Y-101560000D01*
X228909524Y-101655238D01*
X228719048Y-101702857D01*
X228385714Y-101702857D01*
X228195238Y-101655238D01*
X228100000Y-101560000D01*
X228052381Y-101464762D01*
X229052381Y-100036190D02*
X228576190Y-100369524D01*
X229052381Y-100607619D02*
X228052381Y-100607619D01*
X228052381Y-100226666D01*
X228100000Y-100131428D01*
X228147619Y-100083809D01*
X228242857Y-100036190D01*
X228385714Y-100036190D01*
X228480952Y-100083809D01*
X228528571Y-100131428D01*
X228576190Y-100226666D01*
X228576190Y-100607619D01*
X228052381Y-99750476D02*
X228052381Y-99179047D01*
X229052381Y-99464762D02*
X228052381Y-99464762D01*
X228528571Y-98512380D02*
X228576190Y-98369523D01*
X228623810Y-98321904D01*
X228719048Y-98274285D01*
X228861905Y-98274285D01*
X228957143Y-98321904D01*
X229004762Y-98369523D01*
X229052381Y-98464761D01*
X229052381Y-98845714D01*
X228052381Y-98845714D01*
X228052381Y-98512380D01*
X228100000Y-98417142D01*
X228147619Y-98369523D01*
X228242857Y-98321904D01*
X228338095Y-98321904D01*
X228433333Y-98369523D01*
X228480952Y-98417142D01*
X228528571Y-98512380D01*
X228528571Y-98845714D01*
X228671429Y-97083809D02*
X228671429Y-96321904D01*
X229052381Y-96702856D02*
X228290476Y-96702856D01*
X229052381Y-95083809D02*
X228385714Y-95083809D01*
X228480952Y-95083809D02*
X228433333Y-95036190D01*
X228385714Y-94940952D01*
X228385714Y-94798094D01*
X228433333Y-94702856D01*
X228528571Y-94655237D01*
X229052381Y-94655237D01*
X228528571Y-94655237D02*
X228433333Y-94607618D01*
X228385714Y-94512380D01*
X228385714Y-94369523D01*
X228433333Y-94274285D01*
X228528571Y-94226666D01*
X229052381Y-94226666D01*
X228385714Y-93321904D02*
X229052381Y-93321904D01*
X228385714Y-93750476D02*
X228909524Y-93750476D01*
X229004762Y-93702857D01*
X229052381Y-93607619D01*
X229052381Y-93464761D01*
X229004762Y-93369523D01*
X228957143Y-93321904D01*
X228385714Y-92988571D02*
X228385714Y-92607619D01*
X228052381Y-92845714D02*
X228909524Y-92845714D01*
X229004762Y-92798095D01*
X229052381Y-92702857D01*
X229052381Y-92607619D01*
X228385714Y-91845713D02*
X229052381Y-91845713D01*
X228385714Y-92274285D02*
X228909524Y-92274285D01*
X229004762Y-92226666D01*
X229052381Y-92131428D01*
X229052381Y-91988570D01*
X229004762Y-91893332D01*
X228957143Y-91845713D01*
X229052381Y-90940951D02*
X228528571Y-90940951D01*
X228433333Y-90988570D01*
X228385714Y-91083808D01*
X228385714Y-91274285D01*
X228433333Y-91369523D01*
X229004762Y-90940951D02*
X229052381Y-91036189D01*
X229052381Y-91274285D01*
X229004762Y-91369523D01*
X228909524Y-91417142D01*
X228814286Y-91417142D01*
X228719048Y-91369523D01*
X228671429Y-91274285D01*
X228671429Y-91036189D01*
X228623810Y-90940951D01*
X229052381Y-90321904D02*
X229004762Y-90417142D01*
X228909524Y-90464761D01*
X228052381Y-90464761D01*
X229004762Y-89988570D02*
X229052381Y-89893332D01*
X229052381Y-89702856D01*
X229004762Y-89607617D01*
X228909524Y-89559998D01*
X228861905Y-89559998D01*
X228766667Y-89607617D01*
X228719048Y-89702856D01*
X228719048Y-89845713D01*
X228671429Y-89940951D01*
X228576190Y-89988570D01*
X228528571Y-89988570D01*
X228433333Y-89940951D01*
X228385714Y-89845713D01*
X228385714Y-89702856D01*
X228433333Y-89607617D01*
D16*
X215212548Y-74252270D02*
X214006048Y-74252270D01*
X214006048Y-73792651D01*
X214063500Y-73677746D01*
X214120952Y-73620294D01*
X214235857Y-73562842D01*
X214408214Y-73562842D01*
X214523119Y-73620294D01*
X214580571Y-73677746D01*
X214638024Y-73792651D01*
X214638024Y-74252270D01*
X214006048Y-72471246D02*
X214006048Y-73045770D01*
X214580571Y-73103222D01*
X214523119Y-73045770D01*
X214465667Y-72930865D01*
X214465667Y-72643603D01*
X214523119Y-72528699D01*
X214580571Y-72471246D01*
X214695476Y-72413794D01*
X214982738Y-72413794D01*
X215097643Y-72471246D01*
X215155095Y-72528699D01*
X215212548Y-72643603D01*
X215212548Y-72930865D01*
X215155095Y-73045770D01*
X215097643Y-73103222D01*
D17*
X215097643Y-70562842D02*
X215155095Y-70620294D01*
X215212548Y-70792651D01*
X215212548Y-70907556D01*
X215155095Y-71079913D01*
X215040190Y-71194818D01*
X214925286Y-71252270D01*
X214695476Y-71309722D01*
X214523119Y-71309722D01*
X214293310Y-71252270D01*
X214178405Y-71194818D01*
X214063500Y-71079913D01*
X214006048Y-70907556D01*
X214006048Y-70792651D01*
X214063500Y-70620294D01*
X214120952Y-70562842D01*
X214006048Y-69815961D02*
X214006048Y-69586151D01*
X214063500Y-69471246D01*
X214178405Y-69356342D01*
X214408214Y-69298889D01*
X214810381Y-69298889D01*
X215040190Y-69356342D01*
X215155095Y-69471246D01*
X215212548Y-69586151D01*
X215212548Y-69815961D01*
X215155095Y-69930865D01*
X215040190Y-70045770D01*
X214810381Y-70103222D01*
X214408214Y-70103222D01*
X214178405Y-70045770D01*
X214063500Y-69930865D01*
X214006048Y-69815961D01*
X215212548Y-68781818D02*
X214006048Y-68781818D01*
X215212548Y-68092390D01*
X214006048Y-68092390D01*
X215212548Y-67517866D02*
X214006048Y-67517866D01*
X215212548Y-66828438D01*
X214006048Y-66828438D01*
X215327452Y-66541176D02*
X215327452Y-65621938D01*
X214006048Y-65104867D02*
X214006048Y-64989962D01*
X214063500Y-64875057D01*
X214120952Y-64817605D01*
X214235857Y-64760152D01*
X214465667Y-64702700D01*
X214752929Y-64702700D01*
X214982738Y-64760152D01*
X215097643Y-64817605D01*
X215155095Y-64875057D01*
X215212548Y-64989962D01*
X215212548Y-65104867D01*
X215155095Y-65219771D01*
X215097643Y-65277224D01*
X214982738Y-65334676D01*
X214752929Y-65392128D01*
X214465667Y-65392128D01*
X214235857Y-65334676D01*
X214120952Y-65277224D01*
X214063500Y-65219771D01*
X214006048Y-65104867D01*
X215212548Y-63553652D02*
X215212548Y-64243080D01*
X215212548Y-63898366D02*
X214006048Y-63898366D01*
X214178405Y-64013271D01*
X214293310Y-64128176D01*
X214350762Y-64243080D01*
X214006048Y-63151485D02*
X215212548Y-62347152D01*
X214006048Y-62347152D02*
X215212548Y-63151485D01*
X214006048Y-61657723D02*
X214006048Y-61542818D01*
X214063500Y-61427913D01*
X214120952Y-61370461D01*
X214235857Y-61313008D01*
X214465667Y-61255556D01*
X214752929Y-61255556D01*
X214982738Y-61313008D01*
X215097643Y-61370461D01*
X215155095Y-61427913D01*
X215212548Y-61542818D01*
X215212548Y-61657723D01*
X215155095Y-61772627D01*
X215097643Y-61830080D01*
X214982738Y-61887532D01*
X214752929Y-61944984D01*
X214465667Y-61944984D01*
X214235857Y-61887532D01*
X214120952Y-61830080D01*
X214063500Y-61772627D01*
X214006048Y-61657723D01*
X214523119Y-60566127D02*
X214465667Y-60681032D01*
X214408214Y-60738484D01*
X214293310Y-60795936D01*
X214235857Y-60795936D01*
X214120952Y-60738484D01*
X214063500Y-60681032D01*
X214006048Y-60566127D01*
X214006048Y-60336317D01*
X214063500Y-60221413D01*
X214120952Y-60163960D01*
X214235857Y-60106508D01*
X214293310Y-60106508D01*
X214408214Y-60163960D01*
X214465667Y-60221413D01*
X214523119Y-60336317D01*
X214523119Y-60566127D01*
X214580571Y-60681032D01*
X214638024Y-60738484D01*
X214752929Y-60795936D01*
X214982738Y-60795936D01*
X215097643Y-60738484D01*
X215155095Y-60681032D01*
X215212548Y-60566127D01*
X215212548Y-60336317D01*
X215155095Y-60221413D01*
X215097643Y-60163960D01*
X214982738Y-60106508D01*
X214752929Y-60106508D01*
X214638024Y-60163960D01*
X214580571Y-60221413D01*
X214523119Y-60336317D01*
D13*
X168636762Y-140353333D02*
X168684381Y-140210476D01*
X168684381Y-139972380D01*
X168636762Y-139877142D01*
X168589143Y-139829523D01*
X168493905Y-139781904D01*
X168398667Y-139781904D01*
X168303429Y-139829523D01*
X168255810Y-139877142D01*
X168208190Y-139972380D01*
X168160571Y-140162857D01*
X168112952Y-140258095D01*
X168065333Y-140305714D01*
X167970095Y-140353333D01*
X167874857Y-140353333D01*
X167779619Y-140305714D01*
X167732000Y-140258095D01*
X167684381Y-140162857D01*
X167684381Y-139924761D01*
X167732000Y-139781904D01*
X167684381Y-139448571D02*
X168684381Y-139210476D01*
X167970095Y-139019999D01*
X168684381Y-138829523D01*
X167684381Y-138591428D01*
X168684381Y-137686666D02*
X168684381Y-138258095D01*
X168684381Y-137972381D02*
X167684381Y-137972381D01*
X167827238Y-138067619D01*
X167922476Y-138162857D01*
X167970095Y-138258095D01*
X168636762Y-115353333D02*
X168684381Y-115210476D01*
X168684381Y-114972380D01*
X168636762Y-114877142D01*
X168589143Y-114829523D01*
X168493905Y-114781904D01*
X168398667Y-114781904D01*
X168303429Y-114829523D01*
X168255810Y-114877142D01*
X168208190Y-114972380D01*
X168160571Y-115162857D01*
X168112952Y-115258095D01*
X168065333Y-115305714D01*
X167970095Y-115353333D01*
X167874857Y-115353333D01*
X167779619Y-115305714D01*
X167732000Y-115258095D01*
X167684381Y-115162857D01*
X167684381Y-114924761D01*
X167732000Y-114781904D01*
X167684381Y-114448571D02*
X168684381Y-114210476D01*
X167970095Y-114019999D01*
X168684381Y-113829523D01*
X167684381Y-113591428D01*
X167779619Y-113258095D02*
X167732000Y-113210476D01*
X167684381Y-113115238D01*
X167684381Y-112877142D01*
X167732000Y-112781904D01*
X167779619Y-112734285D01*
X167874857Y-112686666D01*
X167970095Y-112686666D01*
X168112952Y-112734285D01*
X168684381Y-113305714D01*
X168684381Y-112686666D01*
X168636762Y-90353333D02*
X168684381Y-90210476D01*
X168684381Y-89972380D01*
X168636762Y-89877142D01*
X168589143Y-89829523D01*
X168493905Y-89781904D01*
X168398667Y-89781904D01*
X168303429Y-89829523D01*
X168255810Y-89877142D01*
X168208190Y-89972380D01*
X168160571Y-90162857D01*
X168112952Y-90258095D01*
X168065333Y-90305714D01*
X167970095Y-90353333D01*
X167874857Y-90353333D01*
X167779619Y-90305714D01*
X167732000Y-90258095D01*
X167684381Y-90162857D01*
X167684381Y-89924761D01*
X167732000Y-89781904D01*
X167684381Y-89448571D02*
X168684381Y-89210476D01*
X167970095Y-89019999D01*
X168684381Y-88829523D01*
X167684381Y-88591428D01*
X167684381Y-88305714D02*
X167684381Y-87686666D01*
X168065333Y-88020000D01*
X168065333Y-87877142D01*
X168112952Y-87781904D01*
X168160571Y-87734285D01*
X168255810Y-87686666D01*
X168493905Y-87686666D01*
X168589143Y-87734285D01*
X168636762Y-87781904D01*
X168684381Y-87877142D01*
X168684381Y-88162857D01*
X168636762Y-88258095D01*
X168589143Y-88305714D01*
X168636762Y-65353333D02*
X168684381Y-65210476D01*
X168684381Y-64972380D01*
X168636762Y-64877142D01*
X168589143Y-64829523D01*
X168493905Y-64781904D01*
X168398667Y-64781904D01*
X168303429Y-64829523D01*
X168255810Y-64877142D01*
X168208190Y-64972380D01*
X168160571Y-65162857D01*
X168112952Y-65258095D01*
X168065333Y-65305714D01*
X167970095Y-65353333D01*
X167874857Y-65353333D01*
X167779619Y-65305714D01*
X167732000Y-65258095D01*
X167684381Y-65162857D01*
X167684381Y-64924761D01*
X167732000Y-64781904D01*
X167684381Y-64448571D02*
X168684381Y-64210476D01*
X167970095Y-64019999D01*
X168684381Y-63829523D01*
X167684381Y-63591428D01*
X168017714Y-62781904D02*
X168684381Y-62781904D01*
X167636762Y-63020000D02*
X168351048Y-63258095D01*
X168351048Y-62639047D01*
D16*
X220922548Y-69562738D02*
X219716048Y-69562738D01*
X219716048Y-69103119D01*
X219773500Y-68988214D01*
X219830952Y-68930762D01*
X219945857Y-68873310D01*
X220118214Y-68873310D01*
X220233119Y-68930762D01*
X220290571Y-68988214D01*
X220348024Y-69103119D01*
X220348024Y-69562738D01*
X219716048Y-68471143D02*
X219716048Y-67666810D01*
X220922548Y-68183881D01*
X216742548Y-78662738D02*
X215536048Y-78662738D01*
X215536048Y-78203119D01*
X215593500Y-78088214D01*
X215650952Y-78030762D01*
X215765857Y-77973310D01*
X215938214Y-77973310D01*
X216053119Y-78030762D01*
X216110571Y-78088214D01*
X216168024Y-78203119D01*
X216168024Y-78662738D01*
X216742548Y-76824262D02*
X216742548Y-77513690D01*
X216742548Y-77168976D02*
X215536048Y-77168976D01*
X215708405Y-77283881D01*
X215823310Y-77398786D01*
X215880762Y-77513690D01*
X215650952Y-76364642D02*
X215593500Y-76307190D01*
X215536048Y-76192285D01*
X215536048Y-75905023D01*
X215593500Y-75790119D01*
X215650952Y-75732666D01*
X215765857Y-75675214D01*
X215880762Y-75675214D01*
X216053119Y-75732666D01*
X216742548Y-76422095D01*
X216742548Y-75675214D01*
X212012548Y-74718938D02*
X210806048Y-74718938D01*
X210806048Y-74259319D01*
X210863500Y-74144414D01*
X210920952Y-74086962D01*
X211035857Y-74029510D01*
X211208214Y-74029510D01*
X211323119Y-74086962D01*
X211380571Y-74144414D01*
X211438024Y-74259319D01*
X211438024Y-74718938D01*
X212012548Y-72880462D02*
X212012548Y-73569890D01*
X212012548Y-73225176D02*
X210806048Y-73225176D01*
X210978405Y-73340081D01*
X211093310Y-73454986D01*
X211150762Y-73569890D01*
X210806048Y-71846319D02*
X210806048Y-72076128D01*
X210863500Y-72191033D01*
X210920952Y-72248485D01*
X211093310Y-72363390D01*
X211323119Y-72420842D01*
X211782738Y-72420842D01*
X211897643Y-72363390D01*
X211955095Y-72305938D01*
X212012548Y-72191033D01*
X212012548Y-71961223D01*
X211955095Y-71846319D01*
X211897643Y-71788866D01*
X211782738Y-71731414D01*
X211495476Y-71731414D01*
X211380571Y-71788866D01*
X211323119Y-71846319D01*
X211265667Y-71961223D01*
X211265667Y-72191033D01*
X211323119Y-72305938D01*
X211380571Y-72363390D01*
X211495476Y-72420842D01*
D17*
X217632643Y-73953310D02*
X217690095Y-74010762D01*
X217747548Y-74183119D01*
X217747548Y-74298024D01*
X217690095Y-74470381D01*
X217575190Y-74585286D01*
X217460286Y-74642738D01*
X217230476Y-74700190D01*
X217058119Y-74700190D01*
X216828310Y-74642738D01*
X216713405Y-74585286D01*
X216598500Y-74470381D01*
X216541048Y-74298024D01*
X216541048Y-74183119D01*
X216598500Y-74010762D01*
X216655952Y-73953310D01*
X216541048Y-73206429D02*
X216541048Y-72976619D01*
X216598500Y-72861714D01*
X216713405Y-72746810D01*
X216943214Y-72689357D01*
X217345381Y-72689357D01*
X217575190Y-72746810D01*
X217690095Y-72861714D01*
X217747548Y-72976619D01*
X217747548Y-73206429D01*
X217690095Y-73321333D01*
X217575190Y-73436238D01*
X217345381Y-73493690D01*
X216943214Y-73493690D01*
X216713405Y-73436238D01*
X216598500Y-73321333D01*
X216541048Y-73206429D01*
X217747548Y-72172286D02*
X216541048Y-72172286D01*
X217747548Y-71482858D01*
X216541048Y-71482858D01*
X217747548Y-70908334D02*
X216541048Y-70908334D01*
X217747548Y-70218906D01*
X216541048Y-70218906D01*
X217862452Y-69931644D02*
X217862452Y-69012406D01*
X216541048Y-68495335D02*
X216541048Y-68380430D01*
X216598500Y-68265525D01*
X216655952Y-68208073D01*
X216770857Y-68150620D01*
X217000667Y-68093168D01*
X217287929Y-68093168D01*
X217517738Y-68150620D01*
X217632643Y-68208073D01*
X217690095Y-68265525D01*
X217747548Y-68380430D01*
X217747548Y-68495335D01*
X217690095Y-68610239D01*
X217632643Y-68667692D01*
X217517738Y-68725144D01*
X217287929Y-68782596D01*
X217000667Y-68782596D01*
X216770857Y-68725144D01*
X216655952Y-68667692D01*
X216598500Y-68610239D01*
X216541048Y-68495335D01*
X217747548Y-66944120D02*
X217747548Y-67633548D01*
X217747548Y-67288834D02*
X216541048Y-67288834D01*
X216713405Y-67403739D01*
X216828310Y-67518644D01*
X216885762Y-67633548D01*
X216541048Y-66541953D02*
X217747548Y-65737620D01*
X216541048Y-65737620D02*
X217747548Y-66541953D01*
X216541048Y-65048191D02*
X216541048Y-64933286D01*
X216598500Y-64818381D01*
X216655952Y-64760929D01*
X216770857Y-64703476D01*
X217000667Y-64646024D01*
X217287929Y-64646024D01*
X217517738Y-64703476D01*
X217632643Y-64760929D01*
X217690095Y-64818381D01*
X217747548Y-64933286D01*
X217747548Y-65048191D01*
X217690095Y-65163095D01*
X217632643Y-65220548D01*
X217517738Y-65278000D01*
X217287929Y-65335452D01*
X217000667Y-65335452D01*
X216770857Y-65278000D01*
X216655952Y-65220548D01*
X216598500Y-65163095D01*
X216541048Y-65048191D01*
X217058119Y-63956595D02*
X217000667Y-64071500D01*
X216943214Y-64128952D01*
X216828310Y-64186404D01*
X216770857Y-64186404D01*
X216655952Y-64128952D01*
X216598500Y-64071500D01*
X216541048Y-63956595D01*
X216541048Y-63726785D01*
X216598500Y-63611881D01*
X216655952Y-63554428D01*
X216770857Y-63496976D01*
X216828310Y-63496976D01*
X216943214Y-63554428D01*
X217000667Y-63611881D01*
X217058119Y-63726785D01*
X217058119Y-63956595D01*
X217115571Y-64071500D01*
X217173024Y-64128952D01*
X217287929Y-64186404D01*
X217517738Y-64186404D01*
X217632643Y-64128952D01*
X217690095Y-64071500D01*
X217747548Y-63956595D01*
X217747548Y-63726785D01*
X217690095Y-63611881D01*
X217632643Y-63554428D01*
X217517738Y-63496976D01*
X217287929Y-63496976D01*
X217173024Y-63554428D01*
X217115571Y-63611881D01*
X217058119Y-63726785D01*
D13*
X215082381Y-133516666D02*
X214606190Y-133850000D01*
X215082381Y-134088095D02*
X214082381Y-134088095D01*
X214082381Y-133707142D01*
X214130000Y-133611904D01*
X214177619Y-133564285D01*
X214272857Y-133516666D01*
X214415714Y-133516666D01*
X214510952Y-133564285D01*
X214558571Y-133611904D01*
X214606190Y-133707142D01*
X214606190Y-134088095D01*
X215082381Y-132564285D02*
X215082381Y-133135714D01*
X215082381Y-132850000D02*
X214082381Y-132850000D01*
X214225238Y-132945238D01*
X214320476Y-133040476D01*
X214368095Y-133135714D01*
X211272381Y-133516666D02*
X210796190Y-133850000D01*
X211272381Y-134088095D02*
X210272381Y-134088095D01*
X210272381Y-133707142D01*
X210320000Y-133611904D01*
X210367619Y-133564285D01*
X210462857Y-133516666D01*
X210605714Y-133516666D01*
X210700952Y-133564285D01*
X210748571Y-133611904D01*
X210796190Y-133707142D01*
X210796190Y-134088095D01*
X210367619Y-133135714D02*
X210320000Y-133088095D01*
X210272381Y-132992857D01*
X210272381Y-132754761D01*
X210320000Y-132659523D01*
X210367619Y-132611904D01*
X210462857Y-132564285D01*
X210558095Y-132564285D01*
X210700952Y-132611904D01*
X211272381Y-133183333D01*
X211272381Y-132564285D01*
X132150857Y-101019429D02*
X132150857Y-99495429D01*
X132731429Y-99495429D01*
X132876571Y-99568000D01*
X132949143Y-99640571D01*
X133021714Y-99785714D01*
X133021714Y-100003429D01*
X132949143Y-100148571D01*
X132876571Y-100221143D01*
X132731429Y-100293714D01*
X132150857Y-100293714D01*
X133602286Y-100584000D02*
X134328000Y-100584000D01*
X133457143Y-101019429D02*
X133965143Y-99495429D01*
X134473143Y-101019429D01*
X134981143Y-101019429D02*
X134981143Y-99495429D01*
X135344000Y-99495429D01*
X135561715Y-99568000D01*
X135706857Y-99713143D01*
X135779429Y-99858286D01*
X135852000Y-100148571D01*
X135852000Y-100366286D01*
X135779429Y-100656571D01*
X135706857Y-100801714D01*
X135561715Y-100946857D01*
X135344000Y-101019429D01*
X134981143Y-101019429D01*
X136505143Y-100438857D02*
X137666286Y-100438857D01*
X138392000Y-101019429D02*
X138392000Y-100003429D01*
X138392000Y-100148571D02*
X138464572Y-100076000D01*
X138609714Y-100003429D01*
X138827429Y-100003429D01*
X138972572Y-100076000D01*
X139045143Y-100221143D01*
X139045143Y-101019429D01*
X139045143Y-100221143D02*
X139117714Y-100076000D01*
X139262857Y-100003429D01*
X139480572Y-100003429D01*
X139625714Y-100076000D01*
X139698286Y-100221143D01*
X139698286Y-101019429D01*
X141077143Y-101019429D02*
X141077143Y-100221143D01*
X141004572Y-100076000D01*
X140859429Y-100003429D01*
X140569143Y-100003429D01*
X140424000Y-100076000D01*
X141077143Y-100946857D02*
X140932000Y-101019429D01*
X140569143Y-101019429D01*
X140424000Y-100946857D01*
X140351429Y-100801714D01*
X140351429Y-100656571D01*
X140424000Y-100511429D01*
X140569143Y-100438857D01*
X140932000Y-100438857D01*
X141077143Y-100366286D01*
X141585143Y-100003429D02*
X142165714Y-100003429D01*
X141802857Y-99495429D02*
X141802857Y-100801714D01*
X141875429Y-100946857D01*
X142020571Y-101019429D01*
X142165714Y-101019429D01*
X142673714Y-101019429D02*
X142673714Y-100003429D01*
X142673714Y-100293714D02*
X142746286Y-100148571D01*
X142818857Y-100076000D01*
X142964000Y-100003429D01*
X143109143Y-100003429D01*
X143617143Y-101019429D02*
X143617143Y-100003429D01*
X143617143Y-99495429D02*
X143544572Y-99568000D01*
X143617143Y-99640571D01*
X143689715Y-99568000D01*
X143617143Y-99495429D01*
X143617143Y-99640571D01*
X144197714Y-101019429D02*
X144996000Y-100003429D01*
X144197714Y-100003429D02*
X144996000Y-101019429D01*
X145576571Y-100438857D02*
X146737714Y-100438857D01*
X148116571Y-100003429D02*
X148116571Y-101019429D01*
X147753714Y-99422857D02*
X147390857Y-100511429D01*
X148334285Y-100511429D01*
X150221143Y-100221143D02*
X150438857Y-100293714D01*
X150511429Y-100366286D01*
X150584000Y-100511429D01*
X150584000Y-100729143D01*
X150511429Y-100874286D01*
X150438857Y-100946857D01*
X150293715Y-101019429D01*
X149713143Y-101019429D01*
X149713143Y-99495429D01*
X150221143Y-99495429D01*
X150366286Y-99568000D01*
X150438857Y-99640571D01*
X150511429Y-99785714D01*
X150511429Y-99930857D01*
X150438857Y-100076000D01*
X150366286Y-100148571D01*
X150221143Y-100221143D01*
X149713143Y-100221143D01*
X151237143Y-101019429D02*
X151237143Y-99495429D01*
X151817715Y-99495429D01*
X151962857Y-99568000D01*
X152035429Y-99640571D01*
X152108000Y-99785714D01*
X152108000Y-100003429D01*
X152035429Y-100148571D01*
X151962857Y-100221143D01*
X151817715Y-100293714D01*
X151237143Y-100293714D01*
X152616000Y-99495429D02*
X153632000Y-99495429D01*
X152978857Y-101019429D01*
D18*
X120362114Y-88968648D02*
X120408076Y-89014610D01*
X120454038Y-89152495D01*
X120454038Y-89244419D01*
X120408076Y-89382305D01*
X120316152Y-89474229D01*
X120224229Y-89520190D01*
X120040381Y-89566152D01*
X119902495Y-89566152D01*
X119718648Y-89520190D01*
X119626724Y-89474229D01*
X119534800Y-89382305D01*
X119488838Y-89244419D01*
X119488838Y-89152495D01*
X119534800Y-89014610D01*
X119580762Y-88968648D01*
X119488838Y-88646914D02*
X119488838Y-88049410D01*
X119856533Y-88371143D01*
X119856533Y-88233257D01*
X119902495Y-88141333D01*
X119948457Y-88095371D01*
X120040381Y-88049410D01*
X120270190Y-88049410D01*
X120362114Y-88095371D01*
X120408076Y-88141333D01*
X120454038Y-88233257D01*
X120454038Y-88509029D01*
X120408076Y-88600952D01*
X120362114Y-88646914D01*
X120362114Y-63968648D02*
X120408076Y-64014610D01*
X120454038Y-64152495D01*
X120454038Y-64244419D01*
X120408076Y-64382305D01*
X120316152Y-64474229D01*
X120224229Y-64520190D01*
X120040381Y-64566152D01*
X119902495Y-64566152D01*
X119718648Y-64520190D01*
X119626724Y-64474229D01*
X119534800Y-64382305D01*
X119488838Y-64244419D01*
X119488838Y-64152495D01*
X119534800Y-64014610D01*
X119580762Y-63968648D01*
X119810571Y-63141333D02*
X120454038Y-63141333D01*
X119442876Y-63371143D02*
X120132305Y-63600952D01*
X120132305Y-63003448D01*
X145362114Y-88968648D02*
X145408076Y-89014610D01*
X145454038Y-89152495D01*
X145454038Y-89244419D01*
X145408076Y-89382305D01*
X145316152Y-89474229D01*
X145224229Y-89520190D01*
X145040381Y-89566152D01*
X144902495Y-89566152D01*
X144718648Y-89520190D01*
X144626724Y-89474229D01*
X144534800Y-89382305D01*
X144488838Y-89244419D01*
X144488838Y-89152495D01*
X144534800Y-89014610D01*
X144580762Y-88968648D01*
X145454038Y-88049410D02*
X145454038Y-88600952D01*
X145454038Y-88325181D02*
X144488838Y-88325181D01*
X144626724Y-88417105D01*
X144718648Y-88509029D01*
X144764610Y-88600952D01*
X145612114Y-63968648D02*
X145658076Y-64014610D01*
X145704038Y-64152495D01*
X145704038Y-64244419D01*
X145658076Y-64382305D01*
X145566152Y-64474229D01*
X145474229Y-64520190D01*
X145290381Y-64566152D01*
X145152495Y-64566152D01*
X144968648Y-64520190D01*
X144876724Y-64474229D01*
X144784800Y-64382305D01*
X144738838Y-64244419D01*
X144738838Y-64152495D01*
X144784800Y-64014610D01*
X144830762Y-63968648D01*
X144830762Y-63600952D02*
X144784800Y-63554990D01*
X144738838Y-63463067D01*
X144738838Y-63233257D01*
X144784800Y-63141333D01*
X144830762Y-63095371D01*
X144922686Y-63049410D01*
X145014610Y-63049410D01*
X145152495Y-63095371D01*
X145704038Y-63646914D01*
X145704038Y-63049410D01*
D13*
X132150857Y-151019429D02*
X132150857Y-149495429D01*
X132731429Y-149495429D01*
X132876571Y-149568000D01*
X132949143Y-149640571D01*
X133021714Y-149785714D01*
X133021714Y-150003429D01*
X132949143Y-150148571D01*
X132876571Y-150221143D01*
X132731429Y-150293714D01*
X132150857Y-150293714D01*
X133602286Y-150584000D02*
X134328000Y-150584000D01*
X133457143Y-151019429D02*
X133965143Y-149495429D01*
X134473143Y-151019429D01*
X134981143Y-151019429D02*
X134981143Y-149495429D01*
X135344000Y-149495429D01*
X135561715Y-149568000D01*
X135706857Y-149713143D01*
X135779429Y-149858286D01*
X135852000Y-150148571D01*
X135852000Y-150366286D01*
X135779429Y-150656571D01*
X135706857Y-150801714D01*
X135561715Y-150946857D01*
X135344000Y-151019429D01*
X134981143Y-151019429D01*
X136505143Y-150438857D02*
X137666286Y-150438857D01*
X138392000Y-151019429D02*
X138392000Y-150003429D01*
X138392000Y-150148571D02*
X138464572Y-150076000D01*
X138609714Y-150003429D01*
X138827429Y-150003429D01*
X138972572Y-150076000D01*
X139045143Y-150221143D01*
X139045143Y-151019429D01*
X139045143Y-150221143D02*
X139117714Y-150076000D01*
X139262857Y-150003429D01*
X139480572Y-150003429D01*
X139625714Y-150076000D01*
X139698286Y-150221143D01*
X139698286Y-151019429D01*
X141077143Y-151019429D02*
X141077143Y-150221143D01*
X141004572Y-150076000D01*
X140859429Y-150003429D01*
X140569143Y-150003429D01*
X140424000Y-150076000D01*
X141077143Y-150946857D02*
X140932000Y-151019429D01*
X140569143Y-151019429D01*
X140424000Y-150946857D01*
X140351429Y-150801714D01*
X140351429Y-150656571D01*
X140424000Y-150511429D01*
X140569143Y-150438857D01*
X140932000Y-150438857D01*
X141077143Y-150366286D01*
X141585143Y-150003429D02*
X142165714Y-150003429D01*
X141802857Y-149495429D02*
X141802857Y-150801714D01*
X141875429Y-150946857D01*
X142020571Y-151019429D01*
X142165714Y-151019429D01*
X142673714Y-151019429D02*
X142673714Y-150003429D01*
X142673714Y-150293714D02*
X142746286Y-150148571D01*
X142818857Y-150076000D01*
X142964000Y-150003429D01*
X143109143Y-150003429D01*
X143617143Y-151019429D02*
X143617143Y-150003429D01*
X143617143Y-149495429D02*
X143544572Y-149568000D01*
X143617143Y-149640571D01*
X143689715Y-149568000D01*
X143617143Y-149495429D01*
X143617143Y-149640571D01*
X144197714Y-151019429D02*
X144996000Y-150003429D01*
X144197714Y-150003429D02*
X144996000Y-151019429D01*
X145576571Y-150438857D02*
X146737714Y-150438857D01*
X147318285Y-149495429D02*
X148261714Y-149495429D01*
X147753714Y-150076000D01*
X147971428Y-150076000D01*
X148116571Y-150148571D01*
X148189142Y-150221143D01*
X148261714Y-150366286D01*
X148261714Y-150729143D01*
X148189142Y-150874286D01*
X148116571Y-150946857D01*
X147971428Y-151019429D01*
X147536000Y-151019429D01*
X147390857Y-150946857D01*
X147318285Y-150874286D01*
X149495428Y-150221143D02*
X149713142Y-150293714D01*
X149785714Y-150366286D01*
X149858285Y-150511429D01*
X149858285Y-150729143D01*
X149785714Y-150874286D01*
X149713142Y-150946857D01*
X149568000Y-151019429D01*
X148987428Y-151019429D01*
X148987428Y-149495429D01*
X149495428Y-149495429D01*
X149640571Y-149568000D01*
X149713142Y-149640571D01*
X149785714Y-149785714D01*
X149785714Y-149930857D01*
X149713142Y-150076000D01*
X149640571Y-150148571D01*
X149495428Y-150221143D01*
X148987428Y-150221143D01*
X150511428Y-151019429D02*
X150511428Y-149495429D01*
X151092000Y-149495429D01*
X151237142Y-149568000D01*
X151309714Y-149640571D01*
X151382285Y-149785714D01*
X151382285Y-150003429D01*
X151309714Y-150148571D01*
X151237142Y-150221143D01*
X151092000Y-150293714D01*
X150511428Y-150293714D01*
X152833714Y-151019429D02*
X151962857Y-151019429D01*
X152398285Y-151019429D02*
X152398285Y-149495429D01*
X152253142Y-149713143D01*
X152108000Y-149858286D01*
X151962857Y-149930857D01*
X154285143Y-151019429D02*
X153414286Y-151019429D01*
X153849714Y-151019429D02*
X153849714Y-149495429D01*
X153704571Y-149713143D01*
X153559429Y-149858286D01*
X153414286Y-149930857D01*
D18*
X120362114Y-138968648D02*
X120408076Y-139014610D01*
X120454038Y-139152495D01*
X120454038Y-139244419D01*
X120408076Y-139382305D01*
X120316152Y-139474229D01*
X120224229Y-139520190D01*
X120040381Y-139566152D01*
X119902495Y-139566152D01*
X119718648Y-139520190D01*
X119626724Y-139474229D01*
X119534800Y-139382305D01*
X119488838Y-139244419D01*
X119488838Y-139152495D01*
X119534800Y-139014610D01*
X119580762Y-138968648D01*
X119488838Y-138646914D02*
X119488838Y-138049410D01*
X119856533Y-138371143D01*
X119856533Y-138233257D01*
X119902495Y-138141333D01*
X119948457Y-138095371D01*
X120040381Y-138049410D01*
X120270190Y-138049410D01*
X120362114Y-138095371D01*
X120408076Y-138141333D01*
X120454038Y-138233257D01*
X120454038Y-138509029D01*
X120408076Y-138600952D01*
X120362114Y-138646914D01*
X120362114Y-113968648D02*
X120408076Y-114014610D01*
X120454038Y-114152495D01*
X120454038Y-114244419D01*
X120408076Y-114382305D01*
X120316152Y-114474229D01*
X120224229Y-114520190D01*
X120040381Y-114566152D01*
X119902495Y-114566152D01*
X119718648Y-114520190D01*
X119626724Y-114474229D01*
X119534800Y-114382305D01*
X119488838Y-114244419D01*
X119488838Y-114152495D01*
X119534800Y-114014610D01*
X119580762Y-113968648D01*
X119810571Y-113141333D02*
X120454038Y-113141333D01*
X119442876Y-113371143D02*
X120132305Y-113600952D01*
X120132305Y-113003448D01*
X145362114Y-138968648D02*
X145408076Y-139014610D01*
X145454038Y-139152495D01*
X145454038Y-139244419D01*
X145408076Y-139382305D01*
X145316152Y-139474229D01*
X145224229Y-139520190D01*
X145040381Y-139566152D01*
X144902495Y-139566152D01*
X144718648Y-139520190D01*
X144626724Y-139474229D01*
X144534800Y-139382305D01*
X144488838Y-139244419D01*
X144488838Y-139152495D01*
X144534800Y-139014610D01*
X144580762Y-138968648D01*
X145454038Y-138049410D02*
X145454038Y-138600952D01*
X145454038Y-138325181D02*
X144488838Y-138325181D01*
X144626724Y-138417105D01*
X144718648Y-138509029D01*
X144764610Y-138600952D01*
X145612114Y-113968648D02*
X145658076Y-114014610D01*
X145704038Y-114152495D01*
X145704038Y-114244419D01*
X145658076Y-114382305D01*
X145566152Y-114474229D01*
X145474229Y-114520190D01*
X145290381Y-114566152D01*
X145152495Y-114566152D01*
X144968648Y-114520190D01*
X144876724Y-114474229D01*
X144784800Y-114382305D01*
X144738838Y-114244419D01*
X144738838Y-114152495D01*
X144784800Y-114014610D01*
X144830762Y-113968648D01*
X144830762Y-113600952D02*
X144784800Y-113554990D01*
X144738838Y-113463067D01*
X144738838Y-113233257D01*
X144784800Y-113141333D01*
X144830762Y-113095371D01*
X144922686Y-113049410D01*
X145014610Y-113049410D01*
X145152495Y-113095371D01*
X145704038Y-113646914D01*
X145704038Y-113049410D01*
D13*
X82150857Y-151019429D02*
X82150857Y-149495429D01*
X82731429Y-149495429D01*
X82876571Y-149568000D01*
X82949143Y-149640571D01*
X83021714Y-149785714D01*
X83021714Y-150003429D01*
X82949143Y-150148571D01*
X82876571Y-150221143D01*
X82731429Y-150293714D01*
X82150857Y-150293714D01*
X83602286Y-150584000D02*
X84328000Y-150584000D01*
X83457143Y-151019429D02*
X83965143Y-149495429D01*
X84473143Y-151019429D01*
X84981143Y-151019429D02*
X84981143Y-149495429D01*
X85344000Y-149495429D01*
X85561715Y-149568000D01*
X85706857Y-149713143D01*
X85779429Y-149858286D01*
X85852000Y-150148571D01*
X85852000Y-150366286D01*
X85779429Y-150656571D01*
X85706857Y-150801714D01*
X85561715Y-150946857D01*
X85344000Y-151019429D01*
X84981143Y-151019429D01*
X86505143Y-150438857D02*
X87666286Y-150438857D01*
X88392000Y-151019429D02*
X88392000Y-150003429D01*
X88392000Y-150148571D02*
X88464572Y-150076000D01*
X88609714Y-150003429D01*
X88827429Y-150003429D01*
X88972572Y-150076000D01*
X89045143Y-150221143D01*
X89045143Y-151019429D01*
X89045143Y-150221143D02*
X89117714Y-150076000D01*
X89262857Y-150003429D01*
X89480572Y-150003429D01*
X89625714Y-150076000D01*
X89698286Y-150221143D01*
X89698286Y-151019429D01*
X91077143Y-151019429D02*
X91077143Y-150221143D01*
X91004572Y-150076000D01*
X90859429Y-150003429D01*
X90569143Y-150003429D01*
X90424000Y-150076000D01*
X91077143Y-150946857D02*
X90932000Y-151019429D01*
X90569143Y-151019429D01*
X90424000Y-150946857D01*
X90351429Y-150801714D01*
X90351429Y-150656571D01*
X90424000Y-150511429D01*
X90569143Y-150438857D01*
X90932000Y-150438857D01*
X91077143Y-150366286D01*
X91585143Y-150003429D02*
X92165714Y-150003429D01*
X91802857Y-149495429D02*
X91802857Y-150801714D01*
X91875429Y-150946857D01*
X92020571Y-151019429D01*
X92165714Y-151019429D01*
X92673714Y-151019429D02*
X92673714Y-150003429D01*
X92673714Y-150293714D02*
X92746286Y-150148571D01*
X92818857Y-150076000D01*
X92964000Y-150003429D01*
X93109143Y-150003429D01*
X93617143Y-151019429D02*
X93617143Y-150003429D01*
X93617143Y-149495429D02*
X93544572Y-149568000D01*
X93617143Y-149640571D01*
X93689715Y-149568000D01*
X93617143Y-149495429D01*
X93617143Y-149640571D01*
X94197714Y-151019429D02*
X94996000Y-150003429D01*
X94197714Y-150003429D02*
X94996000Y-151019429D01*
X95576571Y-150438857D02*
X96737714Y-150438857D01*
X98261714Y-151019429D02*
X97390857Y-151019429D01*
X97826285Y-151019429D02*
X97826285Y-149495429D01*
X97681142Y-149713143D01*
X97536000Y-149858286D01*
X97390857Y-149930857D01*
X100221143Y-150221143D02*
X100438857Y-150293714D01*
X100511429Y-150366286D01*
X100584000Y-150511429D01*
X100584000Y-150729143D01*
X100511429Y-150874286D01*
X100438857Y-150946857D01*
X100293715Y-151019429D01*
X99713143Y-151019429D01*
X99713143Y-149495429D01*
X100221143Y-149495429D01*
X100366286Y-149568000D01*
X100438857Y-149640571D01*
X100511429Y-149785714D01*
X100511429Y-149930857D01*
X100438857Y-150076000D01*
X100366286Y-150148571D01*
X100221143Y-150221143D01*
X99713143Y-150221143D01*
X101237143Y-151019429D02*
X101237143Y-149495429D01*
X101817715Y-149495429D01*
X101962857Y-149568000D01*
X102035429Y-149640571D01*
X102108000Y-149785714D01*
X102108000Y-150003429D01*
X102035429Y-150148571D01*
X101962857Y-150221143D01*
X101817715Y-150293714D01*
X101237143Y-150293714D01*
X102616000Y-149495429D02*
X103559429Y-149495429D01*
X103051429Y-150076000D01*
X103269143Y-150076000D01*
X103414286Y-150148571D01*
X103486857Y-150221143D01*
X103559429Y-150366286D01*
X103559429Y-150729143D01*
X103486857Y-150874286D01*
X103414286Y-150946857D01*
X103269143Y-151019429D01*
X102833715Y-151019429D01*
X102688572Y-150946857D01*
X102616000Y-150874286D01*
D18*
X70844714Y-139910867D02*
X70890676Y-139956829D01*
X70936638Y-140094714D01*
X70936638Y-140186638D01*
X70890676Y-140324524D01*
X70798752Y-140416448D01*
X70706829Y-140462409D01*
X70522981Y-140508371D01*
X70385095Y-140508371D01*
X70201248Y-140462409D01*
X70109324Y-140416448D01*
X70017400Y-140324524D01*
X69971438Y-140186638D01*
X69971438Y-140094714D01*
X70017400Y-139956829D01*
X70063362Y-139910867D01*
X69971438Y-139589133D02*
X69971438Y-138991629D01*
X70339133Y-139313362D01*
X70339133Y-139175476D01*
X70385095Y-139083552D01*
X70431057Y-139037590D01*
X70522981Y-138991629D01*
X70752790Y-138991629D01*
X70844714Y-139037590D01*
X70890676Y-139083552D01*
X70936638Y-139175476D01*
X70936638Y-139451248D01*
X70890676Y-139543171D01*
X70844714Y-139589133D01*
X70844714Y-114910867D02*
X70890676Y-114956829D01*
X70936638Y-115094714D01*
X70936638Y-115186638D01*
X70890676Y-115324524D01*
X70798752Y-115416448D01*
X70706829Y-115462409D01*
X70522981Y-115508371D01*
X70385095Y-115508371D01*
X70201248Y-115462409D01*
X70109324Y-115416448D01*
X70017400Y-115324524D01*
X69971438Y-115186638D01*
X69971438Y-115094714D01*
X70017400Y-114956829D01*
X70063362Y-114910867D01*
X70293171Y-114083552D02*
X70936638Y-114083552D01*
X69925476Y-114313362D02*
X70614905Y-114543171D01*
X70614905Y-113945667D01*
X95844714Y-139910867D02*
X95890676Y-139956829D01*
X95936638Y-140094714D01*
X95936638Y-140186638D01*
X95890676Y-140324524D01*
X95798752Y-140416448D01*
X95706829Y-140462409D01*
X95522981Y-140508371D01*
X95385095Y-140508371D01*
X95201248Y-140462409D01*
X95109324Y-140416448D01*
X95017400Y-140324524D01*
X94971438Y-140186638D01*
X94971438Y-140094714D01*
X95017400Y-139956829D01*
X95063362Y-139910867D01*
X95936638Y-138991629D02*
X95936638Y-139543171D01*
X95936638Y-139267400D02*
X94971438Y-139267400D01*
X95109324Y-139359324D01*
X95201248Y-139451248D01*
X95247210Y-139543171D01*
X96094714Y-114910867D02*
X96140676Y-114956829D01*
X96186638Y-115094714D01*
X96186638Y-115186638D01*
X96140676Y-115324524D01*
X96048752Y-115416448D01*
X95956829Y-115462409D01*
X95772981Y-115508371D01*
X95635095Y-115508371D01*
X95451248Y-115462409D01*
X95359324Y-115416448D01*
X95267400Y-115324524D01*
X95221438Y-115186638D01*
X95221438Y-115094714D01*
X95267400Y-114956829D01*
X95313362Y-114910867D01*
X95313362Y-114543171D02*
X95267400Y-114497209D01*
X95221438Y-114405286D01*
X95221438Y-114175476D01*
X95267400Y-114083552D01*
X95313362Y-114037590D01*
X95405286Y-113991629D01*
X95497210Y-113991629D01*
X95635095Y-114037590D01*
X96186638Y-114589133D01*
X96186638Y-113991629D01*
D13*
X82150857Y-101019429D02*
X82150857Y-99495429D01*
X82731429Y-99495429D01*
X82876571Y-99568000D01*
X82949143Y-99640571D01*
X83021714Y-99785714D01*
X83021714Y-100003429D01*
X82949143Y-100148571D01*
X82876571Y-100221143D01*
X82731429Y-100293714D01*
X82150857Y-100293714D01*
X83602286Y-100584000D02*
X84328000Y-100584000D01*
X83457143Y-101019429D02*
X83965143Y-99495429D01*
X84473143Y-101019429D01*
X84981143Y-101019429D02*
X84981143Y-99495429D01*
X85344000Y-99495429D01*
X85561715Y-99568000D01*
X85706857Y-99713143D01*
X85779429Y-99858286D01*
X85852000Y-100148571D01*
X85852000Y-100366286D01*
X85779429Y-100656571D01*
X85706857Y-100801714D01*
X85561715Y-100946857D01*
X85344000Y-101019429D01*
X84981143Y-101019429D01*
X86505143Y-100438857D02*
X87666286Y-100438857D01*
X88392000Y-101019429D02*
X88392000Y-100003429D01*
X88392000Y-100148571D02*
X88464572Y-100076000D01*
X88609714Y-100003429D01*
X88827429Y-100003429D01*
X88972572Y-100076000D01*
X89045143Y-100221143D01*
X89045143Y-101019429D01*
X89045143Y-100221143D02*
X89117714Y-100076000D01*
X89262857Y-100003429D01*
X89480572Y-100003429D01*
X89625714Y-100076000D01*
X89698286Y-100221143D01*
X89698286Y-101019429D01*
X91077143Y-101019429D02*
X91077143Y-100221143D01*
X91004572Y-100076000D01*
X90859429Y-100003429D01*
X90569143Y-100003429D01*
X90424000Y-100076000D01*
X91077143Y-100946857D02*
X90932000Y-101019429D01*
X90569143Y-101019429D01*
X90424000Y-100946857D01*
X90351429Y-100801714D01*
X90351429Y-100656571D01*
X90424000Y-100511429D01*
X90569143Y-100438857D01*
X90932000Y-100438857D01*
X91077143Y-100366286D01*
X91585143Y-100003429D02*
X92165714Y-100003429D01*
X91802857Y-99495429D02*
X91802857Y-100801714D01*
X91875429Y-100946857D01*
X92020571Y-101019429D01*
X92165714Y-101019429D01*
X92673714Y-101019429D02*
X92673714Y-100003429D01*
X92673714Y-100293714D02*
X92746286Y-100148571D01*
X92818857Y-100076000D01*
X92964000Y-100003429D01*
X93109143Y-100003429D01*
X93617143Y-101019429D02*
X93617143Y-100003429D01*
X93617143Y-99495429D02*
X93544572Y-99568000D01*
X93617143Y-99640571D01*
X93689715Y-99568000D01*
X93617143Y-99495429D01*
X93617143Y-99640571D01*
X94197714Y-101019429D02*
X94996000Y-100003429D01*
X94197714Y-100003429D02*
X94996000Y-101019429D01*
X95576571Y-100438857D02*
X96737714Y-100438857D01*
X97390857Y-99640571D02*
X97463428Y-99568000D01*
X97608571Y-99495429D01*
X97971428Y-99495429D01*
X98116571Y-99568000D01*
X98189142Y-99640571D01*
X98261714Y-99785714D01*
X98261714Y-99930857D01*
X98189142Y-100148571D01*
X97318285Y-101019429D01*
X98261714Y-101019429D01*
X99495428Y-100221143D02*
X99713142Y-100293714D01*
X99785714Y-100366286D01*
X99858285Y-100511429D01*
X99858285Y-100729143D01*
X99785714Y-100874286D01*
X99713142Y-100946857D01*
X99568000Y-101019429D01*
X98987428Y-101019429D01*
X98987428Y-99495429D01*
X99495428Y-99495429D01*
X99640571Y-99568000D01*
X99713142Y-99640571D01*
X99785714Y-99785714D01*
X99785714Y-99930857D01*
X99713142Y-100076000D01*
X99640571Y-100148571D01*
X99495428Y-100221143D01*
X98987428Y-100221143D01*
X100511428Y-101019429D02*
X100511428Y-99495429D01*
X101092000Y-99495429D01*
X101237142Y-99568000D01*
X101309714Y-99640571D01*
X101382285Y-99785714D01*
X101382285Y-100003429D01*
X101309714Y-100148571D01*
X101237142Y-100221143D01*
X101092000Y-100293714D01*
X100511428Y-100293714D01*
X102833714Y-101019429D02*
X101962857Y-101019429D01*
X102398285Y-101019429D02*
X102398285Y-99495429D01*
X102253142Y-99713143D01*
X102108000Y-99858286D01*
X101962857Y-99930857D01*
X104212571Y-99495429D02*
X103486857Y-99495429D01*
X103414286Y-100221143D01*
X103486857Y-100148571D01*
X103632000Y-100076000D01*
X103994857Y-100076000D01*
X104140000Y-100148571D01*
X104212571Y-100221143D01*
X104285143Y-100366286D01*
X104285143Y-100729143D01*
X104212571Y-100874286D01*
X104140000Y-100946857D01*
X103994857Y-101019429D01*
X103632000Y-101019429D01*
X103486857Y-100946857D01*
X103414286Y-100874286D01*
D18*
X70362114Y-88968648D02*
X70408076Y-89014610D01*
X70454038Y-89152495D01*
X70454038Y-89244419D01*
X70408076Y-89382305D01*
X70316152Y-89474229D01*
X70224229Y-89520190D01*
X70040381Y-89566152D01*
X69902495Y-89566152D01*
X69718648Y-89520190D01*
X69626724Y-89474229D01*
X69534800Y-89382305D01*
X69488838Y-89244419D01*
X69488838Y-89152495D01*
X69534800Y-89014610D01*
X69580762Y-88968648D01*
X69488838Y-88646914D02*
X69488838Y-88049410D01*
X69856533Y-88371143D01*
X69856533Y-88233257D01*
X69902495Y-88141333D01*
X69948457Y-88095371D01*
X70040381Y-88049410D01*
X70270190Y-88049410D01*
X70362114Y-88095371D01*
X70408076Y-88141333D01*
X70454038Y-88233257D01*
X70454038Y-88509029D01*
X70408076Y-88600952D01*
X70362114Y-88646914D01*
X70362114Y-63968648D02*
X70408076Y-64014610D01*
X70454038Y-64152495D01*
X70454038Y-64244419D01*
X70408076Y-64382305D01*
X70316152Y-64474229D01*
X70224229Y-64520190D01*
X70040381Y-64566152D01*
X69902495Y-64566152D01*
X69718648Y-64520190D01*
X69626724Y-64474229D01*
X69534800Y-64382305D01*
X69488838Y-64244419D01*
X69488838Y-64152495D01*
X69534800Y-64014610D01*
X69580762Y-63968648D01*
X69810571Y-63141333D02*
X70454038Y-63141333D01*
X69442876Y-63371143D02*
X70132305Y-63600952D01*
X70132305Y-63003448D01*
X95362114Y-88968648D02*
X95408076Y-89014610D01*
X95454038Y-89152495D01*
X95454038Y-89244419D01*
X95408076Y-89382305D01*
X95316152Y-89474229D01*
X95224229Y-89520190D01*
X95040381Y-89566152D01*
X94902495Y-89566152D01*
X94718648Y-89520190D01*
X94626724Y-89474229D01*
X94534800Y-89382305D01*
X94488838Y-89244419D01*
X94488838Y-89152495D01*
X94534800Y-89014610D01*
X94580762Y-88968648D01*
X95454038Y-88049410D02*
X95454038Y-88600952D01*
X95454038Y-88325181D02*
X94488838Y-88325181D01*
X94626724Y-88417105D01*
X94718648Y-88509029D01*
X94764610Y-88600952D01*
X95612114Y-63968648D02*
X95658076Y-64014610D01*
X95704038Y-64152495D01*
X95704038Y-64244419D01*
X95658076Y-64382305D01*
X95566152Y-64474229D01*
X95474229Y-64520190D01*
X95290381Y-64566152D01*
X95152495Y-64566152D01*
X94968648Y-64520190D01*
X94876724Y-64474229D01*
X94784800Y-64382305D01*
X94738838Y-64244419D01*
X94738838Y-64152495D01*
X94784800Y-64014610D01*
X94830762Y-63968648D01*
X94830762Y-63600952D02*
X94784800Y-63554990D01*
X94738838Y-63463067D01*
X94738838Y-63233257D01*
X94784800Y-63141333D01*
X94830762Y-63095371D01*
X94922686Y-63049410D01*
X95014610Y-63049410D01*
X95152495Y-63095371D01*
X95704038Y-63646914D01*
X95704038Y-63049410D01*
D16*
X220922548Y-60672738D02*
X219716048Y-60672738D01*
X219716048Y-60213119D01*
X219773500Y-60098214D01*
X219830952Y-60040762D01*
X219945857Y-59983310D01*
X220118214Y-59983310D01*
X220233119Y-60040762D01*
X220290571Y-60098214D01*
X220348024Y-60213119D01*
X220348024Y-60672738D01*
X220922548Y-58834262D02*
X220922548Y-59523690D01*
X220922548Y-59178976D02*
X219716048Y-59178976D01*
X219888405Y-59293881D01*
X220003310Y-59408786D01*
X220060762Y-59523690D01*
X220922548Y-58259738D02*
X220922548Y-58029928D01*
X220865095Y-57915023D01*
X220807643Y-57857571D01*
X220635286Y-57742666D01*
X220405476Y-57685214D01*
X219945857Y-57685214D01*
X219830952Y-57742666D01*
X219773500Y-57800119D01*
X219716048Y-57915023D01*
X219716048Y-58144833D01*
X219773500Y-58259738D01*
X219830952Y-58317190D01*
X219945857Y-58374642D01*
X220233119Y-58374642D01*
X220348024Y-58317190D01*
X220405476Y-58259738D01*
X220462929Y-58144833D01*
X220462929Y-57915023D01*
X220405476Y-57800119D01*
X220348024Y-57742666D01*
X220233119Y-57685214D01*
D13*
X201891143Y-141612571D02*
X201891143Y-141104571D01*
X202689429Y-140886857D02*
X202689429Y-141612571D01*
X201165429Y-141612571D01*
X201165429Y-140886857D01*
X202689429Y-140233714D02*
X201165429Y-140233714D01*
X202689429Y-139362857D01*
X201165429Y-139362857D01*
X202544286Y-137766286D02*
X202616857Y-137838857D01*
X202689429Y-138056571D01*
X202689429Y-138201714D01*
X202616857Y-138419429D01*
X202471714Y-138564571D01*
X202326571Y-138637143D01*
X202036286Y-138709714D01*
X201818571Y-138709714D01*
X201528286Y-138637143D01*
X201383143Y-138564571D01*
X201238000Y-138419429D01*
X201165429Y-138201714D01*
X201165429Y-138056571D01*
X201238000Y-137838857D01*
X201310571Y-137766286D01*
X201165429Y-136822857D02*
X201165429Y-136677714D01*
X201238000Y-136532571D01*
X201310571Y-136460000D01*
X201455714Y-136387429D01*
X201746000Y-136314857D01*
X202108857Y-136314857D01*
X202399143Y-136387429D01*
X202544286Y-136460000D01*
X202616857Y-136532571D01*
X202689429Y-136677714D01*
X202689429Y-136822857D01*
X202616857Y-136968000D01*
X202544286Y-137040571D01*
X202399143Y-137113143D01*
X202108857Y-137185714D01*
X201746000Y-137185714D01*
X201455714Y-137113143D01*
X201310571Y-137040571D01*
X201238000Y-136968000D01*
X201165429Y-136822857D01*
X222166666Y-145452381D02*
X222166666Y-144452381D01*
X222595238Y-145452381D02*
X222595238Y-144928571D01*
X222547619Y-144833333D01*
X222452381Y-144785714D01*
X222309523Y-144785714D01*
X222214285Y-144833333D01*
X222166666Y-144880952D01*
X223214285Y-145452381D02*
X223119047Y-145404762D01*
X223071428Y-145357143D01*
X223023809Y-145261905D01*
X223023809Y-144976190D01*
X223071428Y-144880952D01*
X223119047Y-144833333D01*
X223214285Y-144785714D01*
X223357143Y-144785714D01*
X223452381Y-144833333D01*
X223500000Y-144880952D01*
X223547619Y-144976190D01*
X223547619Y-145261905D01*
X223500000Y-145357143D01*
X223452381Y-145404762D01*
X223357143Y-145452381D01*
X223214285Y-145452381D01*
X224119047Y-145452381D02*
X224023809Y-145404762D01*
X223976190Y-145309524D01*
X223976190Y-144452381D01*
X224880953Y-145404762D02*
X224785715Y-145452381D01*
X224595238Y-145452381D01*
X224500000Y-145404762D01*
X224452381Y-145309524D01*
X224452381Y-144928571D01*
X224500000Y-144833333D01*
X224595238Y-144785714D01*
X224785715Y-144785714D01*
X224880953Y-144833333D01*
X224928572Y-144928571D01*
X224928572Y-145023810D01*
X224452381Y-145119048D01*
X225309524Y-144547619D02*
X225357143Y-144500000D01*
X225452381Y-144452381D01*
X225690477Y-144452381D01*
X225785715Y-144500000D01*
X225833334Y-144547619D01*
X225880953Y-144642857D01*
X225880953Y-144738095D01*
X225833334Y-144880952D01*
X225261905Y-145452381D01*
X225880953Y-145452381D01*
D16*
X186901062Y-92093748D02*
X186901062Y-90887248D01*
X187360681Y-90887248D01*
X187475586Y-90944700D01*
X187533038Y-91002152D01*
X187590490Y-91117057D01*
X187590490Y-91289414D01*
X187533038Y-91404319D01*
X187475586Y-91461771D01*
X187360681Y-91519224D01*
X186901062Y-91519224D01*
X188739538Y-92093748D02*
X188050110Y-92093748D01*
X188394824Y-92093748D02*
X188394824Y-90887248D01*
X188279919Y-91059605D01*
X188165014Y-91174510D01*
X188050110Y-91231962D01*
D17*
X187666690Y-96982643D02*
X187609238Y-97040095D01*
X187436881Y-97097548D01*
X187321976Y-97097548D01*
X187149619Y-97040095D01*
X187034714Y-96925190D01*
X186977262Y-96810286D01*
X186919810Y-96580476D01*
X186919810Y-96408119D01*
X186977262Y-96178310D01*
X187034714Y-96063405D01*
X187149619Y-95948500D01*
X187321976Y-95891048D01*
X187436881Y-95891048D01*
X187609238Y-95948500D01*
X187666690Y-96005952D01*
X188413571Y-95891048D02*
X188643381Y-95891048D01*
X188758286Y-95948500D01*
X188873190Y-96063405D01*
X188930643Y-96293214D01*
X188930643Y-96695381D01*
X188873190Y-96925190D01*
X188758286Y-97040095D01*
X188643381Y-97097548D01*
X188413571Y-97097548D01*
X188298667Y-97040095D01*
X188183762Y-96925190D01*
X188126310Y-96695381D01*
X188126310Y-96293214D01*
X188183762Y-96063405D01*
X188298667Y-95948500D01*
X188413571Y-95891048D01*
X189447714Y-97097548D02*
X189447714Y-95891048D01*
X190137142Y-97097548D01*
X190137142Y-95891048D01*
X190711666Y-97097548D02*
X190711666Y-95891048D01*
X191401094Y-97097548D01*
X191401094Y-95891048D01*
X191688356Y-97212452D02*
X192607594Y-97212452D01*
X193124665Y-95891048D02*
X193239570Y-95891048D01*
X193354475Y-95948500D01*
X193411927Y-96005952D01*
X193469380Y-96120857D01*
X193526832Y-96350667D01*
X193526832Y-96637929D01*
X193469380Y-96867738D01*
X193411927Y-96982643D01*
X193354475Y-97040095D01*
X193239570Y-97097548D01*
X193124665Y-97097548D01*
X193009761Y-97040095D01*
X192952308Y-96982643D01*
X192894856Y-96867738D01*
X192837404Y-96637929D01*
X192837404Y-96350667D01*
X192894856Y-96120857D01*
X192952308Y-96005952D01*
X193009761Y-95948500D01*
X193124665Y-95891048D01*
X194675880Y-97097548D02*
X193986452Y-97097548D01*
X194331166Y-97097548D02*
X194331166Y-95891048D01*
X194216261Y-96063405D01*
X194101356Y-96178310D01*
X193986452Y-96235762D01*
X195078047Y-95891048D02*
X195882380Y-97097548D01*
X195882380Y-95891048D02*
X195078047Y-97097548D01*
X196571809Y-95891048D02*
X196686714Y-95891048D01*
X196801619Y-95948500D01*
X196859071Y-96005952D01*
X196916524Y-96120857D01*
X196973976Y-96350667D01*
X196973976Y-96637929D01*
X196916524Y-96867738D01*
X196859071Y-96982643D01*
X196801619Y-97040095D01*
X196686714Y-97097548D01*
X196571809Y-97097548D01*
X196456905Y-97040095D01*
X196399452Y-96982643D01*
X196342000Y-96867738D01*
X196284548Y-96637929D01*
X196284548Y-96350667D01*
X196342000Y-96120857D01*
X196399452Y-96005952D01*
X196456905Y-95948500D01*
X196571809Y-95891048D01*
X197663405Y-96408119D02*
X197548500Y-96350667D01*
X197491048Y-96293214D01*
X197433596Y-96178310D01*
X197433596Y-96120857D01*
X197491048Y-96005952D01*
X197548500Y-95948500D01*
X197663405Y-95891048D01*
X197893215Y-95891048D01*
X198008119Y-95948500D01*
X198065572Y-96005952D01*
X198123024Y-96120857D01*
X198123024Y-96178310D01*
X198065572Y-96293214D01*
X198008119Y-96350667D01*
X197893215Y-96408119D01*
X197663405Y-96408119D01*
X197548500Y-96465571D01*
X197491048Y-96523024D01*
X197433596Y-96637929D01*
X197433596Y-96867738D01*
X197491048Y-96982643D01*
X197548500Y-97040095D01*
X197663405Y-97097548D01*
X197893215Y-97097548D01*
X198008119Y-97040095D01*
X198065572Y-96982643D01*
X198123024Y-96867738D01*
X198123024Y-96637929D01*
X198065572Y-96523024D01*
X198008119Y-96465571D01*
X197893215Y-96408119D01*
M02*
