G04 #@! TF.FileFunction,Soldermask,Top*
%FSLAX46Y46*%
G04 Gerber Fmt 4.6, Leading zero omitted, Abs format (unit mm)*
G04 Created by KiCad (PCBNEW 4.0.4-stable) date 11/18/16 13:20:27*
%MOMM*%
%LPD*%
G01*
G04 APERTURE LIST*
%ADD10C,0.100000*%
%ADD11C,3.000000*%
%ADD12C,1.998980*%
%ADD13R,1.998980X1.998980*%
%ADD14R,1.879600X1.879600*%
%ADD15C,1.879600*%
%ADD16C,2.000000*%
%ADD17C,1.524000*%
%ADD18C,1.500000*%
%ADD19C,1.508000*%
%ADD20C,1.016000*%
G04 APERTURE END LIST*
D10*
D11*
X128524567Y-89300000D02*
G75*
G03X128524567Y-89300000I-6024567J0D01*
G01*
X128524567Y-89300000D02*
G75*
G03X128524567Y-89300000I-6024567J0D01*
G01*
X128559567Y-64281067D02*
G75*
G03X128559567Y-64281067I-6024567J0D01*
G01*
X153515067Y-89300067D02*
G75*
G03X153515067Y-89300067I-6024567J0D01*
G01*
X153515067Y-64281067D02*
G75*
G03X153515067Y-64281067I-6024567J0D01*
G01*
X128524567Y-139300000D02*
G75*
G03X128524567Y-139300000I-6024567J0D01*
G01*
X128524567Y-139300000D02*
G75*
G03X128524567Y-139300000I-6024567J0D01*
G01*
X128559567Y-114281067D02*
G75*
G03X128559567Y-114281067I-6024567J0D01*
G01*
X153515067Y-139300067D02*
G75*
G03X153515067Y-139300067I-6024567J0D01*
G01*
X153515067Y-114281067D02*
G75*
G03X153515067Y-114281067I-6024567J0D01*
G01*
X78524567Y-139300000D02*
G75*
G03X78524567Y-139300000I-6024567J0D01*
G01*
X78524567Y-139300000D02*
G75*
G03X78524567Y-139300000I-6024567J0D01*
G01*
X78559567Y-114281067D02*
G75*
G03X78559567Y-114281067I-6024567J0D01*
G01*
X103515067Y-139300067D02*
G75*
G03X103515067Y-139300067I-6024567J0D01*
G01*
X103515067Y-114281067D02*
G75*
G03X103515067Y-114281067I-6024567J0D01*
G01*
X78524567Y-89300000D02*
G75*
G03X78524567Y-89300000I-6024567J0D01*
G01*
X78524567Y-89300000D02*
G75*
G03X78524567Y-89300000I-6024567J0D01*
G01*
X78559567Y-64281067D02*
G75*
G03X78559567Y-64281067I-6024567J0D01*
G01*
X103515067Y-89300067D02*
G75*
G03X103515067Y-89300067I-6024567J0D01*
G01*
X103515067Y-64281067D02*
G75*
G03X103515067Y-64281067I-6024567J0D01*
G01*
D12*
X70502540Y-138840000D03*
D13*
X70502540Y-149000000D03*
D12*
X70005040Y-113840000D03*
D13*
X70005040Y-124000000D03*
D12*
X69999960Y-89660000D03*
D13*
X69999960Y-79500000D03*
D12*
X69499960Y-64660000D03*
D13*
X69499960Y-54500000D03*
D12*
X95500040Y-138840000D03*
D13*
X95500040Y-149000000D03*
D12*
X95002540Y-113840000D03*
D13*
X95002540Y-124000000D03*
D12*
X94994960Y-89660000D03*
D13*
X94994960Y-79500000D03*
D12*
X94999960Y-64660000D03*
D13*
X94999960Y-54500000D03*
D12*
X120502540Y-138840000D03*
D13*
X120502540Y-149000000D03*
D12*
X120002540Y-113840000D03*
D13*
X120002540Y-124000000D03*
D12*
X119997460Y-89660000D03*
D13*
X119997460Y-79500000D03*
D12*
X120000460Y-64660000D03*
D13*
X120000460Y-54500000D03*
D12*
X149840000Y-139497460D03*
D13*
X160000000Y-139497460D03*
D12*
X149840000Y-114000460D03*
D13*
X160000000Y-114000460D03*
D12*
X149840000Y-89497460D03*
D13*
X160000000Y-89497460D03*
D12*
X149840000Y-63997460D03*
D13*
X160000000Y-63997460D03*
D14*
X213360000Y-55880000D03*
D15*
X213360000Y-58420000D03*
X213360000Y-60960000D03*
X213360000Y-63500000D03*
X213360000Y-66040000D03*
X213360000Y-68580000D03*
X213360000Y-71120000D03*
X213360000Y-73660000D03*
D14*
X210820000Y-73660000D03*
D15*
X210820000Y-71120000D03*
X210820000Y-68580000D03*
X210820000Y-66040000D03*
X210820000Y-63500000D03*
X210820000Y-60960000D03*
X210820000Y-58420000D03*
X210820000Y-55880000D03*
D16*
X180320000Y-142270000D03*
X175820000Y-142270000D03*
X180320000Y-135770000D03*
X175820000Y-135770000D03*
X180320000Y-117270000D03*
X175820000Y-117270000D03*
X180320000Y-110770000D03*
X175820000Y-110770000D03*
X180320000Y-92270000D03*
X175820000Y-92270000D03*
X180320000Y-85770000D03*
X175820000Y-85770000D03*
X180320000Y-67270000D03*
X175820000Y-67270000D03*
X180320000Y-60770000D03*
X175820000Y-60770000D03*
D17*
X195681000Y-112283000D03*
X195681000Y-114823000D03*
X195681000Y-117363000D03*
X195681000Y-119903000D03*
X195681000Y-122443000D03*
X195681000Y-124983000D03*
X195681000Y-127523000D03*
X195681000Y-130063000D03*
X195681000Y-132603000D03*
X195681000Y-135143000D03*
X195681000Y-137683000D03*
X195681000Y-140223000D03*
X210921000Y-112283000D03*
X210921000Y-114823000D03*
X210921000Y-117363000D03*
X210921000Y-119903000D03*
X210921000Y-122443000D03*
X210921000Y-124983000D03*
X210921000Y-127523000D03*
X210921000Y-130063000D03*
X210921000Y-132603000D03*
X210921000Y-135143000D03*
X210921000Y-137683000D03*
X210921000Y-140223000D03*
D18*
X208000000Y-121046000D03*
X208000000Y-123586000D03*
X208000000Y-131460000D03*
X208000000Y-134000000D03*
D14*
X187960000Y-96520000D03*
D15*
X190500000Y-96520000D03*
X193040000Y-96520000D03*
X195580000Y-96520000D03*
X198120000Y-96520000D03*
X200660000Y-96520000D03*
X203200000Y-96520000D03*
X205740000Y-96520000D03*
D14*
X213360000Y-76200000D03*
D15*
X213360000Y-78740000D03*
X213360000Y-81280000D03*
X213360000Y-83820000D03*
X213360000Y-86360000D03*
X213360000Y-88900000D03*
X213360000Y-91440000D03*
X213360000Y-93980000D03*
D14*
X210820000Y-93980000D03*
D15*
X210820000Y-91440000D03*
X210820000Y-88900000D03*
X210820000Y-86360000D03*
X210820000Y-83820000D03*
X210820000Y-81280000D03*
X210820000Y-78740000D03*
X210820000Y-76200000D03*
D14*
X187960000Y-76200000D03*
D15*
X190500000Y-76200000D03*
X193040000Y-76200000D03*
X195580000Y-76200000D03*
X198120000Y-76200000D03*
X200660000Y-76200000D03*
X203200000Y-76200000D03*
X205740000Y-76200000D03*
D14*
X205740000Y-81280000D03*
D15*
X203200000Y-81280000D03*
X200660000Y-81280000D03*
X198120000Y-81280000D03*
X195580000Y-81280000D03*
X193040000Y-81280000D03*
X190500000Y-81280000D03*
X187960000Y-81280000D03*
D14*
X220980000Y-93980000D03*
D15*
X220980000Y-91440000D03*
X220980000Y-88900000D03*
X220980000Y-86360000D03*
X220980000Y-83820000D03*
X220980000Y-81280000D03*
X220980000Y-78740000D03*
X220980000Y-76200000D03*
D14*
X223520000Y-76200000D03*
D15*
X223520000Y-78740000D03*
X223520000Y-81280000D03*
X223520000Y-83820000D03*
X223520000Y-86360000D03*
X223520000Y-88900000D03*
X223520000Y-91440000D03*
X223520000Y-93980000D03*
D14*
X205740000Y-60960000D03*
D15*
X203200000Y-60960000D03*
X200660000Y-60960000D03*
X198120000Y-60960000D03*
X195580000Y-60960000D03*
X193040000Y-60960000D03*
X190500000Y-60960000D03*
X187960000Y-60960000D03*
D14*
X187960000Y-55880000D03*
D15*
X190500000Y-55880000D03*
X193040000Y-55880000D03*
X195580000Y-55880000D03*
X198120000Y-55880000D03*
X200660000Y-55880000D03*
X203200000Y-55880000D03*
X205740000Y-55880000D03*
D14*
X223520000Y-55880000D03*
D15*
X223520000Y-58420000D03*
X223520000Y-60960000D03*
X223520000Y-63500000D03*
X223520000Y-66040000D03*
X223520000Y-68580000D03*
X223520000Y-71120000D03*
X223520000Y-73660000D03*
D14*
X220980000Y-73660000D03*
D15*
X220980000Y-71120000D03*
X220980000Y-68580000D03*
X220980000Y-66040000D03*
X220980000Y-63500000D03*
X220980000Y-60960000D03*
X220980000Y-58420000D03*
X220980000Y-55880000D03*
D14*
X205740000Y-66040000D03*
D15*
X203200000Y-66040000D03*
X200660000Y-66040000D03*
X198120000Y-66040000D03*
X195580000Y-66040000D03*
X193040000Y-66040000D03*
X190500000Y-66040000D03*
X187960000Y-66040000D03*
D14*
X187960000Y-71120000D03*
D15*
X190500000Y-71120000D03*
X193040000Y-71120000D03*
X195580000Y-71120000D03*
X198120000Y-71120000D03*
X200660000Y-71120000D03*
X203200000Y-71120000D03*
X205740000Y-71120000D03*
D14*
X187960000Y-101600000D03*
D15*
X190500000Y-101600000D03*
X193040000Y-101600000D03*
X195580000Y-101600000D03*
X198120000Y-101600000D03*
X200660000Y-101600000D03*
X203200000Y-101600000D03*
X205740000Y-101600000D03*
D14*
X187960000Y-86360000D03*
D15*
X190500000Y-86360000D03*
X193040000Y-86360000D03*
X195580000Y-86360000D03*
X198120000Y-86360000D03*
X200660000Y-86360000D03*
X203200000Y-86360000D03*
X205740000Y-86360000D03*
D14*
X220980000Y-127000000D03*
D15*
X220980000Y-124460000D03*
X220980000Y-121920000D03*
X220980000Y-119380000D03*
X220980000Y-116840000D03*
X220980000Y-114300000D03*
X220980000Y-111760000D03*
X220980000Y-109220000D03*
D14*
X220980000Y-129540000D03*
D15*
X220980000Y-132080000D03*
X220980000Y-134620000D03*
X220980000Y-137160000D03*
X220980000Y-139700000D03*
X220980000Y-142240000D03*
X220980000Y-144780000D03*
X220980000Y-147320000D03*
D12*
X193040000Y-147320000D03*
X193040000Y-137160000D03*
X186690000Y-137160000D03*
X186690000Y-147320000D03*
D19*
X122500000Y-90000000D03*
X122500000Y-88000000D03*
X122500000Y-86000000D03*
X122500000Y-92000000D03*
X122500000Y-65000000D03*
X122500000Y-63000000D03*
X122500000Y-61000000D03*
X122500000Y-67000000D03*
X147500000Y-90000000D03*
X147500000Y-88000000D03*
X147500000Y-86000000D03*
X147500000Y-92000000D03*
D20*
X146519000Y-93672000D03*
X144487000Y-96212000D03*
D19*
X147500000Y-65000000D03*
X147500000Y-63000000D03*
X147500000Y-61000000D03*
X147500000Y-67000000D03*
D20*
X146519000Y-68672000D03*
X144487000Y-71212000D03*
X121519000Y-93672000D03*
X119487000Y-96212000D03*
X121519000Y-68672000D03*
X119487000Y-71212000D03*
D19*
X122500000Y-140000000D03*
X122500000Y-138000000D03*
X122500000Y-136000000D03*
X122500000Y-142000000D03*
X122500000Y-115000000D03*
X122500000Y-113000000D03*
X122500000Y-111000000D03*
X122500000Y-117000000D03*
X147500000Y-140000000D03*
X147500000Y-138000000D03*
X147500000Y-136000000D03*
X147500000Y-142000000D03*
D20*
X146519000Y-143672000D03*
X144487000Y-146212000D03*
D19*
X147500000Y-115000000D03*
X147500000Y-113000000D03*
X147500000Y-111000000D03*
X147500000Y-117000000D03*
D20*
X146519000Y-118672000D03*
X144487000Y-121212000D03*
X121519000Y-143672000D03*
X119487000Y-146212000D03*
X121519000Y-118672000D03*
X119487000Y-121212000D03*
D19*
X72500000Y-140000000D03*
X72500000Y-138000000D03*
X72500000Y-136000000D03*
X72500000Y-142000000D03*
X72500000Y-115000000D03*
X72500000Y-113000000D03*
X72500000Y-111000000D03*
X72500000Y-117000000D03*
X97500000Y-140000000D03*
X97500000Y-138000000D03*
X97500000Y-136000000D03*
X97500000Y-142000000D03*
D20*
X96519000Y-143672000D03*
X94487000Y-146212000D03*
D19*
X97500000Y-115000000D03*
X97500000Y-113000000D03*
X97500000Y-111000000D03*
X97500000Y-117000000D03*
D20*
X96519000Y-118672000D03*
X94487000Y-121212000D03*
X71519000Y-143672000D03*
X69487000Y-146212000D03*
X71519000Y-118672000D03*
X69487000Y-121212000D03*
D19*
X72500000Y-90000000D03*
X72500000Y-88000000D03*
X72500000Y-86000000D03*
X72500000Y-92000000D03*
X72500000Y-65000000D03*
X72500000Y-63000000D03*
X72500000Y-61000000D03*
X72500000Y-67000000D03*
X97500000Y-90000000D03*
X97500000Y-88000000D03*
X97500000Y-86000000D03*
X97500000Y-92000000D03*
D20*
X96519000Y-93672000D03*
X94487000Y-96212000D03*
D19*
X97500000Y-65000000D03*
X97500000Y-63000000D03*
X97500000Y-61000000D03*
X97500000Y-67000000D03*
D20*
X96519000Y-68672000D03*
X94487000Y-71212000D03*
X71519000Y-93672000D03*
X69487000Y-96212000D03*
X71519000Y-68672000D03*
X69487000Y-71212000D03*
M02*
