G04 #@! TF.FileFunction,Copper,L1,Top,Signal*
%FSLAX46Y46*%
G04 Gerber Fmt 4.6, Leading zero omitted, Abs format (unit mm)*
G04 Created by KiCad (PCBNEW 4.0.4-stable) date 11/18/16 13:20:27*
%MOMM*%
%LPD*%
G01*
G04 APERTURE LIST*
%ADD10C,0.100000*%
%ADD11C,0.254000*%
%ADD12C,1.998980*%
%ADD13R,1.998980X1.998980*%
%ADD14R,1.879600X1.879600*%
%ADD15C,1.879600*%
%ADD16C,2.000000*%
%ADD17C,1.524000*%
%ADD18C,1.500000*%
%ADD19C,1.508000*%
%ADD20C,1.016000*%
%ADD21C,0.749400*%
%ADD22C,0.203200*%
G04 APERTURE END LIST*
D10*
D11*
X120760000Y-96090000D02*
X121520000Y-93720000D01*
X121990000Y-96770000D02*
X122130000Y-94480000D01*
X123250000Y-96060000D02*
X123100000Y-93760000D01*
X123970000Y-94190000D02*
X124480000Y-96470000D01*
X125520000Y-95310000D02*
X124580000Y-93310000D01*
X126780000Y-95420000D02*
X125630000Y-93470000D01*
X125840000Y-92350000D02*
X127420000Y-94220000D01*
X126870000Y-92060000D02*
X128720000Y-93400000D01*
X128810000Y-92040000D02*
X126750000Y-91050000D01*
X127450000Y-90590000D02*
X129630000Y-91350000D01*
X129340000Y-90010000D02*
X127010000Y-89660000D01*
X127710000Y-89010000D02*
X129940000Y-89080000D01*
X129260000Y-87860000D02*
X126910000Y-88320000D01*
X127380000Y-87450000D02*
X129430000Y-86670000D01*
X128480000Y-85670000D02*
X126340000Y-86920000D01*
X126560000Y-85930000D02*
X128340000Y-84730000D01*
X125400000Y-85840000D02*
X127020000Y-84290000D01*
X125280000Y-84860000D02*
X126580000Y-83110000D01*
X124070000Y-85070000D02*
X125120000Y-82940000D01*
X123620000Y-84250000D02*
X124300000Y-82130000D01*
X122930000Y-84790000D02*
X123090000Y-82430000D01*
X122230000Y-84130000D02*
X122260000Y-81840000D01*
X121640000Y-84830000D02*
X121320000Y-82490000D01*
X120680000Y-84410000D02*
X120260000Y-82170000D01*
X120320000Y-85270000D02*
X119350000Y-83100000D01*
X119450000Y-85160000D02*
X118360000Y-83130000D01*
X119230000Y-86110000D02*
X117800000Y-84290000D01*
X116580000Y-84770000D02*
X118360000Y-86330000D01*
X118400000Y-87300000D02*
X116490000Y-85960000D01*
X117480000Y-87800000D02*
X115460000Y-86960000D01*
X117990000Y-88740000D02*
X115710000Y-88200000D01*
X117130000Y-89300000D02*
X115010000Y-89300000D01*
X118020000Y-89880000D02*
X115550000Y-90290000D01*
X117320000Y-90620000D02*
X115350000Y-91480000D01*
X116220000Y-92150000D02*
X118200000Y-91040000D01*
X116260000Y-93340000D02*
X118140000Y-91890000D01*
X117260000Y-93740000D02*
X118980000Y-92180000D01*
X117490000Y-94820000D02*
X119000000Y-93300000D01*
X118840000Y-95070000D02*
X120070000Y-93210000D01*
X119470000Y-96140000D02*
X120500000Y-94080000D01*
X120760000Y-71090000D02*
X121520000Y-68720000D01*
X121990000Y-71770000D02*
X122130000Y-69480000D01*
X123250000Y-71060000D02*
X123100000Y-68760000D01*
X123970000Y-69190000D02*
X124480000Y-71470000D01*
X125520000Y-70310000D02*
X124580000Y-68310000D01*
X126780000Y-70420000D02*
X125630000Y-68470000D01*
X125840000Y-67350000D02*
X127420000Y-69220000D01*
X126870000Y-67060000D02*
X128720000Y-68400000D01*
X128810000Y-67040000D02*
X126750000Y-66050000D01*
X127450000Y-65590000D02*
X129630000Y-66350000D01*
X129340000Y-65010000D02*
X127010000Y-64660000D01*
X127710000Y-64010000D02*
X129940000Y-64080000D01*
X129260000Y-62860000D02*
X126910000Y-63320000D01*
X127380000Y-62450000D02*
X129430000Y-61670000D01*
X128480000Y-60670000D02*
X126340000Y-61920000D01*
X126560000Y-60930000D02*
X128340000Y-59730000D01*
X125400000Y-60840000D02*
X127020000Y-59290000D01*
X125280000Y-59860000D02*
X126580000Y-58110000D01*
X124070000Y-60070000D02*
X125120000Y-57940000D01*
X123620000Y-59250000D02*
X124300000Y-57130000D01*
X122930000Y-59790000D02*
X123090000Y-57430000D01*
X122230000Y-59130000D02*
X122260000Y-56840000D01*
X121640000Y-59830000D02*
X121320000Y-57490000D01*
X120680000Y-59410000D02*
X120260000Y-57170000D01*
X120320000Y-60270000D02*
X119350000Y-58100000D01*
X119450000Y-60160000D02*
X118360000Y-58130000D01*
X119230000Y-61110000D02*
X117800000Y-59290000D01*
X116580000Y-59770000D02*
X118360000Y-61330000D01*
X118400000Y-62300000D02*
X116490000Y-60960000D01*
X117480000Y-62800000D02*
X115460000Y-61960000D01*
X117990000Y-63740000D02*
X115710000Y-63200000D01*
X117130000Y-64300000D02*
X115010000Y-64300000D01*
X118020000Y-64880000D02*
X115550000Y-65290000D01*
X117320000Y-65620000D02*
X115350000Y-66480000D01*
X116220000Y-67150000D02*
X118200000Y-66040000D01*
X116260000Y-68340000D02*
X118140000Y-66890000D01*
X117260000Y-68740000D02*
X118980000Y-67180000D01*
X117490000Y-69820000D02*
X119000000Y-68300000D01*
X118840000Y-70070000D02*
X120070000Y-68210000D01*
X119470000Y-71140000D02*
X120500000Y-69080000D01*
X145760000Y-96090000D02*
X146520000Y-93720000D01*
X146990000Y-96770000D02*
X147130000Y-94480000D01*
X148250000Y-96060000D02*
X148100000Y-93760000D01*
X148970000Y-94190000D02*
X149480000Y-96470000D01*
X150520000Y-95310000D02*
X149580000Y-93310000D01*
X151780000Y-95420000D02*
X150630000Y-93470000D01*
X150840000Y-92350000D02*
X152420000Y-94220000D01*
X151870000Y-92060000D02*
X153720000Y-93400000D01*
X153810000Y-92040000D02*
X151750000Y-91050000D01*
X152450000Y-90590000D02*
X154630000Y-91350000D01*
X154340000Y-90010000D02*
X152010000Y-89660000D01*
X152710000Y-89010000D02*
X154940000Y-89080000D01*
X154260000Y-87860000D02*
X151910000Y-88320000D01*
X152380000Y-87450000D02*
X154430000Y-86670000D01*
X153480000Y-85670000D02*
X151340000Y-86920000D01*
X151560000Y-85930000D02*
X153340000Y-84730000D01*
X150400000Y-85840000D02*
X152020000Y-84290000D01*
X150280000Y-84860000D02*
X151580000Y-83110000D01*
X149070000Y-85070000D02*
X150120000Y-82940000D01*
X148620000Y-84250000D02*
X149300000Y-82130000D01*
X147930000Y-84790000D02*
X148090000Y-82430000D01*
X147230000Y-84130000D02*
X147260000Y-81840000D01*
X146640000Y-84830000D02*
X146320000Y-82490000D01*
X145680000Y-84410000D02*
X145260000Y-82170000D01*
X145320000Y-85270000D02*
X144350000Y-83100000D01*
X144450000Y-85160000D02*
X143360000Y-83130000D01*
X144230000Y-86110000D02*
X142800000Y-84290000D01*
X141580000Y-84770000D02*
X143360000Y-86330000D01*
X143400000Y-87300000D02*
X141490000Y-85960000D01*
X142480000Y-87800000D02*
X140460000Y-86960000D01*
X142990000Y-88740000D02*
X140710000Y-88200000D01*
X142130000Y-89300000D02*
X140010000Y-89300000D01*
X143020000Y-89880000D02*
X140550000Y-90290000D01*
X142320000Y-90620000D02*
X140350000Y-91480000D01*
X141220000Y-92150000D02*
X143200000Y-91040000D01*
X141260000Y-93340000D02*
X143140000Y-91890000D01*
X142260000Y-93740000D02*
X143980000Y-92180000D01*
X142490000Y-94820000D02*
X144000000Y-93300000D01*
X143840000Y-95070000D02*
X145070000Y-93210000D01*
X144470000Y-96140000D02*
X145500000Y-94080000D01*
X145760000Y-71090000D02*
X146520000Y-68720000D01*
X146990000Y-71770000D02*
X147130000Y-69480000D01*
X148250000Y-71060000D02*
X148100000Y-68760000D01*
X148970000Y-69190000D02*
X149480000Y-71470000D01*
X150520000Y-70310000D02*
X149580000Y-68310000D01*
X151780000Y-70420000D02*
X150630000Y-68470000D01*
X150840000Y-67350000D02*
X152420000Y-69220000D01*
X151870000Y-67060000D02*
X153720000Y-68400000D01*
X153810000Y-67040000D02*
X151750000Y-66050000D01*
X152450000Y-65590000D02*
X154630000Y-66350000D01*
X154340000Y-65010000D02*
X152010000Y-64660000D01*
X152710000Y-64010000D02*
X154940000Y-64080000D01*
X154260000Y-62860000D02*
X151910000Y-63320000D01*
X152380000Y-62450000D02*
X154430000Y-61670000D01*
X153480000Y-60670000D02*
X151340000Y-61920000D01*
X151560000Y-60930000D02*
X153340000Y-59730000D01*
X150400000Y-60840000D02*
X152020000Y-59290000D01*
X150280000Y-59860000D02*
X151580000Y-58110000D01*
X149070000Y-60070000D02*
X150120000Y-57940000D01*
X148620000Y-59250000D02*
X149300000Y-57130000D01*
X147930000Y-59790000D02*
X148090000Y-57430000D01*
X147230000Y-59130000D02*
X147260000Y-56840000D01*
X146640000Y-59830000D02*
X146320000Y-57490000D01*
X145680000Y-59410000D02*
X145260000Y-57170000D01*
X145320000Y-60270000D02*
X144350000Y-58100000D01*
X144450000Y-60160000D02*
X143360000Y-58130000D01*
X144230000Y-61110000D02*
X142800000Y-59290000D01*
X141580000Y-59770000D02*
X143360000Y-61330000D01*
X143400000Y-62300000D02*
X141490000Y-60960000D01*
X142480000Y-62800000D02*
X140460000Y-61960000D01*
X142990000Y-63740000D02*
X140710000Y-63200000D01*
X142130000Y-64300000D02*
X140010000Y-64300000D01*
X143020000Y-64880000D02*
X140550000Y-65290000D01*
X142320000Y-65620000D02*
X140350000Y-66480000D01*
X141220000Y-67150000D02*
X143200000Y-66040000D01*
X141260000Y-68340000D02*
X143140000Y-66890000D01*
X142260000Y-68740000D02*
X143980000Y-67180000D01*
X142490000Y-69820000D02*
X144000000Y-68300000D01*
X143840000Y-70070000D02*
X145070000Y-68210000D01*
X144470000Y-71140000D02*
X145500000Y-69080000D01*
X130000000Y-89300000D02*
G75*
G03X130000000Y-89300000I-7500000J0D01*
G01*
X126990000Y-89290000D02*
G75*
G03X126990000Y-89290000I-4500000J0D01*
G01*
X126990000Y-64290000D02*
G75*
G03X126990000Y-64290000I-4500000J0D01*
G01*
X129999800Y-64300000D02*
G75*
G03X129999800Y-64300000I-7499800J0D01*
G01*
X152000600Y-89300000D02*
G75*
G03X152000600Y-89300000I-4510600J0D01*
G01*
X154999800Y-89300000D02*
G75*
G03X154999800Y-89300000I-7499800J0D01*
G01*
X152000600Y-64300000D02*
G75*
G03X152000600Y-64300000I-4510600J0D01*
G01*
X154999800Y-64300000D02*
G75*
G03X154999800Y-64300000I-7499800J0D01*
G01*
X120760000Y-146090000D02*
X121520000Y-143720000D01*
X121990000Y-146770000D02*
X122130000Y-144480000D01*
X123250000Y-146060000D02*
X123100000Y-143760000D01*
X123970000Y-144190000D02*
X124480000Y-146470000D01*
X125520000Y-145310000D02*
X124580000Y-143310000D01*
X126780000Y-145420000D02*
X125630000Y-143470000D01*
X125840000Y-142350000D02*
X127420000Y-144220000D01*
X126870000Y-142060000D02*
X128720000Y-143400000D01*
X128810000Y-142040000D02*
X126750000Y-141050000D01*
X127450000Y-140590000D02*
X129630000Y-141350000D01*
X129340000Y-140010000D02*
X127010000Y-139660000D01*
X127710000Y-139010000D02*
X129940000Y-139080000D01*
X129260000Y-137860000D02*
X126910000Y-138320000D01*
X127380000Y-137450000D02*
X129430000Y-136670000D01*
X128480000Y-135670000D02*
X126340000Y-136920000D01*
X126560000Y-135930000D02*
X128340000Y-134730000D01*
X125400000Y-135840000D02*
X127020000Y-134290000D01*
X125280000Y-134860000D02*
X126580000Y-133110000D01*
X124070000Y-135070000D02*
X125120000Y-132940000D01*
X123620000Y-134250000D02*
X124300000Y-132130000D01*
X122930000Y-134790000D02*
X123090000Y-132430000D01*
X122230000Y-134130000D02*
X122260000Y-131840000D01*
X121640000Y-134830000D02*
X121320000Y-132490000D01*
X120680000Y-134410000D02*
X120260000Y-132170000D01*
X120320000Y-135270000D02*
X119350000Y-133100000D01*
X119450000Y-135160000D02*
X118360000Y-133130000D01*
X119230000Y-136110000D02*
X117800000Y-134290000D01*
X116580000Y-134770000D02*
X118360000Y-136330000D01*
X118400000Y-137300000D02*
X116490000Y-135960000D01*
X117480000Y-137800000D02*
X115460000Y-136960000D01*
X117990000Y-138740000D02*
X115710000Y-138200000D01*
X117130000Y-139300000D02*
X115010000Y-139300000D01*
X118020000Y-139880000D02*
X115550000Y-140290000D01*
X117320000Y-140620000D02*
X115350000Y-141480000D01*
X116220000Y-142150000D02*
X118200000Y-141040000D01*
X116260000Y-143340000D02*
X118140000Y-141890000D01*
X117260000Y-143740000D02*
X118980000Y-142180000D01*
X117490000Y-144820000D02*
X119000000Y-143300000D01*
X118840000Y-145070000D02*
X120070000Y-143210000D01*
X119470000Y-146140000D02*
X120500000Y-144080000D01*
X120760000Y-121090000D02*
X121520000Y-118720000D01*
X121990000Y-121770000D02*
X122130000Y-119480000D01*
X123250000Y-121060000D02*
X123100000Y-118760000D01*
X123970000Y-119190000D02*
X124480000Y-121470000D01*
X125520000Y-120310000D02*
X124580000Y-118310000D01*
X126780000Y-120420000D02*
X125630000Y-118470000D01*
X125840000Y-117350000D02*
X127420000Y-119220000D01*
X126870000Y-117060000D02*
X128720000Y-118400000D01*
X128810000Y-117040000D02*
X126750000Y-116050000D01*
X127450000Y-115590000D02*
X129630000Y-116350000D01*
X129340000Y-115010000D02*
X127010000Y-114660000D01*
X127710000Y-114010000D02*
X129940000Y-114080000D01*
X129260000Y-112860000D02*
X126910000Y-113320000D01*
X127380000Y-112450000D02*
X129430000Y-111670000D01*
X128480000Y-110670000D02*
X126340000Y-111920000D01*
X126560000Y-110930000D02*
X128340000Y-109730000D01*
X125400000Y-110840000D02*
X127020000Y-109290000D01*
X125280000Y-109860000D02*
X126580000Y-108110000D01*
X124070000Y-110070000D02*
X125120000Y-107940000D01*
X123620000Y-109250000D02*
X124300000Y-107130000D01*
X122930000Y-109790000D02*
X123090000Y-107430000D01*
X122230000Y-109130000D02*
X122260000Y-106840000D01*
X121640000Y-109830000D02*
X121320000Y-107490000D01*
X120680000Y-109410000D02*
X120260000Y-107170000D01*
X120320000Y-110270000D02*
X119350000Y-108100000D01*
X119450000Y-110160000D02*
X118360000Y-108130000D01*
X119230000Y-111110000D02*
X117800000Y-109290000D01*
X116580000Y-109770000D02*
X118360000Y-111330000D01*
X118400000Y-112300000D02*
X116490000Y-110960000D01*
X117480000Y-112800000D02*
X115460000Y-111960000D01*
X117990000Y-113740000D02*
X115710000Y-113200000D01*
X117130000Y-114300000D02*
X115010000Y-114300000D01*
X118020000Y-114880000D02*
X115550000Y-115290000D01*
X117320000Y-115620000D02*
X115350000Y-116480000D01*
X116220000Y-117150000D02*
X118200000Y-116040000D01*
X116260000Y-118340000D02*
X118140000Y-116890000D01*
X117260000Y-118740000D02*
X118980000Y-117180000D01*
X117490000Y-119820000D02*
X119000000Y-118300000D01*
X118840000Y-120070000D02*
X120070000Y-118210000D01*
X119470000Y-121140000D02*
X120500000Y-119080000D01*
X145760000Y-146090000D02*
X146520000Y-143720000D01*
X146990000Y-146770000D02*
X147130000Y-144480000D01*
X148250000Y-146060000D02*
X148100000Y-143760000D01*
X148970000Y-144190000D02*
X149480000Y-146470000D01*
X150520000Y-145310000D02*
X149580000Y-143310000D01*
X151780000Y-145420000D02*
X150630000Y-143470000D01*
X150840000Y-142350000D02*
X152420000Y-144220000D01*
X151870000Y-142060000D02*
X153720000Y-143400000D01*
X153810000Y-142040000D02*
X151750000Y-141050000D01*
X152450000Y-140590000D02*
X154630000Y-141350000D01*
X154340000Y-140010000D02*
X152010000Y-139660000D01*
X152710000Y-139010000D02*
X154940000Y-139080000D01*
X154260000Y-137860000D02*
X151910000Y-138320000D01*
X152380000Y-137450000D02*
X154430000Y-136670000D01*
X153480000Y-135670000D02*
X151340000Y-136920000D01*
X151560000Y-135930000D02*
X153340000Y-134730000D01*
X150400000Y-135840000D02*
X152020000Y-134290000D01*
X150280000Y-134860000D02*
X151580000Y-133110000D01*
X149070000Y-135070000D02*
X150120000Y-132940000D01*
X148620000Y-134250000D02*
X149300000Y-132130000D01*
X147930000Y-134790000D02*
X148090000Y-132430000D01*
X147230000Y-134130000D02*
X147260000Y-131840000D01*
X146640000Y-134830000D02*
X146320000Y-132490000D01*
X145680000Y-134410000D02*
X145260000Y-132170000D01*
X145320000Y-135270000D02*
X144350000Y-133100000D01*
X144450000Y-135160000D02*
X143360000Y-133130000D01*
X144230000Y-136110000D02*
X142800000Y-134290000D01*
X141580000Y-134770000D02*
X143360000Y-136330000D01*
X143400000Y-137300000D02*
X141490000Y-135960000D01*
X142480000Y-137800000D02*
X140460000Y-136960000D01*
X142990000Y-138740000D02*
X140710000Y-138200000D01*
X142130000Y-139300000D02*
X140010000Y-139300000D01*
X143020000Y-139880000D02*
X140550000Y-140290000D01*
X142320000Y-140620000D02*
X140350000Y-141480000D01*
X141220000Y-142150000D02*
X143200000Y-141040000D01*
X141260000Y-143340000D02*
X143140000Y-141890000D01*
X142260000Y-143740000D02*
X143980000Y-142180000D01*
X142490000Y-144820000D02*
X144000000Y-143300000D01*
X143840000Y-145070000D02*
X145070000Y-143210000D01*
X144470000Y-146140000D02*
X145500000Y-144080000D01*
X145760000Y-121090000D02*
X146520000Y-118720000D01*
X146990000Y-121770000D02*
X147130000Y-119480000D01*
X148250000Y-121060000D02*
X148100000Y-118760000D01*
X148970000Y-119190000D02*
X149480000Y-121470000D01*
X150520000Y-120310000D02*
X149580000Y-118310000D01*
X151780000Y-120420000D02*
X150630000Y-118470000D01*
X150840000Y-117350000D02*
X152420000Y-119220000D01*
X151870000Y-117060000D02*
X153720000Y-118400000D01*
X153810000Y-117040000D02*
X151750000Y-116050000D01*
X152450000Y-115590000D02*
X154630000Y-116350000D01*
X154340000Y-115010000D02*
X152010000Y-114660000D01*
X152710000Y-114010000D02*
X154940000Y-114080000D01*
X154260000Y-112860000D02*
X151910000Y-113320000D01*
X152380000Y-112450000D02*
X154430000Y-111670000D01*
X153480000Y-110670000D02*
X151340000Y-111920000D01*
X151560000Y-110930000D02*
X153340000Y-109730000D01*
X150400000Y-110840000D02*
X152020000Y-109290000D01*
X150280000Y-109860000D02*
X151580000Y-108110000D01*
X149070000Y-110070000D02*
X150120000Y-107940000D01*
X148620000Y-109250000D02*
X149300000Y-107130000D01*
X147930000Y-109790000D02*
X148090000Y-107430000D01*
X147230000Y-109130000D02*
X147260000Y-106840000D01*
X146640000Y-109830000D02*
X146320000Y-107490000D01*
X145680000Y-109410000D02*
X145260000Y-107170000D01*
X145320000Y-110270000D02*
X144350000Y-108100000D01*
X144450000Y-110160000D02*
X143360000Y-108130000D01*
X144230000Y-111110000D02*
X142800000Y-109290000D01*
X141580000Y-109770000D02*
X143360000Y-111330000D01*
X143400000Y-112300000D02*
X141490000Y-110960000D01*
X142480000Y-112800000D02*
X140460000Y-111960000D01*
X142990000Y-113740000D02*
X140710000Y-113200000D01*
X142130000Y-114300000D02*
X140010000Y-114300000D01*
X143020000Y-114880000D02*
X140550000Y-115290000D01*
X142320000Y-115620000D02*
X140350000Y-116480000D01*
X141220000Y-117150000D02*
X143200000Y-116040000D01*
X141260000Y-118340000D02*
X143140000Y-116890000D01*
X142260000Y-118740000D02*
X143980000Y-117180000D01*
X142490000Y-119820000D02*
X144000000Y-118300000D01*
X143840000Y-120070000D02*
X145070000Y-118210000D01*
X144470000Y-121140000D02*
X145500000Y-119080000D01*
X130000000Y-139300000D02*
G75*
G03X130000000Y-139300000I-7500000J0D01*
G01*
X126990000Y-139290000D02*
G75*
G03X126990000Y-139290000I-4500000J0D01*
G01*
X126990000Y-114290000D02*
G75*
G03X126990000Y-114290000I-4500000J0D01*
G01*
X129999800Y-114300000D02*
G75*
G03X129999800Y-114300000I-7499800J0D01*
G01*
X152000600Y-139300000D02*
G75*
G03X152000600Y-139300000I-4510600J0D01*
G01*
X154999800Y-139300000D02*
G75*
G03X154999800Y-139300000I-7499800J0D01*
G01*
X152000600Y-114300000D02*
G75*
G03X152000600Y-114300000I-4510600J0D01*
G01*
X154999800Y-114300000D02*
G75*
G03X154999800Y-114300000I-7499800J0D01*
G01*
X70760000Y-146090000D02*
X71520000Y-143720000D01*
X71990000Y-146770000D02*
X72130000Y-144480000D01*
X73250000Y-146060000D02*
X73100000Y-143760000D01*
X73970000Y-144190000D02*
X74480000Y-146470000D01*
X75520000Y-145310000D02*
X74580000Y-143310000D01*
X76780000Y-145420000D02*
X75630000Y-143470000D01*
X75840000Y-142350000D02*
X77420000Y-144220000D01*
X76870000Y-142060000D02*
X78720000Y-143400000D01*
X78810000Y-142040000D02*
X76750000Y-141050000D01*
X77450000Y-140590000D02*
X79630000Y-141350000D01*
X79340000Y-140010000D02*
X77010000Y-139660000D01*
X77710000Y-139010000D02*
X79940000Y-139080000D01*
X79260000Y-137860000D02*
X76910000Y-138320000D01*
X77380000Y-137450000D02*
X79430000Y-136670000D01*
X78480000Y-135670000D02*
X76340000Y-136920000D01*
X76560000Y-135930000D02*
X78340000Y-134730000D01*
X75400000Y-135840000D02*
X77020000Y-134290000D01*
X75280000Y-134860000D02*
X76580000Y-133110000D01*
X74070000Y-135070000D02*
X75120000Y-132940000D01*
X73620000Y-134250000D02*
X74300000Y-132130000D01*
X72930000Y-134790000D02*
X73090000Y-132430000D01*
X72230000Y-134130000D02*
X72260000Y-131840000D01*
X71640000Y-134830000D02*
X71320000Y-132490000D01*
X70680000Y-134410000D02*
X70260000Y-132170000D01*
X70320000Y-135270000D02*
X69350000Y-133100000D01*
X69450000Y-135160000D02*
X68360000Y-133130000D01*
X69230000Y-136110000D02*
X67800000Y-134290000D01*
X66580000Y-134770000D02*
X68360000Y-136330000D01*
X68400000Y-137300000D02*
X66490000Y-135960000D01*
X67480000Y-137800000D02*
X65460000Y-136960000D01*
X67990000Y-138740000D02*
X65710000Y-138200000D01*
X67130000Y-139300000D02*
X65010000Y-139300000D01*
X68020000Y-139880000D02*
X65550000Y-140290000D01*
X67320000Y-140620000D02*
X65350000Y-141480000D01*
X66220000Y-142150000D02*
X68200000Y-141040000D01*
X66260000Y-143340000D02*
X68140000Y-141890000D01*
X67260000Y-143740000D02*
X68980000Y-142180000D01*
X67490000Y-144820000D02*
X69000000Y-143300000D01*
X68840000Y-145070000D02*
X70070000Y-143210000D01*
X69470000Y-146140000D02*
X70500000Y-144080000D01*
X70760000Y-121090000D02*
X71520000Y-118720000D01*
X71990000Y-121770000D02*
X72130000Y-119480000D01*
X73250000Y-121060000D02*
X73100000Y-118760000D01*
X73970000Y-119190000D02*
X74480000Y-121470000D01*
X75520000Y-120310000D02*
X74580000Y-118310000D01*
X76780000Y-120420000D02*
X75630000Y-118470000D01*
X75840000Y-117350000D02*
X77420000Y-119220000D01*
X76870000Y-117060000D02*
X78720000Y-118400000D01*
X78810000Y-117040000D02*
X76750000Y-116050000D01*
X77450000Y-115590000D02*
X79630000Y-116350000D01*
X79340000Y-115010000D02*
X77010000Y-114660000D01*
X77710000Y-114010000D02*
X79940000Y-114080000D01*
X79260000Y-112860000D02*
X76910000Y-113320000D01*
X77380000Y-112450000D02*
X79430000Y-111670000D01*
X78480000Y-110670000D02*
X76340000Y-111920000D01*
X76560000Y-110930000D02*
X78340000Y-109730000D01*
X75400000Y-110840000D02*
X77020000Y-109290000D01*
X75280000Y-109860000D02*
X76580000Y-108110000D01*
X74070000Y-110070000D02*
X75120000Y-107940000D01*
X73620000Y-109250000D02*
X74300000Y-107130000D01*
X72930000Y-109790000D02*
X73090000Y-107430000D01*
X72230000Y-109130000D02*
X72260000Y-106840000D01*
X71640000Y-109830000D02*
X71320000Y-107490000D01*
X70680000Y-109410000D02*
X70260000Y-107170000D01*
X70320000Y-110270000D02*
X69350000Y-108100000D01*
X69450000Y-110160000D02*
X68360000Y-108130000D01*
X69230000Y-111110000D02*
X67800000Y-109290000D01*
X66580000Y-109770000D02*
X68360000Y-111330000D01*
X68400000Y-112300000D02*
X66490000Y-110960000D01*
X67480000Y-112800000D02*
X65460000Y-111960000D01*
X67990000Y-113740000D02*
X65710000Y-113200000D01*
X67130000Y-114300000D02*
X65010000Y-114300000D01*
X68020000Y-114880000D02*
X65550000Y-115290000D01*
X67320000Y-115620000D02*
X65350000Y-116480000D01*
X66220000Y-117150000D02*
X68200000Y-116040000D01*
X66260000Y-118340000D02*
X68140000Y-116890000D01*
X67260000Y-118740000D02*
X68980000Y-117180000D01*
X67490000Y-119820000D02*
X69000000Y-118300000D01*
X68840000Y-120070000D02*
X70070000Y-118210000D01*
X69470000Y-121140000D02*
X70500000Y-119080000D01*
X95760000Y-146090000D02*
X96520000Y-143720000D01*
X96990000Y-146770000D02*
X97130000Y-144480000D01*
X98250000Y-146060000D02*
X98100000Y-143760000D01*
X98970000Y-144190000D02*
X99480000Y-146470000D01*
X100520000Y-145310000D02*
X99580000Y-143310000D01*
X101780000Y-145420000D02*
X100630000Y-143470000D01*
X100840000Y-142350000D02*
X102420000Y-144220000D01*
X101870000Y-142060000D02*
X103720000Y-143400000D01*
X103810000Y-142040000D02*
X101750000Y-141050000D01*
X102450000Y-140590000D02*
X104630000Y-141350000D01*
X104340000Y-140010000D02*
X102010000Y-139660000D01*
X102710000Y-139010000D02*
X104940000Y-139080000D01*
X104260000Y-137860000D02*
X101910000Y-138320000D01*
X102380000Y-137450000D02*
X104430000Y-136670000D01*
X103480000Y-135670000D02*
X101340000Y-136920000D01*
X101560000Y-135930000D02*
X103340000Y-134730000D01*
X100400000Y-135840000D02*
X102020000Y-134290000D01*
X100280000Y-134860000D02*
X101580000Y-133110000D01*
X99070000Y-135070000D02*
X100120000Y-132940000D01*
X98620000Y-134250000D02*
X99300000Y-132130000D01*
X97930000Y-134790000D02*
X98090000Y-132430000D01*
X97230000Y-134130000D02*
X97260000Y-131840000D01*
X96640000Y-134830000D02*
X96320000Y-132490000D01*
X95680000Y-134410000D02*
X95260000Y-132170000D01*
X95320000Y-135270000D02*
X94350000Y-133100000D01*
X94450000Y-135160000D02*
X93360000Y-133130000D01*
X94230000Y-136110000D02*
X92800000Y-134290000D01*
X91580000Y-134770000D02*
X93360000Y-136330000D01*
X93400000Y-137300000D02*
X91490000Y-135960000D01*
X92480000Y-137800000D02*
X90460000Y-136960000D01*
X92990000Y-138740000D02*
X90710000Y-138200000D01*
X92130000Y-139300000D02*
X90010000Y-139300000D01*
X93020000Y-139880000D02*
X90550000Y-140290000D01*
X92320000Y-140620000D02*
X90350000Y-141480000D01*
X91220000Y-142150000D02*
X93200000Y-141040000D01*
X91260000Y-143340000D02*
X93140000Y-141890000D01*
X92260000Y-143740000D02*
X93980000Y-142180000D01*
X92490000Y-144820000D02*
X94000000Y-143300000D01*
X93840000Y-145070000D02*
X95070000Y-143210000D01*
X94470000Y-146140000D02*
X95500000Y-144080000D01*
X95760000Y-121090000D02*
X96520000Y-118720000D01*
X96990000Y-121770000D02*
X97130000Y-119480000D01*
X98250000Y-121060000D02*
X98100000Y-118760000D01*
X98970000Y-119190000D02*
X99480000Y-121470000D01*
X100520000Y-120310000D02*
X99580000Y-118310000D01*
X101780000Y-120420000D02*
X100630000Y-118470000D01*
X100840000Y-117350000D02*
X102420000Y-119220000D01*
X101870000Y-117060000D02*
X103720000Y-118400000D01*
X103810000Y-117040000D02*
X101750000Y-116050000D01*
X102450000Y-115590000D02*
X104630000Y-116350000D01*
X104340000Y-115010000D02*
X102010000Y-114660000D01*
X102710000Y-114010000D02*
X104940000Y-114080000D01*
X104260000Y-112860000D02*
X101910000Y-113320000D01*
X102380000Y-112450000D02*
X104430000Y-111670000D01*
X103480000Y-110670000D02*
X101340000Y-111920000D01*
X101560000Y-110930000D02*
X103340000Y-109730000D01*
X100400000Y-110840000D02*
X102020000Y-109290000D01*
X100280000Y-109860000D02*
X101580000Y-108110000D01*
X99070000Y-110070000D02*
X100120000Y-107940000D01*
X98620000Y-109250000D02*
X99300000Y-107130000D01*
X97930000Y-109790000D02*
X98090000Y-107430000D01*
X97230000Y-109130000D02*
X97260000Y-106840000D01*
X96640000Y-109830000D02*
X96320000Y-107490000D01*
X95680000Y-109410000D02*
X95260000Y-107170000D01*
X95320000Y-110270000D02*
X94350000Y-108100000D01*
X94450000Y-110160000D02*
X93360000Y-108130000D01*
X94230000Y-111110000D02*
X92800000Y-109290000D01*
X91580000Y-109770000D02*
X93360000Y-111330000D01*
X93400000Y-112300000D02*
X91490000Y-110960000D01*
X92480000Y-112800000D02*
X90460000Y-111960000D01*
X92990000Y-113740000D02*
X90710000Y-113200000D01*
X92130000Y-114300000D02*
X90010000Y-114300000D01*
X93020000Y-114880000D02*
X90550000Y-115290000D01*
X92320000Y-115620000D02*
X90350000Y-116480000D01*
X91220000Y-117150000D02*
X93200000Y-116040000D01*
X91260000Y-118340000D02*
X93140000Y-116890000D01*
X92260000Y-118740000D02*
X93980000Y-117180000D01*
X92490000Y-119820000D02*
X94000000Y-118300000D01*
X93840000Y-120070000D02*
X95070000Y-118210000D01*
X94470000Y-121140000D02*
X95500000Y-119080000D01*
X80000000Y-139300000D02*
G75*
G03X80000000Y-139300000I-7500000J0D01*
G01*
X76990000Y-139290000D02*
G75*
G03X76990000Y-139290000I-4500000J0D01*
G01*
X76990000Y-114290000D02*
G75*
G03X76990000Y-114290000I-4500000J0D01*
G01*
X79999800Y-114300000D02*
G75*
G03X79999800Y-114300000I-7499800J0D01*
G01*
X102000600Y-139300000D02*
G75*
G03X102000600Y-139300000I-4510600J0D01*
G01*
X104999800Y-139300000D02*
G75*
G03X104999800Y-139300000I-7499800J0D01*
G01*
X102000600Y-114300000D02*
G75*
G03X102000600Y-114300000I-4510600J0D01*
G01*
X104999800Y-114300000D02*
G75*
G03X104999800Y-114300000I-7499800J0D01*
G01*
X70760000Y-96090000D02*
X71520000Y-93720000D01*
X71990000Y-96770000D02*
X72130000Y-94480000D01*
X73250000Y-96060000D02*
X73100000Y-93760000D01*
X73970000Y-94190000D02*
X74480000Y-96470000D01*
X75520000Y-95310000D02*
X74580000Y-93310000D01*
X76780000Y-95420000D02*
X75630000Y-93470000D01*
X75840000Y-92350000D02*
X77420000Y-94220000D01*
X76870000Y-92060000D02*
X78720000Y-93400000D01*
X78810000Y-92040000D02*
X76750000Y-91050000D01*
X77450000Y-90590000D02*
X79630000Y-91350000D01*
X79340000Y-90010000D02*
X77010000Y-89660000D01*
X77710000Y-89010000D02*
X79940000Y-89080000D01*
X79260000Y-87860000D02*
X76910000Y-88320000D01*
X77380000Y-87450000D02*
X79430000Y-86670000D01*
X78480000Y-85670000D02*
X76340000Y-86920000D01*
X76560000Y-85930000D02*
X78340000Y-84730000D01*
X75400000Y-85840000D02*
X77020000Y-84290000D01*
X75280000Y-84860000D02*
X76580000Y-83110000D01*
X74070000Y-85070000D02*
X75120000Y-82940000D01*
X73620000Y-84250000D02*
X74300000Y-82130000D01*
X72930000Y-84790000D02*
X73090000Y-82430000D01*
X72230000Y-84130000D02*
X72260000Y-81840000D01*
X71640000Y-84830000D02*
X71320000Y-82490000D01*
X70680000Y-84410000D02*
X70260000Y-82170000D01*
X70320000Y-85270000D02*
X69350000Y-83100000D01*
X69450000Y-85160000D02*
X68360000Y-83130000D01*
X69230000Y-86110000D02*
X67800000Y-84290000D01*
X66580000Y-84770000D02*
X68360000Y-86330000D01*
X68400000Y-87300000D02*
X66490000Y-85960000D01*
X67480000Y-87800000D02*
X65460000Y-86960000D01*
X67990000Y-88740000D02*
X65710000Y-88200000D01*
X67130000Y-89300000D02*
X65010000Y-89300000D01*
X68020000Y-89880000D02*
X65550000Y-90290000D01*
X67320000Y-90620000D02*
X65350000Y-91480000D01*
X66220000Y-92150000D02*
X68200000Y-91040000D01*
X66260000Y-93340000D02*
X68140000Y-91890000D01*
X67260000Y-93740000D02*
X68980000Y-92180000D01*
X67490000Y-94820000D02*
X69000000Y-93300000D01*
X68840000Y-95070000D02*
X70070000Y-93210000D01*
X69470000Y-96140000D02*
X70500000Y-94080000D01*
X70760000Y-71090000D02*
X71520000Y-68720000D01*
X71990000Y-71770000D02*
X72130000Y-69480000D01*
X73250000Y-71060000D02*
X73100000Y-68760000D01*
X73970000Y-69190000D02*
X74480000Y-71470000D01*
X75520000Y-70310000D02*
X74580000Y-68310000D01*
X76780000Y-70420000D02*
X75630000Y-68470000D01*
X75840000Y-67350000D02*
X77420000Y-69220000D01*
X76870000Y-67060000D02*
X78720000Y-68400000D01*
X78810000Y-67040000D02*
X76750000Y-66050000D01*
X77450000Y-65590000D02*
X79630000Y-66350000D01*
X79340000Y-65010000D02*
X77010000Y-64660000D01*
X77710000Y-64010000D02*
X79940000Y-64080000D01*
X79260000Y-62860000D02*
X76910000Y-63320000D01*
X77380000Y-62450000D02*
X79430000Y-61670000D01*
X78480000Y-60670000D02*
X76340000Y-61920000D01*
X76560000Y-60930000D02*
X78340000Y-59730000D01*
X75400000Y-60840000D02*
X77020000Y-59290000D01*
X75280000Y-59860000D02*
X76580000Y-58110000D01*
X74070000Y-60070000D02*
X75120000Y-57940000D01*
X73620000Y-59250000D02*
X74300000Y-57130000D01*
X72930000Y-59790000D02*
X73090000Y-57430000D01*
X72230000Y-59130000D02*
X72260000Y-56840000D01*
X71640000Y-59830000D02*
X71320000Y-57490000D01*
X70680000Y-59410000D02*
X70260000Y-57170000D01*
X70320000Y-60270000D02*
X69350000Y-58100000D01*
X69450000Y-60160000D02*
X68360000Y-58130000D01*
X69230000Y-61110000D02*
X67800000Y-59290000D01*
X66580000Y-59770000D02*
X68360000Y-61330000D01*
X68400000Y-62300000D02*
X66490000Y-60960000D01*
X67480000Y-62800000D02*
X65460000Y-61960000D01*
X67990000Y-63740000D02*
X65710000Y-63200000D01*
X67130000Y-64300000D02*
X65010000Y-64300000D01*
X68020000Y-64880000D02*
X65550000Y-65290000D01*
X67320000Y-65620000D02*
X65350000Y-66480000D01*
X66220000Y-67150000D02*
X68200000Y-66040000D01*
X66260000Y-68340000D02*
X68140000Y-66890000D01*
X67260000Y-68740000D02*
X68980000Y-67180000D01*
X67490000Y-69820000D02*
X69000000Y-68300000D01*
X68840000Y-70070000D02*
X70070000Y-68210000D01*
X69470000Y-71140000D02*
X70500000Y-69080000D01*
X95760000Y-96090000D02*
X96520000Y-93720000D01*
X96990000Y-96770000D02*
X97130000Y-94480000D01*
X98250000Y-96060000D02*
X98100000Y-93760000D01*
X98970000Y-94190000D02*
X99480000Y-96470000D01*
X100520000Y-95310000D02*
X99580000Y-93310000D01*
X101780000Y-95420000D02*
X100630000Y-93470000D01*
X100840000Y-92350000D02*
X102420000Y-94220000D01*
X101870000Y-92060000D02*
X103720000Y-93400000D01*
X103810000Y-92040000D02*
X101750000Y-91050000D01*
X102450000Y-90590000D02*
X104630000Y-91350000D01*
X104340000Y-90010000D02*
X102010000Y-89660000D01*
X102710000Y-89010000D02*
X104940000Y-89080000D01*
X104260000Y-87860000D02*
X101910000Y-88320000D01*
X102380000Y-87450000D02*
X104430000Y-86670000D01*
X103480000Y-85670000D02*
X101340000Y-86920000D01*
X101560000Y-85930000D02*
X103340000Y-84730000D01*
X100400000Y-85840000D02*
X102020000Y-84290000D01*
X100280000Y-84860000D02*
X101580000Y-83110000D01*
X99070000Y-85070000D02*
X100120000Y-82940000D01*
X98620000Y-84250000D02*
X99300000Y-82130000D01*
X97930000Y-84790000D02*
X98090000Y-82430000D01*
X97230000Y-84130000D02*
X97260000Y-81840000D01*
X96640000Y-84830000D02*
X96320000Y-82490000D01*
X95680000Y-84410000D02*
X95260000Y-82170000D01*
X95320000Y-85270000D02*
X94350000Y-83100000D01*
X94450000Y-85160000D02*
X93360000Y-83130000D01*
X94230000Y-86110000D02*
X92800000Y-84290000D01*
X91580000Y-84770000D02*
X93360000Y-86330000D01*
X93400000Y-87300000D02*
X91490000Y-85960000D01*
X92480000Y-87800000D02*
X90460000Y-86960000D01*
X92990000Y-88740000D02*
X90710000Y-88200000D01*
X92130000Y-89300000D02*
X90010000Y-89300000D01*
X93020000Y-89880000D02*
X90550000Y-90290000D01*
X92320000Y-90620000D02*
X90350000Y-91480000D01*
X91220000Y-92150000D02*
X93200000Y-91040000D01*
X91260000Y-93340000D02*
X93140000Y-91890000D01*
X92260000Y-93740000D02*
X93980000Y-92180000D01*
X92490000Y-94820000D02*
X94000000Y-93300000D01*
X93840000Y-95070000D02*
X95070000Y-93210000D01*
X94470000Y-96140000D02*
X95500000Y-94080000D01*
X95760000Y-71090000D02*
X96520000Y-68720000D01*
X96990000Y-71770000D02*
X97130000Y-69480000D01*
X98250000Y-71060000D02*
X98100000Y-68760000D01*
X98970000Y-69190000D02*
X99480000Y-71470000D01*
X100520000Y-70310000D02*
X99580000Y-68310000D01*
X101780000Y-70420000D02*
X100630000Y-68470000D01*
X100840000Y-67350000D02*
X102420000Y-69220000D01*
X101870000Y-67060000D02*
X103720000Y-68400000D01*
X103810000Y-67040000D02*
X101750000Y-66050000D01*
X102450000Y-65590000D02*
X104630000Y-66350000D01*
X104340000Y-65010000D02*
X102010000Y-64660000D01*
X102710000Y-64010000D02*
X104940000Y-64080000D01*
X104260000Y-62860000D02*
X101910000Y-63320000D01*
X102380000Y-62450000D02*
X104430000Y-61670000D01*
X103480000Y-60670000D02*
X101340000Y-61920000D01*
X101560000Y-60930000D02*
X103340000Y-59730000D01*
X100400000Y-60840000D02*
X102020000Y-59290000D01*
X100280000Y-59860000D02*
X101580000Y-58110000D01*
X99070000Y-60070000D02*
X100120000Y-57940000D01*
X98620000Y-59250000D02*
X99300000Y-57130000D01*
X97930000Y-59790000D02*
X98090000Y-57430000D01*
X97230000Y-59130000D02*
X97260000Y-56840000D01*
X96640000Y-59830000D02*
X96320000Y-57490000D01*
X95680000Y-59410000D02*
X95260000Y-57170000D01*
X95320000Y-60270000D02*
X94350000Y-58100000D01*
X94450000Y-60160000D02*
X93360000Y-58130000D01*
X94230000Y-61110000D02*
X92800000Y-59290000D01*
X91580000Y-59770000D02*
X93360000Y-61330000D01*
X93400000Y-62300000D02*
X91490000Y-60960000D01*
X92480000Y-62800000D02*
X90460000Y-61960000D01*
X92990000Y-63740000D02*
X90710000Y-63200000D01*
X92130000Y-64300000D02*
X90010000Y-64300000D01*
X93020000Y-64880000D02*
X90550000Y-65290000D01*
X92320000Y-65620000D02*
X90350000Y-66480000D01*
X91220000Y-67150000D02*
X93200000Y-66040000D01*
X91260000Y-68340000D02*
X93140000Y-66890000D01*
X92260000Y-68740000D02*
X93980000Y-67180000D01*
X92490000Y-69820000D02*
X94000000Y-68300000D01*
X93840000Y-70070000D02*
X95070000Y-68210000D01*
X94470000Y-71140000D02*
X95500000Y-69080000D01*
X80000000Y-89300000D02*
G75*
G03X80000000Y-89300000I-7500000J0D01*
G01*
X76990000Y-89290000D02*
G75*
G03X76990000Y-89290000I-4500000J0D01*
G01*
X76990000Y-64290000D02*
G75*
G03X76990000Y-64290000I-4500000J0D01*
G01*
X79999800Y-64300000D02*
G75*
G03X79999800Y-64300000I-7499800J0D01*
G01*
X102000600Y-89300000D02*
G75*
G03X102000600Y-89300000I-4510600J0D01*
G01*
X104999800Y-89300000D02*
G75*
G03X104999800Y-89300000I-7499800J0D01*
G01*
X102000600Y-64300000D02*
G75*
G03X102000600Y-64300000I-4510600J0D01*
G01*
X104999800Y-64300000D02*
G75*
G03X104999800Y-64300000I-7499800J0D01*
G01*
D12*
X70502540Y-138840000D03*
D13*
X70502540Y-149000000D03*
D12*
X70005040Y-113840000D03*
D13*
X70005040Y-124000000D03*
D12*
X69999960Y-89660000D03*
D13*
X69999960Y-79500000D03*
D12*
X69499960Y-64660000D03*
D13*
X69499960Y-54500000D03*
D12*
X95500040Y-138840000D03*
D13*
X95500040Y-149000000D03*
D12*
X95002540Y-113840000D03*
D13*
X95002540Y-124000000D03*
D12*
X94994960Y-89660000D03*
D13*
X94994960Y-79500000D03*
D12*
X94999960Y-64660000D03*
D13*
X94999960Y-54500000D03*
D12*
X120502540Y-138840000D03*
D13*
X120502540Y-149000000D03*
D12*
X120002540Y-113840000D03*
D13*
X120002540Y-124000000D03*
D12*
X119997460Y-89660000D03*
D13*
X119997460Y-79500000D03*
D12*
X120000460Y-64660000D03*
D13*
X120000460Y-54500000D03*
D12*
X149840000Y-139497460D03*
D13*
X160000000Y-139497460D03*
D12*
X149840000Y-114000460D03*
D13*
X160000000Y-114000460D03*
D12*
X149840000Y-89497460D03*
D13*
X160000000Y-89497460D03*
D12*
X149840000Y-63997460D03*
D13*
X160000000Y-63997460D03*
D14*
X213360000Y-55880000D03*
D15*
X213360000Y-58420000D03*
X213360000Y-60960000D03*
X213360000Y-63500000D03*
X213360000Y-66040000D03*
X213360000Y-68580000D03*
X213360000Y-71120000D03*
X213360000Y-73660000D03*
D14*
X210820000Y-73660000D03*
D15*
X210820000Y-71120000D03*
X210820000Y-68580000D03*
X210820000Y-66040000D03*
X210820000Y-63500000D03*
X210820000Y-60960000D03*
X210820000Y-58420000D03*
X210820000Y-55880000D03*
D16*
X180320000Y-142270000D03*
X175820000Y-142270000D03*
X180320000Y-135770000D03*
X175820000Y-135770000D03*
X180320000Y-117270000D03*
X175820000Y-117270000D03*
X180320000Y-110770000D03*
X175820000Y-110770000D03*
X180320000Y-92270000D03*
X175820000Y-92270000D03*
X180320000Y-85770000D03*
X175820000Y-85770000D03*
X180320000Y-67270000D03*
X175820000Y-67270000D03*
X180320000Y-60770000D03*
X175820000Y-60770000D03*
D17*
X195681000Y-112283000D03*
X195681000Y-114823000D03*
X195681000Y-117363000D03*
X195681000Y-119903000D03*
X195681000Y-122443000D03*
X195681000Y-124983000D03*
X195681000Y-127523000D03*
X195681000Y-130063000D03*
X195681000Y-132603000D03*
X195681000Y-135143000D03*
X195681000Y-137683000D03*
X195681000Y-140223000D03*
X210921000Y-112283000D03*
X210921000Y-114823000D03*
X210921000Y-117363000D03*
X210921000Y-119903000D03*
X210921000Y-122443000D03*
X210921000Y-124983000D03*
X210921000Y-127523000D03*
X210921000Y-130063000D03*
X210921000Y-132603000D03*
X210921000Y-135143000D03*
X210921000Y-137683000D03*
X210921000Y-140223000D03*
D18*
X208000000Y-121046000D03*
X208000000Y-123586000D03*
X208000000Y-131460000D03*
X208000000Y-134000000D03*
D14*
X187960000Y-96520000D03*
D15*
X190500000Y-96520000D03*
X193040000Y-96520000D03*
X195580000Y-96520000D03*
X198120000Y-96520000D03*
X200660000Y-96520000D03*
X203200000Y-96520000D03*
X205740000Y-96520000D03*
D14*
X213360000Y-76200000D03*
D15*
X213360000Y-78740000D03*
X213360000Y-81280000D03*
X213360000Y-83820000D03*
X213360000Y-86360000D03*
X213360000Y-88900000D03*
X213360000Y-91440000D03*
X213360000Y-93980000D03*
D14*
X210820000Y-93980000D03*
D15*
X210820000Y-91440000D03*
X210820000Y-88900000D03*
X210820000Y-86360000D03*
X210820000Y-83820000D03*
X210820000Y-81280000D03*
X210820000Y-78740000D03*
X210820000Y-76200000D03*
D14*
X187960000Y-76200000D03*
D15*
X190500000Y-76200000D03*
X193040000Y-76200000D03*
X195580000Y-76200000D03*
X198120000Y-76200000D03*
X200660000Y-76200000D03*
X203200000Y-76200000D03*
X205740000Y-76200000D03*
D14*
X205740000Y-81280000D03*
D15*
X203200000Y-81280000D03*
X200660000Y-81280000D03*
X198120000Y-81280000D03*
X195580000Y-81280000D03*
X193040000Y-81280000D03*
X190500000Y-81280000D03*
X187960000Y-81280000D03*
D14*
X220980000Y-93980000D03*
D15*
X220980000Y-91440000D03*
X220980000Y-88900000D03*
X220980000Y-86360000D03*
X220980000Y-83820000D03*
X220980000Y-81280000D03*
X220980000Y-78740000D03*
X220980000Y-76200000D03*
D14*
X223520000Y-76200000D03*
D15*
X223520000Y-78740000D03*
X223520000Y-81280000D03*
X223520000Y-83820000D03*
X223520000Y-86360000D03*
X223520000Y-88900000D03*
X223520000Y-91440000D03*
X223520000Y-93980000D03*
D14*
X205740000Y-60960000D03*
D15*
X203200000Y-60960000D03*
X200660000Y-60960000D03*
X198120000Y-60960000D03*
X195580000Y-60960000D03*
X193040000Y-60960000D03*
X190500000Y-60960000D03*
X187960000Y-60960000D03*
D14*
X187960000Y-55880000D03*
D15*
X190500000Y-55880000D03*
X193040000Y-55880000D03*
X195580000Y-55880000D03*
X198120000Y-55880000D03*
X200660000Y-55880000D03*
X203200000Y-55880000D03*
X205740000Y-55880000D03*
D14*
X223520000Y-55880000D03*
D15*
X223520000Y-58420000D03*
X223520000Y-60960000D03*
X223520000Y-63500000D03*
X223520000Y-66040000D03*
X223520000Y-68580000D03*
X223520000Y-71120000D03*
X223520000Y-73660000D03*
D14*
X220980000Y-73660000D03*
D15*
X220980000Y-71120000D03*
X220980000Y-68580000D03*
X220980000Y-66040000D03*
X220980000Y-63500000D03*
X220980000Y-60960000D03*
X220980000Y-58420000D03*
X220980000Y-55880000D03*
D14*
X205740000Y-66040000D03*
D15*
X203200000Y-66040000D03*
X200660000Y-66040000D03*
X198120000Y-66040000D03*
X195580000Y-66040000D03*
X193040000Y-66040000D03*
X190500000Y-66040000D03*
X187960000Y-66040000D03*
D14*
X187960000Y-71120000D03*
D15*
X190500000Y-71120000D03*
X193040000Y-71120000D03*
X195580000Y-71120000D03*
X198120000Y-71120000D03*
X200660000Y-71120000D03*
X203200000Y-71120000D03*
X205740000Y-71120000D03*
D14*
X187960000Y-101600000D03*
D15*
X190500000Y-101600000D03*
X193040000Y-101600000D03*
X195580000Y-101600000D03*
X198120000Y-101600000D03*
X200660000Y-101600000D03*
X203200000Y-101600000D03*
X205740000Y-101600000D03*
D14*
X187960000Y-86360000D03*
D15*
X190500000Y-86360000D03*
X193040000Y-86360000D03*
X195580000Y-86360000D03*
X198120000Y-86360000D03*
X200660000Y-86360000D03*
X203200000Y-86360000D03*
X205740000Y-86360000D03*
D14*
X220980000Y-127000000D03*
D15*
X220980000Y-124460000D03*
X220980000Y-121920000D03*
X220980000Y-119380000D03*
X220980000Y-116840000D03*
X220980000Y-114300000D03*
X220980000Y-111760000D03*
X220980000Y-109220000D03*
D14*
X220980000Y-129540000D03*
D15*
X220980000Y-132080000D03*
X220980000Y-134620000D03*
X220980000Y-137160000D03*
X220980000Y-139700000D03*
X220980000Y-142240000D03*
X220980000Y-144780000D03*
X220980000Y-147320000D03*
D12*
X193040000Y-147320000D03*
X193040000Y-137160000D03*
X186690000Y-137160000D03*
X186690000Y-147320000D03*
D19*
X122500000Y-90000000D03*
X122500000Y-88000000D03*
X122500000Y-86000000D03*
X122500000Y-92000000D03*
X122500000Y-65000000D03*
X122500000Y-63000000D03*
X122500000Y-61000000D03*
X122500000Y-67000000D03*
X147500000Y-90000000D03*
X147500000Y-88000000D03*
X147500000Y-86000000D03*
X147500000Y-92000000D03*
D20*
X146519000Y-93672000D03*
X144487000Y-96212000D03*
D19*
X147500000Y-65000000D03*
X147500000Y-63000000D03*
X147500000Y-61000000D03*
X147500000Y-67000000D03*
D20*
X146519000Y-68672000D03*
X144487000Y-71212000D03*
X121519000Y-93672000D03*
X119487000Y-96212000D03*
X121519000Y-68672000D03*
X119487000Y-71212000D03*
D19*
X122500000Y-140000000D03*
X122500000Y-138000000D03*
X122500000Y-136000000D03*
X122500000Y-142000000D03*
X122500000Y-115000000D03*
X122500000Y-113000000D03*
X122500000Y-111000000D03*
X122500000Y-117000000D03*
X147500000Y-140000000D03*
X147500000Y-138000000D03*
X147500000Y-136000000D03*
X147500000Y-142000000D03*
D20*
X146519000Y-143672000D03*
X144487000Y-146212000D03*
D19*
X147500000Y-115000000D03*
X147500000Y-113000000D03*
X147500000Y-111000000D03*
X147500000Y-117000000D03*
D20*
X146519000Y-118672000D03*
X144487000Y-121212000D03*
X121519000Y-143672000D03*
X119487000Y-146212000D03*
X121519000Y-118672000D03*
X119487000Y-121212000D03*
D19*
X72500000Y-140000000D03*
X72500000Y-138000000D03*
X72500000Y-136000000D03*
X72500000Y-142000000D03*
X72500000Y-115000000D03*
X72500000Y-113000000D03*
X72500000Y-111000000D03*
X72500000Y-117000000D03*
X97500000Y-140000000D03*
X97500000Y-138000000D03*
X97500000Y-136000000D03*
X97500000Y-142000000D03*
D20*
X96519000Y-143672000D03*
X94487000Y-146212000D03*
D19*
X97500000Y-115000000D03*
X97500000Y-113000000D03*
X97500000Y-111000000D03*
X97500000Y-117000000D03*
D20*
X96519000Y-118672000D03*
X94487000Y-121212000D03*
X71519000Y-143672000D03*
X69487000Y-146212000D03*
X71519000Y-118672000D03*
X69487000Y-121212000D03*
D19*
X72500000Y-90000000D03*
X72500000Y-88000000D03*
X72500000Y-86000000D03*
X72500000Y-92000000D03*
X72500000Y-65000000D03*
X72500000Y-63000000D03*
X72500000Y-61000000D03*
X72500000Y-67000000D03*
X97500000Y-90000000D03*
X97500000Y-88000000D03*
X97500000Y-86000000D03*
X97500000Y-92000000D03*
D20*
X96519000Y-93672000D03*
X94487000Y-96212000D03*
D19*
X97500000Y-65000000D03*
X97500000Y-63000000D03*
X97500000Y-61000000D03*
X97500000Y-67000000D03*
D20*
X96519000Y-68672000D03*
X94487000Y-71212000D03*
X71519000Y-93672000D03*
X69487000Y-96212000D03*
X71519000Y-68672000D03*
X69487000Y-71212000D03*
D21*
X178882100Y-78504700D03*
X177860100Y-70792100D03*
X169182800Y-124909400D03*
X171513000Y-76776300D03*
X163583100Y-124909400D03*
X171579700Y-79865200D03*
X164049600Y-127885800D03*
X139490500Y-92986100D03*
X154860500Y-131687500D03*
X139251100Y-115208600D03*
X139490500Y-67490800D03*
X77447300Y-128354200D03*
X81132000Y-138878900D03*
X180726400Y-70086400D03*
X177912900Y-83059700D03*
X173604600Y-74169100D03*
X172627700Y-86090200D03*
X174322000Y-80690600D03*
X174322000Y-86944300D03*
X174096400Y-63548000D03*
X161921000Y-75520400D03*
X174388800Y-70795800D03*
X174388800Y-62493100D03*
X169182800Y-78843000D03*
X169182800Y-71663500D03*
X105623000Y-89444400D03*
X105622900Y-113556700D03*
X105623000Y-68039500D03*
X116041900Y-128678100D03*
X106543800Y-139045900D03*
X131892800Y-90249700D03*
X132137800Y-67480000D03*
X131892800Y-138860000D03*
X147360300Y-124409500D03*
X131892800Y-114554600D03*
X179881800Y-72013800D03*
X179894700Y-122561500D03*
X182744200Y-126244100D03*
X181625200Y-119722900D03*
X178541900Y-121799200D03*
X179889400Y-79014500D03*
X181350900Y-80427000D03*
X179345700Y-129413300D03*
X178619600Y-81116900D03*
X178542300Y-80163900D03*
X179499900Y-80010800D03*
D22*
X69442500Y-147695400D02*
X70502500Y-147695400D01*
X64446000Y-142698900D02*
X69442500Y-147695400D01*
X64446000Y-130863600D02*
X64446000Y-142698900D01*
X70005000Y-125304600D02*
X64446000Y-130863600D01*
X70005000Y-124000000D02*
X70005000Y-125304600D01*
X70502500Y-149000000D02*
X70502500Y-147695400D01*
X70005000Y-124000000D02*
X70005000Y-122695400D01*
X69500000Y-54500000D02*
X69500000Y-55804600D01*
X64399700Y-60904900D02*
X69500000Y-55804600D01*
X64399700Y-74552000D02*
X64399700Y-60904900D01*
X69347700Y-79500000D02*
X64399700Y-74552000D01*
X70000000Y-79500000D02*
X69347700Y-79500000D01*
X69434200Y-122695400D02*
X70005000Y-122695400D01*
X64464800Y-117726000D02*
X69434200Y-122695400D01*
X64464800Y-84382900D02*
X64464800Y-117726000D01*
X69347700Y-79500000D02*
X64464800Y-84382900D01*
X95500000Y-149000000D02*
X95500000Y-147695400D01*
X95002500Y-124000000D02*
X95002500Y-125304600D01*
X89304900Y-131002200D02*
X95002500Y-125304600D01*
X89304900Y-142641800D02*
X89304900Y-131002200D01*
X94358500Y-147695400D02*
X89304900Y-142641800D01*
X95500000Y-147695400D02*
X94358500Y-147695400D01*
X94995000Y-79500000D02*
X94995000Y-80804600D01*
X94505800Y-80804600D02*
X94995000Y-80804600D01*
X89302600Y-86007800D02*
X94505800Y-80804600D01*
X89302600Y-119604700D02*
X89302600Y-86007800D01*
X95002500Y-125304600D02*
X89302600Y-119604700D01*
X89407700Y-72608100D02*
X94995000Y-78195400D01*
X89407700Y-60907700D02*
X89407700Y-72608100D01*
X94510800Y-55804600D02*
X89407700Y-60907700D01*
X95000000Y-55804600D02*
X94510800Y-55804600D01*
X95000000Y-54500000D02*
X95000000Y-55804600D01*
X94995000Y-79500000D02*
X94995000Y-78195400D01*
X119997500Y-79500000D02*
X119997500Y-80804600D01*
X114488200Y-72686100D02*
X119997500Y-78195400D01*
X114488200Y-60909200D02*
X114488200Y-72686100D01*
X119592800Y-55804600D02*
X114488200Y-60909200D01*
X120000500Y-55804600D02*
X119592800Y-55804600D01*
X120000500Y-54500000D02*
X120000500Y-55804600D01*
X119997500Y-79500000D02*
X119997500Y-78195400D01*
X120502500Y-149000000D02*
X120502500Y-147695400D01*
X119442500Y-147695400D02*
X120502500Y-147695400D01*
X114446000Y-142698900D02*
X119442500Y-147695400D01*
X114446000Y-134114600D02*
X114446000Y-142698900D01*
X120002500Y-128558100D02*
X114446000Y-134114600D01*
X120002500Y-124000000D02*
X120002500Y-128558100D01*
X119671400Y-80804600D02*
X119997500Y-80804600D01*
X114502800Y-85973200D02*
X119671400Y-80804600D01*
X114502800Y-117684900D02*
X114502800Y-85973200D01*
X119513300Y-122695400D02*
X114502800Y-117684900D01*
X120002500Y-122695400D02*
X119513300Y-122695400D01*
X120002500Y-124000000D02*
X120002500Y-122695400D01*
X160000000Y-139497500D02*
X160000000Y-138192900D01*
X160000000Y-89497500D02*
X160000000Y-114000500D01*
X160000000Y-114000500D02*
X160000000Y-138192900D01*
X160000000Y-89497500D02*
X160000000Y-88192900D01*
X160000000Y-63997500D02*
X160000000Y-65302100D01*
X160114400Y-65416500D02*
X160000000Y-65302100D01*
X160114400Y-88078500D02*
X160114400Y-65416500D01*
X160000000Y-88192900D02*
X160114400Y-88078500D01*
X175820000Y-60770000D02*
X175820000Y-67270000D01*
X175820000Y-85770000D02*
X175820000Y-92270000D01*
X175820000Y-110770000D02*
X175820000Y-117270000D01*
X205740000Y-101600000D02*
X205740000Y-96520000D01*
X175820000Y-117270000D02*
X175820000Y-135770000D01*
X175820000Y-135770000D02*
X175820000Y-142270000D01*
X205740000Y-114722000D02*
X205740000Y-101600000D01*
X210921000Y-119903000D02*
X205740000Y-114722000D01*
X175820000Y-85770000D02*
X175820000Y-67270000D01*
X193040000Y-101600000D02*
X190500000Y-101600000D01*
X193040000Y-96520000D02*
X190500000Y-96520000D01*
X193040000Y-128648800D02*
X193040000Y-137160000D01*
X195435800Y-126253000D02*
X193040000Y-128648800D01*
X195945700Y-126253000D02*
X195435800Y-126253000D01*
X196756500Y-125442200D02*
X195945700Y-126253000D01*
X196756500Y-120978500D02*
X196756500Y-125442200D01*
X195681000Y-119903000D02*
X196756500Y-120978500D01*
X196824900Y-87604900D02*
X195580000Y-86360000D01*
X196824900Y-118759100D02*
X196824900Y-87604900D01*
X195681000Y-119903000D02*
X196824900Y-118759100D01*
X179057000Y-78329800D02*
X178882100Y-78504700D01*
X181174700Y-78329800D02*
X179057000Y-78329800D01*
X187960000Y-85115100D02*
X181174700Y-78329800D01*
X187960000Y-86360000D02*
X187960000Y-85115100D01*
X219685000Y-125755000D02*
X220980000Y-124460000D01*
X219685000Y-132995500D02*
X219685000Y-125755000D01*
X211381900Y-141298600D02*
X219685000Y-132995500D01*
X196756600Y-141298600D02*
X211381900Y-141298600D01*
X195681000Y-140223000D02*
X196756600Y-141298600D01*
X218464900Y-132679100D02*
X210921000Y-140223000D01*
X218464900Y-124435100D02*
X218464900Y-132679100D01*
X220980000Y-121920000D02*
X218464900Y-124435100D01*
X217873300Y-130730700D02*
X210921000Y-137683000D01*
X217873300Y-122486700D02*
X217873300Y-130730700D01*
X220980000Y-119380000D02*
X217873300Y-122486700D01*
X215777200Y-122042800D02*
X220980000Y-116840000D01*
X215777200Y-130286800D02*
X215777200Y-122042800D01*
X210921000Y-135143000D02*
X215777200Y-130286800D01*
X212991000Y-122289000D02*
X220980000Y-114300000D01*
X212991000Y-130533000D02*
X212991000Y-122289000D01*
X210921000Y-132603000D02*
X212991000Y-130533000D01*
X169182800Y-100834600D02*
X169182800Y-124909400D01*
X177127400Y-92890000D02*
X169182800Y-100834600D01*
X177127400Y-83816900D02*
X177127400Y-92890000D01*
X176770100Y-83459600D02*
X177127400Y-83816900D01*
X176770100Y-71882100D02*
X176770100Y-83459600D01*
X177860100Y-70792100D02*
X176770100Y-71882100D01*
X163583100Y-85438900D02*
X163583100Y-124909400D01*
X171513000Y-77509000D02*
X163583100Y-85438900D01*
X171513000Y-76776300D02*
X171513000Y-77509000D01*
X164310300Y-87134600D02*
X171579700Y-79865200D01*
X164310300Y-127625100D02*
X164310300Y-87134600D01*
X164049600Y-127885800D02*
X164310300Y-127625100D01*
X139490500Y-115208600D02*
X139251100Y-115208600D01*
X139490500Y-115208600D02*
X139490500Y-92986100D01*
X139490500Y-92986100D02*
X139490500Y-67490800D01*
X154860500Y-130916900D02*
X154860500Y-131687500D01*
X146364800Y-122421200D02*
X154860500Y-130916900D01*
X144235400Y-122421200D02*
X146364800Y-122421200D01*
X139490500Y-117676300D02*
X144235400Y-122421200D01*
X139490500Y-115208600D02*
X139490500Y-117676300D01*
X81132000Y-132038900D02*
X81132000Y-138878900D01*
X77447300Y-128354200D02*
X81132000Y-132038900D01*
X177831700Y-82978500D02*
X177912900Y-83059700D01*
X177831700Y-72981100D02*
X177831700Y-82978500D01*
X180726400Y-70086400D02*
X177831700Y-72981100D01*
X172627700Y-75146000D02*
X172627700Y-86090200D01*
X173604600Y-74169100D02*
X172627700Y-75146000D01*
X174322000Y-86944300D02*
X174322000Y-80690600D01*
X173893400Y-63548000D02*
X161921000Y-75520400D01*
X174096400Y-63548000D02*
X173893400Y-63548000D01*
X174776200Y-62880500D02*
X174388800Y-62493100D01*
X174776200Y-63829700D02*
X174776200Y-62880500D01*
X174388800Y-64217100D02*
X174776200Y-63829700D01*
X174388800Y-70795800D02*
X174388800Y-64217100D01*
X169182800Y-71663500D02*
X169182800Y-78843000D01*
X105622900Y-89444500D02*
X105623000Y-89444400D01*
X105622900Y-113556700D02*
X105622900Y-89444500D01*
X105623000Y-89444400D02*
X105623000Y-68039500D01*
X105622900Y-118259100D02*
X105622900Y-113556700D01*
X116041900Y-128678100D02*
X105622900Y-118259100D01*
X106543800Y-138176200D02*
X106543800Y-139045900D01*
X116041900Y-128678100D02*
X106543800Y-138176200D01*
X132137800Y-90004700D02*
X132137800Y-67480000D01*
X131892800Y-90249700D02*
X132137800Y-90004700D01*
X147360300Y-124409500D02*
X139296700Y-124409500D01*
X139296700Y-131456100D02*
X131892800Y-138860000D01*
X139296700Y-124409500D02*
X139296700Y-131456100D01*
X131892800Y-117005600D02*
X131892800Y-114554600D01*
X139296700Y-124409500D02*
X131892800Y-117005600D01*
X131892800Y-114554600D02*
X131892800Y-90249700D01*
X179881800Y-74962400D02*
X179881800Y-72013800D01*
X188431800Y-83512400D02*
X179881800Y-74962400D01*
X194520000Y-83512400D02*
X188431800Y-83512400D01*
X196850000Y-85842400D02*
X194520000Y-83512400D01*
X196850000Y-87054700D02*
X196850000Y-85842400D01*
X199390000Y-89594700D02*
X196850000Y-87054700D01*
X199390000Y-110356000D02*
X199390000Y-89594700D01*
X209853800Y-120819800D02*
X199390000Y-110356000D01*
X209853800Y-126455800D02*
X209853800Y-120819800D01*
X210921000Y-127523000D02*
X209853800Y-126455800D01*
X186690000Y-141967300D02*
X189865000Y-138792300D01*
X186690000Y-147320000D02*
X186690000Y-141967300D01*
X208405400Y-132578600D02*
X210921000Y-130063000D01*
X207718000Y-132578600D02*
X208405400Y-132578600D01*
X201504300Y-138792300D02*
X207718000Y-132578600D01*
X189865000Y-138792300D02*
X201504300Y-138792300D01*
X180068100Y-122561500D02*
X179894700Y-122561500D01*
X189865000Y-132358400D02*
X180068100Y-122561500D01*
X189865000Y-138792300D02*
X189865000Y-132358400D01*
X180320000Y-135770000D02*
X180320000Y-142270000D01*
X182744200Y-133345800D02*
X180320000Y-135770000D01*
X182744200Y-126244100D02*
X182744200Y-133345800D01*
X180320000Y-117270000D02*
X180320000Y-110770000D01*
X181625200Y-93575200D02*
X180320000Y-92270000D01*
X181625200Y-119722900D02*
X181625200Y-93575200D01*
X180320000Y-92270000D02*
X180320000Y-85770000D01*
X180320000Y-60770000D02*
X180320000Y-67270000D01*
X178541900Y-84656100D02*
X178541900Y-121799200D01*
X177207500Y-83321700D02*
X178541900Y-84656100D01*
X177207500Y-73010900D02*
X177207500Y-83321700D01*
X180014100Y-70204300D02*
X177207500Y-73010900D01*
X180014100Y-67575900D02*
X180014100Y-70204300D01*
X180320000Y-67270000D02*
X180014100Y-67575900D01*
X185698000Y-104840000D02*
X195681000Y-114823000D01*
X185698000Y-86712900D02*
X185698000Y-104840000D01*
X180179800Y-81194700D02*
X185698000Y-86712900D01*
X180179800Y-79304900D02*
X180179800Y-81194700D01*
X179889400Y-79014500D02*
X180179800Y-79304900D01*
X186308000Y-85384100D02*
X181350900Y-80427000D01*
X186308000Y-102910000D02*
X186308000Y-85384100D01*
X195681000Y-112283000D02*
X186308000Y-102910000D01*
X179123400Y-129191000D02*
X179345700Y-129413300D01*
X179123400Y-122363100D02*
X179123400Y-129191000D01*
X179221800Y-122264700D02*
X179123400Y-122363100D01*
X179221800Y-119971100D02*
X179221800Y-122264700D01*
X178948700Y-119698000D02*
X179221800Y-119971100D01*
X178948700Y-81689200D02*
X178948700Y-119698000D01*
X178619600Y-81360100D02*
X178948700Y-81689200D01*
X178619600Y-81116900D02*
X178619600Y-81360100D01*
X178628100Y-80163900D02*
X178542300Y-80163900D01*
X179299400Y-80835200D02*
X178628100Y-80163900D01*
X179299400Y-81464700D02*
X179299400Y-80835200D01*
X182066500Y-84231800D02*
X179299400Y-81464700D01*
X182066500Y-111368500D02*
X182066500Y-84231800D01*
X195681000Y-124983000D02*
X182066500Y-111368500D01*
X184867200Y-111629200D02*
X195681000Y-122443000D01*
X184867200Y-86457300D02*
X184867200Y-111629200D01*
X179706200Y-81296300D02*
X184867200Y-86457300D01*
X179706200Y-80217100D02*
X179706200Y-81296300D01*
X179499900Y-80010800D02*
X179706200Y-80217100D01*
X187960000Y-81280000D02*
X187960000Y-76200000D01*
X190500000Y-81280000D02*
X190500000Y-76200000D01*
X193040000Y-81280000D02*
X193040000Y-76200000D01*
X195580000Y-81280000D02*
X195580000Y-76200000D01*
X198120000Y-81280000D02*
X198120000Y-76200000D01*
X200660000Y-81280000D02*
X200660000Y-76200000D01*
X203200000Y-81280000D02*
X203200000Y-76200000D01*
X205740000Y-81280000D02*
X205740000Y-76200000D01*
X205740000Y-55880000D02*
X205740000Y-60960000D01*
X203200000Y-55880000D02*
X203200000Y-60960000D01*
X200660000Y-55880000D02*
X200660000Y-60960000D01*
X198120000Y-55880000D02*
X198120000Y-60960000D01*
X195580000Y-55880000D02*
X195580000Y-60960000D01*
X193040000Y-55880000D02*
X193040000Y-60960000D01*
X190500000Y-55880000D02*
X190500000Y-60960000D01*
X187960000Y-55880000D02*
X187960000Y-60960000D01*
X205740000Y-71120000D02*
X205740000Y-66040000D01*
X203200000Y-71120000D02*
X203200000Y-66040000D01*
X200660000Y-71120000D02*
X200660000Y-66040000D01*
X198120000Y-71120000D02*
X198120000Y-66040000D01*
X195580000Y-71120000D02*
X195580000Y-66040000D01*
X193040000Y-71120000D02*
X193040000Y-66040000D01*
X190500000Y-71120000D02*
X190500000Y-66040000D01*
X187960000Y-71120000D02*
X187960000Y-66040000D01*
M02*
