G04 #@! TF.FileFunction,Legend,Bot*
%FSLAX46Y46*%
G04 Gerber Fmt 4.6, Leading zero omitted, Abs format (unit mm)*
G04 Created by KiCad (PCBNEW 4.0.4-stable) date 11/18/16 13:20:27*
%MOMM*%
%LPD*%
G01*
G04 APERTURE LIST*
%ADD10C,0.100000*%
%ADD11C,0.150000*%
%ADD12C,0.203200*%
%ADD13C,0.032512*%
G04 APERTURE END LIST*
D10*
D11*
X70502540Y-141380000D02*
X70502540Y-140364000D01*
X70502540Y-146206000D02*
X70502540Y-147476000D01*
X71772540Y-145952000D02*
X69232540Y-145952000D01*
X71772540Y-145698000D02*
X69232540Y-145698000D01*
X71772540Y-145444000D02*
X69232540Y-145444000D01*
X71772540Y-146206000D02*
X69232540Y-146206000D01*
X71772540Y-145190000D02*
X69232540Y-146460000D01*
X71772540Y-146460000D02*
X69232540Y-145190000D01*
X71772540Y-145190000D02*
X69232540Y-145190000D01*
X71772540Y-145825000D02*
X69232540Y-145825000D01*
X69232540Y-146460000D02*
X71772540Y-146460000D01*
X71772540Y-146460000D02*
X71772540Y-141380000D01*
X71772540Y-141380000D02*
X69232540Y-141380000D01*
X69232540Y-141380000D02*
X69232540Y-146460000D01*
X70005040Y-116380000D02*
X70005040Y-115364000D01*
X70005040Y-121206000D02*
X70005040Y-122476000D01*
X71275040Y-120952000D02*
X68735040Y-120952000D01*
X71275040Y-120698000D02*
X68735040Y-120698000D01*
X71275040Y-120444000D02*
X68735040Y-120444000D01*
X71275040Y-121206000D02*
X68735040Y-121206000D01*
X71275040Y-120190000D02*
X68735040Y-121460000D01*
X71275040Y-121460000D02*
X68735040Y-120190000D01*
X71275040Y-120190000D02*
X68735040Y-120190000D01*
X71275040Y-120825000D02*
X68735040Y-120825000D01*
X68735040Y-121460000D02*
X71275040Y-121460000D01*
X71275040Y-121460000D02*
X71275040Y-116380000D01*
X71275040Y-116380000D02*
X68735040Y-116380000D01*
X68735040Y-116380000D02*
X68735040Y-121460000D01*
X69999960Y-87120000D02*
X69999960Y-88136000D01*
X69999960Y-82294000D02*
X69999960Y-81024000D01*
X68729960Y-82548000D02*
X71269960Y-82548000D01*
X68729960Y-82802000D02*
X71269960Y-82802000D01*
X68729960Y-83056000D02*
X71269960Y-83056000D01*
X68729960Y-82294000D02*
X71269960Y-82294000D01*
X68729960Y-83310000D02*
X71269960Y-82040000D01*
X68729960Y-82040000D02*
X71269960Y-83310000D01*
X68729960Y-83310000D02*
X71269960Y-83310000D01*
X68729960Y-82675000D02*
X71269960Y-82675000D01*
X71269960Y-82040000D02*
X68729960Y-82040000D01*
X68729960Y-82040000D02*
X68729960Y-87120000D01*
X68729960Y-87120000D02*
X71269960Y-87120000D01*
X71269960Y-87120000D02*
X71269960Y-82040000D01*
X69499960Y-62120000D02*
X69499960Y-63136000D01*
X69499960Y-57294000D02*
X69499960Y-56024000D01*
X68229960Y-57548000D02*
X70769960Y-57548000D01*
X68229960Y-57802000D02*
X70769960Y-57802000D01*
X68229960Y-58056000D02*
X70769960Y-58056000D01*
X68229960Y-57294000D02*
X70769960Y-57294000D01*
X68229960Y-58310000D02*
X70769960Y-57040000D01*
X68229960Y-57040000D02*
X70769960Y-58310000D01*
X68229960Y-58310000D02*
X70769960Y-58310000D01*
X68229960Y-57675000D02*
X70769960Y-57675000D01*
X70769960Y-57040000D02*
X68229960Y-57040000D01*
X68229960Y-57040000D02*
X68229960Y-62120000D01*
X68229960Y-62120000D02*
X70769960Y-62120000D01*
X70769960Y-62120000D02*
X70769960Y-57040000D01*
X95500040Y-141380000D02*
X95500040Y-140364000D01*
X95500040Y-146206000D02*
X95500040Y-147476000D01*
X96770040Y-145952000D02*
X94230040Y-145952000D01*
X96770040Y-145698000D02*
X94230040Y-145698000D01*
X96770040Y-145444000D02*
X94230040Y-145444000D01*
X96770040Y-146206000D02*
X94230040Y-146206000D01*
X96770040Y-145190000D02*
X94230040Y-146460000D01*
X96770040Y-146460000D02*
X94230040Y-145190000D01*
X96770040Y-145190000D02*
X94230040Y-145190000D01*
X96770040Y-145825000D02*
X94230040Y-145825000D01*
X94230040Y-146460000D02*
X96770040Y-146460000D01*
X96770040Y-146460000D02*
X96770040Y-141380000D01*
X96770040Y-141380000D02*
X94230040Y-141380000D01*
X94230040Y-141380000D02*
X94230040Y-146460000D01*
X95002540Y-116380000D02*
X95002540Y-115364000D01*
X95002540Y-121206000D02*
X95002540Y-122476000D01*
X96272540Y-120952000D02*
X93732540Y-120952000D01*
X96272540Y-120698000D02*
X93732540Y-120698000D01*
X96272540Y-120444000D02*
X93732540Y-120444000D01*
X96272540Y-121206000D02*
X93732540Y-121206000D01*
X96272540Y-120190000D02*
X93732540Y-121460000D01*
X96272540Y-121460000D02*
X93732540Y-120190000D01*
X96272540Y-120190000D02*
X93732540Y-120190000D01*
X96272540Y-120825000D02*
X93732540Y-120825000D01*
X93732540Y-121460000D02*
X96272540Y-121460000D01*
X96272540Y-121460000D02*
X96272540Y-116380000D01*
X96272540Y-116380000D02*
X93732540Y-116380000D01*
X93732540Y-116380000D02*
X93732540Y-121460000D01*
X94994960Y-87120000D02*
X94994960Y-88136000D01*
X94994960Y-82294000D02*
X94994960Y-81024000D01*
X93724960Y-82548000D02*
X96264960Y-82548000D01*
X93724960Y-82802000D02*
X96264960Y-82802000D01*
X93724960Y-83056000D02*
X96264960Y-83056000D01*
X93724960Y-82294000D02*
X96264960Y-82294000D01*
X93724960Y-83310000D02*
X96264960Y-82040000D01*
X93724960Y-82040000D02*
X96264960Y-83310000D01*
X93724960Y-83310000D02*
X96264960Y-83310000D01*
X93724960Y-82675000D02*
X96264960Y-82675000D01*
X96264960Y-82040000D02*
X93724960Y-82040000D01*
X93724960Y-82040000D02*
X93724960Y-87120000D01*
X93724960Y-87120000D02*
X96264960Y-87120000D01*
X96264960Y-87120000D02*
X96264960Y-82040000D01*
X94999960Y-62120000D02*
X94999960Y-63136000D01*
X94999960Y-57294000D02*
X94999960Y-56024000D01*
X93729960Y-57548000D02*
X96269960Y-57548000D01*
X93729960Y-57802000D02*
X96269960Y-57802000D01*
X93729960Y-58056000D02*
X96269960Y-58056000D01*
X93729960Y-57294000D02*
X96269960Y-57294000D01*
X93729960Y-58310000D02*
X96269960Y-57040000D01*
X93729960Y-57040000D02*
X96269960Y-58310000D01*
X93729960Y-58310000D02*
X96269960Y-58310000D01*
X93729960Y-57675000D02*
X96269960Y-57675000D01*
X96269960Y-57040000D02*
X93729960Y-57040000D01*
X93729960Y-57040000D02*
X93729960Y-62120000D01*
X93729960Y-62120000D02*
X96269960Y-62120000D01*
X96269960Y-62120000D02*
X96269960Y-57040000D01*
X120502540Y-141380000D02*
X120502540Y-140364000D01*
X120502540Y-146206000D02*
X120502540Y-147476000D01*
X121772540Y-145952000D02*
X119232540Y-145952000D01*
X121772540Y-145698000D02*
X119232540Y-145698000D01*
X121772540Y-145444000D02*
X119232540Y-145444000D01*
X121772540Y-146206000D02*
X119232540Y-146206000D01*
X121772540Y-145190000D02*
X119232540Y-146460000D01*
X121772540Y-146460000D02*
X119232540Y-145190000D01*
X121772540Y-145190000D02*
X119232540Y-145190000D01*
X121772540Y-145825000D02*
X119232540Y-145825000D01*
X119232540Y-146460000D02*
X121772540Y-146460000D01*
X121772540Y-146460000D02*
X121772540Y-141380000D01*
X121772540Y-141380000D02*
X119232540Y-141380000D01*
X119232540Y-141380000D02*
X119232540Y-146460000D01*
X120002540Y-116380000D02*
X120002540Y-115364000D01*
X120002540Y-121206000D02*
X120002540Y-122476000D01*
X121272540Y-120952000D02*
X118732540Y-120952000D01*
X121272540Y-120698000D02*
X118732540Y-120698000D01*
X121272540Y-120444000D02*
X118732540Y-120444000D01*
X121272540Y-121206000D02*
X118732540Y-121206000D01*
X121272540Y-120190000D02*
X118732540Y-121460000D01*
X121272540Y-121460000D02*
X118732540Y-120190000D01*
X121272540Y-120190000D02*
X118732540Y-120190000D01*
X121272540Y-120825000D02*
X118732540Y-120825000D01*
X118732540Y-121460000D02*
X121272540Y-121460000D01*
X121272540Y-121460000D02*
X121272540Y-116380000D01*
X121272540Y-116380000D02*
X118732540Y-116380000D01*
X118732540Y-116380000D02*
X118732540Y-121460000D01*
X119997460Y-87120000D02*
X119997460Y-88136000D01*
X119997460Y-82294000D02*
X119997460Y-81024000D01*
X118727460Y-82548000D02*
X121267460Y-82548000D01*
X118727460Y-82802000D02*
X121267460Y-82802000D01*
X118727460Y-83056000D02*
X121267460Y-83056000D01*
X118727460Y-82294000D02*
X121267460Y-82294000D01*
X118727460Y-83310000D02*
X121267460Y-82040000D01*
X118727460Y-82040000D02*
X121267460Y-83310000D01*
X118727460Y-83310000D02*
X121267460Y-83310000D01*
X118727460Y-82675000D02*
X121267460Y-82675000D01*
X121267460Y-82040000D02*
X118727460Y-82040000D01*
X118727460Y-82040000D02*
X118727460Y-87120000D01*
X118727460Y-87120000D02*
X121267460Y-87120000D01*
X121267460Y-87120000D02*
X121267460Y-82040000D01*
X120000460Y-62120000D02*
X120000460Y-63136000D01*
X120000460Y-57294000D02*
X120000460Y-56024000D01*
X118730460Y-57548000D02*
X121270460Y-57548000D01*
X118730460Y-57802000D02*
X121270460Y-57802000D01*
X118730460Y-58056000D02*
X121270460Y-58056000D01*
X118730460Y-57294000D02*
X121270460Y-57294000D01*
X118730460Y-58310000D02*
X121270460Y-57040000D01*
X118730460Y-57040000D02*
X121270460Y-58310000D01*
X118730460Y-58310000D02*
X121270460Y-58310000D01*
X118730460Y-57675000D02*
X121270460Y-57675000D01*
X121270460Y-57040000D02*
X118730460Y-57040000D01*
X118730460Y-57040000D02*
X118730460Y-62120000D01*
X118730460Y-62120000D02*
X121270460Y-62120000D01*
X121270460Y-62120000D02*
X121270460Y-57040000D01*
X152380000Y-139497460D02*
X151364000Y-139497460D01*
X157206000Y-139497460D02*
X158476000Y-139497460D01*
X156952000Y-138227460D02*
X156952000Y-140767460D01*
X156698000Y-138227460D02*
X156698000Y-140767460D01*
X156444000Y-138227460D02*
X156444000Y-140767460D01*
X157206000Y-138227460D02*
X157206000Y-140767460D01*
X156190000Y-138227460D02*
X157460000Y-140767460D01*
X157460000Y-138227460D02*
X156190000Y-140767460D01*
X156190000Y-138227460D02*
X156190000Y-140767460D01*
X156825000Y-138227460D02*
X156825000Y-140767460D01*
X157460000Y-140767460D02*
X157460000Y-138227460D01*
X157460000Y-138227460D02*
X152380000Y-138227460D01*
X152380000Y-138227460D02*
X152380000Y-140767460D01*
X152380000Y-140767460D02*
X157460000Y-140767460D01*
X152380000Y-114000460D02*
X151364000Y-114000460D01*
X157206000Y-114000460D02*
X158476000Y-114000460D01*
X156952000Y-112730460D02*
X156952000Y-115270460D01*
X156698000Y-112730460D02*
X156698000Y-115270460D01*
X156444000Y-112730460D02*
X156444000Y-115270460D01*
X157206000Y-112730460D02*
X157206000Y-115270460D01*
X156190000Y-112730460D02*
X157460000Y-115270460D01*
X157460000Y-112730460D02*
X156190000Y-115270460D01*
X156190000Y-112730460D02*
X156190000Y-115270460D01*
X156825000Y-112730460D02*
X156825000Y-115270460D01*
X157460000Y-115270460D02*
X157460000Y-112730460D01*
X157460000Y-112730460D02*
X152380000Y-112730460D01*
X152380000Y-112730460D02*
X152380000Y-115270460D01*
X152380000Y-115270460D02*
X157460000Y-115270460D01*
X152380000Y-89497460D02*
X151364000Y-89497460D01*
X157206000Y-89497460D02*
X158476000Y-89497460D01*
X156952000Y-88227460D02*
X156952000Y-90767460D01*
X156698000Y-88227460D02*
X156698000Y-90767460D01*
X156444000Y-88227460D02*
X156444000Y-90767460D01*
X157206000Y-88227460D02*
X157206000Y-90767460D01*
X156190000Y-88227460D02*
X157460000Y-90767460D01*
X157460000Y-88227460D02*
X156190000Y-90767460D01*
X156190000Y-88227460D02*
X156190000Y-90767460D01*
X156825000Y-88227460D02*
X156825000Y-90767460D01*
X157460000Y-90767460D02*
X157460000Y-88227460D01*
X157460000Y-88227460D02*
X152380000Y-88227460D01*
X152380000Y-88227460D02*
X152380000Y-90767460D01*
X152380000Y-90767460D02*
X157460000Y-90767460D01*
X152380000Y-63997460D02*
X151364000Y-63997460D01*
X157206000Y-63997460D02*
X158476000Y-63997460D01*
X156952000Y-62727460D02*
X156952000Y-65267460D01*
X156698000Y-62727460D02*
X156698000Y-65267460D01*
X156444000Y-62727460D02*
X156444000Y-65267460D01*
X157206000Y-62727460D02*
X157206000Y-65267460D01*
X156190000Y-62727460D02*
X157460000Y-65267460D01*
X157460000Y-62727460D02*
X156190000Y-65267460D01*
X156190000Y-62727460D02*
X156190000Y-65267460D01*
X156825000Y-62727460D02*
X156825000Y-65267460D01*
X157460000Y-65267460D02*
X157460000Y-62727460D01*
X157460000Y-62727460D02*
X152380000Y-62727460D01*
X152380000Y-62727460D02*
X152380000Y-65267460D01*
X152380000Y-65267460D02*
X157460000Y-65267460D01*
D12*
X180250000Y-71850000D02*
X176250000Y-71850000D01*
X176250000Y-79650000D02*
X180250000Y-79650000D01*
X179851100Y-72594000D02*
G75*
G03X179851100Y-72594000I-223100J0D01*
G01*
X180250000Y-122350000D02*
X176250000Y-122350000D01*
X176250000Y-130150000D02*
X180250000Y-130150000D01*
X179851100Y-123094000D02*
G75*
G03X179851100Y-123094000I-223100J0D01*
G01*
D11*
X68414921Y-142874565D02*
X67414921Y-142874565D01*
X67414921Y-143112660D01*
X67462540Y-143255518D01*
X67557778Y-143350756D01*
X67653016Y-143398375D01*
X67843492Y-143445994D01*
X67986350Y-143445994D01*
X68176826Y-143398375D01*
X68272064Y-143350756D01*
X68367302Y-143255518D01*
X68414921Y-143112660D01*
X68414921Y-142874565D01*
X68414921Y-144398375D02*
X68414921Y-143826946D01*
X68414921Y-144112660D02*
X67414921Y-144112660D01*
X67557778Y-144017422D01*
X67653016Y-143922184D01*
X67700635Y-143826946D01*
X67917421Y-117874565D02*
X66917421Y-117874565D01*
X66917421Y-118112660D01*
X66965040Y-118255518D01*
X67060278Y-118350756D01*
X67155516Y-118398375D01*
X67345992Y-118445994D01*
X67488850Y-118445994D01*
X67679326Y-118398375D01*
X67774564Y-118350756D01*
X67869802Y-118255518D01*
X67917421Y-118112660D01*
X67917421Y-117874565D01*
X67012659Y-118826946D02*
X66965040Y-118874565D01*
X66917421Y-118969803D01*
X66917421Y-119207899D01*
X66965040Y-119303137D01*
X67012659Y-119350756D01*
X67107897Y-119398375D01*
X67203135Y-119398375D01*
X67345992Y-119350756D01*
X67917421Y-118779327D01*
X67917421Y-119398375D01*
X72992341Y-84149245D02*
X71992341Y-84149245D01*
X71992341Y-84387340D01*
X72039960Y-84530198D01*
X72135198Y-84625436D01*
X72230436Y-84673055D01*
X72420912Y-84720674D01*
X72563770Y-84720674D01*
X72754246Y-84673055D01*
X72849484Y-84625436D01*
X72944722Y-84530198D01*
X72992341Y-84387340D01*
X72992341Y-84149245D01*
X71992341Y-85054007D02*
X71992341Y-85673055D01*
X72373293Y-85339721D01*
X72373293Y-85482579D01*
X72420912Y-85577817D01*
X72468531Y-85625436D01*
X72563770Y-85673055D01*
X72801865Y-85673055D01*
X72897103Y-85625436D01*
X72944722Y-85577817D01*
X72992341Y-85482579D01*
X72992341Y-85196864D01*
X72944722Y-85101626D01*
X72897103Y-85054007D01*
X72492341Y-59149245D02*
X71492341Y-59149245D01*
X71492341Y-59387340D01*
X71539960Y-59530198D01*
X71635198Y-59625436D01*
X71730436Y-59673055D01*
X71920912Y-59720674D01*
X72063770Y-59720674D01*
X72254246Y-59673055D01*
X72349484Y-59625436D01*
X72444722Y-59530198D01*
X72492341Y-59387340D01*
X72492341Y-59149245D01*
X71825674Y-60577817D02*
X72492341Y-60577817D01*
X71444722Y-60339721D02*
X72159008Y-60101626D01*
X72159008Y-60720674D01*
X93412421Y-142874565D02*
X92412421Y-142874565D01*
X92412421Y-143112660D01*
X92460040Y-143255518D01*
X92555278Y-143350756D01*
X92650516Y-143398375D01*
X92840992Y-143445994D01*
X92983850Y-143445994D01*
X93174326Y-143398375D01*
X93269564Y-143350756D01*
X93364802Y-143255518D01*
X93412421Y-143112660D01*
X93412421Y-142874565D01*
X92412421Y-144350756D02*
X92412421Y-143874565D01*
X92888611Y-143826946D01*
X92840992Y-143874565D01*
X92793373Y-143969803D01*
X92793373Y-144207899D01*
X92840992Y-144303137D01*
X92888611Y-144350756D01*
X92983850Y-144398375D01*
X93221945Y-144398375D01*
X93317183Y-144350756D01*
X93364802Y-144303137D01*
X93412421Y-144207899D01*
X93412421Y-143969803D01*
X93364802Y-143874565D01*
X93317183Y-143826946D01*
X92914921Y-117874565D02*
X91914921Y-117874565D01*
X91914921Y-118112660D01*
X91962540Y-118255518D01*
X92057778Y-118350756D01*
X92153016Y-118398375D01*
X92343492Y-118445994D01*
X92486350Y-118445994D01*
X92676826Y-118398375D01*
X92772064Y-118350756D01*
X92867302Y-118255518D01*
X92914921Y-118112660D01*
X92914921Y-117874565D01*
X91914921Y-119303137D02*
X91914921Y-119112660D01*
X91962540Y-119017422D01*
X92010159Y-118969803D01*
X92153016Y-118874565D01*
X92343492Y-118826946D01*
X92724445Y-118826946D01*
X92819683Y-118874565D01*
X92867302Y-118922184D01*
X92914921Y-119017422D01*
X92914921Y-119207899D01*
X92867302Y-119303137D01*
X92819683Y-119350756D01*
X92724445Y-119398375D01*
X92486350Y-119398375D01*
X92391111Y-119350756D01*
X92343492Y-119303137D01*
X92295873Y-119207899D01*
X92295873Y-119017422D01*
X92343492Y-118922184D01*
X92391111Y-118874565D01*
X92486350Y-118826946D01*
X97987341Y-84149245D02*
X96987341Y-84149245D01*
X96987341Y-84387340D01*
X97034960Y-84530198D01*
X97130198Y-84625436D01*
X97225436Y-84673055D01*
X97415912Y-84720674D01*
X97558770Y-84720674D01*
X97749246Y-84673055D01*
X97844484Y-84625436D01*
X97939722Y-84530198D01*
X97987341Y-84387340D01*
X97987341Y-84149245D01*
X96987341Y-85054007D02*
X96987341Y-85720674D01*
X97987341Y-85292102D01*
X97992341Y-59149245D02*
X96992341Y-59149245D01*
X96992341Y-59387340D01*
X97039960Y-59530198D01*
X97135198Y-59625436D01*
X97230436Y-59673055D01*
X97420912Y-59720674D01*
X97563770Y-59720674D01*
X97754246Y-59673055D01*
X97849484Y-59625436D01*
X97944722Y-59530198D01*
X97992341Y-59387340D01*
X97992341Y-59149245D01*
X97420912Y-60292102D02*
X97373293Y-60196864D01*
X97325674Y-60149245D01*
X97230436Y-60101626D01*
X97182817Y-60101626D01*
X97087579Y-60149245D01*
X97039960Y-60196864D01*
X96992341Y-60292102D01*
X96992341Y-60482579D01*
X97039960Y-60577817D01*
X97087579Y-60625436D01*
X97182817Y-60673055D01*
X97230436Y-60673055D01*
X97325674Y-60625436D01*
X97373293Y-60577817D01*
X97420912Y-60482579D01*
X97420912Y-60292102D01*
X97468531Y-60196864D01*
X97516150Y-60149245D01*
X97611389Y-60101626D01*
X97801865Y-60101626D01*
X97897103Y-60149245D01*
X97944722Y-60196864D01*
X97992341Y-60292102D01*
X97992341Y-60482579D01*
X97944722Y-60577817D01*
X97897103Y-60625436D01*
X97801865Y-60673055D01*
X97611389Y-60673055D01*
X97516150Y-60625436D01*
X97468531Y-60577817D01*
X97420912Y-60482579D01*
X118414921Y-142874565D02*
X117414921Y-142874565D01*
X117414921Y-143112660D01*
X117462540Y-143255518D01*
X117557778Y-143350756D01*
X117653016Y-143398375D01*
X117843492Y-143445994D01*
X117986350Y-143445994D01*
X118176826Y-143398375D01*
X118272064Y-143350756D01*
X118367302Y-143255518D01*
X118414921Y-143112660D01*
X118414921Y-142874565D01*
X118414921Y-143922184D02*
X118414921Y-144112660D01*
X118367302Y-144207899D01*
X118319683Y-144255518D01*
X118176826Y-144350756D01*
X117986350Y-144398375D01*
X117605397Y-144398375D01*
X117510159Y-144350756D01*
X117462540Y-144303137D01*
X117414921Y-144207899D01*
X117414921Y-144017422D01*
X117462540Y-143922184D01*
X117510159Y-143874565D01*
X117605397Y-143826946D01*
X117843492Y-143826946D01*
X117938730Y-143874565D01*
X117986350Y-143922184D01*
X118033969Y-144017422D01*
X118033969Y-144207899D01*
X117986350Y-144303137D01*
X117938730Y-144350756D01*
X117843492Y-144398375D01*
X117914921Y-117398374D02*
X116914921Y-117398374D01*
X116914921Y-117636469D01*
X116962540Y-117779327D01*
X117057778Y-117874565D01*
X117153016Y-117922184D01*
X117343492Y-117969803D01*
X117486350Y-117969803D01*
X117676826Y-117922184D01*
X117772064Y-117874565D01*
X117867302Y-117779327D01*
X117914921Y-117636469D01*
X117914921Y-117398374D01*
X117914921Y-118922184D02*
X117914921Y-118350755D01*
X117914921Y-118636469D02*
X116914921Y-118636469D01*
X117057778Y-118541231D01*
X117153016Y-118445993D01*
X117200635Y-118350755D01*
X116914921Y-119541231D02*
X116914921Y-119636470D01*
X116962540Y-119731708D01*
X117010159Y-119779327D01*
X117105397Y-119826946D01*
X117295873Y-119874565D01*
X117533969Y-119874565D01*
X117724445Y-119826946D01*
X117819683Y-119779327D01*
X117867302Y-119731708D01*
X117914921Y-119636470D01*
X117914921Y-119541231D01*
X117867302Y-119445993D01*
X117819683Y-119398374D01*
X117724445Y-119350755D01*
X117533969Y-119303136D01*
X117295873Y-119303136D01*
X117105397Y-119350755D01*
X117010159Y-119398374D01*
X116962540Y-119445993D01*
X116914921Y-119541231D01*
X122989841Y-83673054D02*
X121989841Y-83673054D01*
X121989841Y-83911149D01*
X122037460Y-84054007D01*
X122132698Y-84149245D01*
X122227936Y-84196864D01*
X122418412Y-84244483D01*
X122561270Y-84244483D01*
X122751746Y-84196864D01*
X122846984Y-84149245D01*
X122942222Y-84054007D01*
X122989841Y-83911149D01*
X122989841Y-83673054D01*
X122989841Y-85196864D02*
X122989841Y-84625435D01*
X122989841Y-84911149D02*
X121989841Y-84911149D01*
X122132698Y-84815911D01*
X122227936Y-84720673D01*
X122275555Y-84625435D01*
X122989841Y-86149245D02*
X122989841Y-85577816D01*
X122989841Y-85863530D02*
X121989841Y-85863530D01*
X122132698Y-85768292D01*
X122227936Y-85673054D01*
X122275555Y-85577816D01*
X122992841Y-58673054D02*
X121992841Y-58673054D01*
X121992841Y-58911149D01*
X122040460Y-59054007D01*
X122135698Y-59149245D01*
X122230936Y-59196864D01*
X122421412Y-59244483D01*
X122564270Y-59244483D01*
X122754746Y-59196864D01*
X122849984Y-59149245D01*
X122945222Y-59054007D01*
X122992841Y-58911149D01*
X122992841Y-58673054D01*
X122992841Y-60196864D02*
X122992841Y-59625435D01*
X122992841Y-59911149D02*
X121992841Y-59911149D01*
X122135698Y-59815911D01*
X122230936Y-59720673D01*
X122278555Y-59625435D01*
X122088079Y-60577816D02*
X122040460Y-60625435D01*
X121992841Y-60720673D01*
X121992841Y-60958769D01*
X122040460Y-61054007D01*
X122088079Y-61101626D01*
X122183317Y-61149245D01*
X122278555Y-61149245D01*
X122421412Y-61101626D01*
X122992841Y-60530197D01*
X122992841Y-61149245D01*
X155826946Y-142489841D02*
X155826946Y-141489841D01*
X155588851Y-141489841D01*
X155445993Y-141537460D01*
X155350755Y-141632698D01*
X155303136Y-141727936D01*
X155255517Y-141918412D01*
X155255517Y-142061270D01*
X155303136Y-142251746D01*
X155350755Y-142346984D01*
X155445993Y-142442222D01*
X155588851Y-142489841D01*
X155826946Y-142489841D01*
X154303136Y-142489841D02*
X154874565Y-142489841D01*
X154588851Y-142489841D02*
X154588851Y-141489841D01*
X154684089Y-141632698D01*
X154779327Y-141727936D01*
X154874565Y-141775555D01*
X153969803Y-141489841D02*
X153350755Y-141489841D01*
X153684089Y-141870793D01*
X153541231Y-141870793D01*
X153445993Y-141918412D01*
X153398374Y-141966031D01*
X153350755Y-142061270D01*
X153350755Y-142299365D01*
X153398374Y-142394603D01*
X153445993Y-142442222D01*
X153541231Y-142489841D01*
X153826946Y-142489841D01*
X153922184Y-142442222D01*
X153969803Y-142394603D01*
X155826946Y-116992841D02*
X155826946Y-115992841D01*
X155588851Y-115992841D01*
X155445993Y-116040460D01*
X155350755Y-116135698D01*
X155303136Y-116230936D01*
X155255517Y-116421412D01*
X155255517Y-116564270D01*
X155303136Y-116754746D01*
X155350755Y-116849984D01*
X155445993Y-116945222D01*
X155588851Y-116992841D01*
X155826946Y-116992841D01*
X154303136Y-116992841D02*
X154874565Y-116992841D01*
X154588851Y-116992841D02*
X154588851Y-115992841D01*
X154684089Y-116135698D01*
X154779327Y-116230936D01*
X154874565Y-116278555D01*
X153445993Y-116326174D02*
X153445993Y-116992841D01*
X153684089Y-115945222D02*
X153922184Y-116659508D01*
X153303136Y-116659508D01*
X155826946Y-92489841D02*
X155826946Y-91489841D01*
X155588851Y-91489841D01*
X155445993Y-91537460D01*
X155350755Y-91632698D01*
X155303136Y-91727936D01*
X155255517Y-91918412D01*
X155255517Y-92061270D01*
X155303136Y-92251746D01*
X155350755Y-92346984D01*
X155445993Y-92442222D01*
X155588851Y-92489841D01*
X155826946Y-92489841D01*
X154303136Y-92489841D02*
X154874565Y-92489841D01*
X154588851Y-92489841D02*
X154588851Y-91489841D01*
X154684089Y-91632698D01*
X154779327Y-91727936D01*
X154874565Y-91775555D01*
X153398374Y-91489841D02*
X153874565Y-91489841D01*
X153922184Y-91966031D01*
X153874565Y-91918412D01*
X153779327Y-91870793D01*
X153541231Y-91870793D01*
X153445993Y-91918412D01*
X153398374Y-91966031D01*
X153350755Y-92061270D01*
X153350755Y-92299365D01*
X153398374Y-92394603D01*
X153445993Y-92442222D01*
X153541231Y-92489841D01*
X153779327Y-92489841D01*
X153874565Y-92442222D01*
X153922184Y-92394603D01*
X155826946Y-66989841D02*
X155826946Y-65989841D01*
X155588851Y-65989841D01*
X155445993Y-66037460D01*
X155350755Y-66132698D01*
X155303136Y-66227936D01*
X155255517Y-66418412D01*
X155255517Y-66561270D01*
X155303136Y-66751746D01*
X155350755Y-66846984D01*
X155445993Y-66942222D01*
X155588851Y-66989841D01*
X155826946Y-66989841D01*
X154303136Y-66989841D02*
X154874565Y-66989841D01*
X154588851Y-66989841D02*
X154588851Y-65989841D01*
X154684089Y-66132698D01*
X154779327Y-66227936D01*
X154874565Y-66275555D01*
X153445993Y-65989841D02*
X153636470Y-65989841D01*
X153731708Y-66037460D01*
X153779327Y-66085079D01*
X153874565Y-66227936D01*
X153922184Y-66418412D01*
X153922184Y-66799365D01*
X153874565Y-66894603D01*
X153826946Y-66942222D01*
X153731708Y-66989841D01*
X153541231Y-66989841D01*
X153445993Y-66942222D01*
X153398374Y-66894603D01*
X153350755Y-66799365D01*
X153350755Y-66561270D01*
X153398374Y-66466031D01*
X153445993Y-66418412D01*
X153541231Y-66370793D01*
X153731708Y-66370793D01*
X153826946Y-66418412D01*
X153874565Y-66466031D01*
X153922184Y-66561270D01*
D13*
X180168076Y-71175535D02*
X180168076Y-71488076D01*
X180149691Y-71524846D01*
X180131307Y-71543230D01*
X180094537Y-71561615D01*
X180020998Y-71561615D01*
X179984229Y-71543230D01*
X179965844Y-71524846D01*
X179947459Y-71488076D01*
X179947459Y-71175535D01*
X179781996Y-71212305D02*
X179763611Y-71193920D01*
X179726842Y-71175535D01*
X179634918Y-71175535D01*
X179598148Y-71193920D01*
X179579764Y-71212305D01*
X179561379Y-71249074D01*
X179561379Y-71285844D01*
X179579764Y-71340998D01*
X179800381Y-71561615D01*
X179561379Y-71561615D01*
X179947459Y-80294846D02*
X179965844Y-80313230D01*
X180020998Y-80331615D01*
X180057768Y-80331615D01*
X180112922Y-80313230D01*
X180149691Y-80276461D01*
X180168076Y-80239691D01*
X180186461Y-80166152D01*
X180186461Y-80110998D01*
X180168076Y-80037459D01*
X180149691Y-80000690D01*
X180112922Y-79963920D01*
X180057768Y-79945535D01*
X180020998Y-79945535D01*
X179965844Y-79963920D01*
X179947459Y-79982305D01*
X179781996Y-80331615D02*
X179781996Y-79945535D01*
X179690072Y-79945535D01*
X179634918Y-79963920D01*
X179598149Y-80000690D01*
X179579764Y-80037459D01*
X179561379Y-80110998D01*
X179561379Y-80166152D01*
X179579764Y-80239691D01*
X179598149Y-80276461D01*
X179634918Y-80313230D01*
X179690072Y-80331615D01*
X179781996Y-80331615D01*
X179432686Y-79945535D02*
X179175299Y-79945535D01*
X179340762Y-80331615D01*
X178862758Y-80074229D02*
X178862758Y-80331615D01*
X178954682Y-79927150D02*
X179046606Y-80202922D01*
X178807604Y-80202922D01*
X178660526Y-80331615D02*
X178660526Y-79945535D01*
X178660526Y-80129383D02*
X178439909Y-80129383D01*
X178439909Y-80331615D02*
X178439909Y-79945535D01*
X178035444Y-80294846D02*
X178053829Y-80313230D01*
X178108983Y-80331615D01*
X178145753Y-80331615D01*
X178200907Y-80313230D01*
X178237676Y-80276461D01*
X178256061Y-80239691D01*
X178274446Y-80166152D01*
X178274446Y-80110998D01*
X178256061Y-80037459D01*
X178237676Y-80000690D01*
X178200907Y-79963920D01*
X178145753Y-79945535D01*
X178108983Y-79945535D01*
X178053829Y-79963920D01*
X178035444Y-79982305D01*
X177925135Y-79945535D02*
X177704518Y-79945535D01*
X177814827Y-80331615D02*
X177814827Y-79945535D01*
X177410362Y-80074229D02*
X177410362Y-80331615D01*
X177502286Y-79927150D02*
X177594210Y-80202922D01*
X177355208Y-80202922D01*
X177134591Y-79945535D02*
X177097822Y-79945535D01*
X177061052Y-79963920D01*
X177042667Y-79982305D01*
X177024283Y-80019074D01*
X177005898Y-80092613D01*
X177005898Y-80184537D01*
X177024283Y-80258076D01*
X177042667Y-80294846D01*
X177061052Y-80313230D01*
X177097822Y-80331615D01*
X177134591Y-80331615D01*
X177171361Y-80313230D01*
X177189745Y-80294846D01*
X177208130Y-80258076D01*
X177226515Y-80184537D01*
X177226515Y-80092613D01*
X177208130Y-80019074D01*
X177189745Y-79982305D01*
X177171361Y-79963920D01*
X177134591Y-79945535D01*
X176674972Y-79945535D02*
X176748511Y-79945535D01*
X176785281Y-79963920D01*
X176803666Y-79982305D01*
X176840435Y-80037459D01*
X176858820Y-80110998D01*
X176858820Y-80258076D01*
X176840435Y-80294846D01*
X176822050Y-80313230D01*
X176785281Y-80331615D01*
X176711742Y-80331615D01*
X176674972Y-80313230D01*
X176656588Y-80294846D01*
X176638203Y-80258076D01*
X176638203Y-80166152D01*
X176656588Y-80129383D01*
X176674972Y-80110998D01*
X176711742Y-80092613D01*
X176785281Y-80092613D01*
X176822050Y-80110998D01*
X176840435Y-80129383D01*
X176858820Y-80166152D01*
X176509510Y-79945535D02*
X176252123Y-79945535D01*
X176417586Y-80331615D01*
X180168076Y-121675535D02*
X180168076Y-121988076D01*
X180149691Y-122024846D01*
X180131307Y-122043230D01*
X180094537Y-122061615D01*
X180020998Y-122061615D01*
X179984229Y-122043230D01*
X179965844Y-122024846D01*
X179947459Y-121988076D01*
X179947459Y-121675535D01*
X179800381Y-121675535D02*
X179561379Y-121675535D01*
X179690072Y-121822613D01*
X179634918Y-121822613D01*
X179598148Y-121840998D01*
X179579764Y-121859383D01*
X179561379Y-121896152D01*
X179561379Y-121988076D01*
X179579764Y-122024846D01*
X179598148Y-122043230D01*
X179634918Y-122061615D01*
X179745226Y-122061615D01*
X179781996Y-122043230D01*
X179800381Y-122024846D01*
X179947459Y-130794846D02*
X179965844Y-130813230D01*
X180020998Y-130831615D01*
X180057768Y-130831615D01*
X180112922Y-130813230D01*
X180149691Y-130776461D01*
X180168076Y-130739691D01*
X180186461Y-130666152D01*
X180186461Y-130610998D01*
X180168076Y-130537459D01*
X180149691Y-130500690D01*
X180112922Y-130463920D01*
X180057768Y-130445535D01*
X180020998Y-130445535D01*
X179965844Y-130463920D01*
X179947459Y-130482305D01*
X179781996Y-130831615D02*
X179781996Y-130445535D01*
X179690072Y-130445535D01*
X179634918Y-130463920D01*
X179598149Y-130500690D01*
X179579764Y-130537459D01*
X179561379Y-130610998D01*
X179561379Y-130666152D01*
X179579764Y-130739691D01*
X179598149Y-130776461D01*
X179634918Y-130813230D01*
X179690072Y-130831615D01*
X179781996Y-130831615D01*
X179432686Y-130445535D02*
X179175299Y-130445535D01*
X179340762Y-130831615D01*
X178862758Y-130574229D02*
X178862758Y-130831615D01*
X178954682Y-130427150D02*
X179046606Y-130702922D01*
X178807604Y-130702922D01*
X178660526Y-130831615D02*
X178660526Y-130445535D01*
X178660526Y-130629383D02*
X178439909Y-130629383D01*
X178439909Y-130831615D02*
X178439909Y-130445535D01*
X178035444Y-130794846D02*
X178053829Y-130813230D01*
X178108983Y-130831615D01*
X178145753Y-130831615D01*
X178200907Y-130813230D01*
X178237676Y-130776461D01*
X178256061Y-130739691D01*
X178274446Y-130666152D01*
X178274446Y-130610998D01*
X178256061Y-130537459D01*
X178237676Y-130500690D01*
X178200907Y-130463920D01*
X178145753Y-130445535D01*
X178108983Y-130445535D01*
X178053829Y-130463920D01*
X178035444Y-130482305D01*
X177925135Y-130445535D02*
X177704518Y-130445535D01*
X177814827Y-130831615D02*
X177814827Y-130445535D01*
X177410362Y-130574229D02*
X177410362Y-130831615D01*
X177502286Y-130427150D02*
X177594210Y-130702922D01*
X177355208Y-130702922D01*
X177134591Y-130445535D02*
X177097822Y-130445535D01*
X177061052Y-130463920D01*
X177042667Y-130482305D01*
X177024283Y-130519074D01*
X177005898Y-130592613D01*
X177005898Y-130684537D01*
X177024283Y-130758076D01*
X177042667Y-130794846D01*
X177061052Y-130813230D01*
X177097822Y-130831615D01*
X177134591Y-130831615D01*
X177171361Y-130813230D01*
X177189745Y-130794846D01*
X177208130Y-130758076D01*
X177226515Y-130684537D01*
X177226515Y-130592613D01*
X177208130Y-130519074D01*
X177189745Y-130482305D01*
X177171361Y-130463920D01*
X177134591Y-130445535D01*
X176674972Y-130445535D02*
X176748511Y-130445535D01*
X176785281Y-130463920D01*
X176803666Y-130482305D01*
X176840435Y-130537459D01*
X176858820Y-130610998D01*
X176858820Y-130758076D01*
X176840435Y-130794846D01*
X176822050Y-130813230D01*
X176785281Y-130831615D01*
X176711742Y-130831615D01*
X176674972Y-130813230D01*
X176656588Y-130794846D01*
X176638203Y-130758076D01*
X176638203Y-130666152D01*
X176656588Y-130629383D01*
X176674972Y-130610998D01*
X176711742Y-130592613D01*
X176785281Y-130592613D01*
X176822050Y-130610998D01*
X176840435Y-130629383D01*
X176858820Y-130666152D01*
X176509510Y-130445535D02*
X176252123Y-130445535D01*
X176417586Y-130831615D01*
M02*
