M48
INCH,TZ
T1C0.020
T2C0.020
T3C0.024
T4C0.030
T5C0.039
T6C0.039
T7C0.040
T8C0.043
T9C0.050
%
G90
G05
T1
X30491Y-50533
X31942Y-54677
X41584Y-44707
X41584Y-26787
X41584Y-35214
X41946Y-54742
X45686Y-50661
X51926Y-35531
X51926Y-45100
X51926Y-54669
X52023Y-26567
X54823Y-45358
X54918Y-26571
X54918Y-36609
X58016Y-48980
X60969Y-51845
X63748Y-29732
X64403Y-49177
X64586Y-50349
X66607Y-28214
X66607Y-31041
X66607Y-49177
X67525Y-30227
X67551Y-31443
X67964Y-33894
X68348Y-29200
X68542Y-25019
X68631Y-31768
X68631Y-34230
X68657Y-24604
X68657Y-27872
X70024Y-27871
X70044Y-32701
X70292Y-47952
X70292Y-31561
X70323Y-31936
X70426Y-30907
X70609Y-50950
X70669Y-31500
X70820Y-28352
X70823Y-31108
X70825Y-48253
X71152Y-27593
X71398Y-31664
X71506Y-47135
X71947Y-49702
T2
X27357Y-28036
X27357Y-37879
X27357Y-47721
X27357Y-57564
X28157Y-27036
X28157Y-36879
X28157Y-46721
X28157Y-56564
X37200Y-28036
X37200Y-37879
X37200Y-47721
X37200Y-57564
X38000Y-27036
X38000Y-36879
X38000Y-46721
X38000Y-56564
X47042Y-28036
X47042Y-37879
X47042Y-47721
X47042Y-57564
X47842Y-27036
X47842Y-36879
X47842Y-46721
X47842Y-56564
X56885Y-28036
X56885Y-37879
X56885Y-47721
X56885Y-57564
X57685Y-27036
X57685Y-36879
X57685Y-46721
X57685Y-56564
T3
X81890Y-47656
X81890Y-48656
X81890Y-51756
X81890Y-52756
T4
X77040Y-44206
X77040Y-45206
X77040Y-46206
X77040Y-47206
X77040Y-48206
X77040Y-49206
X77040Y-50206
X77040Y-51206
X77040Y-52206
X77040Y-53206
X77040Y-54206
X77040Y-55206
X83040Y-44206
X83040Y-45206
X83040Y-46206
X83040Y-47206
X83040Y-48206
X83040Y-49206
X83040Y-50206
X83040Y-51206
X83040Y-52206
X83040Y-53206
X83040Y-54206
X83040Y-55206
T5
X28543Y-24016
X28543Y-24803
X28543Y-25591
X28543Y-26378
X28543Y-33858
X28543Y-34646
X28543Y-35433
X28543Y-36220
X28543Y-43701
X28543Y-44488
X28543Y-45276
X28543Y-46063
X28543Y-53543
X28543Y-54331
X28543Y-55118
X28543Y-55906
X38386Y-24016
X38386Y-24803
X38386Y-25591
X38386Y-26378
X38386Y-33858
X38386Y-34646
X38386Y-35433
X38386Y-36220
X38386Y-43701
X38386Y-44488
X38386Y-45276
X38386Y-46063
X38386Y-53543
X38386Y-54331
X38386Y-55118
X38386Y-55906
X48228Y-24016
X48228Y-24803
X48228Y-25591
X48228Y-26378
X48228Y-33858
X48228Y-34646
X48228Y-35433
X48228Y-36220
X48228Y-43701
X48228Y-44488
X48228Y-45276
X48228Y-46063
X48228Y-53543
X48228Y-54331
X48228Y-55118
X48228Y-55906
X58071Y-24016
X58071Y-24803
X58071Y-25591
X58071Y-26378
X58071Y-33858
X58071Y-34646
X58071Y-35433
X58071Y-36220
X58071Y-43701
X58071Y-44488
X58071Y-45276
X58071Y-46063
X58071Y-53543
X58071Y-54331
X58071Y-55118
X58071Y-55906
T6
X27362Y-21457
X27559Y-31299
X27561Y-48819
X27757Y-58661
X37400Y-31299
X37402Y-21457
X37403Y-48819
X37598Y-58661
X47243Y-31299
X47244Y-21457
X47245Y-48819
X47442Y-58661
X62992Y-25196
X62992Y-35235
X62992Y-44882
X62992Y-54920
X73500Y-54000
X73500Y-58000
X76000Y-54000
X76000Y-58000
T7
X74000Y-22000
X74000Y-24000
X74000Y-26000
X74000Y-28000
X74000Y-30000
X74000Y-32000
X74000Y-34000
X74000Y-38000
X74000Y-40000
X75000Y-22000
X75000Y-24000
X75000Y-26000
X75000Y-28000
X75000Y-30000
X75000Y-32000
X75000Y-34000
X75000Y-38000
X75000Y-40000
X76000Y-22000
X76000Y-24000
X76000Y-26000
X76000Y-28000
X76000Y-30000
X76000Y-32000
X76000Y-34000
X76000Y-38000
X76000Y-40000
X77000Y-22000
X77000Y-24000
X77000Y-26000
X77000Y-28000
X77000Y-30000
X77000Y-32000
X77000Y-34000
X77000Y-38000
X77000Y-40000
X78000Y-22000
X78000Y-24000
X78000Y-26000
X78000Y-28000
X78000Y-30000
X78000Y-32000
X78000Y-34000
X78000Y-38000
X78000Y-40000
X79000Y-22000
X79000Y-24000
X79000Y-26000
X79000Y-28000
X79000Y-30000
X79000Y-32000
X79000Y-34000
X79000Y-38000
X79000Y-40000
X80000Y-22000
X80000Y-24000
X80000Y-26000
X80000Y-28000
X80000Y-30000
X80000Y-32000
X80000Y-34000
X80000Y-38000
X80000Y-40000
X81000Y-22000
X81000Y-24000
X81000Y-26000
X81000Y-28000
X81000Y-30000
X81000Y-32000
X81000Y-34000
X81000Y-38000
X81000Y-40000
X83000Y-22000
X83000Y-23000
X83000Y-24000
X83000Y-25000
X83000Y-26000
X83000Y-27000
X83000Y-28000
X83000Y-29000
X83000Y-30000
X83000Y-31000
X83000Y-32000
X83000Y-33000
X83000Y-34000
X83000Y-35000
X83000Y-36000
X83000Y-37000
X84000Y-22000
X84000Y-23000
X84000Y-24000
X84000Y-25000
X84000Y-26000
X84000Y-27000
X84000Y-28000
X84000Y-29000
X84000Y-30000
X84000Y-31000
X84000Y-32000
X84000Y-33000
X84000Y-34000
X84000Y-35000
X84000Y-36000
X84000Y-37000
X87000Y-22000
X87000Y-23000
X87000Y-24000
X87000Y-25000
X87000Y-26000
X87000Y-27000
X87000Y-28000
X87000Y-29000
X87000Y-30000
X87000Y-31000
X87000Y-32000
X87000Y-33000
X87000Y-34000
X87000Y-35000
X87000Y-36000
X87000Y-37000
X87000Y-43000
X87000Y-44000
X87000Y-45000
X87000Y-46000
X87000Y-47000
X87000Y-48000
X87000Y-49000
X87000Y-50000
X87000Y-51000
X87000Y-52000
X87000Y-53000
X87000Y-54000
X87000Y-55000
X87000Y-56000
X87000Y-57000
X87000Y-58000
X88000Y-22000
X88000Y-23000
X88000Y-24000
X88000Y-25000
X88000Y-26000
X88000Y-27000
X88000Y-28000
X88000Y-29000
X88000Y-30000
X88000Y-31000
X88000Y-32000
X88000Y-33000
X88000Y-34000
X88000Y-35000
X88000Y-36000
X88000Y-37000
T8
X69220Y-23925
X69220Y-26484
X69220Y-33768
X69220Y-36327
X69220Y-43610
X69220Y-46169
X69220Y-53453
X69220Y-56012
X70992Y-23925
X70992Y-26484
X70992Y-33768
X70992Y-36327
X70992Y-43610
X70992Y-46169
X70992Y-53453
X70992Y-56012
T9
X27362Y-25457
X27559Y-35299
X27561Y-44819
X27757Y-54661
X37400Y-35299
X37402Y-25457
X37403Y-44819
X37598Y-54661
X47243Y-35299
X47244Y-25457
X47245Y-44819
X47442Y-54661
X58992Y-25196
X58992Y-35235
X58992Y-44882
X58992Y-54920
T0
M30
