G04 #@! TF.FileFunction,Paste,Bot*
%FSLAX46Y46*%
G04 Gerber Fmt 4.6, Leading zero omitted, Abs format (unit mm)*
G04 Created by KiCad (PCBNEW 4.0.4-stable) date 11/18/16 13:20:27*
%MOMM*%
%LPD*%
G01*
G04 APERTURE LIST*
%ADD10C,0.100000*%
%ADD11R,1.650000X0.400000*%
%ADD12R,3.000000X4.320000*%
G04 APERTURE END LIST*
D10*
D11*
X175200000Y-72175000D03*
X175200000Y-72825000D03*
X175200000Y-73475000D03*
X175200000Y-74775000D03*
X175200000Y-74125000D03*
X175200000Y-75425000D03*
X175200000Y-76075000D03*
X175200000Y-76725000D03*
X175200000Y-77375000D03*
X175200000Y-78025000D03*
X181300000Y-72175000D03*
X181300000Y-72825000D03*
X181300000Y-73475000D03*
X181300000Y-74125000D03*
X181300000Y-74775000D03*
X181300000Y-75425000D03*
X181300000Y-76075000D03*
X181300000Y-76725000D03*
X181300000Y-77375000D03*
X181300000Y-78025000D03*
X181300000Y-78675000D03*
X181300000Y-79325000D03*
X175200000Y-79325000D03*
X175200000Y-78675000D03*
D12*
X178250000Y-75750000D03*
D11*
X175200000Y-122675000D03*
X175200000Y-123325000D03*
X175200000Y-123975000D03*
X175200000Y-125275000D03*
X175200000Y-124625000D03*
X175200000Y-125925000D03*
X175200000Y-126575000D03*
X175200000Y-127225000D03*
X175200000Y-127875000D03*
X175200000Y-128525000D03*
X181300000Y-122675000D03*
X181300000Y-123325000D03*
X181300000Y-123975000D03*
X181300000Y-124625000D03*
X181300000Y-125275000D03*
X181300000Y-125925000D03*
X181300000Y-126575000D03*
X181300000Y-127225000D03*
X181300000Y-127875000D03*
X181300000Y-128525000D03*
X181300000Y-129175000D03*
X181300000Y-129825000D03*
X175200000Y-129825000D03*
X175200000Y-129175000D03*
D12*
X178250000Y-126250000D03*
M02*
